<svg width="1440" height="810" viewBox="0 0 1440 810" fill="none" xmlns="http://www.w3.org/2000/svg">
<g clip-path="url(#clip0_1493_3081)">
<path opacity="0.1" d="M1879 480.381V811H719.5V463.889H724.939V337.622H722.387V330.978H786.373V337.622H783.774V423.797H787.301V374.74H814.677V478.29H831.427V440.243L852.678 426.538V366.796H876.435V262.874H895.088L933.832 298.831H943.251V307.518L951.371 315.09V397.968L970.72 415.017V482.982H977.494V432.578H974.942V429.233H977.494V329.074H974.942V325.682H993.178V310.398H997.586V325.682H1034.43V310.398H1038.84V325.682H1057.07V329.074H1054.84V429.233H1057.07V432.578H1054.84V482.982H1075.54V429.697H1100.5V310.491L1137.9 282.804L1175.3 310.491V341.942L1194.04 354.903V236.115H1218.26V216H1222.39V236.115H1245.13V312.721H1257.05V439.174H1307.21V293.814H1326.89V278.53H1341.83V262.177H1393.15V278.53H1408.09V293.814H1427.76V477.082H1461.21V465.004H1458.71V461.334H1461.21V402.753H1458.71V399.083H1461.21V340.688H1458.71V337.018H1465.07V318.621H1462.61V314.951H1504.37V318.621H1501.54V337.018H1523.39V340.688H1520.56V399.083H1523.39V402.753H1520.56V461.334H1523.39V465.004H1520.56V494.317H1534.53V439.174L1553.88 419.384V280.341H1564.13V269.982H1564.22L1577.45 256.37L1590.62 269.982V280.249H1600.88V475.178H1602.6V451.717H1621.53V436.898H1626.54V297.948H1631.32V293.953H1649V275.092H1653.12V293.953H1705.88V275.092H1710.01V293.953H1730.1V297.948H1734.88V421.8H1757.48V465.608H1780.03V323.22H1784.81V320.108H1857.19V323.22H1861.97V480.381H1879Z" fill="#A5C0E0"/>
<path opacity="0.1" d="M707.929 742.979V809.832H2108.42V605.125H2102.39V476.7H2104.98V469.943H2039.93V476.7H2042.57V564.348H2038.98V514.452H2011.15V619.772H1994.12V581.074L1972.51 567.136V506.373H1948.36V400.675H1929.4L1890.01 437.246H1880.43V446.082L1872.17 453.784V538.077L1852.5 555.418V624.544H1845.61V573.278H1848.21V569.876H1845.61V468.006H1848.21V464.557H1829.67V449.011H1825.19V464.557H1787.73V449.011H1783.25V464.557H1764.71V468.006H1766.97V569.876H1764.71V573.278H1766.97V624.544H1745.93V570.349H1720.55V449.106L1682.53 420.945L1644.51 449.106V481.094L1625.45 494.277V373.459H1600.83V353H1596.63V373.459H1573.51V451.374H1561.39V579.988H1510.39V432.143H1490.39V416.598H1475.2V399.966H1423.02V416.598H1407.83V432.143H1387.83V618.544H1353.82V606.259H1356.37V602.526H1353.82V542.944H1356.37V539.211H1353.82V479.818H1356.37V476.086H1349.9V457.375H1352.4V453.642H1309.95V457.375H1312.83V476.086H1290.61V479.818H1293.48V539.211H1290.61V542.944H1293.48V602.526H1290.61V606.259H1293.48V636.073H1279.28V579.988L1259.61 559.859V418.441H1249.19V407.904H1249.09L1235.65 394.06L1222.25 407.904V418.346H1211.82V616.606H1210.08V592.745H1190.83V577.672H1185.74V436.349H1180.88V432.285H1162.9V413.102H1158.71V432.285H1105.07V413.102H1100.87V432.285H1080.44V436.349H1075.58V562.316H1052.61V606.873H1029.68V462.052H1024.82V458.887H951.232V462.052H946.373V621.898H887.619V730.122H828.865V621.898L774.783 657.269V742.979H743.07H707.929Z" fill="#A5C0E0"/>
<path opacity="0.1" d="M696.191 478.016V461.494H687.977V435.434H681.613V425.944C681.613 417.604 675.437 410.712 667.409 409.592V409.281C667.409 399.09 659.116 390.813 648.941 390.813H648.335C638.144 390.813 629.867 399.106 629.867 409.281V442.715H620.844V407.18C620.844 404.862 619.599 402.84 617.747 401.72C619.91 401.082 621.481 399.09 621.481 396.725C621.481 393.847 619.148 391.513 616.269 391.513H612.084V386.659H605.597V391.513H601.411C598.533 391.513 596.199 393.847 596.199 396.725C596.199 399.09 597.786 401.082 599.933 401.72C598.082 402.84 596.853 404.862 596.853 407.18V442.715H588.078V410.059C588.078 408.363 586.693 406.978 584.998 406.978H578.743V373.559C578.743 367.445 573.765 362.467 567.65 362.467V361.984C567.65 352.976 560.354 345.679 551.346 345.679C542.337 345.679 535.041 352.976 535.041 361.984V461.478H526.826V467.188L517.304 260.094H506.927V231.763H511.47V224.56H506.927V213H499.304V224.56H494.761V231.763H499.304V260.094H488.926L478.938 477.581L484.617 477.721L485.239 478.016H473.026V401.735C473.026 394.812 467.41 389.211 460.502 389.211H458.23V380.047C458.23 376.095 455.025 372.89 451.074 372.89H435.796C431.844 372.89 428.639 376.095 428.639 380.047V435.761H426.71V421.027C426.71 415.846 422.509 411.63 417.313 411.63H416.208V408.939C416.208 404.987 413.003 401.782 409.051 401.782H401.801C397.849 401.782 394.644 404.987 394.644 408.939V435.761H326.578V433.551H327.807V423.89H326.578V413.715C326.578 412.237 326.236 410.837 325.629 409.592V369.732H327.807V360.071H325.629V312.852C325.629 309.165 322.626 306.177 318.954 306.177H309.013C305.325 306.177 302.338 309.18 302.338 312.852V317.877H300.814C297.235 317.877 294.341 320.771 294.341 324.349V345.897H280.666V355.559H294.341V388.355H280.666V398.032H294.341V404.193H159.748V369.748H161.927V360.086H159.748V312.867C159.748 309.18 156.761 306.193 153.074 306.193H143.132C139.445 306.193 136.458 309.196 136.458 312.867V317.893H134.933C131.355 317.893 128.461 320.786 128.461 324.365V345.913H114.801V355.574H128.461V388.371H114.801V398.048H128.461V404.209H124.198C118.94 404.209 114.661 408.487 114.661 413.746V435.807H108.018V378.787C108.018 371.397 81.0401 365.314 46.5789 364.66V359.837H49.8772C50.7485 359.837 51.4486 359.137 51.4486 358.266C51.4486 357.395 50.7485 356.695 49.8772 356.695H46.5789V355.512C46.5789 354.081 45.4276 352.929 43.9963 352.929H36.5751C35.1437 352.929 33.9924 354.081 33.9924 355.512V356.695H30.6942C29.8229 356.695 29.1227 357.395 29.1227 358.266C29.1227 359.137 29.8229 359.837 30.6942 359.837H33.9924V364.66C-0.468731 365.329 -27.4464 371.397 -27.4464 378.787V414.135H-40.6241V401.471C-40.6241 395.745 -61.5031 391.047 -88.1541 390.533V386.799H-85.6026C-84.9336 386.799 -84.389 386.255 -84.389 385.586C-84.389 384.917 -84.9336 384.372 -85.6026 384.372H-88.1541V383.454C-88.1541 382.35 -89.0409 381.463 -90.1611 381.463H-95.902C-97.0066 381.463 -97.8935 382.35 -97.8935 383.454V384.372H-100.445C-101.114 384.372 -101.659 384.917 -101.659 385.586C-101.659 386.255 -101.114 386.799 -100.445 386.799H-97.8935V390.533C-124.544 391.047 -145.423 395.745 -145.423 401.471V414.135H-160.297V389.958C-160.297 383.392 -184.272 377.994 -214.875 377.402V373.108H-211.934C-211.156 373.108 -210.534 372.486 -210.534 371.708C-210.534 370.93 -211.156 370.308 -211.934 370.308H-214.875V369.265C-214.875 368.005 -215.902 366.978 -217.162 366.978H-223.758C-225.019 366.978 -226.045 368.005 -226.045 369.265V370.308H-228.986C-229.764 370.308 -230.386 370.93 -230.386 371.708C-230.386 372.486 -229.764 373.108 -228.986 373.108H-226.045V377.402C-256.664 377.994 -280.623 383.392 -280.623 389.958V414.135H-284.046V412.175H-286.878V341.743H-284.046V329.172H-286.878V267.749C-286.878 262.957 -290.767 259.067 -295.559 259.067H-308.488C-313.28 259.067 -317.169 262.957 -317.169 267.749V274.299H-319.161C-323.812 274.299 -327.577 278.064 -327.577 282.716V310.72H-345.36V323.291H-327.577V365.936H-345.36V378.507H-327.577V414.119H-355.131V388.962H-353.248V380.592H-355.131V339.736C-355.131 336.547 -357.729 333.964 -360.903 333.964H-369.507C-372.696 333.964 -375.294 336.562 -375.294 339.736V344.092H-376.617C-379.713 344.092 -382.217 346.597 -382.217 349.693V368.332H-394.042V376.702H-382.217V405.08H-394.042V413.45H-382.217V414.135H-398.118V417.449H-398.18V414.135H-403.874V382.21H-401.852V373.248H-403.874V329.437C-403.874 326.014 -406.659 323.245 -410.066 323.245H-419.292C-422.715 323.245 -425.485 326.03 -425.485 329.437V334.104H-426.9C-430.214 334.104 -432.906 336.796 -432.906 340.11V360.086H-445.586V369.048H-432.906V399.464H-445.586V408.425H-432.906V414.104H-439.985V417.418H-440.047V414.104H-465.718V403.509C-465.718 396.585 -471.334 390.985 -478.242 390.985H-487.546C-494.469 390.985 -500.07 396.601 -500.07 403.509V414.104H-520.965V418.118L-521.027 418.211L-520.965 418.242V438.483L-521.027 438.514L-520.965 438.608V478.001H-551.77V820H719.5V480.599L696.176 478.001L696.191 478.016ZM325.613 361.066H326.796V366.309H325.613V361.066ZM283.855 352.12H281.646V346.877H283.855V352.12ZM287.06 352.12H284.851V346.877H287.06V352.12ZM290.265 352.12H288.056V346.877H290.265V352.12ZM283.84 394.578H281.63V389.335H283.84V394.578ZM287.045 394.578H284.835V389.335H287.045V394.578ZM290.25 394.578H288.04V389.335H290.25V394.578ZM159.686 361.051H160.869V366.294H159.686V361.051ZM117.928 352.105H115.719V346.862H117.928V352.105ZM121.133 352.105H118.924V346.862H121.133V352.105ZM124.338 352.105H122.129V346.862H124.338V352.105ZM117.928 394.563H115.719V389.32H117.928V394.563ZM121.133 394.563H118.924V389.32H121.133V394.563ZM124.338 394.563H122.129V389.32H124.338V394.563ZM-286.94 330.448H-285.4V337.262H-286.94V330.448ZM-341.237 318.826H-344.116V312.012H-341.237V318.826ZM-337.068 318.826H-339.946V312.012H-337.068V318.826ZM-332.898 318.826H-335.777V312.012H-332.898V318.826ZM-341.237 374.042H-344.116V367.227H-341.237V374.042ZM-337.068 374.042H-339.946V367.227H-337.068V374.042ZM-332.898 374.042H-335.777V367.227H-332.898V374.042ZM-355.193 381.447H-354.166V385.99H-355.193V381.447ZM-391.335 373.715H-393.248V369.172H-391.335V373.715ZM-388.565 373.715H-390.479V369.172H-388.565V373.715ZM-385.78 373.715H-387.694V369.172H-385.78V373.715ZM-391.335 410.463H-393.248V405.936H-391.335V410.463ZM-388.565 410.463H-390.479V405.936H-388.565V410.463ZM-385.78 410.463H-387.694V405.936H-385.78V410.463ZM-403.952 374.151H-402.863V379.02H-403.952V374.151ZM-442.692 365.858H-444.745V360.989H-442.692V365.858ZM-439.72 365.858H-441.774V360.989H-439.72V365.858ZM-436.749 365.858H-438.802V360.989H-436.749V365.858ZM-442.707 405.251H-444.761V400.382H-442.707V405.251ZM-439.736 405.251H-441.789V400.382H-439.736V405.251ZM-436.764 405.251H-438.818V400.382H-436.764V405.251ZM635.95 409.296C635.95 402.513 641.473 396.974 648.272 396.974H648.879C655.678 396.974 661.201 402.498 661.201 409.296V409.888C653.936 411.615 648.521 418.149 648.521 425.959V435.45H642.158V442.731H635.95V409.296ZM635.95 448.876H642.158V461.494H635.95V448.876ZM620.781 448.876H629.805V461.494H620.781V448.876ZM578.681 413.155H581.87V445.811C581.87 447.507 583.24 448.892 584.951 448.892H596.806V461.509H578.697V413.17L578.681 413.155ZM567.588 368.659C570.311 368.659 572.52 370.868 572.52 373.591V407.009H567.588V368.659ZM567.588 413.155H572.52V461.494H567.588V413.155ZM526.764 477.612V478.032H520.945L521.567 477.736L526.779 477.596L526.764 477.612ZM506.865 436.165H517.958L506.865 449.312V436.165ZM506.865 431.918V417.496L517.802 431.918H506.865ZM506.865 391.202H515.935L506.865 403.151V391.202ZM506.865 386.955V373.388L515.795 386.955H506.865ZM506.865 346.239H513.928L506.865 356.959V346.239ZM506.865 341.992V329.577L513.773 341.992H506.865ZM506.865 301.277H511.906L506.865 310.331V301.277ZM506.865 297.029V288.675L511.688 297.029H506.865ZM499.241 297.029H494.418L499.241 288.675V297.029ZM499.241 301.277V310.316L494.216 301.277H499.241ZM499.241 341.992H492.334L499.241 329.577V341.992ZM499.241 346.239V356.959L492.194 346.239H499.241ZM499.241 386.955H490.311L499.241 373.388V386.955ZM499.241 391.202V403.151L490.171 391.202H499.241ZM499.241 431.918H488.304L499.241 417.511V431.918ZM499.241 436.165V449.312L488.148 436.165H499.241ZM506.865 462.334L520.105 478.032H506.865V462.334ZM521.443 475.636L506.865 458.351V453.295L519.716 438.063L521.443 475.652V475.636ZM519.327 429.631L506.849 413.201V407.461L517.647 393.24L519.311 429.631H519.327ZM517.242 384.372L506.849 368.565V361.782L515.593 348.48L517.242 384.357V384.372ZM515.157 338.989L506.849 324.054V315.87L513.539 303.844L515.157 338.989ZM513.104 294.135L506.865 283.338V275.497L511.859 266.862L513.119 294.135H513.104ZM510.179 264.373L506.849 270.129V264.373H510.179ZM499.226 264.373V270.129L495.896 264.373H499.226ZM494.232 266.862L499.226 275.497V283.338L492.987 294.135L494.247 266.862H494.232ZM492.536 303.859L499.226 315.886V324.069L490.918 339.005L492.536 303.859ZM490.482 348.511L499.226 361.798V368.581L488.833 384.372L490.482 348.495V348.511ZM488.429 393.256L499.226 407.476V413.217L486.748 429.646L488.413 393.256H488.429ZM486.375 438.079L499.226 453.31V458.367L484.648 475.652L486.375 438.063V438.079ZM499.226 462.365V478.063H485.986L499.226 462.365ZM-297.924 341.728H-291.903V412.159H-301.876V341.728H-297.924ZM-301.876 337.278V330.464H-297.924V337.278H-301.876ZM-296.617 337.278V330.464H-293.739V337.278H-296.617ZM-293.739 414.119H-296.617V413.466H-293.739V414.119ZM-293.739 417.838V418.289L-296.617 419.969V417.838H-293.739ZM-297.908 420.28H-301.86V417.838H-297.908V420.28ZM-301.86 433.738L-292.961 438.919H-301.86V433.738ZM-301.86 430.627V426.146L-299.433 424.73H-291.872V436.43L-301.844 430.627H-301.86ZM-292.432 414.119V413.466H-291.887V414.119H-292.432ZM-291.887 337.278H-292.432V330.464H-291.887V337.278ZM-297.908 413.45V414.104H-301.86V413.45H-297.908ZM-301.86 442.637H-291.887V478.016H-301.86V442.637ZM-284.279 442.637H-280.654V478.016H-284.279V442.637ZM-280.654 438.919H-281.93L-280.654 438.172V438.919ZM-160.297 427.686L-159.115 428.371L-160.297 429.055V427.686ZM-156.439 429.926L-145.408 436.352V438.919H-160.281V432.182L-156.423 429.942L-156.439 429.926ZM-145.408 433.225L-153.763 428.355L-145.408 423.501V433.225ZM-160.281 442.622H-145.408V478.001H-160.281V442.622ZM370.638 470.097H339.787L344.407 467.406H366.033L370.654 470.097H370.638ZM436.262 459.549L426.756 465.088V457.807C428.234 457.713 429.588 457.169 430.693 456.313L436.262 459.565V459.549ZM400.977 458.833V460.265L399.748 459.549L400.977 458.833ZM394.396 459.549L389.09 462.645H379.289V457.838H391.424L394.396 459.565V459.549ZM374.621 462.645H363.186L357.881 459.549L360.852 457.822H374.621V462.63V462.645ZM355.205 457.993L354.925 457.822H355.5L355.205 457.993ZM357.834 462.645H352.591L355.22 461.12L357.85 462.645H357.834ZM352.529 459.549L347.223 462.645H337.826V457.838H349.557L352.513 459.565L352.529 459.549ZM216.956 453.061V440.833H254.139V445.173H227.302C222.805 445.173 219.118 448.643 218.745 453.046H216.956V453.061ZM232.187 429.615L234.723 428.137L237.259 429.615H232.171H232.187ZM318.768 459.565L321.739 457.838H321.879V461.369L318.783 459.565H318.768ZM294.388 445.189H258.822V440.848H294.388V445.189ZM321.864 453.061H314.194V452.812H321.864V453.061ZM316.372 457.822L316.076 457.993L315.781 457.822H316.356H316.372ZM274.038 429.6L276.574 428.122L279.11 429.6H274.023H274.038ZM191.751 437.099H177.407L192.841 428.122L196.714 430.378C194.054 431.591 192.125 434.112 191.751 437.099ZM212.241 440.817V453.046H199.297V440.817H212.241ZM227.271 452.797H254.108V453.046H226.633C226.804 452.89 227.022 452.797 227.271 452.797ZM258.791 452.797H294.357V453.046H258.791V452.797ZM314.162 462.209L316.061 461.105L318.69 462.63H314.162V462.209ZM325.644 462.63V457.822H329.643V462.63H325.644ZM294.341 429.6H284.446L279.235 426.566L294.357 417.76V429.6H294.341ZM276.543 424.994L261.109 416.018H291.961L276.527 424.994H276.543ZM273.867 426.55L268.64 429.584H258.76V417.76L273.851 426.55H273.867ZM254.077 429.584H242.564L237.352 426.55L254.093 416.811V429.6L254.077 429.584ZM234.661 424.979L219.227 416.002H250.079L234.645 424.979H234.661ZM231.985 426.535L226.773 429.569H216.893V417.744L231.985 426.535ZM212.195 429.569H200.682L195.47 426.535L212.195 416.795V429.584V429.569ZM192.794 424.963L177.36 415.986H208.212L192.778 424.963H192.794ZM190.118 426.519L175.431 435.076V417.962L190.118 426.519ZM191.627 440.786V453.015H189.884C189.527 448.612 185.824 445.142 181.328 445.142H175.415V440.802H191.611L191.627 440.786ZM160.9 429.18L159.717 428.495V424.839H160.9V429.195V429.18ZM169.099 437.068H159.717V433.489H161.895V432.867L169.099 437.052V437.068ZM155.906 437.068H148.235V433.489H155.906V437.068ZM155.906 430.066H155.486V429.133L155.906 429.382V430.066ZM153.665 428.075L154.474 428.542V430.051H152.265V428.884L153.665 428.075ZM153.416 424.823H153.899L153.65 424.963L153.401 424.823H153.416ZM150.989 426.519L148.235 428.122V424.901L150.989 426.504V426.519ZM151.269 429.475V430.066H150.258L151.269 429.475ZM155.906 440.786V445.127H148.235V440.786H155.906ZM120.511 459.502L123.483 457.775H128.43V462.583H125.816L120.511 459.487V459.502ZM115.159 459.502L109.854 462.598H107.971V457.791H112.187L115.159 459.518V459.502ZM126.314 453.015H109.356L108.92 452.766H126.734L126.299 453.015H126.314ZM118.131 457.775L117.835 457.947L117.539 457.775H118.115H118.131ZM117.835 461.058L120.464 462.583H115.221L117.851 461.058H117.835ZM148.235 452.75H155.906V452.999H148.235V452.75ZM159.717 452.75H170.732V452.999H159.717V452.75ZM175.431 452.75H181.343C181.592 452.75 181.81 452.843 181.981 452.999H175.447V452.75H175.431ZM159.717 445.127V440.786H170.732V445.127H159.717ZM170.732 434.889L161.895 429.74V423.812H160.978L170.732 418.133V434.889ZM159.717 421.432V415.971H169.099L159.717 421.432ZM155.906 423.656L155.626 423.812H151.705L148.235 421.79V415.971H155.906V423.656ZM107.971 467.359H128.414V470.051H107.971V467.359ZM148.235 457.775H155.906V462.583H148.235V457.775ZM159.717 457.775H170.732V462.583H159.717V457.775ZM175.431 457.775H182.292V462.583H175.431V457.775ZM189.916 457.775H191.627V462.583H189.916V457.775ZM199.25 457.775H212.195V462.583H199.25V457.775ZM216.878 457.775H218.636V462.583H216.878V457.775ZM226.259 457.775H254.046V462.583H226.259V457.775ZM258.745 457.775H294.31V462.583H258.745V457.775ZM314.116 467.359H321.786V470.051H314.116V467.359ZM325.598 467.359H326.827L329.596 468.977V470.051H325.598V467.359ZM337.764 467.359H338.962L337.764 468.059V467.359ZM374.543 467.359V469.242L371.307 467.359H374.543ZM379.226 467.359H380.829L379.226 468.293V467.359ZM386.181 467.359H392.217C395.438 467.359 398.176 465.212 399.063 462.272L400.899 463.345V470.051H381.56L386.181 467.359ZM426.679 468.153L438.612 461.198V470.035H426.679V468.153ZM438.612 448.954V457.791L432.404 454.181C433.011 453.124 433.369 451.91 433.369 450.619V448.954H438.612ZM428.592 450.619C428.592 451.039 428.468 451.443 428.281 451.786L426.679 450.852V448.97H428.608V450.634L428.592 450.619ZM400.899 448.954V452.999H399.374V448.954H400.899ZM394.598 452.999H388.499L381.545 448.954H394.582V452.999H394.598ZM383.147 452.999H379.211V450.712L383.147 452.999ZM374.512 452.999H368.927L374.512 449.747V452.999ZM370.529 448.954L363.575 452.999H346.617L339.662 448.954H370.514H370.529ZM341.265 452.999H337.733V450.945L341.265 452.999ZM321.755 445.127H314.085V433.489H316.994V435.698C316.994 439.215 318.923 442.295 321.77 443.944V445.127H321.755ZM316.979 430.066H314.069V424.823H316.979V430.066ZM316.979 423.828H314.069V413.653H316.979V423.828ZM256.411 415.582H256.349V413.668H256.411V415.582ZM214.544 415.582H214.482V413.668H214.544V415.582ZM-27.5554 430.331L-31.0093 428.324L-27.5554 426.317V430.346V430.331ZM-27.5554 433.443V438.857H-40.7331V433.972L-33.6852 429.864L-27.5554 433.427V433.443ZM-40.7331 430.86V425.772L-36.3613 428.308L-40.7331 430.844V430.86ZM-40.7331 442.575H-27.5554V477.954H-40.7331V442.575ZM107.909 473.769H128.352V477.954H107.909V473.769ZM148.173 467.359H155.843V477.954H148.173V467.359ZM159.655 467.359H170.67V477.954H159.655V467.359ZM175.369 467.359H182.23V477.41H189.853V467.359H191.565V477.41H199.204V467.359H212.148V477.954H175.369V467.359ZM216.831 467.359H218.589V477.41H226.213V467.359H253.999V477.954H216.816V467.359H216.831ZM258.698 467.359H294.264V477.954H258.698V467.359ZM314.069 473.769H321.739V477.954H314.069V473.769ZM325.551 473.769H329.549V477.425H337.173V473.769H400.852V477.954H325.535V473.769H325.551ZM426.632 473.769H438.565V477.954H426.632V473.769ZM433.322 379.985C433.322 378.663 434.395 377.589 435.718 377.589H450.996C452.318 377.589 453.392 378.663 453.392 379.985V389.149H451.12C444.197 389.149 438.596 394.765 438.596 401.673V435.698H433.353V379.985H433.322ZM399.327 408.876C399.327 407.554 400.401 406.48 401.708 406.48H408.958C410.28 406.48 411.338 407.554 411.338 408.876V411.568H410.234C405.037 411.568 400.837 415.784 400.837 420.965V435.698H399.312V408.876H399.327ZM376.893 445.236V448.549H376.83V445.236H376.893ZM326.733 424.823V430.066H326.5V424.823H326.733ZM321.739 366.247H321.319V361.004H321.739V366.247ZM306.072 312.79C306.072 311.218 307.364 309.927 308.935 309.927H318.877C320.448 309.927 321.739 311.218 321.739 312.79V360.008H314.069V324.287C314.069 320.709 311.175 317.815 307.597 317.815H306.072V312.79ZM320.323 361.004V366.247H318.114V361.004H320.323ZM317.118 361.004V366.247H314.085V361.004H317.118ZM291.23 352.058V346.815H294.264V352.058H291.23ZM291.23 394.516V389.273H294.264V394.516H291.23ZM314.085 369.654H321.755V405.391C320.355 404.582 318.721 404.1 316.979 404.1H314.085V369.654ZM155.859 366.232H155.439V360.989H155.859V366.232ZM140.192 312.774C140.192 311.203 141.483 309.911 143.055 309.911H152.996C154.568 309.911 155.859 311.203 155.859 312.774V359.993H148.189V324.271C148.189 320.693 145.295 317.799 141.717 317.799H140.192V312.774ZM154.443 360.989V366.232H152.234V360.989H154.443ZM151.238 360.989V366.232H148.204V360.989H151.238ZM125.349 352.043V346.8H128.383V352.043H125.349ZM125.349 394.501V389.258H128.383V394.501H125.349ZM148.204 369.639H155.874V404.084H148.204V369.639ZM124.136 435.667V413.622H128.399V445.111H115.984C120.589 444.442 124.136 440.475 124.136 435.683V435.667ZM-27.5242 417.729V423.143L-33.6542 426.721L-40.702 422.614V417.729H-27.5242ZM-145.486 417.729V420.296L-156.516 426.721L-160.375 424.481V417.744H-145.501L-145.486 417.729ZM-280.717 417.729V418.476L-281.992 417.729H-280.717ZM-280.717 421.587V434.952L-284.342 437.052V424.606H-284.139V419.58L-280.717 421.572V421.587ZM-285.431 413.357V414.01H-286.613V417.324H-286.675V414.01H-286.971V413.357H-285.431ZM-312.299 267.656C-312.299 265.602 -310.619 263.937 -308.581 263.937H-295.652C-293.599 263.937 -291.934 265.602 -291.934 267.656V329.063H-301.907V282.607C-301.907 277.955 -305.672 274.19 -310.324 274.19H-312.315V267.64L-312.299 267.656ZM-331.607 318.733V311.918H-327.655V318.733H-331.607ZM-331.607 373.948V367.134H-327.655V373.948H-331.607ZM-362.505 388.853H-358.491V414.01H-365.135V388.853H-362.505ZM-365.135 385.881V381.339H-362.505V385.881H-365.135ZM-361.634 385.881V381.339H-359.721V385.881H-361.634ZM-358.491 385.881H-358.849V381.339H-358.491V385.881ZM-362.894 417.76V417.729H-362.692L-362.817 417.807L-362.879 417.76H-362.894ZM-358.709 420.187L-360.141 419.347L-358.709 418.507V420.172V420.187ZM-359.721 436.912V437.41L-360.141 437.161L-359.721 436.912ZM-358.849 436.57H-358.709V438.001L-358.849 437.923V436.57ZM-362.894 438.763L-362.832 438.717L-362.708 438.795H-362.91V438.763H-362.894ZM-358.709 433.209L-362.817 435.605L-362.879 435.558V420.934L-362.817 420.887L-358.709 423.283V433.194V433.209ZM-354.026 435.698V433.598L-347.523 429.818L-332.089 438.795H-353.295V435.698H-354.011H-354.026ZM-354.026 430.471V426.021L-350.199 428.246L-354.026 430.471ZM-382.28 438.779H-393.559L-382.28 432.213V438.779ZM-362.894 444.053H-358.709V477.892H-362.894V444.053ZM-354.026 444.053H-353.311V442.513H-330.471V477.892H-354.042V444.053H-354.026ZM-330.456 436.616L-344.847 428.231L-330.456 419.86V436.616ZM-332.089 417.698L-347.523 426.69L-354.026 422.91V417.713H-332.105L-332.089 417.698ZM-372.043 339.596C-372.043 338.227 -370.938 337.122 -369.569 337.122H-360.965C-359.596 337.122 -358.491 338.227 -358.491 339.596V380.452H-365.135V349.538C-365.135 346.442 -367.64 343.937 -370.736 343.937H-372.058V339.581L-372.043 339.596ZM-384.893 373.591V369.048H-382.264V373.591H-384.893ZM-384.893 410.339V405.811H-382.264V410.339H-384.893ZM-382.264 417.698V424.263L-393.544 417.698H-382.264ZM-395.878 419.456L-382.264 427.39V429.117L-395.878 437.052V419.471V419.456ZM-382.264 442.513V477.892H-395.878V442.513H-382.264ZM-414.578 433.24H-414.096L-411.762 434.594V438.094H-414.578V433.24ZM-410.829 435.138L-408.775 436.336V438.11H-410.829V435.154V435.138ZM-407.857 436.865L-407.468 437.099V438.094H-407.857V436.865ZM-407.857 433.754V433.24H-407.468V433.987L-407.857 433.754ZM-402.832 436.679L-403.921 436.041V433.24H-402.832V436.679ZM-407.468 432.307H-410.331L-414.578 429.833V426.659L-407.468 422.521V432.307ZM-407.468 419.409L-414.578 423.548V417.713H-407.468V419.409ZM-432.968 438.795H-435.411L-432.968 437.379V438.795ZM-407.468 442.513V477.892H-414.578V442.513H-407.468ZM-403.937 442.513H-400.576V477.892H-403.937V442.513ZM-400.576 418.507V438.001L-401.914 437.223V432.307H-403.937V420.467L-400.576 418.507ZM-407.468 378.896H-407.857V374.026H-407.468V378.896ZM-422 329.297C-422 327.834 -420.802 326.636 -419.339 326.636H-410.113C-408.651 326.636 -407.453 327.834 -407.453 329.297V373.108H-414.563V339.97C-414.563 336.656 -417.254 333.964 -420.568 333.964H-421.984V329.297H-422ZM-408.791 374.026V378.896H-410.844V374.026H-408.791ZM-411.762 374.026V378.896H-414.578V374.026H-411.762ZM-435.784 365.734V360.864H-432.968V365.734H-435.784ZM-435.784 405.127V400.257H-432.968V405.127H-435.784ZM-414.578 382.07H-407.468V413.995H-414.578V382.07ZM-432.952 417.713V419.145L-435.395 417.713H-432.952ZM-437.744 419.471L-432.952 422.256V434.252L-437.744 437.036V419.456V419.471ZM-432.952 442.528V477.908H-437.744V442.528H-432.952ZM-465.764 432.105L-461.844 429.818L-446.41 438.795H-465.764V432.089V432.105ZM-465.764 428.993V427.546L-464.52 428.262L-465.764 428.993ZM-465.764 442.528H-442.427V477.908H-465.764V442.528ZM-442.427 438.001L-459.168 428.262L-442.427 418.522V438.017V438.001ZM-446.41 417.713L-461.844 426.706L-465.764 424.419V417.713H-446.41ZM-516.328 417.713H-500.132V426.208L-500.972 426.69L-516.344 417.744V417.713H-516.328ZM-516.328 420.872L-503.633 428.262L-516.328 435.652V420.872ZM-516.328 438.763L-500.957 429.818L-500.117 430.3V438.795H-516.313V438.763H-516.328ZM-516.328 442.528H-500.132V477.908H-516.328V442.528Z" fill="#A5C0E0"/>
<g opacity="0.1">
<path d="M673.364 783.466V750.62H665.352V738.671C665.352 728.161 657.565 719.456 647.438 718.051V717.669C647.438 704.819 636.98 694.378 624.147 694.378H623.366C610.516 694.378 600.075 704.836 600.075 717.669V759.811H588.699V714.999C588.699 712.068 587.138 709.518 584.814 708.114C587.537 707.316 589.531 704.801 589.531 701.818C589.531 698.194 586.583 695.246 582.959 695.246H577.686V689.124H569.518V695.246H564.229C560.604 695.246 557.656 698.176 557.656 701.818C557.656 704.801 559.65 707.316 562.373 708.114C560.049 709.536 558.488 712.085 558.488 714.999V759.811H547.424V718.64C547.424 716.49 545.69 714.756 543.539 714.756H535.648V672.631C535.648 664.931 529.37 658.653 521.67 658.653V658.046C521.67 646.687 512.462 637.478 501.12 637.478C489.778 637.478 480.552 646.687 480.552 658.046V783.484H470.198V810H707.929V783.484H673.416L673.364 783.466ZM607.827 717.652C607.827 709.085 614.799 702.113 623.349 702.113H624.129C632.696 702.113 639.651 709.085 639.651 717.652V718.398C630.494 720.583 623.661 728.82 623.661 738.654V750.602H615.649V759.794H607.827V717.652ZM615.649 767.563V783.466H607.827V767.563H615.649ZM600.058 767.563V783.466H588.681V767.563H600.058ZM539.62 722.508V763.679C539.62 765.829 541.354 767.563 543.505 767.563H558.454V783.466H535.614V722.508H539.62ZM521.636 666.405C525.07 666.405 527.862 669.197 527.862 672.631V714.756H521.636V666.405ZM521.636 722.508H527.862V783.466H521.636V722.508Z" fill="#A5C0E0"/>
<path d="M373.722 582.773V492.35C373.722 485.292 367.982 479.569 360.941 479.569H341.916C334.858 479.569 329.135 485.309 329.135 492.35V501.975H326.204C319.371 501.975 313.822 507.525 313.822 514.357V555.598H287.652V574.102H313.822V636.899H287.652V655.42H313.822V809.126H351.75V723.472H366.439V809.126H373.74V723.472H377.919V704.968H373.74V601.278H377.919V582.773H373.74H373.722ZM293.774 567.581H289.542V557.54H293.774V567.581ZM299.913 567.581H295.682V557.54H299.913V567.581ZM306.052 567.581H301.821V557.54H306.052V567.581ZM293.757 648.882H289.525V638.841H293.757V648.882ZM299.896 648.882H295.664V638.841H299.896V648.882ZM306.035 648.882H301.803V638.841H306.035V648.882ZM313.77 648.882H307.943V638.841H313.77V648.882ZM313.77 567.581H307.943V557.54H313.77V567.581ZM366.387 594.739H365.571V584.698H366.387V594.739ZM339.315 502.01H336.384V492.385C336.384 489.367 338.847 486.904 341.864 486.904H360.889C363.907 486.904 366.369 489.367 366.369 492.385V582.808H351.68V514.375C351.68 507.525 346.131 501.992 339.298 501.992L339.315 502.01ZM363.664 584.716V594.757H359.432V584.716H363.664ZM357.525 584.716V594.757H351.697V584.716H357.525ZM357.525 716.969H351.697V706.927H357.525V716.969ZM363.664 716.969H359.432V706.927H363.664V716.969ZM365.571 716.969V706.927H366.387V716.969H365.571ZM375.942 706.927V716.969H373.67V706.927H375.942ZM351.68 705.02V601.33H366.369V705.02H351.68ZM375.942 594.757H373.67V584.716H375.942V594.757Z" fill="#A5C0E0"/>
<path d="M608.417 615.29V537.873C608.417 531.838 603.509 526.93 597.474 526.93H581.172C575.137 526.93 570.229 531.838 570.229 537.873V546.128H567.714C561.853 546.128 557.101 550.88 557.101 556.742V592.068H534.695V607.919H557.101V661.698H534.695V677.549H557.101V809.16H589.583V735.819H602.157V809.16H608.417V735.819H611.99V719.968H608.417V631.175H611.99V615.324H608.417V615.29ZM539.949 602.283H536.325V593.681H539.949V602.283ZM545.204 602.283H541.58V593.681H545.204V602.283ZM550.459 602.283H546.834V593.681H550.459V602.283ZM539.932 671.913H536.307V663.311H539.932V671.913ZM545.187 671.913H541.562V663.311H545.187V671.913ZM550.442 671.913H546.817V663.311H550.442V671.913ZM557.066 671.913H552.089V663.311H557.066V671.913ZM557.066 602.283H552.089V593.681H557.066V602.283ZM602.122 625.539H601.428V616.955H602.122V625.539ZM578.935 546.128H576.42V537.873C576.42 535.289 578.536 533.173 581.12 533.173H597.422C600.006 533.173 602.122 535.272 602.122 537.873V615.29H589.549V556.724C589.549 550.863 584.797 546.111 578.935 546.111V546.128ZM599.781 616.937V625.522H596.156V616.937H599.781ZM594.526 616.937V625.522H589.549V616.937H594.526ZM594.526 730.183H589.549V721.581H594.526V730.183ZM599.781 730.183H596.156V721.581H599.781V730.183ZM601.428 730.183V721.581H602.122V730.183H601.428ZM610.307 721.581V730.183H608.365V721.581H610.307ZM589.531 719.934V631.141H602.104V719.934H589.531ZM610.307 625.522H608.365V616.937H610.307V625.522Z" fill="#A5C0E0"/>
<path d="M190.639 615.29V537.873C190.639 531.838 185.731 526.93 179.696 526.93H163.394C157.359 526.93 152.451 531.838 152.451 537.873V546.128H149.936C144.074 546.128 139.323 550.88 139.323 556.742V592.068H116.916V607.919H139.323V661.698H116.916V677.549H139.323V809.16H171.805V735.819H184.378V809.16H190.639V735.819H194.211V719.968H190.639V631.175H194.211V615.324H190.639V615.29ZM122.171 602.283H118.546V593.681H122.171V602.283ZM127.426 602.283H123.801V593.681H127.426V602.283ZM132.68 602.283H129.056V593.681H132.68V602.283ZM122.154 671.913H118.529V663.311H122.154V671.913ZM127.408 671.913H123.784V663.311H127.408V671.913ZM132.663 671.913H129.039V663.311H132.663V671.913ZM139.288 671.913H134.311V663.311H139.288V671.913ZM139.288 602.283H134.311V593.681H139.288V602.283ZM184.343 625.539H183.65V616.955H184.343V625.539ZM161.157 546.128H158.642V537.873C158.642 535.289 160.74 533.173 163.342 533.173H179.644C182.228 533.173 184.343 535.272 184.343 537.873V615.29H171.77V556.724C171.77 550.863 167.018 546.111 161.157 546.111V546.128ZM182.02 616.937V625.522H178.395V616.937H182.02ZM176.748 616.937V625.522H171.77V616.937H176.748ZM176.748 730.183H171.77V721.581H176.748V730.183ZM182.02 730.183H178.395V721.581H182.02V730.183ZM183.65 730.183V721.581H184.343V730.183H183.65ZM192.529 721.581V730.183H190.587V721.581H192.529ZM171.753 719.934V631.141H184.326V719.934H171.753ZM192.529 625.522H190.587V616.937H192.529V625.522Z" fill="#A5C0E0"/>
<path d="M129.836 630.239V622.678H135.004C136.357 622.678 137.467 621.585 137.467 620.215C137.467 618.845 136.357 617.752 135.004 617.752H129.836V615.897C129.836 613.66 128.033 611.856 125.795 611.856H114.176C111.939 611.856 110.135 613.66 110.135 615.897V617.752H104.967C103.614 617.752 102.505 618.862 102.505 620.215C102.505 621.568 103.614 622.678 104.967 622.678H110.135V630.239C56.2177 631.279 13.989 640.783 13.989 652.368V809.143H226V652.368C226 640.8 183.771 631.297 129.854 630.239H129.836Z" fill="#A5C0E0"/>
<path d="M261.309 809.143H243.013L244.452 507.42H259.87L261.309 809.143Z" fill="#A5C0E0"/>
<path d="M436.675 809.143H418.362L419.819 557.384H435.236L436.675 809.143Z" fill="#A5C0E0"/>
<path d="M81.7632 642.483H-20.1754V650.547H-20.3142V642.483H-122.253V650.547H-122.391V642.483H-319.696V650.547V652.247L-319.835 652.489L-319.696 652.576V701.915L-319.835 702.002L-319.696 702.245V803.299H-308.267V712.009H-229.203V803.299H-217.775V712.009H-128.115V803.299H-116.686V712.009H-26.0372V803.299H-14.6085V712.009H76.0401V803.299H87.4688V642.483H81.7458H81.7632ZM-308.267 651.553H-233.192L-270.808 673.456L-308.267 651.64V651.553V651.553ZM-128.115 701.013L-168.904 677.254L-128.115 653.495V700.996V701.013ZM-175.442 673.456L-213.058 651.553H-137.826L-175.442 673.456V673.456ZM-181.963 677.254L-217.775 698.117V656.409L-181.963 677.272V677.254ZM-229.203 656.825V697.684L-264.287 677.254L-229.203 656.825ZM-175.442 681.052L-137.826 702.956H-213.058L-175.442 681.052V681.052ZM-26.0545 701.013L-66.8438 677.254L-26.0545 653.495V700.996V701.013ZM-73.3819 673.456L-110.998 651.553H-35.7663L-73.3819 673.456ZM-116.703 655.819L-79.9026 677.254L-116.703 698.69V655.837V655.819ZM-73.3819 681.052L-35.7663 702.956H-110.998L-73.3819 681.052ZM76.0055 701.013L35.2161 677.254L76.0055 653.495V700.996V701.013ZM28.6781 673.456L-8.93759 651.553H66.2937L28.6781 673.456ZM-14.6433 655.819L22.1573 677.254L-14.6433 698.69V655.837V655.819ZM28.6781 681.052L66.2937 702.956H-8.93759L28.6781 681.052ZM-308.302 659.236L-277.363 677.254L-308.302 695.273V659.236V659.236ZM-308.302 702.869L-270.842 681.052L-233.227 702.956H-308.302V702.869V702.869Z" fill="#A5C0E0"/>
<path d="M531.226 642.483H429.287V650.547H429.149V642.483H327.21V650.547H327.071V642.483H129.767V650.547V652.247L129.628 652.489L129.767 652.576V701.915L129.628 702.002L129.767 702.245V803.299H141.196V712.009H220.26V803.299H231.688V712.009H321.348V803.299H332.777V712.009H423.426V803.299H434.854V712.009H525.503V803.299H536.932V642.483H531.209H531.226ZM141.196 651.553H216.271L178.655 673.456L141.196 651.64V651.553V651.553ZM321.348 701.013L280.559 677.254L321.348 653.495V700.996V701.013ZM274.021 673.456L236.405 651.553H311.637L274.021 673.456ZM267.5 677.254L231.688 698.117V656.409L267.5 677.272V677.254ZM220.26 656.825V697.684L185.176 677.254L220.26 656.825ZM274.021 681.052L311.637 702.956H236.405L274.021 681.052ZM423.408 701.013L382.619 677.254L423.408 653.495V700.996V701.013ZM376.081 673.456L338.465 651.553H413.697L376.081 673.456V673.456ZM332.76 655.819L369.56 677.254L332.76 698.69V655.837V655.819ZM376.081 681.052L413.697 702.956H338.465L376.081 681.052V681.052ZM525.468 701.013L484.679 677.254L525.468 653.495V700.996V701.013ZM478.158 673.456L440.543 651.553H515.774L478.158 673.456V673.456ZM434.837 655.819L471.638 677.254L434.837 698.69V655.837V655.819ZM478.158 681.052L515.774 702.956H440.543L478.158 681.052V681.052ZM141.161 659.236L172.1 677.254L141.161 695.273V659.236V659.236ZM141.161 702.869L178.62 681.052L216.236 702.956H141.161V702.869V702.869Z" fill="#A5C0E0"/>
</g>
</g>
<defs>
<clipPath id="clip0_1493_3081">
<rect width="1440" height="810" fill="white"/>
</clipPath>
</defs>
</svg>
