<svg width="1160" height="450" viewBox="0 0 1160 450" fill="none" xmlns="http://www.w3.org/2000/svg">
<path opacity="0.1" d="M1160 264.381V450H0V247.889H5.9392V121.622H3.3872V114.978H67.3728V121.622H64.7744V207.797H68.3008V158.74H95.6768V262.29H112.427V224.243L133.678 210.538V150.796H157.435V46.874H176.088L214.832 82.8309H224.251V91.5182L232.371 99.0905V181.968L251.72 199.017V266.982H258.494V216.578H255.942V213.233H258.494V113.074H255.942V109.682H274.178V94.3984H278.586V109.682H315.427V94.3984H319.835V109.682H338.07V113.074H335.843V213.233H338.07V216.578H335.843V266.982H356.538V213.697H381.501V94.4914L418.899 66.8036L456.298 94.4914V125.942L475.043 138.903V20.1154H499.264V0H503.394V20.1154H526.13V96.7212H538.054V223.174H588.213V77.8137H607.886V62.5297H622.827V46.1772H674.146V62.5297H689.086V77.8137H708.76V261.082H742.214V249.004H739.709V245.334H742.214V186.753H739.709V183.083H742.214V124.688H739.709V121.018H746.066V102.621H743.606V98.9511H785.366V102.621H782.536V121.018H804.39V124.688H801.56V183.083H804.39V186.753H801.56V245.334H804.39V249.004H801.56V278.317H815.526V223.174L834.875 203.384V64.3415H845.13V53.9818H845.222L858.446 40.3702L871.624 53.9818V64.2486H881.878V259.178H883.595V235.717H902.526V220.898H907.538V81.9483H912.317V77.953H929.995V59.0919H934.125V77.953H986.882V59.0919H991.011V77.953H1011.1V81.9483H1015.88V205.8H1038.48V249.608H1061.03V107.22H1065.81V104.108H1138.19V107.22H1142.97V264.381H1160Z" fill="#A5C0E0"/>
</svg>
