<svg width="40" height="40" viewBox="0 0 40 40" fill="none" xmlns="http://www.w3.org/2000/svg">
<path d="M33.9534 18.8578C33.9187 18.2413 34.2842 17.6697 34.8558 17.4329L38.3408 15.9875C39.0901 15.6772 39.4433 14.8197 39.1329 14.0705L37.5099 10.159C37.1996 9.41185 36.3421 9.05663 35.5928 9.36694L32.1058 10.8123C31.5341 11.0491 30.8727 10.9062 30.4603 10.4448C30.1234 10.0672 29.7641 9.70787 29.3843 9.36898C28.9229 8.9566 28.7637 8.29924 29.0026 7.72762L30.45 4.22852C30.7604 3.4793 30.4031 2.62187 29.6559 2.31361L25.7421 0.694711C24.9928 0.384405 24.1354 0.741656 23.8271 1.48884L22.3796 4.98795C22.1428 5.56161 21.5671 5.91274 20.9484 5.88008C20.438 5.8515 19.9297 5.85354 19.4254 5.88008C18.8089 5.91478 18.2372 5.54732 18.0004 4.97775L16.5549 1.49293C16.2446 0.745743 15.3872 0.390523 14.6379 0.700829L10.7262 2.32381C9.97695 2.63412 9.62373 3.49155 9.93405 4.24077L11.3795 7.72762C11.6163 8.29924 11.4734 8.96068 11.012 9.37306C10.6343 9.7099 10.275 10.0692 9.9361 10.4489C9.52369 10.9103 8.86629 11.0695 8.29465 10.8307L4.79537 9.38328C4.04611 9.07297 3.18861 9.43022 2.88033 10.1774L1.26136 14.0909C0.951039 14.8402 1.30835 15.6976 2.05557 16.0059L5.55484 17.4533C6.12853 17.6901 6.47971 18.2658 6.44704 18.8843C6.41846 19.3947 6.4205 19.901 6.44704 20.4073C6.48175 21.0238 6.11627 21.5954 5.54462 21.8323L2.05961 23.2776C1.31034 23.5879 0.95717 24.4454 1.26749 25.1946L2.89055 29.1061C3.20087 29.8553 4.05837 30.2085 4.80764 29.8982L8.2926 28.4528C8.86425 28.216 9.52574 28.3589 9.93814 28.8203C10.275 29.1979 10.6343 29.5572 11.0141 29.8961C11.4755 30.3085 11.6347 30.9659 11.3959 31.5375L9.94836 35.0366C9.63804 35.7858 9.99529 36.6432 10.7425 36.9515L14.6563 38.5704C15.4056 38.8807 16.263 38.5234 16.5713 37.7763L18.0188 34.2772C18.2556 33.7035 18.8313 33.3524 19.4499 33.385C19.9603 33.4136 20.4687 33.4116 20.973 33.385C21.5895 33.3503 22.1612 33.7178 22.398 34.2874L23.8435 37.7742C24.1538 38.5214 25.0112 38.8766 25.7605 38.5663L29.6722 36.9433C30.4194 36.633 30.7747 35.7756 30.4643 35.0264L29.0189 31.5416C28.7821 30.9699 28.925 30.3085 29.3864 29.8961C29.7641 29.5593 30.1234 29.2 30.4623 28.8203C30.8747 28.3589 31.5321 28.1996 32.1038 28.4385L35.603 29.8859C36.3523 30.1962 37.2098 29.839 37.5181 29.0918L39.137 25.1783C39.4474 24.429 39.0901 23.5716 38.3429 23.2633L34.8436 21.8159C34.2699 21.5791 33.9187 21.0034 33.9514 20.3848C33.98 19.8745 33.9779 19.3661 33.9514 18.8619L33.9534 18.8578ZM30.1622 20.5808C29.6293 26.15 24.6376 30.2003 19.0763 29.5736C13.762 28.9734 9.72989 24.0044 10.2382 18.6802C10.7711 13.111 15.7628 9.06072 21.3241 9.68746C26.6384 10.2877 30.6705 15.2566 30.1601 20.5808H30.1622Z" fill="white" stroke="#627197" stroke-linecap="round" stroke-linejoin="round"/>
</svg>
