<svg width="1323" height="307" viewBox="0 0 1323 307" fill="none" xmlns="http://www.w3.org/2000/svg">
<path d="M422.254 167.448H406.846C406.846 159.874 412.984 153.736 420.558 153.736C422.069 153.736 423.522 153.985 424.881 154.436C429.959 142.414 441.859 133.978 455.728 133.978C466.205 133.978 475.555 138.794 481.693 146.331" stroke="#0A2973" stroke-opacity="0.25" stroke-linecap="round" stroke-linejoin="round"/>
<path d="M508.772 167.449H489.196H465.229" stroke="#0A2973" stroke-opacity="0.25" stroke-linecap="round" stroke-linejoin="round"/>
<path d="M339.254 306.448H323.846C323.846 298.874 329.984 292.736 337.558 292.736C339.068 292.736 340.522 292.985 341.881 293.436C346.959 281.414 358.859 272.978 372.728 272.978C383.205 272.978 392.555 277.794 398.693 285.331" stroke="#0A2973" stroke-opacity="0.25" stroke-linecap="round" stroke-linejoin="round"/>
<path d="M425.771 306.449H406.195H382.229" stroke="#0A2973" stroke-opacity="0.25" stroke-linecap="round" stroke-linejoin="round"/>
<path d="M1235.25 151.448H1219.85C1219.85 143.874 1225.98 137.736 1233.56 137.736C1235.07 137.736 1236.52 137.985 1237.88 138.436C1242.96 126.414 1254.86 117.978 1268.73 117.978C1279.21 117.978 1288.55 122.794 1294.69 130.331" stroke="#0A2973" stroke-opacity="0.25" stroke-linecap="round" stroke-linejoin="round"/>
<path d="M1321.77 151.449H1302.2H1278.23" stroke="#0A2973" stroke-opacity="0.25" stroke-linecap="round" stroke-linejoin="round"/>
<path d="M1004.65 289.836H984C984 279.686 992.225 271.461 1002.37 271.461C1004.4 271.461 1006.35 271.794 1008.17 272.398C1014.97 256.288 1030.92 244.984 1049.5 244.984C1063.54 244.984 1076.07 251.437 1084.3 261.537" stroke="#0A2973" stroke-opacity="0.25" stroke-linecap="round" stroke-linejoin="round"/>
<path d="M1120.58 289.836H1094.35H1062.23" stroke="#0A2973" stroke-opacity="0.25" stroke-linecap="round" stroke-linejoin="round"/>
<path d="M20.9928 284.569H1C1 274.742 8.96514 266.777 18.7917 266.777C20.7501 266.777 22.6343 267.099 24.3987 267.685C30.9877 252.088 46.4241 241.143 64.4213 241.143C78.0163 241.143 90.1467 247.389 98.1119 257.17" stroke="#0A2973" stroke-opacity="0.25" stroke-linecap="round" stroke-linejoin="round"/>
<path d="M133.247 284.568H107.847H76.7516" stroke="#0A2973" stroke-opacity="0.25" stroke-linecap="round" stroke-linejoin="round"/>
<path d="M756.746 187.321H736.753C736.753 177.495 744.718 169.53 754.545 169.53C756.503 169.53 758.387 169.852 760.152 170.437C766.741 154.841 782.177 143.896 800.174 143.896C813.769 143.896 825.9 150.142 833.865 159.923" stroke="#0A2973" stroke-opacity="0.25" stroke-linecap="round" stroke-linejoin="round"/>
<path d="M869 187.321H843.6H812.505" stroke="#0A2973" stroke-opacity="0.25" stroke-linecap="round" stroke-linejoin="round"/>
<path d="M364 124C372.553 127.577 373.25 137.524 373.25 137.524C373.25 137.524 379.282 130.392 389.374 134.612" stroke="#0A2973" stroke-opacity="0.25" stroke-linecap="round" stroke-linejoin="round"/>
<path d="M281 263C289.553 266.577 290.25 276.524 290.25 276.524C290.25 276.524 296.282 269.392 306.374 273.612" stroke="#0A2973" stroke-opacity="0.25" stroke-linecap="round" stroke-linejoin="round"/>
<path d="M1177 108C1185.55 111.577 1186.25 121.524 1186.25 121.524C1186.25 121.524 1192.28 114.392 1202.37 118.612" stroke="#0A2973" stroke-opacity="0.25" stroke-linecap="round" stroke-linejoin="round"/>
<path d="M1104.58 227C1116.05 231.761 1116.98 245 1116.98 245C1116.98 245 1125.06 235.508 1138.58 241.124" stroke="#0A2973" stroke-opacity="0.25" stroke-linecap="round" stroke-linejoin="round"/>
<path d="M1205 1C1213.76 4.70319 1214.48 15 1214.48 15C1214.48 15 1220.66 7.61727 1231 11.9854" stroke="#0A2973" stroke-opacity="0.25" stroke-linecap="round" stroke-linejoin="round"/>
<path d="M114.222 232.321C122.944 229.178 130.178 236.041 130.178 236.041C130.178 236.041 129.807 226.708 140.096 223" stroke="#0A2973" stroke-opacity="0.25" stroke-linecap="round" stroke-linejoin="round"/>
<path d="M710.751 119.957C702.029 116.814 694.795 123.677 694.795 123.677C694.795 123.677 695.166 114.344 684.877 110.636" stroke="#0A2973" stroke-opacity="0.25" stroke-linecap="round" stroke-linejoin="round"/>
</svg>
