<svg width="592" height="267" viewBox="0 0 592 267" fill="none" xmlns="http://www.w3.org/2000/svg">
<path d="M0 156.866V267H688V147.081H684.477V72.1622H685.991V68.2205H648.041V72.1622H649.582V123.293H647.491V94.1857H631.254V155.626H621.319V133.051L608.715 124.919V89.4723H594.625V27.8119H583.562L560.582 49.1464H554.996V54.3008L550.18 58.7937V107.968L538.704 118.084V158.409H534.686V128.503H536.2V126.518H534.686V67.0904H536.2V65.0783H525.384V56.0097H522.77V65.0783H500.919V56.0097H498.305V65.0783H487.489V67.0904H488.81V126.518H487.489V128.503H488.81V158.409H476.536V126.794H461.731V56.0649L439.549 39.6368L417.368 56.0649V74.7256L406.25 82.4159V11.9351H391.885V0H389.436V11.9351H375.951V57.3879H368.878V132.417H339.129V46.1695H327.46V37.1009H318.599V27.3985H288.162V37.1009H279.3V46.1695H267.632V154.909H247.79V147.742H249.276V145.565H247.79V110.807H249.276V108.629H247.79V73.9814H249.276V71.8038H245.506V60.8885H246.964V58.711H222.196V60.8885H223.875V71.8038H210.913V73.9814H212.592V108.629H210.913V110.807H212.592V145.565H210.913V147.742H212.592V165.135H204.308V132.417L192.833 120.675V38.1759H186.751V32.0292H186.696L178.852 23.953L171.037 32.0292V38.1208H164.955V153.779H163.937V139.859H152.708V131.066H149.736V48.6226H146.902V46.2521H136.417V35.0612H133.967V46.2521H102.677V35.0612H100.228V46.2521H88.3116V48.6226H85.4771V122.108H72.0748V148.101H58.7001V63.6174H55.8656V61.7706H12.9344V63.6174H10.0998V156.866H0Z" fill="#EEF3F9"/>
</svg>
