<svg width="1030" height="341" viewBox="0 0 1030 341" fill="none" xmlns="http://www.w3.org/2000/svg">
<path d="M173.964 271.619H31.186V146.008L102.577 120.164L173.964 146.008V271.619Z" fill="white" stroke="#0A2973" stroke-linecap="round" stroke-linejoin="round"/>
<path d="M119.638 215.635H85.5162V271.386H119.638V215.635Z" fill="white" stroke="#0A2973" stroke-linecap="round" stroke-linejoin="round"/>
<path d="M71.5053 158.575H54.4443V189.257H71.5053V158.575Z" fill="white" stroke="#0A2973" stroke-linecap="round" stroke-linejoin="round"/>
<path d="M97.8507 158.575H80.7898V189.257H97.8507V158.575Z" fill="white" stroke="#0A2973" stroke-linecap="round" stroke-linejoin="round"/>
<path d="M124.197 158.575H107.136V189.257H124.197V158.575Z" fill="white" stroke="#0A2973" stroke-linecap="round" stroke-linejoin="round"/>
<path d="M150.542 158.575H133.481V189.257H150.542V158.575Z" fill="white" stroke="#0A2973" stroke-linecap="round" stroke-linejoin="round"/>
<path d="M710.001 188.395H377.357V271.086H710.001V188.395Z" fill="white" stroke="#0A2973" stroke-linecap="round" stroke-linejoin="round"/>
<path d="M335.449 145.303L287.265 152.058V271.438H335.778V145.349L335.449 145.303Z" fill="#C5DDEF"/>
<path d="M335.778 145.349V271.437H355.044V148.051L335.778 145.349Z" fill="white"/>
<path d="M381.506 151.76L355.044 148.05V271.437H381.506V151.76Z" fill="url(#paint0_linear_356_2547)"/>
<path d="M260.608 155.794V271.437H287.265V152.057L260.608 155.794Z" fill="#90ADC6"/>
<path d="M410.289 155.795L381.506 151.761V271.438H410.289V155.795Z" fill="#90ADC6"/>
<path d="M410.29 155.794L335.449 145.302L260.608 155.794V271.437H410.29V155.794Z" fill="white" stroke="#0A2973" stroke-linecap="round" stroke-linejoin="round"/>
<path d="M751.903 144.635L703.72 151.39V270.77H752.233V144.682L751.903 144.635Z" fill="#C5DDEF"/>
<path d="M752.233 144.681V270.77H771.499V147.379L752.233 144.681Z" fill="white"/>
<path d="M797.961 151.088L771.499 147.378V270.77H797.961V151.088Z" fill="url(#paint1_linear_356_2547)"/>
<path d="M826.744 155.127L797.961 151.088V270.77H826.744V155.127Z" fill="#90ADC6"/>
<path d="M826.892 155.274L751.917 144.732L676.942 155.274V271.47H826.892V155.274Z" fill="white" stroke="#0A2973" stroke-linecap="round" stroke-linejoin="round"/>
<path d="M634.278 24.5777L543.676 0.999878L453.074 24.5777V271.437H634.278V24.5777Z" fill="white" stroke="#0A2973" stroke-linecap="round" stroke-linejoin="round"/>
<path d="M618.743 152.714H467.844V239.167H618.743V152.714Z" fill="white" stroke="#0A2973" stroke-linecap="round" stroke-linejoin="round"/>
<path d="M543.294 74.1211L467.844 87.931V152.714H543.294V74.1211Z" fill="white" stroke="#0A2973" stroke-linecap="round" stroke-linejoin="round"/>
<path d="M618.743 152.714H543.294V239.167H618.743V152.714Z" fill="white" stroke="#0A2973" stroke-linecap="round" stroke-linejoin="round"/>
<path d="M618.743 87.4872L543.294 74.121V152.714H618.743V87.4872Z" fill="white" stroke="#0A2973" stroke-linecap="round" stroke-linejoin="round"/>
<path d="M979.234 155.474V141.403C979.234 137.773 976.29 134.829 972.66 134.829H967.488C964.763 134.829 962.293 133.163 961.351 130.605C960.873 129.305 960.344 128.028 959.763 126.78C958.617 124.305 959.179 121.371 961.11 119.44L964.773 115.777C967.34 113.21 967.34 109.05 964.773 106.483L954.824 96.534C952.257 93.9668 948.097 93.9668 945.53 96.534L941.867 100.197C939.936 102.128 937.002 102.69 934.527 101.543C933.278 100.963 932.002 100.434 930.702 99.9555C928.148 99.0131 926.477 96.5433 926.477 93.8182V88.6465C926.477 85.0162 923.534 82.0729 919.904 82.0729H905.832C902.202 82.0729 899.259 85.0162 899.259 88.6465V93.8182C899.259 96.5433 897.592 99.0131 895.034 99.9555C893.734 100.434 892.457 100.963 891.209 101.543C888.734 102.69 885.8 102.128 883.869 100.197L880.206 96.534C877.639 93.9668 873.479 93.9668 870.912 96.534L860.963 106.483C858.396 109.05 858.396 113.21 860.963 115.777L864.626 119.44C866.557 121.371 867.119 124.305 865.972 126.78C865.392 128.028 864.863 129.305 864.385 130.605C863.442 133.158 860.972 134.829 858.247 134.829H853.076C849.445 134.829 846.502 137.773 846.502 141.403V155.474C846.502 159.105 849.445 162.048 853.076 162.048H858.247C860.972 162.048 863.442 163.715 864.385 166.273C864.863 167.573 865.392 168.849 865.972 170.098C867.119 172.572 866.557 175.506 864.626 177.438L860.963 181.101C858.396 183.668 858.396 187.827 860.963 190.395L870.912 200.344C873.479 202.911 877.639 202.911 880.206 200.344L883.869 196.681C885.8 194.749 888.734 194.188 891.209 195.334C892.457 195.91 893.734 196.444 895.034 196.922C897.587 197.864 899.259 200.334 899.259 203.059V208.231C899.259 211.861 902.202 214.805 905.832 214.805H919.904C923.534 214.805 926.477 211.861 926.477 208.231V203.059C926.477 200.334 928.144 197.864 930.702 196.922C932.002 196.444 933.278 195.915 934.527 195.334C937.002 194.188 939.936 194.749 941.867 196.681L945.53 200.344C948.097 202.911 952.257 202.911 954.824 200.344L964.773 190.395C967.34 187.827 967.34 183.668 964.773 181.101L961.11 177.438C959.179 175.506 958.617 172.572 959.763 170.098C960.344 168.849 960.873 167.573 961.351 166.273C962.293 163.719 964.763 162.048 967.488 162.048H972.66C976.29 162.048 979.234 159.105 979.234 155.474V155.474ZM910.906 186.096C891.752 185.126 876.186 169.56 875.215 150.4C874.083 128.028 892.462 109.649 914.834 110.782C933.989 111.752 949.555 127.318 950.53 146.473C951.662 168.845 933.283 187.224 910.911 186.091L910.906 186.096Z" fill="white" stroke="#0A2973" stroke-linecap="round" stroke-linejoin="round"/>
<path d="M975.483 49.5052C975.429 48.5361 976.003 47.6376 976.901 47.2654L982.379 44.9934C983.557 44.5057 984.112 43.1579 983.625 41.9802L981.073 35.8319C980.586 34.6574 979.238 34.0991 978.06 34.5868L972.579 36.8588C971.68 37.231 970.64 37.0064 969.992 36.2811C969.463 35.6875 968.898 35.1227 968.301 34.59C967.576 33.9418 967.326 32.9085 967.701 32.01L969.976 26.5099C970.464 25.3323 969.902 23.9845 968.728 23.4999L962.576 20.9553C961.398 20.4675 960.05 21.0291 959.566 22.2035L957.291 27.7037C956.918 28.6054 956.013 29.1573 955.041 29.106C954.239 29.061 953.44 29.0642 952.647 29.106C951.678 29.1605 950.779 28.5829 950.407 27.6876L948.135 22.2099C947.647 21.0355 946.299 20.4771 945.122 20.9649L938.973 23.516C937.795 24.0037 937.24 25.3515 937.728 26.5292L940 32.01C940.372 32.9085 940.147 33.9482 939.422 34.5965C938.829 35.1259 938.264 35.6907 937.731 36.2876C937.083 37.0128 936.049 37.2631 935.151 36.8876L929.651 34.6125C928.473 34.1248 927.125 34.6863 926.64 35.8608L924.096 42.0123C923.608 43.19 924.169 44.5378 925.344 45.0223L930.844 47.2974C931.746 47.6697 932.298 48.5746 932.247 49.5469C932.202 50.3491 932.205 51.145 932.247 51.9408C932.301 52.9099 931.727 53.8084 930.828 54.1806L925.35 56.4526C924.173 56.9403 923.617 58.2881 924.105 59.4657L926.656 65.6141C927.144 66.7918 928.492 67.3469 929.67 66.8591L935.148 64.5872C936.046 64.215 937.086 64.4396 937.734 65.1648C938.264 65.7585 938.829 66.3232 939.425 66.8559C940.151 67.5041 940.401 68.5374 940.026 69.4359L937.75 74.936C937.263 76.1137 937.824 77.4615 938.999 77.946L945.151 80.4907C946.328 80.9785 947.676 80.4169 948.161 79.2424L950.436 73.7423C950.808 72.8406 951.713 72.2887 952.686 72.34C953.488 72.3849 954.287 72.3817 955.08 72.34C956.049 72.2854 956.947 72.8631 957.319 73.7584L959.592 79.2392C960.079 80.4137 961.427 80.972 962.605 80.4843L968.753 77.9332C969.928 77.4454 970.486 76.0977 969.999 74.92L967.727 69.4423C967.354 68.5438 967.579 67.5041 968.304 66.8559C968.898 66.3265 969.463 65.7617 969.995 65.1648C970.644 64.4396 971.677 64.1893 972.576 64.5647L978.076 66.8399C979.254 67.3276 980.602 66.7661 981.086 65.5916L983.631 59.4401C984.119 58.2624 983.557 56.9146 982.383 56.4301L976.882 54.1549C975.98 53.7827 975.429 52.8778 975.48 51.9055C975.525 51.1032 975.522 50.3042 975.48 49.5116L975.483 49.5052ZM969.524 52.2135C968.686 60.9675 960.84 67.3341 952.098 66.3489C943.745 65.4055 937.407 57.5949 938.206 49.226C939.044 40.472 946.89 34.1055 955.631 35.0906C963.985 36.0341 970.323 43.8446 969.521 52.2135H969.524Z" fill="white" stroke="#0A2973" stroke-linecap="round" stroke-linejoin="round"/>
<path d="M265.626 87.635H319.362C329.344 87.635 337.449 95.7407 337.449 105.722V235.134H247.535V105.722C247.535 95.7407 255.64 87.635 265.622 87.635H265.626Z" fill="white" stroke="#0A2973" stroke-linecap="round" stroke-linejoin="round"/>
<path d="M337.454 243.667H247.539V271.439H337.454V243.667Z" fill="white" stroke="#0A2973" stroke-linecap="round" stroke-linejoin="round"/>
<path d="M343.842 235.26H241.481V243.789H343.842V235.26Z" fill="white" stroke="#0A2973" stroke-linecap="round" stroke-linejoin="round"/>
<path d="M343.675 60.0918H241.314V87.6347H343.675V60.0918Z" fill="white" stroke="#0A2973" stroke-linecap="round" stroke-linejoin="round"/>
<path d="M316.851 60.0915V51.308C316.851 48.2951 319.293 45.8531 322.306 45.8531C325.318 45.8531 327.76 48.2951 327.76 51.308V257.571H311.976V51.308C311.976 48.2951 309.534 45.8531 306.521 45.8531C303.508 45.8531 301.066 48.2951 301.066 51.308V60.0915" fill="white"/>
<path d="M316.851 60.0915V51.308C316.851 48.2951 319.293 45.8531 322.306 45.8531C325.318 45.8531 327.76 48.2951 327.76 51.308V257.571H311.976V51.308C311.976 48.2951 309.534 45.8531 306.521 45.8531C303.508 45.8531 301.066 48.2951 301.066 51.308V60.0915" stroke="#0A2973" stroke-linecap="round" stroke-linejoin="round"/>
<path d="M343.675 79.1063H241.314V87.6345H343.675V79.1063Z" fill="white" stroke="#0A2973" stroke-linecap="round" stroke-linejoin="round"/>
<path d="M239.011 60.0916H345.978" stroke="#0A2973" stroke-linecap="round" stroke-linejoin="round"/>
<path d="M343.675 79.107V60.0916" stroke="#0A2973" stroke-linecap="round" stroke-linejoin="round"/>
<path d="M241.314 79.107V60.0916" stroke="#0A2973" stroke-linecap="round" stroke-linejoin="round"/>
<path d="M740.126 301.248V308.073V316.058H901.924V308.073V301.248H740.126Z" fill="white" stroke="#0A2973" stroke-linecap="round" stroke-linejoin="round"/>
<path d="M907.741 317.849V299.015H901.924V317.849H907.741Z" fill="#0A2973" stroke="#0A2973" stroke-linecap="round" stroke-linejoin="round"/>
<path d="M740.125 317.849V299.015H734.309V317.849H740.125Z" fill="#0A2973" stroke="#0A2973" stroke-linecap="round" stroke-linejoin="round"/>
<path d="M946.097 277.437V292.841C946.097 305.547 935.762 315.881 923.056 315.881H913.558V300.984H923.056C927.545 300.984 931.204 297.33 931.204 292.836V277.433" fill="white"/>
<path d="M946.097 277.437V292.841C946.097 305.547 935.762 315.881 923.056 315.881H913.558V300.984H923.056C927.545 300.984 931.204 297.33 931.204 292.836V277.433" stroke="#0A2973" stroke-linecap="round" stroke-linejoin="round"/>
<path d="M913.558 317.85V299.016H907.741V317.85H913.558Z" fill="white" stroke="#0A2973" stroke-linecap="round" stroke-linejoin="round"/>
<path d="M929.496 277.437H948.33V271.62H929.496V277.437Z" fill="#0A2973" stroke="#0A2973" stroke-linecap="round" stroke-linejoin="round"/>
<path d="M923.92 151.607C923.92 157.81 918.828 162.838 912.546 162.838C906.264 162.838 901.172 157.81 901.172 151.607C901.172 145.404 912.546 134.055 912.546 134.055C912.546 134.055 923.92 145.404 923.92 151.607Z" fill="white" stroke="#0A2973" stroke-linecap="round" stroke-linejoin="round"/>
<path d="M931.729 265.803V250.399C931.729 237.693 942.063 227.359 954.769 227.359H964.268V242.256H954.769C950.28 242.256 946.622 245.91 946.622 250.404V265.807" fill="white"/>
<path d="M931.729 265.803V250.399C931.729 237.693 942.063 227.359 954.769 227.359H964.268V242.256H954.769C950.28 242.256 946.622 245.91 946.622 250.404V265.807" stroke="#0A2973" stroke-linecap="round" stroke-linejoin="round"/>
<path d="M964.268 225.391V244.225H970.085V225.391H964.268Z" fill="#0A2973" stroke="#0A2973" stroke-linecap="round" stroke-linejoin="round"/>
<path d="M948.33 265.803H929.496V271.62H948.33V265.803Z" fill="white" stroke="#0A2973" stroke-linecap="round" stroke-linejoin="round"/>
<path d="M975.901 227.619H991.304C1004.01 227.619 1014.34 237.953 1014.34 250.659V265.264H999.447V250.659C999.447 246.17 995.794 242.512 991.3 242.512H975.896" fill="white"/>
<path d="M975.901 227.619H991.304C1004.01 227.619 1014.34 237.953 1014.34 250.659V265.264H999.447V250.659C999.447 246.17 995.794 242.512 991.3 242.512H975.896" stroke="#0A2973" stroke-linecap="round" stroke-linejoin="round"/>
<path d="M1016.31 265.268H997.479V271.085H1016.31V265.268Z" fill="#0A2973" stroke="#0A2973" stroke-linecap="round" stroke-linejoin="round"/>
<path d="M975.901 244.22V225.385H970.084V244.22H975.901Z" fill="white" stroke="#0A2973" stroke-linecap="round" stroke-linejoin="round"/>
<path d="M192.347 200.978V207.58V215.304H229.951V207.58V200.978H192.347Z" fill="white" stroke="#0A2973" stroke-linecap="round" stroke-linejoin="round"/>
<path d="M236.183 217.619V198.785H230.366V217.619H236.183Z" fill="white" stroke="#0A2973" stroke-linecap="round" stroke-linejoin="round"/>
<path d="M192.195 217.619V198.785H186.378V217.619H192.195Z" fill="#0A2973" stroke="#0A2973" stroke-linecap="round" stroke-linejoin="round"/>
<path d="M260.171 165.572V154.811C260.171 142.086 270.487 131.771 283.212 131.771H289.906C294.019 131.771 297.353 135.104 297.353 139.217C297.353 143.331 294.019 146.664 289.906 146.664H283.212C278.713 146.664 275.064 150.313 275.064 154.811V165.572" fill="white"/>
<path d="M260.171 165.572V154.811C260.171 142.086 270.487 131.771 283.212 131.771H289.906C294.019 131.771 297.353 135.104 297.353 139.217C297.353 143.331 294.019 146.664 289.906 146.664H283.212C278.713 146.664 275.064 150.313 275.064 154.811V165.572" stroke="#0A2973" stroke-linecap="round" stroke-linejoin="round"/>
<path d="M276.773 165.572H257.938V171.389H276.773V165.572Z" fill="#0A2973" stroke="#0A2973" stroke-linecap="round" stroke-linejoin="round"/>
<path d="M274.545 177.206V192.61C274.545 205.316 264.21 215.65 251.504 215.65H242.006V200.753H251.504C255.993 200.753 259.652 197.099 259.652 192.605V177.202" fill="white"/>
<path d="M274.545 177.206V192.61C274.545 205.316 264.21 215.65 251.504 215.65H242.006V200.753H251.504C255.993 200.753 259.652 197.099 259.652 192.605V177.202" stroke="#0A2973" stroke-linecap="round" stroke-linejoin="round"/>
<path d="M242.001 217.619V198.785H236.184V217.619H242.001Z" fill="#0A2973" stroke="#0A2973" stroke-linecap="round" stroke-linejoin="round"/>
<path d="M257.943 177.207H276.777V171.39H257.943V177.207Z" fill="white" stroke="#0A2973" stroke-linecap="round" stroke-linejoin="round"/>
<path d="M148.018 265.658V223.793C148.018 211.086 158.352 200.752 171.058 200.752H180.557V215.65H171.058C166.569 215.65 162.911 219.303 162.911 223.797V265.663" fill="white"/>
<path d="M148.018 265.658V223.793C148.018 211.086 158.352 200.752 171.058 200.752H180.557V215.65H171.058C166.569 215.65 162.911 219.303 162.911 223.797V265.663" stroke="#0A2973" stroke-linecap="round" stroke-linejoin="round"/>
<path d="M180.562 198.786V217.62H186.379V198.786H180.562Z" fill="white" stroke="#0A2973" stroke-linecap="round" stroke-linejoin="round"/>
<path d="M164.624 265.659H145.79V271.476H164.624V265.659Z" fill="#0A2973" stroke="#0A2973" stroke-linecap="round" stroke-linejoin="round"/>
<path d="M1.00046 272.146C431.072 270.494 598.927 272.001 1029 271.36" stroke="#0A2973" stroke-linecap="round" stroke-linejoin="round"/>
<path d="M865.351 226.383V163.673C865.351 154.83 858.182 147.662 849.339 147.662H782.73C773.887 147.662 766.718 154.83 766.718 163.673V226.383C766.718 235.226 773.887 242.395 782.73 242.395H849.339C858.182 242.395 865.351 235.226 865.351 226.383Z" fill="white" stroke="#0A2973" stroke-linecap="round" stroke-linejoin="round"/>
<path d="M871.967 172.25V161.53H760.103V172.25H871.967Z" fill="white" stroke="#0A2973" stroke-linecap="round" stroke-linejoin="round"/>
<path d="M760.102 228.528L750.817 271.619L789.67 228.528" fill="white"/>
<path d="M760.102 228.528L750.817 271.619L789.67 228.528" stroke="#0A2973" stroke-linecap="round" stroke-linejoin="round"/>
<path d="M871.966 228.528L881.251 271.619L842.394 228.528" fill="white"/>
<path d="M871.966 228.528L881.251 271.619L842.394 228.528" stroke="#0A2973" stroke-linecap="round" stroke-linejoin="round"/>
<path d="M843.518 228.528L816.596 271.619L789.67 228.528" fill="white"/>
<path d="M843.518 228.528L816.596 271.619L789.67 228.528" stroke="#0A2973" stroke-linecap="round" stroke-linejoin="round"/>
<path d="M865.351 131.39V68.6797C865.351 59.8367 858.182 52.668 849.339 52.668L782.73 52.668C773.887 52.668 766.718 59.8367 766.718 68.6797V131.39C766.718 140.233 773.887 147.401 782.73 147.401H849.339C858.182 147.401 865.351 140.233 865.351 131.39Z" fill="white" stroke="#0A2973" stroke-linecap="round" stroke-linejoin="round"/>
<path d="M871.967 77.2548V66.5355H760.103V77.2548H871.967Z" fill="white" stroke="#0A2973" stroke-linecap="round" stroke-linejoin="round"/>
<path d="M871.967 133.53V122.811H760.103V133.53H871.967Z" fill="white" stroke="#0A2973" stroke-linecap="round" stroke-linejoin="round"/>
<path d="M707.021 264.502C707.021 268.272 703.966 271.331 700.192 271.331H699.036C695.266 271.331 692.207 268.277 692.207 264.502V57.4869H707.016V264.502H707.021Z" fill="white" stroke="#0A2973" stroke-linecap="round" stroke-linejoin="round"/>
<path d="M690.419 57.4875H709.253V51.6706H690.419V57.4875Z" fill="white" stroke="#0A2973" stroke-linecap="round" stroke-linejoin="round"/>
<path d="M805.649 46.8509V36.0897C805.649 23.3834 795.315 13.0493 782.609 13.0493H768.468V27.9469H782.609C787.098 27.9469 790.756 31.6005 790.756 36.0944V46.8555" fill="white"/>
<path d="M805.649 46.8509V36.0897C805.649 23.3834 795.315 13.0493 782.609 13.0493H768.468V27.9469H782.609C787.098 27.9469 790.756 31.6005 790.756 36.0944V46.8555" stroke="#0A2973" stroke-linecap="round" stroke-linejoin="round"/>
<path d="M762.646 11.0817V29.916H768.463V11.0817H762.646Z" fill="#0A2973" stroke="#0A2973" stroke-linecap="round" stroke-linejoin="round"/>
<path d="M789.048 52.666H807.882V46.849H789.048V52.666Z" fill="#0A2973" stroke="#0A2973" stroke-linecap="round" stroke-linejoin="round"/>
<path d="M756.829 13.3102H715.428C702.721 13.3102 692.387 23.6442 692.387 36.3506V45.849H707.285V36.3506C707.285 31.8613 710.939 28.2031 715.432 28.2031H756.834" fill="white"/>
<path d="M756.829 13.3102H715.428C702.721 13.3102 692.387 23.6442 692.387 36.3506V45.849H707.285V36.3506C707.285 31.8613 710.939 28.2031 715.432 28.2031H756.834" stroke="#0A2973" stroke-linecap="round" stroke-linejoin="round"/>
<path d="M690.419 51.6708H709.253V45.8538H690.419V51.6708Z" fill="#0A2973" stroke="#0A2973" stroke-linecap="round" stroke-linejoin="round"/>
<path d="M762.646 29.9159V11.0817H756.829V29.9159H762.646Z" fill="white" stroke="#0A2973" stroke-linecap="round" stroke-linejoin="round"/>
<path d="M718.766 298.926H368.591V324.06H718.766V298.926Z" fill="#0A2973" fill-opacity="0.5"/>
<path d="M718.766 298.926V215.376C709.095 224.489 693.418 224.489 683.748 215.376C674.078 224.489 658.4 224.489 648.73 215.376C639.06 224.489 623.382 224.489 613.712 215.376C604.042 224.489 588.364 224.489 578.694 215.376C569.024 224.489 553.346 224.489 543.676 215.376C534.006 224.489 518.329 224.489 508.658 215.376C498.988 224.489 483.311 224.489 473.64 215.376C463.97 224.489 448.293 224.489 438.623 215.376C428.952 224.489 413.275 224.489 403.605 215.376C393.935 224.489 378.257 224.489 368.587 215.376V298.926H718.761H718.766Z" fill="url(#paint2_linear_356_2547)"/>
<path d="M718.766 298.926V215.376C709.095 224.489 693.418 224.489 683.748 215.376C674.078 224.489 658.4 224.489 648.73 215.376C639.06 224.489 623.382 224.489 613.712 215.376C604.042 224.489 588.364 224.489 578.694 215.376C569.024 224.489 553.346 224.489 543.676 215.376C534.006 224.489 518.329 224.489 508.658 215.376C498.988 224.489 483.311 224.489 473.64 215.376C463.97 224.489 448.293 224.489 438.623 215.376C428.952 224.489 413.275 224.489 403.605 215.376C393.935 224.489 378.257 224.489 368.587 215.376V298.926H718.761H718.766Z" stroke="#0A2973" stroke-linecap="round" stroke-linejoin="round"/>
<path d="M718.766 310.885H368.591V324.06H718.766V310.885Z" fill="#0A2973"/>
<path d="M718.766 192.409V324.059H368.591V192.409H353.049V324.059C353.049 332.643 360.008 339.602 368.591 339.602H718.766C727.349 339.602 734.308 332.643 734.308 324.059V192.409H718.766Z" fill="white" stroke="#0A2973" stroke-linecap="round" stroke-linejoin="round"/>
<path d="M693.594 259.929C694.041 257.17 692.168 254.571 689.409 254.123C686.651 253.676 684.052 255.549 683.604 258.307C683.156 261.066 685.029 263.665 687.788 264.113C690.547 264.561 693.146 262.688 693.594 259.929Z" fill="white" stroke="#0A2973" stroke-linecap="round" stroke-linejoin="round"/>
<path d="M679.124 279.621C680.919 279.621 682.374 278.166 682.374 276.372C682.374 274.577 680.919 273.122 679.124 273.122C677.329 273.122 675.874 274.577 675.874 276.372C675.874 278.166 677.329 279.621 679.124 279.621Z" fill="white" stroke="#0A2973" stroke-linecap="round" stroke-linejoin="round"/>
<path d="M701.658 243.169C703.453 243.169 704.908 241.714 704.908 239.919C704.908 238.125 703.453 236.67 701.658 236.67C699.864 236.67 698.409 238.125 698.409 239.919C698.409 241.714 699.864 243.169 701.658 243.169Z" fill="white" stroke="#0A2973" stroke-linecap="round" stroke-linejoin="round"/>
<path d="M703.477 278.241C703.928 275.463 702.041 272.844 699.262 272.393C696.483 271.942 693.865 273.829 693.414 276.608C692.963 279.387 694.85 282.005 697.629 282.456C700.408 282.907 703.026 281.02 703.477 278.241Z" fill="white" stroke="#0A2973" stroke-linecap="round" stroke-linejoin="round"/>
<path d="M687.629 289.213C689.039 289.213 690.182 288.07 690.182 286.66C690.182 285.25 689.039 284.106 687.629 284.106C686.219 284.106 685.075 285.25 685.075 286.66C685.075 288.07 686.219 289.213 687.629 289.213Z" fill="white" stroke="#0A2973" stroke-linecap="round" stroke-linejoin="round"/>
<path d="M399.044 267.524C399.458 264.76 397.552 262.184 394.789 261.771C392.025 261.357 389.449 263.262 389.035 266.026C388.622 268.79 390.527 271.366 393.291 271.78C396.055 272.193 398.631 270.288 399.044 267.524Z" fill="white" stroke="#0A2973" stroke-linecap="round" stroke-linejoin="round"/>
<path d="M403.493 252.755C405.288 252.755 406.743 251.3 406.743 249.505C406.743 247.711 405.288 246.256 403.493 246.256C401.698 246.256 400.243 247.711 400.243 249.505C400.243 251.3 401.698 252.755 403.493 252.755Z" fill="white" stroke="#0A2973" stroke-linecap="round" stroke-linejoin="round"/>
<path d="M380.959 289.212C382.754 289.212 384.209 287.757 384.209 285.962C384.209 284.167 382.754 282.713 380.959 282.713C379.164 282.713 377.709 284.167 377.709 285.962C377.709 287.757 379.164 289.212 380.959 289.212Z" fill="white" stroke="#0A2973" stroke-linecap="round" stroke-linejoin="round"/>
<path d="M387.814 252.095C389.805 250.104 389.805 246.877 387.814 244.886C385.823 242.896 382.596 242.896 380.605 244.886C378.615 246.877 378.615 250.104 380.605 252.095C382.596 254.086 385.823 254.086 387.814 252.095Z" fill="white" stroke="#0A2973" stroke-linecap="round" stroke-linejoin="round"/>
<path d="M394.989 241.776C396.399 241.776 397.542 240.633 397.542 239.223C397.542 237.813 396.399 236.67 394.989 236.67C393.578 236.67 392.435 237.813 392.435 239.223C392.435 240.633 393.578 241.776 394.989 241.776Z" fill="white" stroke="#0A2973" stroke-linecap="round" stroke-linejoin="round"/>
<g opacity="0.2">
<path d="M436.969 237.458L410.289 266.009H463.644L436.969 237.458Z" fill="white" stroke="#0A2973" stroke-linecap="round" stroke-linejoin="round"/>
<path d="M490.32 237.458L463.644 266.009H517L490.32 237.458Z" fill="white" stroke="#0A2973" stroke-linecap="round" stroke-linejoin="round"/>
<path d="M543.675 237.458L517 266.009H570.355L543.675 237.458Z" fill="white" stroke="#0A2973" stroke-linecap="round" stroke-linejoin="round"/>
<path d="M604.412 245.36L597.031 237.458L570.355 266.009H623.711L604.412 245.36Z" fill="white" stroke="#0A2973" stroke-linecap="round" stroke-linejoin="round"/>
<path d="M657.609 245.36L650.228 237.458L623.553 266.009H676.908L657.609 245.36Z" fill="white" stroke="#0A2973" stroke-linecap="round" stroke-linejoin="round"/>
<path d="M543.675 237.458V299.017" stroke="#0A2973" stroke-linecap="round" stroke-linejoin="round"/>
</g>
<path d="M468.283 237.458L449.434 266.009H487.131L468.283 237.458Z" fill="white" stroke="#0A2973" stroke-linecap="round" stroke-linejoin="round"/>
<path d="M505.979 237.458L487.131 266.009H524.828L505.979 237.458Z" fill="white" stroke="#0A2973" stroke-linecap="round" stroke-linejoin="round"/>
<path d="M543.676 237.458L524.827 266.009H562.524L543.676 237.458Z" fill="white" stroke="#0A2973" stroke-linecap="round" stroke-linejoin="round"/>
<path d="M586.586 245.36L581.372 237.458L562.524 266.009H600.221L586.586 245.36Z" fill="white" stroke="#0A2973" stroke-linecap="round" stroke-linejoin="round"/>
<path d="M624.403 245.36L619.19 237.458L600.341 266.009H638.038L624.403 245.36Z" fill="white" stroke="#0A2973" stroke-linecap="round" stroke-linejoin="round"/>
<path d="M543.676 237.458V299.017" stroke="#0A2973" stroke-linecap="round" stroke-linejoin="round"/>
<path d="M871.966 228.524V217.804H760.102V228.524H871.966Z" fill="white" stroke="#0A2973" stroke-linecap="round" stroke-linejoin="round"/>
<defs>
<linearGradient id="paint0_linear_356_2547" x1="367.844" y1="229.548" x2="369.7" y2="144.128" gradientUnits="userSpaceOnUse">
<stop stop-color="#C5DDEF"/>
<stop offset="0.95" stop-color="white"/>
</linearGradient>
<linearGradient id="paint1_linear_356_2547" x1="784.298" y1="228.881" x2="786.155" y2="143.46" gradientUnits="userSpaceOnUse">
<stop stop-color="#C5DDEF"/>
<stop offset="0.95" stop-color="white"/>
</linearGradient>
<linearGradient id="paint2_linear_356_2547" x1="543.676" y1="213.031" x2="543.676" y2="300.95" gradientUnits="userSpaceOnUse">
<stop stop-color="#D4D8E2"/>
<stop offset="1" stop-color="white"/>
</linearGradient>
</defs>
</svg>
