<svg width="131" height="15" viewBox="0 0 131 15" fill="none" xmlns="http://www.w3.org/2000/svg">
<path d="M111.04 0H114.673L109.756 7.60829L114.673 14.7889H111.018L107.086 9.02107H101.617V14.7889H98.3461V0H101.617V6.00541H107.216L111.04 0Z" fill="#0A2973"/>
<path d="M35.9633 14.7845H32.4206L30.8652 11.73H21.8182L20.2629 14.7845H16.7201L24.6265 0H28.0612L35.9633 14.7845ZM26.3547 3.09775L23.2267 8.95195H29.487L26.3547 3.09775Z" fill="#0A2973"/>
<path d="M89.0183 0C90.241 0 91.3297 0.172818 92.2889 0.522773C93.248 0.872729 94.0646 1.36526 94.7299 2.009C95.3953 2.65707 95.9051 3.43043 96.255 4.34204C96.605 5.25365 96.7778 6.26464 96.7778 7.37499V7.39659C96.7778 8.5199 96.6007 9.53953 96.255 10.4468C95.9051 11.3541 95.3953 12.1318 94.7299 12.7799C94.0646 13.4279 93.248 13.9205 92.2889 14.2661C91.3297 14.6117 90.2367 14.7889 89.0183 14.7889H85.7132C84.4905 14.7889 83.4017 14.616 82.4426 14.2661C81.4835 13.9161 80.6669 13.4236 80.0015 12.7799C79.3362 12.1318 78.8264 11.3584 78.4764 10.4468C78.1265 9.53953 77.9493 8.5199 77.9493 7.39659V7.37499C77.9493 6.26464 78.1222 5.25365 78.4764 4.34204C78.8264 3.43475 79.3362 2.65275 80.0015 2.009C80.6669 1.36094 81.4835 0.868408 82.4426 0.522773C83.4017 0.177138 84.4948 0 85.7132 0H89.0183V0ZM89.0183 11.8769C90.5045 11.8769 91.6408 11.4708 92.4185 10.6585C93.1962 9.84628 93.585 8.75753 93.585 7.40091V7.37931C93.585 6.03133 93.1962 4.95122 92.4185 4.13898C91.6365 3.32674 90.5045 2.92062 89.0183 2.92062H85.7132C84.2399 2.92062 83.1079 3.32674 82.3259 4.13898C81.5396 4.95122 81.1465 6.03133 81.1465 7.37931V7.40091C81.1465 8.76185 81.5396 9.8506 82.3259 10.6585C83.1123 11.4708 84.2442 11.8769 85.7132 11.8769H89.0183Z" fill="#0A2973"/>
<path d="M37.6612 11.8121C38.076 11.8121 38.4346 11.717 38.7413 11.514C39.0481 11.3152 39.3116 10.9437 39.5363 10.3907C39.7609 9.83764 39.9381 9.06428 40.085 8.06626C40.2276 7.06824 40.3399 5.67274 40.4263 4.07417L40.6423 0H54.5412V14.7845H51.2404V2.97678H43.8006L43.7401 4.1649C43.6407 6.23007 43.4636 8.04034 43.2043 9.39695C42.9494 10.7536 42.5865 11.8337 42.1242 12.633C41.6576 13.4322 41.0657 13.9939 40.3442 14.3093C39.6227 14.629 38.7327 14.7889 37.6742 14.7889H37.2032V11.8207H37.6699L37.6612 11.8121Z" fill="#0A2973"/>
<path d="M63.8604 1.60288H64.8195V0H68.0382V1.60288H68.9801C70.2201 1.60288 71.3045 1.74978 72.2334 2.03493C73.1623 2.3244 73.9356 2.7262 74.5535 3.23601C75.1713 3.74582 75.6422 4.35068 75.9533 5.05491C76.2687 5.75914 76.4242 6.52818 76.4242 7.37067C76.4242 8.21315 76.2687 8.99083 75.9533 9.70802C75.6379 10.4252 75.1713 11.043 74.5535 11.5485C73.9356 12.0583 73.158 12.4601 72.2334 12.7496C71.3045 13.0391 70.2201 13.1817 68.9801 13.1817H68.0382V14.7845H64.8195V13.1817H63.8604C62.6334 13.1817 61.5576 13.0348 60.6287 12.7496C59.6998 12.4601 58.9264 12.0583 58.3086 11.5485C57.6908 11.0387 57.2242 10.4252 56.9174 9.70802C56.6107 8.99083 56.4595 8.21315 56.4595 7.37067C56.4595 6.52818 56.6107 5.75482 56.9174 5.05491C57.2242 4.35068 57.6908 3.74582 58.3086 3.23601C58.9264 2.7262 59.7041 2.3244 60.6287 2.03493C61.5576 1.74546 62.6334 1.60288 63.8604 1.60288ZM63.8604 10.5246H64.8843V4.26859H63.8604C63.0784 4.26859 62.413 4.34204 61.8643 4.49326C61.3113 4.64447 60.8577 4.86049 60.5034 5.137C60.1491 5.41351 59.8856 5.73754 59.7171 6.12206C59.5529 6.50226 59.4665 6.92134 59.4665 7.37499C59.4665 7.82863 59.5529 8.25204 59.7171 8.63656C59.8813 9.02107 60.1448 9.35807 60.5034 9.64322C60.8577 9.92837 61.3113 10.1444 61.8643 10.2956C62.4174 10.4468 63.0827 10.5203 63.8604 10.5203V10.5246ZM68.9844 10.5246C69.7664 10.5246 70.4361 10.4511 70.9934 10.2999C71.5508 10.1487 72.0087 9.93269 72.363 9.64754C72.7173 9.36239 72.9808 9.02972 73.1493 8.64088C73.3178 8.25636 73.3999 7.83295 73.3999 7.37931C73.3999 6.92566 73.3135 6.50658 73.1493 6.12638C72.9851 5.74618 72.7216 5.41783 72.363 5.14132C72.0087 4.86481 71.5508 4.64879 70.9934 4.49758C70.4361 4.34636 69.7664 4.27291 68.9844 4.27291H67.9778V10.5246H68.9844Z" fill="#0A2973"/>
<path d="M11.0646 11.8769H7.75951C6.28624 11.8769 5.1586 11.4708 4.37228 10.6585C3.58596 9.84628 3.1928 8.76185 3.1928 7.40091V7.37931C3.1928 6.03565 3.58596 4.95554 4.37228 4.13898C5.15428 3.32674 6.28624 2.92062 7.75951 2.92062H11.0646C12.5379 2.92062 13.6655 3.32242 14.4432 4.1217L16.6596 1.90531C16.0159 1.31341 15.2425 0.851126 14.3395 0.522773C13.3804 0.177138 12.2873 0 11.069 0H7.76383C6.54546 0 5.45239 0.172818 4.49326 0.522773C3.53412 0.868408 2.71756 1.36526 2.05221 2.009C1.38686 2.65275 0.877049 3.43043 0.527093 4.34204C0.172818 5.24933 0 6.26464 0 7.37499V7.39659C0 8.5199 0.177138 9.53953 0.527093 10.4468C0.877049 11.3541 1.38686 12.1318 2.05221 12.7799C2.71756 13.4236 3.53412 13.9205 4.49326 14.2661C5.45239 14.6117 6.54546 14.7889 7.76383 14.7889H11.069C12.2873 14.7889 13.3804 14.616 14.3395 14.2661C14.9142 14.0587 15.4326 13.7908 15.9035 13.4754L13.6915 11.2634C12.9959 11.6695 12.1231 11.8769 11.069 11.8769H11.0646Z" fill="#0A2973"/>
<path d="M125.405 11.8769H122.1C120.627 11.8769 119.499 11.4708 118.713 10.6585C117.926 9.84628 117.533 8.76185 117.533 7.40091V7.37931C117.533 6.03565 117.926 4.95554 118.713 4.13898C119.495 3.32674 120.627 2.92062 122.1 2.92062H125.405C126.878 2.92062 128.006 3.32242 128.784 4.1217L131 1.90531C130.356 1.31341 129.583 0.851126 128.68 0.522773C127.721 0.177138 126.628 0 125.409 0H122.104C120.886 0 119.793 0.172818 118.834 0.522773C117.875 0.868408 117.058 1.36526 116.393 2.009C115.727 2.65275 115.218 3.43043 114.868 4.34204C114.513 5.24933 114.34 6.26464 114.34 7.37499V7.39659C114.34 8.5199 114.518 9.53953 114.868 10.4468C115.218 11.3541 115.727 12.1318 116.393 12.7799C117.058 13.4236 117.875 13.9205 118.834 14.2661C119.793 14.6117 120.886 14.7889 122.104 14.7889H125.409C126.628 14.7889 127.721 14.616 128.68 14.2661C129.255 14.0587 129.773 13.7908 130.244 13.4754L128.032 11.2634C127.336 11.6695 126.464 11.8769 125.409 11.8769H125.405Z" fill="#0A2973"/>
</svg>
