<svg width="1272" height="454" viewBox="0 0 1272 454" fill="none" xmlns="http://www.w3.org/2000/svg">
<path opacity="0.1" d="M1247.96 265.016V248.494H1239.75V222.434H1233.38V212.944C1233.38 204.604 1227.21 197.712 1219.18 196.592V196.281C1219.18 186.09 1210.89 177.813 1200.71 177.813H1200.1C1189.91 177.813 1181.64 186.106 1181.64 196.281V229.715H1172.61V194.18C1172.61 191.862 1171.37 189.84 1169.52 188.72C1171.68 188.082 1173.25 186.09 1173.25 183.725C1173.25 180.847 1170.92 178.513 1168.04 178.513H1163.85V173.659H1157.37V178.513H1153.18C1150.3 178.513 1147.97 180.847 1147.97 183.725C1147.97 186.09 1149.56 188.082 1151.7 188.72C1149.85 189.84 1148.62 191.862 1148.62 194.18V229.715H1139.85V197.059C1139.85 195.363 1138.46 193.978 1136.77 193.978H1130.51V160.559C1130.51 154.445 1125.53 149.467 1119.42 149.467V148.984C1119.42 139.976 1112.12 132.679 1103.12 132.679C1094.11 132.679 1086.81 139.976 1086.81 148.984V248.478H1078.6V254.188L1069.07 47.0943H1058.7V18.7631H1063.24V11.5597H1058.7V0H1051.07V11.5597H1046.53V18.7631H1051.07V47.0943H1040.7L1030.71 264.581L1036.39 264.721L1037.01 265.016H1024.8V188.735C1024.8 181.812 1019.18 176.211 1012.27 176.211H1010V167.047C1010 163.095 1006.79 159.89 1002.84 159.89H987.565C983.613 159.89 980.408 163.095 980.408 167.047V222.761H978.479V208.027C978.479 202.846 974.279 198.63 969.082 198.63H967.977V195.939C967.977 191.987 964.773 188.782 960.821 188.782H953.571C949.619 188.782 946.414 191.987 946.414 195.939V222.761H878.347V220.551H879.576V210.89H878.347V200.715C878.347 199.237 878.005 197.837 877.398 196.592V156.732H879.576V147.071H877.398V99.8518C877.398 96.1645 874.396 93.1774 870.724 93.1774H860.782C857.095 93.1774 854.108 96.1801 854.108 99.8518V104.877H852.583C849.005 104.877 846.111 107.771 846.111 111.349V132.897H832.435V142.559H846.111V175.355H832.435V185.032H846.111V191.193H711.518V156.748H713.696V147.086H711.518V99.8674C711.518 96.1801 708.531 93.1929 704.844 93.1929H694.902C691.215 93.1929 688.227 96.1957 688.227 99.8674V104.893H686.703C683.124 104.893 680.231 107.786 680.231 111.365V132.913H666.571V142.574H680.231V175.371H666.571V185.048H680.231V191.209H675.968C670.709 191.209 666.431 195.487 666.431 200.746V222.807H659.787V165.787C659.787 158.397 632.81 152.314 598.348 151.66V146.837H601.647C602.518 146.837 603.218 146.137 603.218 145.266C603.218 144.395 602.518 143.695 601.647 143.695H598.348V142.512C598.348 141.081 597.197 139.929 595.766 139.929H588.345C586.913 139.929 585.762 141.081 585.762 142.512V143.695H582.464C581.592 143.695 580.892 144.395 580.892 145.266C580.892 146.137 581.592 146.837 582.464 146.837H585.762V151.66C551.301 152.329 524.323 158.397 524.323 165.787V201.135H511.145V188.471C511.145 182.745 490.266 178.047 463.615 177.533V173.799H466.167C466.836 173.799 467.38 173.255 467.38 172.586C467.38 171.917 466.836 171.372 466.167 171.372H463.615V170.454C463.615 169.35 462.729 168.463 461.608 168.463H455.868C454.763 168.463 453.876 169.35 453.876 170.454V171.372H451.325C450.656 171.372 450.111 171.917 450.111 172.586C450.111 173.255 450.656 173.799 451.325 173.799H453.876V177.533C427.225 178.047 406.346 182.745 406.346 188.471V201.135H391.473V176.958C391.473 170.392 367.498 164.994 336.895 164.402V160.108H339.835C340.613 160.108 341.236 159.486 341.236 158.708C341.236 157.93 340.613 157.308 339.835 157.308H336.895V156.265C336.895 155.005 335.868 153.978 334.608 153.978H328.011C326.751 153.978 325.724 155.005 325.724 156.265V157.308H322.784C322.006 157.308 321.383 157.93 321.383 158.708C321.383 159.486 322.006 160.108 322.784 160.108H325.724V164.402C295.106 164.994 271.146 170.392 271.146 176.958V201.135H267.724V199.175H264.892V128.743H267.724V116.172H264.892V54.7489C264.892 49.957 261.002 46.0675 256.211 46.0675H243.282C238.49 46.0675 234.6 49.957 234.6 54.7489V61.2989H232.609C227.957 61.2989 224.192 65.0639 224.192 69.7158V97.7204H206.409V110.291H224.192V152.936H206.409V165.507H224.192V201.119H196.639V175.962H198.521V167.592H196.639V126.736C196.639 123.547 194.04 120.964 190.867 120.964H182.263C179.074 120.964 176.475 123.562 176.475 126.736V131.092H175.153C172.057 131.092 169.552 133.597 169.552 136.693V155.332H157.728V163.702H169.552V192.08H157.728V200.45H169.552V201.135H153.652V204.449H153.589V201.135H147.895V169.21H149.918V160.248H147.895V116.437C147.895 113.014 145.11 110.245 141.703 110.245H132.477C129.054 110.245 126.285 113.03 126.285 116.437V121.104H124.869C121.555 121.104 118.864 123.796 118.864 127.11V147.086H106.184V156.048H118.864V186.464H106.184V195.425H118.864V201.104H111.785V204.418H111.723V201.104H86.0518V190.509C86.0518 183.585 80.4353 177.985 73.5275 177.985H64.2238C57.3004 177.985 51.6995 183.601 51.6995 190.509V201.104H30.805V205.118L30.7428 205.211L30.805 205.242V225.483L30.7428 225.514L30.805 225.608V265.001H0V453.656H1271.27V267.599L1247.95 265.001L1247.96 265.016ZM877.383 148.066H878.565V153.309H877.383V148.066ZM835.625 139.12H833.416V133.877H835.625V139.12ZM838.83 139.12H836.621V133.877H838.83V139.12ZM842.035 139.12H839.826V133.877H842.035V139.12ZM835.609 181.578H833.4V176.335H835.609V181.578ZM838.814 181.578H836.605V176.335H838.814V181.578ZM842.019 181.578H839.81V176.335H842.019V181.578ZM711.456 148.051H712.638V153.294H711.456V148.051ZM669.698 139.105H667.489V133.862H669.698V139.105ZM672.903 139.105H670.694V133.862H672.903V139.105ZM676.108 139.105H673.898V133.862H676.108V139.105ZM669.698 181.563H667.489V176.32H669.698V181.563ZM672.903 181.563H670.694V176.32H672.903V181.563ZM676.108 181.563H673.898V176.32H676.108V181.563ZM264.83 117.448H266.37V124.262H264.83V117.448ZM210.532 105.826H207.654V99.0117H210.532V105.826ZM214.702 105.826H211.823V99.0117H214.702V105.826ZM218.871 105.826H215.993V99.0117H218.871V105.826ZM210.532 161.042H207.654V154.227H210.532V161.042ZM214.702 161.042H211.823V154.227H214.702V161.042ZM218.871 161.042H215.993V154.227H218.871V161.042ZM196.576 168.447H197.603V172.99H196.576V168.447ZM160.435 160.715H158.521V156.172H160.435V160.715ZM163.204 160.715H161.291V156.172H163.204V160.715ZM165.989 160.715H164.076V156.172H165.989V160.715ZM160.435 197.463H158.521V192.936H160.435V197.463ZM163.204 197.463H161.291V192.936H163.204V197.463ZM165.989 197.463H164.076V192.936H165.989V197.463ZM147.817 161.151H148.906V166.02H147.817V161.151ZM109.078 152.858H107.024V147.989H109.078V152.858ZM112.049 152.858H109.996V147.989H112.049V152.858ZM115.021 152.858H112.967V147.989H115.021V152.858ZM109.062 192.251H107.009V187.382H109.062V192.251ZM112.034 192.251H109.98V187.382H112.034V192.251ZM115.005 192.251H112.952V187.382H115.005V192.251ZM1187.72 196.296C1187.72 189.513 1193.24 183.974 1200.04 183.974H1200.65C1207.45 183.974 1212.97 189.497 1212.97 196.296V196.888C1205.71 198.615 1200.29 205.149 1200.29 212.959V222.45H1193.93V229.731H1187.72V196.296ZM1187.72 235.876H1193.93V248.494H1187.72V235.876ZM1172.55 235.876H1181.57V248.494H1172.55V235.876ZM1130.45 200.155H1133.64V232.811C1133.64 234.507 1135.01 235.892 1136.72 235.892H1148.58V248.509H1130.47V200.17L1130.45 200.155ZM1119.36 155.659C1122.08 155.659 1124.29 157.868 1124.29 160.591V194.009H1119.36V155.659ZM1119.36 200.155H1124.29V248.494H1119.36V200.155ZM1078.53 264.612V265.032H1072.71L1073.34 264.736L1078.55 264.596L1078.53 264.612ZM1058.63 223.165H1069.73L1058.63 236.312V223.165ZM1058.63 218.918V204.496L1069.57 218.918H1058.63ZM1058.63 178.202H1067.7L1058.63 190.151V178.202ZM1058.63 173.955V160.388L1067.56 173.955H1058.63ZM1058.63 133.239H1065.7L1058.63 143.959V133.239ZM1058.63 128.992V116.577L1065.54 128.992H1058.63ZM1058.63 88.2766H1063.68L1058.63 97.3314V88.2766ZM1058.63 84.0292V75.6745L1063.46 84.0292H1058.63ZM1051.01 84.0292H1046.19L1051.01 75.6745V84.0292ZM1051.01 88.2766V97.3158L1045.99 88.2766H1051.01ZM1051.01 128.992H1044.1L1051.01 116.577V128.992ZM1051.01 133.239V143.959L1043.96 133.239H1051.01ZM1051.01 173.955H1042.08L1051.01 160.388V173.955ZM1051.01 178.202V190.151L1041.94 178.202H1051.01ZM1051.01 218.918H1040.07L1051.01 204.511V218.918ZM1051.01 223.165V236.312L1039.92 223.165H1051.01ZM1058.63 249.334L1071.87 265.032H1058.63V249.334ZM1073.21 262.636L1058.63 245.351V240.295L1071.49 225.063L1073.21 262.652V262.636ZM1071.1 216.631L1058.62 200.201V194.461L1069.42 180.24L1071.08 216.631H1071.1ZM1069.01 171.372L1058.62 155.565V148.782L1067.36 135.48L1069.01 171.357V171.372ZM1066.93 125.989L1058.62 111.054V102.87L1065.31 90.8437L1066.93 125.989ZM1064.87 81.1354L1058.63 70.3381V62.4968L1063.63 53.8621L1064.89 81.1354H1064.87ZM1061.95 51.3728L1058.62 57.1293V51.3728H1061.95ZM1051 51.3728V57.1293L1047.67 51.3728H1051ZM1046 53.8621L1051 62.4968V70.3381L1044.76 81.1354L1046.02 53.8621H1046ZM1044.31 90.8592L1051 102.886V111.069L1042.69 126.005L1044.31 90.8592ZM1042.25 135.511L1051 148.798V155.581L1040.6 171.372L1042.25 135.495V135.511ZM1040.2 180.256L1051 194.476V200.217L1038.52 216.646L1040.18 180.256H1040.2ZM1038.14 225.079L1051 240.31V245.367L1036.42 262.652L1038.14 225.063V225.079ZM1051 249.365V265.063H1037.76L1051 249.365ZM253.846 128.728H259.867V199.159H249.894V128.728H253.846ZM249.894 124.278V117.464H253.846V124.278H249.894ZM255.153 124.278V117.464H258.031V124.278H255.153ZM258.031 201.119H255.153V200.466H258.031V201.119ZM258.031 204.838V205.289L255.153 206.969V204.838H258.031ZM253.861 207.28H249.91V204.838H253.861V207.28ZM249.91 220.738L258.809 225.919H249.91V220.738ZM249.91 217.627V213.146L252.337 211.73H259.898V223.43L249.925 217.627H249.91ZM259.338 201.119V200.466H259.882V201.119H259.338ZM259.882 124.278H259.338V117.464H259.882V124.278ZM253.861 200.45V201.104H249.91V200.45H253.861ZM249.91 229.637H259.882V265.016H249.91V229.637ZM267.49 229.637H271.115V265.016H267.49V229.637ZM271.115 225.919H269.839L271.115 225.172V225.919ZM391.473 214.686L392.655 215.371L391.473 216.055V214.686ZM395.331 216.926L406.362 223.352V225.919H391.488V219.182L395.347 216.942L395.331 216.926ZM406.362 220.225L398.007 215.355L406.362 210.501V220.225ZM391.488 229.622H406.362V265.001H391.488V229.622ZM922.408 257.097H891.556L896.177 254.406H917.803L922.423 257.097H922.408ZM988.032 246.549L978.526 252.088V244.807C980.004 244.713 981.357 244.169 982.462 243.313L988.032 246.565V246.549ZM952.746 245.833V247.265L951.517 246.549L952.746 245.833ZM946.165 246.549L940.86 249.645H931.058V244.838H943.193L946.165 246.565V246.549ZM926.391 249.645H914.956L909.65 246.549L912.622 244.822H926.391V249.63V249.645ZM906.974 244.993L906.694 244.822H907.27L906.974 244.993ZM909.604 249.645H904.361L906.99 248.12L909.619 249.645H909.604ZM904.298 246.549L898.993 249.645H889.596V244.838H901.327L904.283 246.565L904.298 246.549ZM768.725 240.061V227.833H805.909V232.173H779.071C774.575 232.173 770.888 235.643 770.514 240.046H768.725V240.061ZM783.956 216.615L786.492 215.137L789.028 216.615H783.941H783.956ZM870.537 246.565L873.509 244.838H873.649V248.369L870.553 246.565H870.537ZM846.158 232.189H810.592V227.848H846.158V232.189ZM873.633 240.061H865.963V239.812H873.633V240.061ZM868.141 244.822L867.846 244.993L867.55 244.822H868.126H868.141ZM825.808 216.6L828.344 215.122L830.88 216.6H825.792H825.808ZM743.521 224.099H729.176L744.61 215.122L748.484 217.378C745.824 218.591 743.894 221.112 743.521 224.099ZM764.011 227.817V240.046H751.067V227.817H764.011ZM779.04 239.797H805.878V240.046H778.402C778.573 239.89 778.791 239.797 779.04 239.797ZM810.561 239.797H846.127V240.046H810.561V239.797ZM865.932 249.209L867.83 248.105L870.459 249.63H865.932V249.209ZM877.414 249.63V244.822H881.412V249.63H877.414ZM846.111 216.6H836.216L831.004 213.566L846.127 204.76V216.6H846.111ZM828.313 211.994L812.879 203.018H843.731L828.297 211.994H828.313ZM825.637 213.55L820.409 216.584H810.53V204.76L825.621 213.55H825.637ZM805.847 216.584H794.334L789.122 213.55L805.862 203.811V216.6L805.847 216.584ZM786.43 211.979L770.997 203.002H801.848L786.415 211.979H786.43ZM783.754 213.535L778.542 216.569H768.663V204.744L783.754 213.535ZM763.964 216.569H752.451L747.239 213.535L763.964 203.795V216.584V216.569ZM744.563 211.963L729.13 202.986H759.981L744.548 211.963H744.563ZM741.887 213.519L727.201 222.076V204.962L741.887 213.519ZM743.396 227.786V240.015H741.654C741.296 235.612 737.593 232.142 733.097 232.142H727.185V227.802H743.381L743.396 227.786ZM712.669 216.18L711.487 215.495V211.839H712.669V216.195V216.18ZM720.868 224.068H711.487V220.489H713.665V219.867L720.868 224.052V224.068ZM707.675 224.068H700.005V220.489H707.675V224.068ZM707.675 217.066H707.255V216.133L707.675 216.382V217.066ZM705.435 215.075L706.244 215.542V217.051H704.035V215.884L705.435 215.075ZM705.186 211.823H705.668L705.419 211.963L705.17 211.823H705.186ZM702.759 213.519L700.005 215.122V211.901L702.759 213.504V213.519ZM703.039 216.475V217.066H702.028L703.039 216.475ZM707.675 227.786V232.127H700.005V227.786H707.675ZM672.28 246.502L675.252 244.775H680.2V249.583H677.586L672.28 246.487V246.502ZM666.929 246.502L661.623 249.598H659.741V244.791H663.957L666.929 246.518V246.502ZM678.084 240.015H661.125L660.69 239.766H678.504L678.068 240.015H678.084ZM669.9 244.775L669.604 244.947L669.309 244.775H669.885H669.9ZM669.604 248.058L672.234 249.583H666.991L669.62 248.058H669.604ZM700.005 239.75H707.675V239.999H700.005V239.75ZM711.487 239.75H722.502V239.999H711.487V239.75ZM727.201 239.75H733.113C733.362 239.75 733.579 239.843 733.75 239.999H727.216V239.75H727.201ZM711.487 232.127V227.786H722.502V232.127H711.487ZM722.502 221.889L713.665 216.74V210.812H712.747L722.502 205.133V221.889ZM711.487 208.432V202.971H720.868L711.487 208.432ZM707.675 210.656L707.395 210.812H703.474L700.005 208.79V202.971H707.675V210.656ZM659.741 254.359H680.184V257.051H659.741V254.359ZM700.005 244.775H707.675V249.583H700.005V244.775ZM711.487 244.775H722.502V249.583H711.487V244.775ZM727.201 244.775H734.062V249.583H727.201V244.775ZM741.685 244.775H743.396V249.583H741.685V244.775ZM751.02 244.775H763.964V249.583H751.02V244.775ZM768.647 244.775H770.405V249.583H768.647V244.775ZM778.029 244.775H805.816V249.583H778.029V244.775ZM810.514 244.775H846.08V249.583H810.514V244.775ZM865.885 254.359H873.555V257.051H865.885V254.359ZM877.367 254.359H878.596L881.366 255.977V257.051H877.367V254.359ZM889.534 254.359H890.732L889.534 255.059V254.359ZM926.313 254.359V256.242L923.077 254.359H926.313ZM930.996 254.359H932.598L930.996 255.293V254.359ZM937.95 254.359H943.987C947.207 254.359 949.946 252.212 950.833 249.272L952.668 250.345V257.051H933.33L937.95 254.359ZM978.448 255.153L990.381 248.198V257.035H978.448V255.153ZM990.381 235.954V244.791L984.173 241.181C984.78 240.124 985.138 238.91 985.138 237.619V235.954H990.381ZM980.362 237.619C980.362 238.039 980.237 238.443 980.051 238.786L978.448 237.852V235.97H980.377V237.634L980.362 237.619ZM952.668 235.954V239.999H951.144V235.954H952.668ZM946.367 239.999H940.268L933.314 235.954H946.352V239.999H946.367ZM934.917 239.999H930.98V237.712L934.917 239.999ZM926.282 239.999H920.696L926.282 236.747V239.999ZM922.299 235.954L915.344 239.999H898.386L891.432 235.954H922.283H922.299ZM893.034 239.999H889.502V237.945L893.034 239.999ZM873.524 232.127H865.854V220.489H868.764V222.698C868.764 226.215 870.693 229.295 873.54 230.944V232.127H873.524ZM868.748 217.066H865.839V211.823H868.748V217.066ZM868.748 210.828H865.839V200.653H868.748V210.828ZM808.18 202.582H808.118V200.668H808.18V202.582ZM766.314 202.582H766.251V200.668H766.314V202.582ZM524.214 217.331L520.76 215.324L524.214 213.317V217.346V217.331ZM524.214 220.443V225.857H511.036V220.972L518.084 216.864L524.214 220.427V220.443ZM511.036 217.86V212.772L515.408 215.308L511.036 217.844V217.86ZM511.036 229.575H524.214V264.954H511.036V229.575ZM659.678 260.769H680.122V264.954H659.678V260.769ZM699.943 254.359H707.613V264.954H699.943V254.359ZM711.425 254.359H722.44V264.954H711.425V254.359ZM727.138 254.359H733.999V264.41H741.623V254.359H743.334V264.41H750.973V254.359H763.918V264.954H727.138V254.359ZM768.601 254.359H770.359V264.41H777.982V254.359H805.769V264.954H768.585V254.359H768.601ZM810.467 254.359H846.033V264.954H810.467V254.359ZM865.839 260.769H873.509V264.954H865.839V260.769ZM877.321 260.769H881.319V264.425H888.942V260.769H952.622V264.954H877.305V260.769H877.321ZM978.401 260.769H990.334V264.954H978.401V260.769ZM985.091 166.985C985.091 165.663 986.165 164.589 987.487 164.589H1002.77C1004.09 164.589 1005.16 165.663 1005.16 166.985V176.149H1002.89C995.966 176.149 990.366 181.765 990.366 188.673V222.698H985.122V166.985H985.091ZM951.097 195.876C951.097 194.554 952.17 193.48 953.477 193.48H960.727C962.05 193.48 963.108 194.554 963.108 195.876V198.568H962.003C956.807 198.568 952.606 202.784 952.606 207.965V222.698H951.081V195.876H951.097ZM928.662 232.236V235.549H928.6V232.236H928.662ZM878.503 211.823V217.066H878.27V211.823H878.503ZM873.509 153.247H873.089V148.004H873.509V153.247ZM857.842 99.7896C857.842 98.2182 859.133 96.9269 860.704 96.9269H870.646C872.217 96.9269 873.509 98.2182 873.509 99.7896V147.008H865.839V111.287C865.839 107.709 862.945 104.815 859.366 104.815H857.842V99.7896ZM872.093 148.004V153.247H869.884V148.004H872.093ZM868.888 148.004V153.247H865.854V148.004H868.888ZM842.999 139.058V133.815H846.033V139.058H842.999ZM842.999 181.516V176.273H846.033V181.516H842.999ZM865.854 156.654H873.524V192.391C872.124 191.582 870.491 191.1 868.748 191.1H865.854V156.654ZM707.628 153.232H707.208V147.989H707.628V153.232ZM691.961 99.774C691.961 98.2026 693.253 96.9113 694.824 96.9113H704.766C706.337 96.9113 707.628 98.2026 707.628 99.774V146.993H699.958V111.271C699.958 107.693 697.065 104.799 693.486 104.799H691.961V99.774ZM706.213 147.989V153.232H704.003V147.989H706.213ZM703.008 147.989V153.232H699.974V147.989H703.008ZM677.119 139.043V133.8H680.153V139.043H677.119ZM677.119 181.501V176.258H680.153V181.501H677.119ZM699.974 156.639H707.644V191.084H699.974V156.639ZM675.906 222.667V200.622H680.168V232.111H667.753C672.358 231.442 675.906 227.475 675.906 222.683V222.667ZM524.245 204.729V210.143L518.115 213.721L511.068 209.614V204.729H524.245ZM406.284 204.729V207.296L395.253 213.721L391.395 211.481V204.744H406.268L406.284 204.729ZM271.053 204.729V205.476L269.777 204.729H271.053ZM271.053 208.587V221.952L267.428 224.052V211.606H267.63V206.58L271.053 208.572V208.587ZM266.339 200.357V201.01H265.156V204.324H265.094V201.01H264.799V200.357H266.339ZM239.47 54.6556C239.47 52.6019 241.15 50.9372 243.188 50.9372H256.117C258.171 50.9372 259.836 52.6019 259.836 54.6556V116.063H249.863V69.6069C249.863 64.955 246.098 61.19 241.446 61.19H239.455V54.64L239.47 54.6556ZM220.162 105.733V98.9183H224.114V105.733H220.162ZM220.162 160.948V154.134H224.114V160.948H220.162ZM189.264 175.853H193.278V201.01H186.635V175.853H189.264ZM186.635 172.881V168.339H189.264V172.881H186.635ZM190.135 172.881V168.339H192.049V172.881H190.135ZM193.278 172.881H192.92V168.339H193.278V172.881ZM188.875 204.76V204.729H189.077L188.953 204.807L188.891 204.76H188.875ZM193.06 207.187L191.629 206.347L193.06 205.507V207.172V207.187ZM192.049 223.912V224.41L191.629 224.161L192.049 223.912ZM192.92 223.57H193.06V225.001L192.92 224.923V223.57ZM188.875 225.763L188.937 225.717L189.062 225.795H188.86V225.763H188.875ZM193.06 220.209L188.953 222.605L188.891 222.558V207.934L188.953 207.887L193.06 210.283V220.194V220.209ZM197.743 222.698V220.598L204.247 216.818L219.68 225.795H198.475V222.698H197.759H197.743ZM197.743 217.471V213.021L201.571 215.246L197.743 217.471ZM169.49 225.779H158.21L169.49 219.213V225.779ZM188.875 231.053H193.06V264.892H188.875V231.053ZM197.743 231.053H198.459V229.513H221.298V264.892H197.728V231.053H197.743ZM221.314 223.616L206.923 215.231L221.314 206.86V223.616ZM219.68 204.698L204.247 213.69L197.743 209.91V204.713H219.665L219.68 204.698ZM179.727 126.596C179.727 125.227 180.832 124.122 182.201 124.122H190.804C192.173 124.122 193.278 125.227 193.278 126.596V167.452H186.635V136.538C186.635 133.442 184.13 130.937 181.034 130.937H179.711V126.581L179.727 126.596ZM166.876 160.591V156.048H169.505V160.591H166.876ZM166.876 197.339V192.811H169.505V197.339H166.876ZM169.505 204.698V211.263L158.226 204.698H169.505ZM155.892 206.456L169.505 214.39V216.117L155.892 224.052V206.471V206.456ZM169.505 229.513V264.892H155.892V229.513H169.505ZM137.191 220.24H137.674L140.007 221.594V225.094H137.191V220.24ZM140.941 222.138L142.994 223.336V225.11H140.941V222.154V222.138ZM143.912 223.865L144.301 224.099V225.094H143.912V223.865ZM143.912 220.754V220.24H144.301V220.987L143.912 220.754ZM148.938 223.679L147.848 223.041V220.24H148.938V223.679ZM144.301 219.307H141.439L137.191 216.833V213.659L144.301 209.521V219.307ZM144.301 206.409L137.191 210.548V204.713H144.301V206.409ZM118.802 225.795H116.359L118.802 224.379V225.795ZM144.301 229.513V264.892H137.191V229.513H144.301ZM147.833 229.513H151.193V264.892H147.833V229.513ZM151.193 205.507V225.001L149.855 224.223V219.307H147.833V207.467L151.193 205.507ZM144.301 165.896H143.912V161.026H144.301V165.896ZM129.77 116.297C129.77 114.834 130.968 113.636 132.43 113.636H141.656C143.119 113.636 144.317 114.834 144.317 116.297V160.108H137.207V126.97C137.207 123.656 134.515 120.964 131.201 120.964H129.786V116.297H129.77ZM142.979 161.026V165.896H140.925V161.026H142.979ZM140.007 161.026V165.896H137.191V161.026H140.007ZM115.986 152.734V147.864H118.802V152.734H115.986ZM115.986 192.127V187.257H118.802V192.127H115.986ZM137.191 169.07H144.301V200.995H137.191V169.07ZM118.817 204.713V206.145L116.374 204.713H118.817ZM114.025 206.471L118.817 209.256V221.252L114.025 224.036V206.456V206.471ZM118.817 229.528V264.908H114.025V229.528H118.817ZM86.0051 219.105L89.9257 216.818L105.359 225.795H86.0051V219.089V219.105ZM86.0051 215.993V214.546L87.2498 215.262L86.0051 215.993ZM86.0051 229.528H109.342V264.908H86.0051V229.528ZM109.342 225.001L92.6017 215.262L109.342 205.522V225.017V225.001ZM105.359 204.713L89.9257 213.706L86.0051 211.419V204.713H105.359ZM35.4413 204.713H51.6373V213.208L50.7972 213.69L35.4258 204.744V204.713H35.4413ZM35.4413 207.872L48.1367 215.262L35.4413 222.652V207.872ZM35.4413 225.763L50.8127 216.818L51.6528 217.3V225.795H35.4569V225.763H35.4413ZM35.4413 229.528H51.6373V264.908H35.4413V229.528Z" fill="#A5C0E0"/>
</svg>
