<svg width="691" height="225" viewBox="0 0 691 225" fill="none" xmlns="http://www.w3.org/2000/svg">
<g clip-path="url(#clip0_443_1113)">
<path d="M30.3298 120.549H61.0521V136.224L93.0309 112.632L61.0521 89.041V104.716H30.3298" stroke="#010101" stroke-width="1.57067" stroke-miterlimit="10"/>
<path d="M587.917 81.5021V0.7854H113.606V81.1408H83.0725V97.7428H113.606H129.392V81.1408V17.3874H572.132V81.5021V98.104H587.917H618.639V81.5021H587.917Z" stroke="#010101" stroke-width="1.57067" stroke-miterlimit="10"/>
<path d="M587.917 126.376H572.132V142.978V207.077H129.392V143.339V126.722H113.606H83.0725V143.339H113.606V223.695H587.917V142.978H618.639V126.376H587.917Z" stroke="#010101" stroke-width="1.57067" stroke-miterlimit="10"/>
<path d="M167.512 126.706L534.389 98.3396" stroke="#010101" stroke-width="1.57067" stroke-miterlimit="10"/>
<path d="M534.483 185.229V206.543" stroke="#010101" stroke-width="1.57067" stroke-miterlimit="10"/>
<path d="M167.527 16.7432L167.512 41.4184" stroke="#010101" stroke-width="1.57067" stroke-miterlimit="10"/>
<path d="M145.052 109.853H158.591" stroke="#010101" stroke-width="1.57067" stroke-miterlimit="10"/>
<path d="M154.428 115.004L153.58 114.078L158.119 109.853L153.58 105.643L154.428 104.717L159.957 109.853L154.428 115.004Z" fill="#010101"/>
<path d="M152.496 164.339V180.784" stroke="#010101" stroke-width="1.57067" stroke-miterlimit="10"/>
<path d="M147.36 176.622L148.287 175.758L152.496 180.297L156.721 175.758L157.632 176.622L152.496 182.15L147.36 176.622Z" fill="#010101"/>
<path d="M204.69 197.857H218.245" stroke="#010101" stroke-width="1.57067" stroke-miterlimit="10"/>
<path d="M214.082 203.009L213.219 202.082L217.758 197.873L213.219 193.648L214.082 192.721L219.611 197.873L214.082 203.009Z" fill="#010101"/>
<path d="M241.977 194.198V177.753" stroke="#010101" stroke-width="1.57067" stroke-miterlimit="10"/>
<path d="M247.113 181.915L246.187 182.779L241.977 178.24L237.752 182.779L236.841 181.915L241.977 176.402L247.113 181.915Z" fill="#010101"/>
<path d="M182.323 194.198V177.753" stroke="#010101" stroke-width="1.57067" stroke-miterlimit="10"/>
<path d="M187.459 181.915L186.548 182.779L182.323 178.24L178.114 182.779L177.187 181.915L182.323 176.402L187.459 181.915Z" fill="#010101"/>
<path d="M264.344 197.857H277.899" stroke="#010101" stroke-width="1.57067" stroke-miterlimit="10"/>
<path d="M273.736 203.009L272.872 202.082L277.412 197.873L272.872 193.648L273.736 192.721L279.249 197.873L273.736 203.009Z" fill="#010101"/>
<path d="M301.631 194.198V177.753" stroke="#010101" stroke-width="1.57067" stroke-miterlimit="10"/>
<path d="M306.767 181.915L305.841 182.779L301.631 178.24L297.406 182.779L296.479 181.915L301.631 176.402L306.767 181.915Z" fill="#010101"/>
<path d="M323.998 197.857H337.537" stroke="#010101" stroke-width="1.57067" stroke-miterlimit="10"/>
<path d="M333.374 203.009L332.526 202.082L337.065 197.873L332.526 193.648L333.374 192.721L338.903 197.873L333.374 203.009Z" fill="#010101"/>
<path d="M361.27 194.198V177.753" stroke="#010101" stroke-width="1.57067" stroke-miterlimit="10"/>
<path d="M366.405 181.915L365.494 182.779L361.269 178.24L357.06 182.779L356.133 181.915L361.269 176.402L366.405 181.915Z" fill="#010101"/>
<path d="M383.636 197.857H397.191" stroke="#010101" stroke-width="1.57067" stroke-miterlimit="10"/>
<path d="M393.028 203.009L392.165 202.082L396.704 197.873L392.165 193.648L393.028 192.721L398.557 197.873L393.028 203.009Z" fill="#010101"/>
<path d="M420.924 194.198V177.753" stroke="#010101" stroke-width="1.57067" stroke-miterlimit="10"/>
<path d="M426.06 181.915L425.149 182.779L420.923 178.24L416.698 182.779L415.787 181.915L420.923 176.402L426.06 181.915Z" fill="#010101"/>
<path d="M241.977 104.371V87.9265" stroke="#010101" stroke-width="1.57067" stroke-miterlimit="10"/>
<path d="M247.113 92.0886L246.187 92.9367L241.977 88.3975L237.752 92.9367L236.841 92.0886L241.977 86.5598L247.113 92.0886Z" fill="#010101"/>
<path d="M182.323 104.371V87.9265" stroke="#010101" stroke-width="1.57067" stroke-miterlimit="10"/>
<path d="M187.459 92.0886L186.548 92.9367L182.323 88.3975L178.114 92.9367L177.187 92.0886L182.323 86.5598L187.459 92.0886Z" fill="#010101"/>
<path d="M301.631 104.371V87.9265" stroke="#010101" stroke-width="1.57067" stroke-miterlimit="10"/>
<path d="M306.767 92.0886L305.841 92.9367L301.631 88.3975L297.406 92.9367L296.479 92.0886L301.631 86.5598L306.767 92.0886Z" fill="#010101"/>
<path d="M361.27 104.371V87.9265" stroke="#010101" stroke-width="1.57067" stroke-miterlimit="10"/>
<path d="M366.405 92.0886L365.494 92.9367L361.269 88.3975L357.06 92.9367L356.133 92.0886L361.269 86.5598L366.405 92.0886Z" fill="#010101"/>
<path d="M420.924 104.371V87.9265" stroke="#010101" stroke-width="1.57067" stroke-miterlimit="10"/>
<path d="M426.06 92.0886L425.149 92.9367L420.923 88.3975L416.698 92.9367L415.787 92.0886L420.923 86.5598L426.06 92.0886Z" fill="#010101"/>
<path d="M443.29 197.857H456.845" stroke="#010101" stroke-width="1.57067" stroke-miterlimit="10"/>
<path d="M452.682 203.009L451.819 202.082L456.358 197.873L451.819 193.648L452.682 192.721L458.211 197.873L452.682 203.009Z" fill="#010101"/>
<path d="M480.577 194.198V177.753" stroke="#010101" stroke-width="1.57067" stroke-miterlimit="10"/>
<path d="M485.714 181.915L484.787 182.779L480.577 178.24L476.352 182.779L475.441 181.915L480.577 176.402L485.714 181.915Z" fill="#010101"/>
<path d="M502.944 197.857H516.483" stroke="#010101" stroke-width="1.57067" stroke-miterlimit="10"/>
<path d="M512.321 203.009L511.472 202.082L516.012 197.873L511.472 193.648L512.321 192.721L517.849 197.873L512.321 203.009Z" fill="#010101"/>
<path d="M152.496 64.8057V48.3608" stroke="#010101" stroke-width="1.57067" stroke-miterlimit="10"/>
<path d="M157.648 52.5231L156.721 53.3713L152.496 48.8321L148.287 53.3713L147.36 52.5231L152.496 46.9944L157.648 52.5231Z" fill="#010101"/>
<path d="M204.69 109.853H218.245" stroke="#010101" stroke-width="1.57067" stroke-miterlimit="10"/>
<path d="M214.082 115.004L213.219 114.078L217.758 109.853L213.219 105.643L214.082 104.717L219.611 109.853L214.082 115.004Z" fill="#010101"/>
<path d="M264.344 109.853H277.899" stroke="#010101" stroke-width="1.57067" stroke-miterlimit="10"/>
<path d="M273.736 115.004L272.872 114.078L277.412 109.853L272.872 105.643L273.736 104.717L279.249 109.853L273.736 115.004Z" fill="#010101"/>
<path d="M204.69 29.1675H218.245" stroke="#17B9ED" stroke-width="1.57067" stroke-miterlimit="10"/>
<path d="M214.082 34.3034L213.219 33.3924L217.758 29.1673L213.219 24.9579L214.082 24.0312L219.611 29.1673L214.082 34.3034Z" fill="#17B9ED"/>
<path d="M264.344 29.1675H277.899" stroke="#17B9ED" stroke-width="1.57067" stroke-miterlimit="10"/>
<path d="M273.736 34.3034L272.872 33.3924L277.412 29.1673L272.872 24.9579L273.736 24.0312L279.249 29.1673L273.736 34.3034Z" fill="#17B9ED"/>
<path d="M323.998 29.1675H337.537" stroke="#17B9ED" stroke-width="1.57067" stroke-miterlimit="10"/>
<path d="M333.374 34.3034L332.526 33.3924L337.065 29.1673L332.526 24.9579L333.374 24.0312L338.903 29.1673L333.374 34.3034Z" fill="#17B9ED"/>
<path d="M383.636 29.1675H397.191" stroke="#17B9ED" stroke-width="1.57067" stroke-miterlimit="10"/>
<path d="M393.028 34.3034L392.165 33.3924L396.704 29.1673L392.165 24.9579L393.028 24.0312L398.557 29.1673L393.028 34.3034Z" fill="#17B9ED"/>
<path d="M443.29 29.1675H456.845" stroke="#17B9ED" stroke-width="1.57067" stroke-miterlimit="10"/>
<path d="M452.682 34.3034L451.819 33.3924L456.358 29.1673L451.819 24.9579L452.682 24.0312L458.211 29.1673L452.682 34.3034Z" fill="#17B9ED"/>
<path d="M502.944 29.1675H516.483" stroke="#17B9ED" stroke-width="1.57067" stroke-miterlimit="10"/>
<path d="M512.321 34.3034L511.472 33.3924L516.012 29.1673L511.472 24.9579L512.321 24.0312L517.849 29.1673L512.321 34.3034Z" fill="#17B9ED"/>
<path d="M361.27 134.465V118.02" stroke="#17B9ED" stroke-width="1.57067" stroke-miterlimit="10"/>
<path d="M366.405 122.182L365.494 123.046L361.269 118.507L357.06 123.046L356.133 122.182L361.269 116.654L366.405 122.182Z" fill="#17B9ED"/>
<path d="M420.924 134.465V118.02" stroke="#17B9ED" stroke-width="1.57067" stroke-miterlimit="10"/>
<path d="M426.06 122.182L425.149 123.046L420.923 118.507L416.698 123.046L415.787 122.182L420.923 116.654L426.06 122.182Z" fill="#17B9ED"/>
<path d="M443.29 114.564H456.845" stroke="#17B9ED" stroke-width="1.57067" stroke-miterlimit="10"/>
<path d="M452.682 119.716L451.819 118.789L456.358 114.564L451.819 110.355L452.682 109.428L458.211 114.564L452.682 119.716Z" fill="#17B9ED"/>
<path d="M480.577 134.465V118.02" stroke="#17B9ED" stroke-width="1.57067" stroke-miterlimit="10"/>
<path d="M485.714 122.182L484.787 123.046L480.577 118.507L476.352 123.046L475.441 122.182L480.577 116.654L485.714 122.182Z" fill="#17B9ED"/>
<path d="M502.944 114.564H516.483" stroke="#17B9ED" stroke-width="1.57067" stroke-miterlimit="10"/>
<path d="M512.321 119.716L511.472 118.789L516.012 114.564L511.472 110.355L512.321 109.428L517.849 114.564L512.321 119.716Z" fill="#17B9ED"/>
<path d="M543.655 114.564H557.21" stroke="#17B9ED" stroke-width="1.57067" stroke-miterlimit="10"/>
<path d="M553.048 119.716L552.184 118.789L556.723 114.564L552.184 110.355L553.048 109.428L558.561 114.564L553.048 119.716Z" fill="#17B9ED"/>
<path d="M551.116 182.15V165.706" stroke="#17B9ED" stroke-width="1.57067" stroke-miterlimit="10"/>
<path d="M556.252 169.868L555.325 170.716L551.116 166.177L546.891 170.716L545.98 169.868L551.116 164.339L556.252 169.868Z" fill="#17B9ED"/>
<path d="M551.116 46.9944V63.4393" stroke="#17B9ED" stroke-width="1.57067" stroke-miterlimit="10"/>
<path d="M545.965 59.277L546.891 58.4131L551.116 62.9523L555.326 58.4131L556.252 59.277L551.116 64.8057L545.965 59.277Z" fill="#17B9ED"/>
<path d="M685.333 201.203C685.333 202.51 685.044 203.697 684.466 204.765C683.876 205.82 683.072 206.65 682.054 207.253C681.036 207.844 679.893 208.139 678.623 208.139C677.354 208.139 676.211 207.844 675.193 207.253C674.175 206.65 673.377 205.82 672.799 204.765C672.209 203.697 671.914 202.51 671.914 201.203C671.914 199.896 672.203 198.721 672.781 197.678C673.359 196.623 674.163 195.793 675.193 195.19C676.211 194.587 677.354 194.285 678.623 194.285C679.893 194.285 681.042 194.587 682.073 195.19C683.09 195.793 683.888 196.623 684.466 197.678C685.044 198.721 685.333 199.896 685.333 201.203ZM684.089 201.203C684.089 200.16 683.857 199.217 683.392 198.376C682.914 197.534 682.261 196.874 681.432 196.396C680.59 195.919 679.654 195.68 678.623 195.68C677.593 195.68 676.663 195.919 675.834 196.396C674.992 196.874 674.339 197.534 673.874 198.376C673.396 199.217 673.157 200.16 673.157 201.203C673.157 202.246 673.396 203.194 673.874 204.049C674.339 204.891 674.992 205.557 675.834 206.047C676.663 206.524 677.593 206.763 678.623 206.763C679.654 206.763 680.59 206.524 681.432 206.047C682.261 205.557 682.914 204.891 683.392 204.049C683.857 203.194 684.089 202.246 684.089 201.203ZM675.306 183.795H685.22V185.133H681.092C681.595 186.277 681.846 187.401 681.846 188.507C681.846 189.701 681.576 190.631 681.036 191.296C680.483 191.962 679.66 192.295 678.567 192.295H675.306V190.957H678.491C679.233 190.957 679.798 190.718 680.188 190.241C680.565 189.763 680.753 189.104 680.753 188.262C680.753 187.332 680.508 186.289 680.018 185.133H675.306V183.795ZM675.306 179.995V178.656H683.185L675.306 172.041V170.853H685.22V172.191H677.342L685.22 178.788V179.995H675.306ZM675.306 153.334H685.22V167.018H675.306V165.68H684.052V160.817H675.306V159.479H684.052V154.673H675.306V153.334ZM684.052 151.808H687.388V153.071H685.22V154.748H684.052V151.808ZM680.678 140.844V149.137C681.708 149.061 682.544 148.666 683.185 147.949C683.813 147.233 684.127 146.328 684.127 145.235C684.127 144.62 684.02 144.054 683.807 143.539C683.58 143.024 683.254 142.578 682.827 142.201L683.694 141.447C684.221 141.887 684.623 142.439 684.9 143.105C685.176 143.759 685.314 144.481 685.314 145.273C685.314 146.291 685.101 147.195 684.674 147.987C684.234 148.766 683.631 149.376 682.864 149.815C682.098 150.255 681.231 150.475 680.263 150.475C679.296 150.475 678.429 150.268 677.662 149.853C676.896 149.426 676.299 148.848 675.872 148.119C675.444 147.378 675.231 146.548 675.231 145.631C675.231 144.714 675.444 143.891 675.872 143.162C676.299 142.433 676.896 141.861 677.662 141.447C678.416 141.032 679.283 140.825 680.263 140.825L680.678 140.844ZM676.38 145.631C676.38 146.586 676.688 147.39 677.304 148.044C677.907 148.684 678.699 149.049 679.679 149.137V142.107C678.699 142.194 677.907 142.565 677.304 143.219C676.688 143.859 676.38 144.664 676.38 145.631ZM675.306 137.863V136.524H679.698V130.286H675.306V128.947H685.22V130.286H680.847V136.524H685.22V137.863H675.306ZM675.306 125.144V123.806H679.698V117.567H675.306V116.229H685.22V117.567H680.847V123.806H685.22V125.144H675.306ZM678.812 108.26C678.824 107.016 679.101 106.067 679.641 105.414C680.182 104.76 680.961 104.434 681.978 104.434C683.034 104.434 683.844 104.785 684.41 105.489C684.975 106.193 685.252 107.198 685.239 108.505L685.22 112.425H675.306V111.087H678.774L678.812 108.26ZM675.306 102.775V101.437H685.22V102.775H675.306ZM684.221 108.58C684.234 107.663 684.052 106.972 683.675 106.507C683.285 106.029 682.72 105.791 681.978 105.791C681.25 105.791 680.709 106.023 680.357 106.488C680.006 106.953 679.823 107.65 679.811 108.58L679.773 111.087H684.184L684.221 108.58ZM675.306 97.6265V96.2883H683.185L675.306 89.6726V88.4852H685.22V89.8234H677.342L685.22 96.4202V97.6265H675.306ZM673.874 93.1218C673.874 93.9763 673.66 94.6548 673.233 95.1574C672.806 95.66 672.203 95.9176 671.423 95.9302V94.9689C671.914 94.9563 672.309 94.7804 672.611 94.4412C672.9 94.1019 673.044 93.6621 673.044 93.1218C673.044 92.5815 672.9 92.1417 672.611 91.8024C672.309 91.4506 671.914 91.2684 671.423 91.2559V90.2946C672.203 90.3072 672.806 90.571 673.233 91.0862C673.66 91.5888 673.874 92.2674 673.874 93.1218ZM680.094 73.4031C680.408 72.0586 681.218 71.3864 682.525 71.3864C683.392 71.3864 684.058 71.7068 684.523 72.3476C684.988 72.9884 685.22 73.9434 685.22 75.2125V79.7172H675.306V75.3444C675.306 74.2136 675.526 73.3277 675.966 72.6869C676.406 72.046 677.034 71.7256 677.851 71.7256C678.391 71.7256 678.856 71.8764 679.245 72.178C679.622 72.467 679.905 72.8753 680.094 73.4031ZM679.717 78.4167V75.4387C679.717 74.6722 679.572 74.0879 679.283 73.6858C678.994 73.2712 678.573 73.0638 678.02 73.0638C677.467 73.0638 677.053 73.2712 676.776 73.6858C676.5 74.0879 676.362 74.6722 676.362 75.4387V78.4167H679.717ZM684.165 75.269C684.165 74.4146 684.027 73.7738 683.75 73.3466C683.474 72.9193 683.04 72.7057 682.45 72.7057C681.859 72.7057 681.425 72.9005 681.149 73.29C680.86 73.6795 680.716 74.2952 680.716 75.1371V78.4167H684.165V75.269ZM685.314 64.16C685.314 65.115 685.101 65.9757 684.674 66.7422C684.234 67.5087 683.631 68.1118 682.864 68.5516C682.098 68.9914 681.231 69.2113 680.263 69.2113C679.296 69.2113 678.429 68.9914 677.662 68.5516C676.896 68.1118 676.299 67.5087 675.872 66.7422C675.444 65.9757 675.231 65.115 675.231 64.16C675.231 63.2051 675.444 62.3444 675.872 61.5779C676.299 60.8114 676.896 60.2145 677.662 59.7873C678.429 59.3475 679.296 59.1276 680.263 59.1276C681.231 59.1276 682.098 59.3475 682.864 59.7873C683.631 60.2145 684.234 60.8114 684.674 61.5779C685.101 62.3444 685.314 63.2051 685.314 64.16ZM684.127 64.16C684.127 63.4564 683.97 62.8281 683.656 62.2752C683.329 61.7098 682.87 61.27 682.28 60.9559C681.689 60.6417 681.017 60.4847 680.263 60.4847C679.509 60.4847 678.837 60.6417 678.246 60.9559C677.656 61.27 677.204 61.7098 676.889 62.2752C676.563 62.8281 676.399 63.4564 676.399 64.16C676.399 64.8637 676.563 65.4983 676.889 66.0637C677.204 66.6166 677.656 67.0564 678.246 67.3831C678.837 67.6972 679.509 67.8543 680.263 67.8543C681.017 67.8543 681.689 67.6972 682.28 67.3831C682.87 67.0564 683.329 66.6166 683.656 66.0637C683.97 65.4983 684.127 64.8637 684.127 64.16ZM680.056 51.5161C680.219 50.8125 680.502 50.2721 680.904 49.8952C681.306 49.5057 681.796 49.3109 682.374 49.3109C682.952 49.3109 683.467 49.5119 683.92 49.914C684.372 50.3036 684.724 50.8376 684.975 51.5161C685.214 52.1946 685.333 52.9423 685.333 53.759C685.333 54.4753 685.233 55.1789 685.032 55.87C684.818 56.5611 684.51 57.1642 684.108 57.6794L683.109 57.2271C683.449 56.7747 683.712 56.247 683.901 55.6438C684.089 55.0407 684.184 54.4313 684.184 53.8156C684.184 52.8983 684.014 52.1507 683.675 51.5727C683.323 50.9821 682.852 50.6868 682.261 50.6868C681.733 50.6868 681.325 50.9255 681.036 51.403C680.734 51.8805 680.584 52.5339 680.584 53.3632V55.0595H679.604V53.4386C679.604 52.6973 679.465 52.1004 679.189 51.648C678.9 51.1957 678.517 50.9695 678.039 50.9695C677.511 50.9695 677.097 51.2271 676.795 51.7423C676.494 52.2449 676.343 52.9046 676.343 53.7213C676.343 54.7894 676.613 55.8449 677.153 56.8878L676.117 57.2648C675.501 56.0836 675.193 54.8585 675.193 53.5894C675.193 52.8355 675.306 52.1569 675.532 51.5538C675.746 50.9381 676.054 50.4606 676.456 50.1214C676.858 49.7695 677.323 49.5936 677.851 49.5936C678.353 49.5936 678.799 49.7695 679.189 50.1214C679.578 50.4606 679.867 50.9255 680.056 51.5161ZM684.052 36.6039H687.614V37.8668H685.22V46.7442H687.614V48.007H684.052V47.4416C684.014 46.7756 683.524 46.3232 682.581 46.0845C681.639 45.8458 680.32 45.6824 678.623 45.5945L675.306 45.4625V38.1495H684.052V36.6039ZM678.699 44.3693C680.106 44.4322 681.268 44.5515 682.186 44.7274C683.09 44.9034 683.712 45.2175 684.052 45.6698V39.4877H676.494V44.2562L678.699 44.3693ZM675.306 25.5709L686.408 30.528C687.337 30.93 687.997 31.395 688.387 31.9227C688.776 32.4505 688.971 33.085 688.971 33.8264C688.971 34.3038 688.896 34.7499 688.745 35.1646C688.594 35.5792 688.368 35.9373 688.066 36.2389L687.067 35.6169C687.57 35.1143 687.821 34.5112 687.821 33.8075C687.821 33.3552 687.696 32.9719 687.444 32.6578C687.193 32.3311 686.766 32.0295 686.163 31.7531L685.201 31.3196L675.306 35.7489V34.3541L683.731 30.6222L675.306 26.8903V25.5709ZM685.22 17.8556L681.074 21.0032L685.22 24.1697V25.6775L680.131 21.7571L675.306 25.4891V23.9812L679.189 21.0032L675.306 18.0252V16.5551L680.131 20.287L685.22 16.3289V17.8556Z" fill="#010101"/>
<path d="M8.27447 211.61C8.48808 210.743 8.87761 210.065 9.44305 209.575C10.0085 209.072 10.687 208.821 11.4786 208.821C12.2451 208.821 12.9174 209.059 13.4954 209.537C14.0734 210.014 14.5195 210.649 14.8336 211.44C15.1352 212.232 15.2859 213.093 15.2859 214.023C15.2859 214.902 15.1477 215.769 14.8713 216.624C14.5823 217.466 14.1551 218.226 13.5896 218.904L12.5907 218.395C13.0807 217.817 13.4577 217.158 13.7216 216.416C13.9729 215.675 14.0985 214.927 14.0985 214.173C14.0985 213.457 13.9854 212.798 13.7592 212.194C13.5331 211.591 13.2127 211.114 12.798 210.762C12.3708 210.398 11.8682 210.215 11.2902 210.215C10.5237 210.215 9.9331 210.517 9.51844 211.12C9.10379 211.723 8.89646 212.571 8.89646 213.665V216.492H7.76558V213.74C7.76558 212.81 7.57081 212.088 7.18129 211.572C6.7792 211.045 6.22632 210.781 5.52266 210.781C4.74361 210.781 4.13419 211.114 3.6944 211.78C3.24205 212.446 3.01587 213.281 3.01587 214.287C3.01587 214.915 3.11011 215.549 3.29859 216.19C3.47451 216.831 3.74466 217.44 4.10906 218.018L2.95933 218.49C2.18028 217.183 1.79075 215.769 1.79075 214.249C1.79075 213.357 1.93525 212.54 2.22426 211.799C2.51326 211.057 2.92792 210.473 3.46823 210.046C4.00854 209.606 4.64309 209.386 5.37188 209.386C6.07554 209.386 6.68496 209.581 7.20014 209.97C7.70275 210.36 8.06086 210.906 8.27447 211.61ZM5.1834 202.266C5.1834 200.972 5.5101 199.979 6.16349 199.288C6.80433 198.597 7.75929 198.252 9.02839 198.252H15.1729V199.533H13.6273C14.1425 199.835 14.5446 200.281 14.8336 200.872C15.1226 201.45 15.2671 202.141 15.2671 202.945C15.2671 204.051 15.0032 204.93 14.4755 205.584C13.9477 206.237 13.2504 206.564 12.3833 206.564C11.5415 206.564 10.8629 206.262 10.3478 205.659C9.83258 205.043 9.57499 204.069 9.57499 202.738V199.59H8.97185C8.11741 199.59 7.47029 199.829 7.0305 200.306C6.57815 200.784 6.35197 201.481 6.35197 202.398C6.35197 203.027 6.45878 203.63 6.67239 204.208C6.87344 204.786 7.15616 205.282 7.52055 205.697L6.52161 206.3C6.09439 205.797 5.76769 205.194 5.54151 204.49C5.30277 203.787 5.1834 203.045 5.1834 202.266ZM14.2116 202.738C14.2116 201.984 14.042 201.336 13.7027 200.796C13.3509 200.256 12.8483 199.854 12.1949 199.59H10.5739V202.7C10.5739 204.396 11.1645 205.244 12.3456 205.244C12.9237 205.244 13.3823 205.024 13.7216 204.585C14.0483 204.145 14.2116 203.529 14.2116 202.738ZM6.44621 187.678V193.351H15.1729V194.689H5.25879V187.678H6.44621ZM5.1834 180.636C5.1834 179.706 5.39701 178.864 5.82423 178.11C6.23889 177.356 6.82946 176.766 7.59594 176.339C8.36243 175.911 9.23572 175.698 10.2158 175.698C11.2085 175.698 12.0881 175.911 12.8545 176.339C13.621 176.766 14.2179 177.356 14.6451 178.11C15.0598 178.852 15.2671 179.694 15.2671 180.636C15.2671 181.44 15.1037 182.169 14.777 182.822C14.4378 183.463 13.9477 183.991 13.3069 184.406H18.8294V185.744H5.25879V184.462H7.21898C6.56559 184.06 6.06297 183.532 5.71114 182.879C5.35931 182.213 5.1834 181.465 5.1834 180.636ZM14.0797 180.73C14.0797 180.039 13.9226 179.411 13.6085 178.845C13.2818 178.28 12.8231 177.84 12.2326 177.526C11.642 177.199 10.9697 177.036 10.2158 177.036C9.4619 177.036 8.79594 177.199 8.21793 177.526C7.62736 177.84 7.16872 178.28 6.84202 178.845C6.51532 179.411 6.35197 180.039 6.35197 180.73C6.35197 181.434 6.51532 182.068 6.84202 182.634C7.16872 183.187 7.62736 183.627 8.21793 183.953C8.79594 184.267 9.4619 184.424 10.2158 184.424C10.9697 184.424 11.642 184.267 12.2326 183.953C12.8231 183.627 13.2818 183.187 13.6085 182.634C13.9226 182.068 14.0797 181.434 14.0797 180.73ZM5.25879 165.558H15.1729V166.783H11.8933V169.893V170.27L15.1729 172.569V174.021L11.7048 171.551C11.4912 172.318 11.1268 172.908 10.6116 173.323C10.0964 173.738 9.44305 173.945 8.65143 173.945C7.54568 173.945 6.7038 173.568 6.1258 172.814C5.54779 172.06 5.25879 171.03 5.25879 169.723V165.558ZM8.68913 172.588C10.1593 172.588 10.8943 171.652 10.8943 169.78V166.783H6.44621V169.685C6.44621 171.621 7.19385 172.588 8.68913 172.588ZM10.0085 157.119C10.1718 156.416 10.4546 155.875 10.8567 155.498C11.2587 155.109 11.7488 154.914 12.3268 154.914C12.9048 154.914 13.42 155.115 13.8723 155.517C14.3247 155.907 14.6765 156.441 14.9278 157.119C15.1666 157.798 15.2859 158.546 15.2859 159.362C15.2859 160.079 15.1854 160.782 14.9844 161.473C14.7708 162.164 14.4629 162.768 14.0608 163.283L13.0619 162.83C13.4011 162.378 13.665 161.85 13.8535 161.247C14.042 160.644 14.1362 160.035 14.1362 159.419C14.1362 158.502 13.9666 157.754 13.6273 157.176C13.2755 156.585 12.8043 156.29 12.2137 156.29C11.686 156.29 11.2776 156.529 10.9886 157.006C10.687 157.484 10.5362 158.137 10.5362 158.967V160.663H9.55614V159.042C9.55614 158.301 9.41792 157.704 9.14148 157.251C8.85248 156.799 8.46924 156.573 7.99175 156.573C7.46401 156.573 7.04935 156.83 6.74778 157.346C6.44622 157.848 6.29543 158.508 6.29543 159.325C6.29543 160.393 6.56559 161.448 7.1059 162.491L6.06925 162.868C5.45355 161.687 5.1457 160.462 5.1457 159.193C5.1457 158.439 5.25879 157.76 5.48497 157.157C5.69858 156.541 6.00643 156.064 6.40852 155.725C6.81061 155.373 7.27553 155.197 7.80327 155.197C8.30589 155.197 8.75196 155.373 9.14148 155.725C9.53101 156.064 9.82001 156.529 10.0085 157.119ZM5.25879 151.876V150.538H9.65038L9.65038 144.299H5.25879V142.961H15.1729V144.299H10.8001L10.8001 150.538H15.1729V151.876H5.25879ZM10.6305 130.487V138.781C11.6608 138.705 12.4964 138.309 13.1373 137.593C13.7655 136.877 14.0797 135.972 14.0797 134.879C14.0797 134.263 13.9729 133.698 13.7592 133.183C13.5331 132.668 13.2064 132.221 12.7792 131.845L13.6462 131.091C14.1739 131.53 14.576 132.083 14.8524 132.749C15.1289 133.403 15.2671 134.125 15.2671 134.917C15.2671 135.935 15.0535 136.839 14.6263 137.631C14.1865 138.41 13.5833 139.019 12.8168 139.459C12.0504 139.899 11.1834 140.119 10.2158 140.119C9.24829 140.119 8.38128 139.911 7.61479 139.497C6.84831 139.07 6.25145 138.492 5.82423 137.763C5.39701 137.021 5.1834 136.192 5.1834 135.275C5.1834 134.358 5.39701 133.535 5.82423 132.806C6.25145 132.077 6.84831 131.505 7.61479 131.091C8.36871 130.676 9.23572 130.469 10.2158 130.469L10.6305 130.487ZM6.33313 135.275C6.33313 136.23 6.64098 137.034 7.25668 137.687C7.85982 138.328 8.65143 138.693 9.63153 138.781V131.75C8.65143 131.838 7.85982 132.209 7.25668 132.862C6.64098 133.503 6.33313 134.307 6.33313 135.275ZM3.27975 136.952C3.27975 137.179 3.20435 137.373 3.05357 137.537C2.90279 137.687 2.70802 137.763 2.46928 137.763C2.2431 137.763 2.05462 137.687 1.90384 137.537C1.74049 137.373 1.65882 137.179 1.65882 136.952C1.65882 136.739 1.74049 136.55 1.90384 136.387C2.05462 136.224 2.2431 136.142 2.46928 136.142C2.69546 136.142 2.89022 136.224 3.05357 136.387C3.20435 136.538 3.27975 136.726 3.27975 136.952ZM3.27975 133.597C3.27975 133.824 3.20435 134.018 3.05357 134.182C2.89022 134.332 2.69546 134.408 2.46928 134.408C2.2431 134.408 2.05462 134.326 1.90384 134.163C1.74049 133.999 1.65882 133.811 1.65882 133.597C1.65882 133.371 1.74049 133.183 1.90384 133.032C2.05462 132.869 2.2431 132.787 2.46928 132.787C2.70802 132.787 2.90279 132.869 3.05357 133.032C3.20435 133.183 3.27975 133.371 3.27975 133.597ZM5.25879 127.506V126.168H9.65038V119.929H5.25879V118.591H15.1729V119.929H10.8001V126.168H15.1729V127.506H5.25879ZM5.25879 114.788V113.449H9.65038V107.211H5.25879V105.873H15.1729V107.211H10.8001V113.449H15.1729V114.788H5.25879ZM8.76452 97.9035C8.77709 96.6595 9.05353 95.7108 9.59384 95.0574C10.1341 94.404 10.9132 94.0773 11.931 94.0773C12.9865 94.0773 13.7969 94.4292 14.3624 95.1328C14.9278 95.8365 15.2043 96.8417 15.1917 98.1485L15.1729 102.069H5.25879V100.731H8.72683L8.76452 97.9035ZM5.25879 92.4187V91.0805H15.1729V92.4187H5.25879ZM14.1739 98.2239C14.1865 97.3066 14.0043 96.6155 13.6273 96.1506C13.2378 95.6731 12.6723 95.4344 11.931 95.4344C11.2022 95.4344 10.6619 95.6669 10.3101 96.1318C9.95823 96.5967 9.77603 97.2941 9.76347 98.2239L9.72577 100.731H14.1362L14.1739 98.2239ZM5.25879 87.2703V85.932H13.1373L5.25879 79.3164V78.129H15.1729V79.4672H7.29438L15.1729 86.064V87.2703H5.25879ZM3.82634 82.7656C3.82634 83.62 3.61273 84.2985 3.18551 84.8012C2.75828 85.3038 2.15515 85.5614 1.3761 85.5739V84.6127C1.86614 84.6001 2.26195 84.4242 2.56352 84.0849C2.85252 83.7457 2.99703 83.3059 2.99703 82.7656C2.99703 82.2253 2.85252 81.7855 2.56352 81.4462C2.26195 81.0944 1.86614 80.9122 1.3761 80.8996V79.9384C2.15515 79.9509 2.75828 80.2148 3.18551 80.73C3.61273 81.2326 3.82634 81.9111 3.82634 82.7656ZM10.0462 63.0469C10.3603 61.7024 11.1708 61.0301 12.4776 61.0301C13.3446 61.0301 14.0106 61.3505 14.4755 61.9914C14.9404 62.6322 15.1729 63.5872 15.1729 64.8563V69.361H5.25879V64.9882C5.25879 63.8573 5.47868 62.9715 5.91847 62.3306C6.35826 61.6898 6.98652 61.3694 7.80327 61.3694C8.34358 61.3694 8.8085 61.5202 9.19803 61.8217C9.57499 62.1107 9.85771 62.5191 10.0462 63.0469ZM9.66923 68.0604V65.0824C9.66923 64.316 9.52473 63.7317 9.23572 63.3296C8.94672 62.9149 8.52578 62.7076 7.9729 62.7076C7.42003 62.7076 7.00537 62.9149 6.72894 63.3296C6.4525 63.7317 6.31428 64.316 6.31428 65.0824V68.0604H9.66923ZM14.1174 64.9128C14.1174 64.0584 13.9791 63.4175 13.7027 62.9903C13.4263 62.5631 12.9928 62.3495 12.4022 62.3495C11.8116 62.3495 11.3781 62.5442 11.1017 62.9338C10.8127 63.3233 10.6682 63.939 10.6682 64.7809V68.0604H14.1174V64.9128ZM15.2671 53.8038C15.2671 54.7588 15.0535 55.6195 14.6263 56.386C14.1865 57.1525 13.5833 57.7556 12.8168 58.1954C12.0504 58.6352 11.1834 58.8551 10.2158 58.8551C9.24829 58.8551 8.38128 58.6352 7.61479 58.1954C6.84831 57.7556 6.25145 57.1525 5.82423 56.386C5.39701 55.6195 5.1834 54.7588 5.1834 53.8038C5.1834 52.8488 5.39701 51.9881 5.82423 51.2216C6.25145 50.4551 6.84831 49.8583 7.61479 49.4311C8.38128 48.9913 9.24829 48.7714 10.2158 48.7714C11.1834 48.7714 12.0504 48.9913 12.8168 49.4311C13.5833 49.8583 14.1865 50.4551 14.6263 51.2216C15.0535 51.9881 15.2671 52.8488 15.2671 53.8038ZM14.0797 53.8038C14.0797 53.1002 13.9226 52.4719 13.6085 51.919C13.2818 51.3536 12.8231 50.9138 12.2326 50.5996C11.642 50.2855 10.9697 50.1284 10.2158 50.1284C9.4619 50.1284 8.78965 50.2855 8.19908 50.5996C7.60851 50.9138 7.15616 51.3536 6.84202 51.919C6.51532 52.4719 6.35197 53.1002 6.35197 53.8038C6.35197 54.5075 6.51532 55.142 6.84202 55.7075C7.15616 56.2603 7.60851 56.7001 8.19908 57.0268C8.78965 57.341 9.4619 57.498 10.2158 57.498C10.9697 57.498 11.642 57.341 12.2326 57.0268C12.8231 56.7001 13.2818 56.2603 13.6085 55.7075C13.9226 55.142 14.0797 54.5075 14.0797 53.8038ZM10.0085 41.1599C10.1718 40.4562 10.4546 39.9159 10.8567 39.539C11.2587 39.1494 11.7488 38.9547 12.3268 38.9547C12.9048 38.9547 13.42 39.1557 13.8723 39.5578C14.3247 39.9473 14.6765 40.4814 14.9278 41.1599C15.1666 41.8384 15.2859 42.586 15.2859 43.4028C15.2859 44.119 15.1854 44.8227 14.9844 45.5138C14.7708 46.2049 14.4629 46.808 14.0608 47.3232L13.0619 46.8708C13.4011 46.4185 13.665 45.8907 13.8535 45.2876C14.042 44.6845 14.1362 44.075 14.1362 43.4593C14.1362 42.5421 13.9666 41.7944 13.6273 41.2164C13.2755 40.6259 12.8043 40.3306 12.2137 40.3306C11.686 40.3306 11.2776 40.5693 10.9886 41.0468C10.687 41.5243 10.5362 42.1777 10.5362 43.007V44.7033H9.55614V43.0824C9.55614 42.341 9.41792 41.7442 9.14148 41.2918C8.85248 40.8395 8.46924 40.6133 7.99175 40.6133C7.46401 40.6133 7.04935 40.8709 6.74778 41.3861C6.44622 41.8887 6.29543 42.5484 6.29543 43.3651C6.29543 44.4332 6.56559 45.4886 7.1059 46.5316L6.06925 46.9085C5.45355 45.7274 5.1457 44.5023 5.1457 43.2332C5.1457 42.4792 5.25879 41.8007 5.48497 41.1976C5.69858 40.5819 6.00643 40.1044 6.40852 39.7651C6.81061 39.4133 7.27553 39.2374 7.80327 39.2374C8.30589 39.2374 8.75196 39.4133 9.14148 39.7651C9.53101 40.1044 9.82001 40.5693 10.0085 41.1599ZM14.0043 26.2477H17.5666V27.5105H15.1729V36.388H17.5666V37.6508H14.0043V37.0853C13.9666 36.4194 13.4765 35.967 12.5341 35.7283C11.5917 35.4895 10.2724 35.3262 8.57604 35.2382L5.25879 35.1063L5.25879 27.7933H14.0043V26.2477ZM8.65143 34.0131C10.0588 34.0759 11.221 34.1953 12.1383 34.3712C13.043 34.5471 13.665 34.8613 14.0043 35.3136V29.1315H6.44621L6.44621 33.9L8.65143 34.0131ZM5.25879 15.2147L16.3603 20.1717C17.2901 20.5738 17.9498 21.0387 18.3393 21.5665C18.7288 22.0942 18.9236 22.7288 18.9236 23.4701C18.9236 23.9476 18.8482 24.3937 18.6974 24.8083C18.5466 25.223 18.3205 25.5811 18.0189 25.8827L17.02 25.2607C17.5226 24.7581 17.7739 24.1549 17.7739 23.4513C17.7739 22.9989 17.6482 22.6157 17.3969 22.3016C17.1456 21.9749 16.7184 21.6733 16.1153 21.3968L15.154 20.9633L5.25879 25.3926V23.9979L13.6839 20.266L5.25879 16.5341V15.2147ZM15.1729 7.49937L11.0263 10.647L15.1729 13.8135V15.3213L10.0839 11.4009L5.25879 15.1328V13.625L9.14148 10.647L5.25879 7.669V6.19885L10.0839 9.93076L15.1729 5.97268V7.49937Z" fill="#010101"/>
<path d="M167.512 37.0994V98.1513H534.703V37.0994H167.512Z" stroke="#010101" stroke-width="1.57067" stroke-miterlimit="10"/>
<path d="M241.977 45.9263V29.4814" stroke="#17B9ED" stroke-width="1.57067" stroke-miterlimit="10"/>
<path d="M247.113 33.6437L246.187 34.5076L241.977 29.9684L237.752 34.5076L236.841 33.6437L241.977 28.115L247.113 33.6437Z" fill="#17B9ED"/>
<path d="M182.323 45.9263V29.4814" stroke="#17B9ED" stroke-width="1.57067" stroke-miterlimit="10"/>
<path d="M187.459 33.6437L186.548 34.5076L182.323 29.9684L178.114 34.5076L177.187 33.6437L182.323 28.115L187.459 33.6437Z" fill="#17B9ED"/>
<path d="M301.631 45.9263V29.4814" stroke="#17B9ED" stroke-width="1.57067" stroke-miterlimit="10"/>
<path d="M306.767 33.6437L305.841 34.5076L301.631 29.9684L297.406 34.5076L296.479 33.6437L301.631 28.115L306.767 33.6437Z" fill="#17B9ED"/>
<path d="M361.27 45.9263V29.4814" stroke="#17B9ED" stroke-width="1.57067" stroke-miterlimit="10"/>
<path d="M366.405 33.6437L365.494 34.5076L361.269 29.9684L357.06 34.5076L356.133 33.6437L361.269 28.115L366.405 33.6437Z" fill="#17B9ED"/>
<path d="M420.924 45.9263V29.4814" stroke="#17B9ED" stroke-width="1.57067" stroke-miterlimit="10"/>
<path d="M426.06 33.6437L425.149 34.5076L420.923 29.9684L416.698 34.5076L415.787 33.6437L420.923 28.115L426.06 33.6437Z" fill="#17B9ED"/>
<path d="M480.577 45.9263V29.4814" stroke="#17B9ED" stroke-width="1.57067" stroke-miterlimit="10"/>
<path d="M485.714 33.6437L484.787 34.5076L480.577 29.9684L476.352 34.5076L475.441 33.6437L480.577 28.115L485.714 33.6437Z" fill="#17B9ED"/>
<path d="M167.292 126.816V187.868H534.483V126.816H167.292V126.816Z" stroke="#010101" stroke-width="1.57067" stroke-miterlimit="10"/>
<path d="M598.99 120.549H629.728V136.224L661.707 112.632L629.728 89.041V104.716H598.99" stroke="#17B9ED" stroke-width="1.57067" stroke-miterlimit="10"/>
<path d="M314.197 161.889C312.865 161.889 311.658 161.6 310.578 161.022C309.51 160.431 308.668 159.621 308.052 158.591C307.449 157.56 307.148 156.398 307.148 155.104C307.148 153.809 307.455 152.647 308.071 151.617C308.687 150.586 309.529 149.782 310.597 149.204C311.677 148.614 312.884 148.318 314.216 148.318C315.296 148.318 316.283 148.507 317.175 148.884C318.067 149.261 318.821 149.807 319.436 150.524L317.853 152.013C316.898 150.982 315.723 150.467 314.329 150.467C313.424 150.467 312.613 150.668 311.897 151.07C311.181 151.46 310.622 152.006 310.22 152.71C309.818 153.414 309.617 154.211 309.617 155.104C309.617 155.996 309.818 156.794 310.22 157.497C310.622 158.201 311.181 158.754 311.897 159.156C312.613 159.545 313.424 159.74 314.329 159.74C315.723 159.74 316.898 159.219 317.853 158.176L319.436 159.684C318.821 160.4 318.061 160.947 317.156 161.323C316.264 161.7 315.277 161.889 314.197 161.889ZM325.565 161.832C324.547 161.832 323.63 161.612 322.813 161.173C321.997 160.733 321.356 160.123 320.891 159.344C320.439 158.553 320.212 157.661 320.212 156.668C320.212 155.675 320.439 154.789 320.891 154.01C321.356 153.231 321.997 152.622 322.813 152.182C323.63 151.742 324.547 151.523 325.565 151.523C326.596 151.523 327.519 151.742 328.336 152.182C329.153 152.622 329.787 153.231 330.24 154.01C330.705 154.789 330.937 155.675 330.937 156.668C330.937 157.661 330.705 158.553 330.24 159.344C329.787 160.123 329.153 160.733 328.336 161.173C327.519 161.612 326.596 161.832 325.565 161.832ZM325.565 159.816C326.432 159.816 327.149 159.527 327.714 158.949C328.279 158.371 328.562 157.61 328.562 156.668C328.562 155.726 328.279 154.965 327.714 154.387C327.149 153.809 326.432 153.52 325.565 153.52C324.698 153.52 323.982 153.809 323.417 154.387C322.864 154.965 322.587 155.726 322.587 156.668C322.587 157.61 322.864 158.371 323.417 158.949C323.982 159.527 324.698 159.816 325.565 159.816ZM338.843 151.523C339.824 151.523 340.697 151.736 341.463 152.163C342.242 152.591 342.852 153.194 343.292 153.973C343.731 154.752 343.951 155.65 343.951 156.668C343.951 157.686 343.731 158.591 343.292 159.382C342.852 160.161 342.242 160.764 341.463 161.192C340.697 161.619 339.824 161.832 338.843 161.832C337.486 161.832 336.412 161.38 335.62 160.475V165.357H333.264V151.636H335.507V152.955C335.897 152.477 336.374 152.119 336.94 151.881C337.518 151.642 338.152 151.523 338.843 151.523ZM338.58 159.816C339.447 159.816 340.157 159.527 340.709 158.949C341.275 158.371 341.558 157.61 341.558 156.668C341.558 155.726 341.275 154.965 340.709 154.387C340.157 153.809 339.447 153.52 338.58 153.52C338.014 153.52 337.505 153.652 337.053 153.916C336.601 154.168 336.242 154.532 335.979 155.009C335.715 155.487 335.583 156.04 335.583 156.668C335.583 157.296 335.715 157.849 335.979 158.327C336.242 158.804 336.601 159.175 337.053 159.439C337.505 159.69 338.014 159.816 338.58 159.816ZM351.743 152.126C352.698 152.126 353.54 152.333 354.269 152.748C354.998 153.15 355.563 153.715 355.965 154.444C356.38 155.173 356.587 156.008 356.587 156.951C356.587 157.918 356.361 158.779 355.909 159.533C355.456 160.274 354.822 160.852 354.005 161.267C353.188 161.682 352.258 161.889 351.215 161.889C349.469 161.889 348.118 161.311 347.163 160.155C346.208 158.999 345.731 157.334 345.731 155.16C345.731 153.137 346.164 151.535 347.031 150.354C347.898 149.173 349.224 148.394 351.008 148.017L355.682 147.018L356.022 149.129L351.781 149.996C350.562 150.247 349.651 150.674 349.048 151.277C348.445 151.881 348.093 152.729 347.992 153.822C348.445 153.282 348.991 152.867 349.632 152.578C350.273 152.276 350.977 152.126 351.743 152.126ZM351.272 159.985C352.139 159.985 352.836 159.709 353.364 159.156C353.904 158.591 354.175 157.874 354.175 157.007C354.175 156.14 353.904 155.443 353.364 154.915C352.836 154.387 352.139 154.124 351.272 154.124C350.392 154.124 349.682 154.387 349.142 154.915C348.602 155.443 348.332 156.14 348.332 157.007C348.332 157.887 348.602 158.603 349.142 159.156C349.695 159.709 350.405 159.985 351.272 159.985ZM368.292 156.725C368.292 156.888 368.279 157.12 368.254 157.422H360.357C360.495 158.163 360.853 158.754 361.431 159.194C362.021 159.621 362.75 159.834 363.617 159.834C364.723 159.834 365.634 159.47 366.35 158.741L367.613 160.193C367.161 160.733 366.589 161.141 365.898 161.418C365.207 161.694 364.428 161.832 363.561 161.832C362.455 161.832 361.481 161.612 360.639 161.173C359.797 160.733 359.144 160.123 358.679 159.344C358.227 158.553 358.001 157.661 358.001 156.668C358.001 155.688 358.22 154.808 358.66 154.029C359.113 153.238 359.735 152.622 360.526 152.182C361.318 151.742 362.21 151.523 363.203 151.523C364.183 151.523 365.056 151.742 365.822 152.182C366.602 152.609 367.205 153.219 367.632 154.01C368.072 154.789 368.292 155.694 368.292 156.725ZM363.203 153.407C362.449 153.407 361.808 153.633 361.28 154.086C360.765 154.526 360.451 155.116 360.338 155.858H366.049C365.948 155.129 365.64 154.538 365.125 154.086C364.61 153.633 363.969 153.407 363.203 153.407ZM370.868 151.636H373.224V155.726H378.295V151.636H380.651V161.7H378.295V157.724H373.224V161.7H370.868V151.636ZM391.781 153.633H388.256V161.7H385.9V153.633H382.357V151.636H391.781V153.633Z" fill="#010101"/>
<path d="M314.856 71.7485C313.524 71.7485 312.318 71.4595 311.238 70.8815C310.169 70.291 309.328 69.4805 308.712 68.4501C308.109 67.4198 307.807 66.2575 307.807 64.9632C307.807 63.669 308.115 62.5067 308.731 61.4764C309.346 60.446 310.188 59.6418 311.256 59.0638C312.337 58.4732 313.543 58.178 314.875 58.178C315.956 58.178 316.942 58.3664 317.834 58.7434C318.726 59.1204 319.48 59.667 320.096 60.3832L318.513 61.8722C317.558 60.8418 316.383 60.3266 314.988 60.3266C314.084 60.3266 313.273 60.5277 312.557 60.9298C311.841 61.3193 311.282 61.8659 310.879 62.5695C310.477 63.2732 310.276 64.0711 310.276 64.9632C310.276 65.8554 310.477 66.6533 310.879 67.3569C311.282 68.0606 311.841 68.6135 312.557 69.0156C313.273 69.4051 314.084 69.5999 314.988 69.5999C316.383 69.5999 317.558 69.0784 318.513 68.0355L320.096 69.5433C319.48 70.2595 318.72 70.8061 317.815 71.1831C316.923 71.5601 315.937 71.7485 314.856 71.7485ZM326.225 71.692C325.207 71.692 324.29 71.4721 323.473 71.0323C322.656 70.5925 322.016 69.9831 321.551 69.2041C321.098 68.4124 320.872 67.5203 320.872 66.5276C320.872 65.535 321.098 64.6491 321.551 63.8701C322.016 63.091 322.656 62.4816 323.473 62.0418C324.29 61.602 325.207 61.3821 326.225 61.3821C327.255 61.3821 328.179 61.602 328.996 62.0418C329.812 62.4816 330.447 63.091 330.899 63.8701C331.364 64.6491 331.597 65.535 331.597 66.5276C331.597 67.5203 331.364 68.4124 330.899 69.2041C330.447 69.9831 329.812 70.5925 328.996 71.0323C328.179 71.4721 327.255 71.692 326.225 71.692ZM326.225 69.6753C327.092 69.6753 327.808 69.3863 328.374 68.8082C328.939 68.2302 329.222 67.47 329.222 66.5276C329.222 65.5852 328.939 64.825 328.374 64.247C327.808 63.669 327.092 63.38 326.225 63.38C325.358 63.38 324.642 63.669 324.076 64.247C323.523 64.825 323.247 65.5852 323.247 66.5276C323.247 67.47 323.523 68.2302 324.076 68.8082C324.642 69.3863 325.358 69.6753 326.225 69.6753ZM339.503 61.3821C340.483 61.3821 341.356 61.5957 342.123 62.023C342.902 62.4502 343.511 63.0533 343.951 63.8324C344.391 64.6114 344.611 65.5098 344.611 66.5276C344.611 67.5454 344.391 68.4501 343.951 69.2418C343.511 70.0208 342.902 70.6239 342.123 71.0512C341.356 71.4784 340.483 71.692 339.503 71.692C338.146 71.692 337.072 71.2396 336.28 70.3349V75.2166H333.924V61.4952H336.167V62.8146C336.557 62.3371 337.034 61.979 337.599 61.7402C338.177 61.5015 338.812 61.3821 339.503 61.3821ZM339.239 69.6753C340.106 69.6753 340.816 69.3863 341.369 68.8082C341.934 68.2302 342.217 67.47 342.217 66.5276C342.217 65.5852 341.934 64.825 341.369 64.247C340.816 63.669 340.106 63.38 339.239 63.38C338.674 63.38 338.165 63.512 337.713 63.7758C337.26 64.0271 336.902 64.3915 336.638 64.869C336.374 65.3465 336.242 65.8994 336.242 66.5276C336.242 67.1559 336.374 67.7088 336.638 68.1863C336.902 68.6637 337.26 69.0344 337.713 69.2983C338.165 69.5496 338.674 69.6753 339.239 69.6753ZM352.403 61.9853C353.358 61.9853 354.2 62.1926 354.928 62.6072C355.657 63.0093 356.223 63.5748 356.625 64.3036C357.039 65.0324 357.247 65.868 357.247 66.8104C357.247 67.7779 357.021 68.6386 356.568 69.3925C356.116 70.1339 355.481 70.7119 354.665 71.1266C353.848 71.5412 352.918 71.7485 351.875 71.7485C350.128 71.7485 348.778 71.1705 347.823 70.0145C346.868 68.8585 346.39 67.1936 346.39 65.0198C346.39 62.9968 346.824 61.3947 347.691 60.2135C348.558 59.0324 349.883 58.2534 351.668 57.8764L356.342 56.8774L356.681 58.9884L352.441 59.8554C351.222 60.1067 350.311 60.534 349.708 61.1371C349.104 61.7402 348.753 62.5884 348.652 63.6816C349.104 63.1413 349.651 62.7266 350.292 62.4376C350.933 62.136 351.636 61.9853 352.403 61.9853ZM351.932 69.8449C352.799 69.8449 353.496 69.5685 354.024 69.0156C354.564 68.4501 354.834 67.7339 354.834 66.8669C354.834 65.9999 354.564 65.3025 354.024 64.7748C353.496 64.247 352.799 63.9832 351.932 63.9832C351.052 63.9832 350.342 64.247 349.802 64.7748C349.261 65.3025 348.991 65.9999 348.991 66.8669C348.991 67.7465 349.261 68.4627 349.802 69.0156C350.355 69.5685 351.065 69.8449 351.932 69.8449ZM368.951 66.5842C368.951 66.7475 368.939 66.98 368.914 67.2816H361.016C361.154 68.0229 361.513 68.6135 362.091 69.0533C362.681 69.4805 363.41 69.6941 364.277 69.6941C365.383 69.6941 366.294 69.3297 367.01 68.6009L368.273 70.0522C367.82 70.5925 367.249 71.0009 366.558 71.2773C365.866 71.5538 365.087 71.692 364.22 71.692C363.115 71.692 362.141 71.4721 361.299 71.0323C360.457 70.5925 359.804 69.9831 359.339 69.2041C358.886 68.4124 358.66 67.5203 358.66 66.5276C358.66 65.5475 358.88 64.668 359.32 63.8889C359.772 63.0973 360.394 62.4816 361.186 62.0418C361.977 61.602 362.87 61.3821 363.862 61.3821C364.842 61.3821 365.716 61.602 366.482 62.0418C367.261 62.469 367.864 63.0784 368.292 63.8701C368.731 64.6491 368.951 65.5538 368.951 66.5842ZM363.862 63.2669C363.108 63.2669 362.468 63.4931 361.94 63.9455C361.425 64.3852 361.11 64.9758 360.997 65.7172H366.708C366.608 64.9884 366.3 64.3978 365.785 63.9455C365.27 63.4931 364.629 63.2669 363.862 63.2669ZM371.528 61.4952H373.884V65.5852H378.954V61.4952H381.31V71.5601H378.954V67.5831H373.884V71.5601H371.528V61.4952ZM392.44 63.4931H388.916V71.5601H386.56V63.4931H383.016V61.4952H392.44V63.4931Z" fill="#010101"/>
</g>
<defs>
<clipPath id="clip0_443_1113">
<rect width="691" height="224.48" fill="white"/>
</clipPath>
</defs>
</svg>
