<svg width="766" height="378" viewBox="0 0 766 378" fill="none" xmlns="http://www.w3.org/2000/svg">
<path d="M45 14H765.5" stroke="#354E8A"/>
<path d="M45 69H765.5" stroke="#354E8A"/>
<path d="M45 124H765.5" stroke="#354E8A"/>
<path d="M45 179H765.5" stroke="#354E8A"/>
<path d="M45 234H765.5" stroke="#354E8A"/>
<path d="M45 289H765.5" stroke="#354E8A"/>
<path d="M45 344H765.5" stroke="#354E8A"/>
<path d="M135 344V348" stroke="#354E8A"/>
<path d="M225 344V348" stroke="#354E8A"/>
<path d="M315 344V348" stroke="#354E8A"/>
<path d="M405 344V348" stroke="#354E8A"/>
<path d="M495 344V348" stroke="#354E8A"/>
<path d="M585 344V348" stroke="#354E8A"/>
<path d="M675 344V348" stroke="#354E8A"/>
<path d="M765 344V348" stroke="#354E8A"/>
<path d="M45 344V348" stroke="#354E8A"/>
<path d="M88 118L179.5 173L269.5 160L359.5 122L452 113.5L632 57.5L722 67" stroke="white" stroke-width="5"/>
<path d="M88 336.5L176 339L332.5 337.5H467H585.5H643.5H722" stroke="#F35F42" stroke-width="5"/>
<path d="M18.9 346.81C18.1906 345.905 17.836 344.715 17.836 343.24C17.836 341.765 18.1906 340.575 18.9 339.67C19.6093 338.765 20.6546 338.312 22.036 338.312C23.4266 338.312 24.4766 338.765 25.186 339.67C25.8953 340.566 26.25 341.756 26.25 343.24C26.25 344.724 25.8953 345.919 25.186 346.824C24.4766 347.72 23.4266 348.168 22.036 348.168C20.6546 348.168 19.6093 347.715 18.9 346.81ZM24.304 346.068C24.808 345.405 25.06 344.463 25.06 343.24C25.06 342.017 24.808 341.079 24.304 340.426C23.8093 339.763 23.0533 339.432 22.036 339.432C21.0186 339.432 20.2626 339.763 19.768 340.426C19.2733 341.079 19.026 342.017 19.026 343.24C19.026 344.463 19.2733 345.405 19.768 346.068C20.2626 346.721 21.0186 347.048 22.036 347.048C23.0533 347.048 23.8093 346.721 24.304 346.068ZM27.1995 350.1H26.2895L27.0595 346.88H28.2495L27.1995 350.1ZM29.9343 346.81C29.2249 345.905 28.8703 344.715 28.8703 343.24C28.8703 341.765 29.2249 340.575 29.9343 339.67C30.6436 338.765 31.6889 338.312 33.0703 338.312C34.4609 338.312 35.5109 338.765 36.2203 339.67C36.9296 340.566 37.2843 341.756 37.2843 343.24C37.2843 344.724 36.9296 345.919 36.2203 346.824C35.5109 347.72 34.4609 348.168 33.0703 348.168C31.6889 348.168 30.6436 347.715 29.9343 346.81ZM35.3383 346.068C35.8423 345.405 36.0943 344.463 36.0943 343.24C36.0943 342.017 35.8423 341.079 35.3383 340.426C34.8436 339.763 34.0876 339.432 33.0703 339.432C32.0529 339.432 31.2969 339.763 30.8023 340.426C30.3076 341.079 30.0603 342.017 30.0603 343.24C30.0603 344.463 30.3076 345.405 30.8023 346.068C31.2969 346.721 32.0529 347.048 33.0703 347.048C34.0876 347.048 34.8436 346.721 35.3383 346.068Z" fill="white"/>
<path d="M66.5354 358.48H67.4034V366.88H69.1814V368H64.2254V366.88H66.2274V359.726L64.2254 360.482V359.362L66.5354 358.48ZM70.2551 358.48H75.9671V359.6H71.3611L71.1931 362.288C71.6971 362.148 72.2384 362.078 72.8171 362.078C73.2931 362.078 73.7364 362.134 74.1471 362.246C74.5577 362.349 74.9357 362.517 75.2811 362.75C75.6357 362.974 75.9157 363.291 76.1211 363.702C76.3264 364.103 76.4291 364.579 76.4291 365.13C76.4291 366.073 76.0791 366.815 75.3791 367.356C74.6884 367.897 73.8064 368.168 72.7331 368.168C71.5757 368.168 70.5584 367.953 69.6811 367.524V366.404C70.5211 366.852 71.4917 367.076 72.5931 367.076C73.3957 367.076 74.0351 366.908 74.5111 366.572C74.9964 366.236 75.2391 365.755 75.2391 365.13C75.2391 363.805 74.2964 363.142 72.4111 363.142C71.5897 363.142 70.7684 363.291 69.9471 363.59L70.2551 358.48ZM78.3114 366.894C78.4514 367.015 78.5214 367.188 78.5214 367.412C78.5214 367.636 78.4514 367.813 78.3114 367.944C78.1714 368.065 77.9987 368.126 77.7934 368.126C77.5881 368.126 77.4107 368.065 77.2614 367.944C77.1214 367.813 77.0514 367.636 77.0514 367.412C77.0514 367.188 77.1214 367.015 77.2614 366.894C77.4107 366.773 77.5881 366.712 77.7934 366.712C77.9987 366.712 78.1714 366.773 78.3114 366.894ZM80.0971 366.81C79.3877 365.905 79.0331 364.715 79.0331 363.24C79.0331 361.765 79.3877 360.575 80.0971 359.67C80.8064 358.765 81.8517 358.312 83.2331 358.312C84.6237 358.312 85.6737 358.765 86.3831 359.67C87.0924 360.566 87.4471 361.756 87.4471 363.24C87.4471 364.724 87.0924 365.919 86.3831 366.824C85.6737 367.72 84.6237 368.168 83.2331 368.168C81.8517 368.168 80.8064 367.715 80.0971 366.81ZM85.5011 366.068C86.0051 365.405 86.2571 364.463 86.2571 363.24C86.2571 362.017 86.0051 361.079 85.5011 360.426C85.0064 359.763 84.2504 359.432 83.2331 359.432C82.2157 359.432 81.4597 359.763 80.9651 360.426C80.4704 361.079 80.2231 362.017 80.2231 363.24C80.2231 364.463 80.4704 365.405 80.9651 366.068C81.4597 366.721 82.2157 367.048 83.2331 367.048C84.2504 367.048 85.0064 366.721 85.5011 366.068ZM89.5208 362.974C90.4261 362.367 91.4201 362.064 92.5028 362.064C93.3708 362.064 94.1315 362.33 94.7848 362.862C95.4381 363.385 95.7648 364.113 95.7648 365.046C95.7648 366.026 95.4381 366.791 94.7848 367.342C94.1408 367.893 93.3288 368.168 92.3488 368.168C91.0048 368.168 89.9968 367.753 89.3248 366.922C88.6621 366.082 88.3308 364.906 88.3308 363.394C88.3308 361.714 88.7275 360.449 89.5208 359.6C90.3235 358.741 91.3688 358.312 92.6568 358.312C93.4875 358.312 94.2575 358.494 94.9668 358.858V359.978C94.2761 359.614 93.5155 359.432 92.6848 359.432C91.8075 359.432 91.0748 359.717 90.4868 360.286C89.9081 360.846 89.5861 361.742 89.5208 362.974ZM89.5348 364.15C89.7121 366.101 90.6221 367.076 92.2648 367.076C92.9555 367.076 93.5108 366.917 93.9308 366.6C94.3601 366.283 94.5748 365.783 94.5748 365.102C94.5748 364.411 94.3555 363.917 93.9168 363.618C93.4781 363.31 92.9088 363.156 92.2088 363.156C91.1728 363.156 90.2815 363.487 89.5348 364.15ZM97.6041 366.894C97.7441 367.015 97.8141 367.188 97.8141 367.412C97.8141 367.636 97.7441 367.813 97.6041 367.944C97.4641 368.065 97.2914 368.126 97.0861 368.126C96.8807 368.126 96.7034 368.065 96.5541 367.944C96.4141 367.813 96.3441 367.636 96.3441 367.412C96.3441 367.188 96.4141 367.015 96.5541 366.894C96.7034 366.773 96.8807 366.712 97.0861 366.712C97.2914 366.712 97.4641 366.773 97.6041 366.894ZM98.9739 359.236C99.8605 358.62 100.878 358.312 102.026 358.312C103.015 358.312 103.804 358.536 104.392 358.984C104.98 359.432 105.274 360.057 105.274 360.86C105.274 361.243 105.199 361.602 105.05 361.938C104.91 362.274 104.695 362.582 104.406 362.862C104.126 363.142 103.851 363.38 103.58 363.576C103.319 363.763 102.987 363.973 102.586 364.206C102.539 364.234 102.395 364.318 102.152 364.458C101.919 364.598 101.769 364.687 101.704 364.724C101.648 364.761 101.517 364.845 101.312 364.976C101.116 365.097 100.985 365.186 100.92 365.242C100.864 365.298 100.761 365.387 100.612 365.508C100.472 365.629 100.374 365.732 100.318 365.816C100.271 365.9 100.206 366.007 100.122 366.138C100.047 366.259 99.9959 366.381 99.9679 366.502C99.9399 366.623 99.9259 366.754 99.9259 366.894L105.344 366.88V368H98.6379V367.44C98.6379 366.917 98.7219 366.446 98.8899 366.026C99.0579 365.597 99.2959 365.233 99.6039 364.934C99.9212 364.626 100.234 364.369 100.542 364.164C100.85 363.949 101.209 363.721 101.62 363.478C101.713 363.431 101.783 363.394 101.83 363.366C102.679 362.871 103.235 362.493 103.496 362.232C103.897 361.821 104.098 361.359 104.098 360.846C104.098 360.379 103.907 360.025 103.524 359.782C103.151 359.53 102.619 359.404 101.928 359.404C100.92 359.404 99.9352 359.74 98.9739 360.412V359.236ZM108.553 358.48H109.421V366.88H111.199V368H106.243V366.88H108.245V359.726L106.243 360.482V359.362L108.553 358.48Z" fill="white"/>
<path d="M157.221 358.48H158.089V366.88H159.867V368H154.911V366.88H156.913V359.726L154.911 360.482V359.362L157.221 358.48ZM161.543 362.974C162.448 362.367 163.442 362.064 164.525 362.064C165.393 362.064 166.153 362.33 166.807 362.862C167.46 363.385 167.787 364.113 167.787 365.046C167.787 366.026 167.46 366.791 166.807 367.342C166.163 367.893 165.351 368.168 164.371 368.168C163.027 368.168 162.019 367.753 161.347 366.922C160.684 366.082 160.353 364.906 160.353 363.394C160.353 361.714 160.749 360.449 161.543 359.6C162.345 358.741 163.391 358.312 164.679 358.312C165.509 358.312 166.279 358.494 166.989 358.858V359.978C166.298 359.614 165.537 359.432 164.707 359.432C163.829 359.432 163.097 359.717 162.509 360.286C161.93 360.846 161.608 361.742 161.543 362.974ZM161.557 364.15C161.734 366.101 162.644 367.076 164.287 367.076C164.977 367.076 165.533 366.917 165.953 366.6C166.382 366.283 166.597 365.783 166.597 365.102C166.597 364.411 166.377 363.917 165.939 363.618C165.5 363.31 164.931 363.156 164.231 363.156C163.195 363.156 162.303 363.487 161.557 364.15ZM169.626 366.894C169.766 367.015 169.836 367.188 169.836 367.412C169.836 367.636 169.766 367.813 169.626 367.944C169.486 368.065 169.313 368.126 169.108 368.126C168.903 368.126 168.725 368.065 168.576 367.944C168.436 367.813 168.366 367.636 168.366 367.412C168.366 367.188 168.436 367.015 168.576 366.894C168.725 366.773 168.903 366.712 169.108 366.712C169.313 366.712 169.486 366.773 169.626 366.894ZM171.412 366.81C170.702 365.905 170.348 364.715 170.348 363.24C170.348 361.765 170.702 360.575 171.412 359.67C172.121 358.765 173.166 358.312 174.548 358.312C175.938 358.312 176.988 358.765 177.698 359.67C178.407 360.566 178.762 361.756 178.762 363.24C178.762 364.724 178.407 365.919 177.698 366.824C176.988 367.72 175.938 368.168 174.548 368.168C173.166 368.168 172.121 367.715 171.412 366.81ZM176.816 366.068C177.32 365.405 177.572 364.463 177.572 363.24C177.572 362.017 177.32 361.079 176.816 360.426C176.321 359.763 175.565 359.432 174.548 359.432C173.53 359.432 172.774 359.763 172.28 360.426C171.785 361.079 171.538 362.017 171.538 363.24C171.538 364.463 171.785 365.405 172.28 366.068C172.774 366.721 173.53 367.048 174.548 367.048C175.565 367.048 176.321 366.721 176.816 366.068ZM180.835 362.974C181.741 362.367 182.735 362.064 183.817 362.064C184.685 362.064 185.446 362.33 186.099 362.862C186.753 363.385 187.079 364.113 187.079 365.046C187.079 366.026 186.753 366.791 186.099 367.342C185.455 367.893 184.643 368.168 183.663 368.168C182.319 368.168 181.311 367.753 180.639 366.922C179.977 366.082 179.645 364.906 179.645 363.394C179.645 361.714 180.042 360.449 180.835 359.6C181.638 358.741 182.683 358.312 183.971 358.312C184.802 358.312 185.572 358.494 186.281 358.858V359.978C185.591 359.614 184.83 359.432 183.999 359.432C183.122 359.432 182.389 359.717 181.801 360.286C181.223 360.846 180.901 361.742 180.835 362.974ZM180.849 364.15C181.027 366.101 181.937 367.076 183.579 367.076C184.27 367.076 184.825 366.917 185.245 366.6C185.675 366.283 185.889 365.783 185.889 365.102C185.889 364.411 185.67 363.917 185.231 363.618C184.793 363.31 184.223 363.156 183.523 363.156C182.487 363.156 181.596 363.487 180.849 364.15ZM188.919 366.894C189.059 367.015 189.129 367.188 189.129 367.412C189.129 367.636 189.059 367.813 188.919 367.944C188.779 368.065 188.606 368.126 188.401 368.126C188.195 368.126 188.018 368.065 187.869 367.944C187.729 367.813 187.659 367.636 187.659 367.412C187.659 367.188 187.729 367.015 187.869 366.894C188.018 366.773 188.195 366.712 188.401 366.712C188.606 366.712 188.779 366.773 188.919 366.894ZM190.288 359.236C191.175 358.62 192.192 358.312 193.34 358.312C194.33 358.312 195.118 358.536 195.706 358.984C196.294 359.432 196.588 360.057 196.588 360.86C196.588 361.243 196.514 361.602 196.364 361.938C196.224 362.274 196.01 362.582 195.72 362.862C195.44 363.142 195.165 363.38 194.894 363.576C194.633 363.763 194.302 363.973 193.9 364.206C193.854 364.234 193.709 364.318 193.466 364.458C193.233 364.598 193.084 364.687 193.018 364.724C192.962 364.761 192.832 364.845 192.626 364.976C192.43 365.097 192.3 365.186 192.234 365.242C192.178 365.298 192.076 365.387 191.926 365.508C191.786 365.629 191.688 365.732 191.632 365.816C191.586 365.9 191.52 366.007 191.436 366.138C191.362 366.259 191.31 366.381 191.282 366.502C191.254 366.623 191.24 366.754 191.24 366.894L196.658 366.88V368H189.952V367.44C189.952 366.917 190.036 366.446 190.204 366.026C190.372 365.597 190.61 365.233 190.918 364.934C191.236 364.626 191.548 364.369 191.856 364.164C192.164 363.949 192.524 363.721 192.934 363.478C193.028 363.431 193.098 363.394 193.144 363.366C193.994 362.871 194.549 362.493 194.81 362.232C195.212 361.821 195.412 361.359 195.412 360.846C195.412 360.379 195.221 360.025 194.838 359.782C194.465 359.53 193.933 359.404 193.242 359.404C192.234 359.404 191.25 359.74 190.288 360.412V359.236ZM199.867 358.48H200.735V366.88H202.513V368H197.557V366.88H199.559V359.726L197.557 360.482V359.362L199.867 358.48Z" fill="white"/>
<path d="M248.342 358.48H249.21V366.88H250.988V368H246.032V366.88H248.034V359.726L246.032 360.482V359.362L248.342 358.48ZM250.946 358.48H257.806V359.544L253.83 368H252.57L256.518 359.6H250.946V358.48ZM258.505 366.894C258.645 367.015 258.715 367.188 258.715 367.412C258.715 367.636 258.645 367.813 258.505 367.944C258.365 368.065 258.192 368.126 257.987 368.126C257.781 368.126 257.604 368.065 257.455 367.944C257.315 367.813 257.245 367.636 257.245 367.412C257.245 367.188 257.315 367.015 257.455 366.894C257.604 366.773 257.781 366.712 257.987 366.712C258.192 366.712 258.365 366.773 258.505 366.894ZM260.29 366.81C259.581 365.905 259.226 364.715 259.226 363.24C259.226 361.765 259.581 360.575 260.29 359.67C261 358.765 262.045 358.312 263.426 358.312C264.817 358.312 265.867 358.765 266.576 359.67C267.286 360.566 267.64 361.756 267.64 363.24C267.64 364.724 267.286 365.919 266.576 366.824C265.867 367.72 264.817 368.168 263.426 368.168C262.045 368.168 261 367.715 260.29 366.81ZM265.694 366.068C266.198 365.405 266.45 364.463 266.45 363.24C266.45 362.017 266.198 361.079 265.694 360.426C265.2 359.763 264.444 359.432 263.426 359.432C262.409 359.432 261.653 359.763 261.158 360.426C260.664 361.079 260.416 362.017 260.416 363.24C260.416 364.463 260.664 365.405 261.158 366.068C261.653 366.721 262.409 367.048 263.426 367.048C264.444 367.048 265.2 366.721 265.694 366.068ZM269.714 362.974C270.62 362.367 271.614 362.064 272.696 362.064C273.564 362.064 274.325 362.33 274.978 362.862C275.632 363.385 275.958 364.113 275.958 365.046C275.958 366.026 275.632 366.791 274.978 367.342C274.334 367.893 273.522 368.168 272.542 368.168C271.198 368.168 270.19 367.753 269.518 366.922C268.856 366.082 268.524 364.906 268.524 363.394C268.524 361.714 268.921 360.449 269.714 359.6C270.517 358.741 271.562 358.312 272.85 358.312C273.681 358.312 274.451 358.494 275.16 358.858V359.978C274.47 359.614 273.709 359.432 272.878 359.432C272.001 359.432 271.268 359.717 270.68 360.286C270.102 360.846 269.78 361.742 269.714 362.974ZM269.728 364.15C269.906 366.101 270.816 367.076 272.458 367.076C273.149 367.076 273.704 366.917 274.124 366.6C274.554 366.283 274.768 365.783 274.768 365.102C274.768 364.411 274.549 363.917 274.11 363.618C273.672 363.31 273.102 363.156 272.402 363.156C271.366 363.156 270.475 363.487 269.728 364.15ZM277.797 366.894C277.937 367.015 278.007 367.188 278.007 367.412C278.007 367.636 277.937 367.813 277.797 367.944C277.657 368.065 277.485 368.126 277.279 368.126C277.074 368.126 276.897 368.065 276.747 367.944C276.607 367.813 276.537 367.636 276.537 367.412C276.537 367.188 276.607 367.015 276.747 366.894C276.897 366.773 277.074 366.712 277.279 366.712C277.485 366.712 277.657 366.773 277.797 366.894ZM279.167 359.236C280.054 358.62 281.071 358.312 282.219 358.312C283.209 358.312 283.997 358.536 284.585 358.984C285.173 359.432 285.467 360.057 285.467 360.86C285.467 361.243 285.393 361.602 285.243 361.938C285.103 362.274 284.889 362.582 284.599 362.862C284.319 363.142 284.044 363.38 283.773 363.576C283.512 363.763 283.181 363.973 282.779 364.206C282.733 364.234 282.588 364.318 282.345 364.458C282.112 364.598 281.963 364.687 281.897 364.724C281.841 364.761 281.711 364.845 281.505 364.976C281.309 365.097 281.179 365.186 281.113 365.242C281.057 365.298 280.955 365.387 280.805 365.508C280.665 365.629 280.567 365.732 280.511 365.816C280.465 365.9 280.399 366.007 280.315 366.138C280.241 366.259 280.189 366.381 280.161 366.502C280.133 366.623 280.119 366.754 280.119 366.894L285.537 366.88V368H278.831V367.44C278.831 366.917 278.915 366.446 279.083 366.026C279.251 365.597 279.489 365.233 279.797 364.934C280.115 364.626 280.427 364.369 280.735 364.164C281.043 363.949 281.403 363.721 281.813 363.478C281.907 363.431 281.977 363.394 282.023 363.366C282.873 362.871 283.428 362.493 283.689 362.232C284.091 361.821 284.291 361.359 284.291 360.846C284.291 360.379 284.1 360.025 283.717 359.782C283.344 359.53 282.812 359.404 282.121 359.404C281.113 359.404 280.129 359.74 279.167 360.412V359.236ZM288.746 358.48H289.614V366.88H291.392V368H286.436V366.88H288.438V359.726L286.436 360.482V359.362L288.746 358.48Z" fill="white"/>
<path d="M337.543 358.48H338.411V366.88H340.189V368H335.233V366.88H337.235V359.726L335.233 360.482V359.362L337.543 358.48ZM340.969 360.776C340.969 360.104 341.263 359.525 341.851 359.04C342.439 358.555 343.302 358.312 344.441 358.312C345.496 358.312 346.345 358.569 346.989 359.082C347.633 359.595 347.964 360.211 347.983 360.93C348.011 361.91 347.577 362.713 346.681 363.338C347.773 363.879 348.319 364.626 348.319 365.578C348.319 366.306 347.997 366.922 347.353 367.426C346.718 367.921 345.776 368.168 344.525 368.168C343.284 368.168 342.322 367.897 341.641 367.356C340.969 366.815 340.633 366.157 340.633 365.382C340.633 364.915 340.768 364.453 341.039 363.996C341.319 363.529 341.725 363.137 342.257 362.82C341.398 362.297 340.969 361.616 340.969 360.776ZM344.581 363.716C344.096 363.585 343.652 363.445 343.251 363.296C342.784 363.52 342.425 363.809 342.173 364.164C341.93 364.519 341.809 364.883 341.809 365.256C341.809 365.825 342.042 366.273 342.509 366.6C342.985 366.917 343.666 367.076 344.553 367.076C345.3 367.076 345.916 366.945 346.401 366.684C346.896 366.413 347.143 366.063 347.143 365.634C347.143 365.27 347.012 364.962 346.751 364.71C346.499 364.449 346.252 364.271 346.009 364.178C345.766 364.085 345.365 363.954 344.805 363.786C344.702 363.758 344.628 363.735 344.581 363.716ZM346.807 361.14C346.807 360.645 346.597 360.235 346.177 359.908C345.757 359.572 345.169 359.404 344.413 359.404C343.722 359.404 343.172 359.535 342.761 359.796C342.35 360.048 342.145 360.37 342.145 360.762C342.145 361.033 342.201 361.271 342.313 361.476C342.434 361.672 342.612 361.84 342.845 361.98C343.088 362.111 343.307 362.218 343.503 362.302C343.699 362.377 343.96 362.461 344.287 362.554C344.324 362.563 344.352 362.573 344.371 362.582C344.39 362.582 344.413 362.587 344.441 362.596C344.469 362.605 344.497 362.615 344.525 362.624C344.553 362.633 344.712 362.68 345.001 362.764C345.3 362.839 345.528 362.899 345.687 362.946C346.434 362.461 346.807 361.859 346.807 361.14ZM350.304 366.894C350.444 367.015 350.514 367.188 350.514 367.412C350.514 367.636 350.444 367.813 350.304 367.944C350.164 368.065 349.991 368.126 349.786 368.126C349.58 368.126 349.403 368.065 349.254 367.944C349.114 367.813 349.044 367.636 349.044 367.412C349.044 367.188 349.114 367.015 349.254 366.894C349.403 366.773 349.58 366.712 349.786 366.712C349.991 366.712 350.164 366.773 350.304 366.894ZM352.089 366.81C351.38 365.905 351.025 364.715 351.025 363.24C351.025 361.765 351.38 360.575 352.089 359.67C352.799 358.765 353.844 358.312 355.225 358.312C356.616 358.312 357.666 358.765 358.375 359.67C359.085 360.566 359.439 361.756 359.439 363.24C359.439 364.724 359.085 365.919 358.375 366.824C357.666 367.72 356.616 368.168 355.225 368.168C353.844 368.168 352.799 367.715 352.089 366.81ZM357.493 366.068C357.997 365.405 358.249 364.463 358.249 363.24C358.249 362.017 357.997 361.079 357.493 360.426C356.999 359.763 356.243 359.432 355.225 359.432C354.208 359.432 353.452 359.763 352.957 360.426C352.463 361.079 352.215 362.017 352.215 363.24C352.215 364.463 352.463 365.405 352.957 366.068C353.452 366.721 354.208 367.048 355.225 367.048C356.243 367.048 356.999 366.721 357.493 366.068ZM361.513 362.974C362.418 362.367 363.412 362.064 364.495 362.064C365.363 362.064 366.124 362.33 366.777 362.862C367.43 363.385 367.757 364.113 367.757 365.046C367.757 366.026 367.43 366.791 366.777 367.342C366.133 367.893 365.321 368.168 364.341 368.168C362.997 368.168 361.989 367.753 361.317 366.922C360.654 366.082 360.323 364.906 360.323 363.394C360.323 361.714 360.72 360.449 361.513 359.6C362.316 358.741 363.361 358.312 364.649 358.312C365.48 358.312 366.25 358.494 366.959 358.858V359.978C366.268 359.614 365.508 359.432 364.677 359.432C363.8 359.432 363.067 359.717 362.479 360.286C361.9 360.846 361.578 361.742 361.513 362.974ZM361.527 364.15C361.704 366.101 362.614 367.076 364.257 367.076C364.948 367.076 365.503 366.917 365.923 366.6C366.352 366.283 366.567 365.783 366.567 365.102C366.567 364.411 366.348 363.917 365.909 363.618C365.47 363.31 364.901 363.156 364.201 363.156C363.165 363.156 362.274 363.487 361.527 364.15ZM369.596 366.894C369.736 367.015 369.806 367.188 369.806 367.412C369.806 367.636 369.736 367.813 369.596 367.944C369.456 368.065 369.284 368.126 369.078 368.126C368.873 368.126 368.696 368.065 368.546 367.944C368.406 367.813 368.336 367.636 368.336 367.412C368.336 367.188 368.406 367.015 368.546 366.894C368.696 366.773 368.873 366.712 369.078 366.712C369.284 366.712 369.456 366.773 369.596 366.894ZM370.966 359.236C371.853 358.62 372.87 358.312 374.018 358.312C375.007 358.312 375.796 358.536 376.384 358.984C376.972 359.432 377.266 360.057 377.266 360.86C377.266 361.243 377.191 361.602 377.042 361.938C376.902 362.274 376.687 362.582 376.398 362.862C376.118 363.142 375.843 363.38 375.572 363.576C375.311 363.763 374.979 363.973 374.578 364.206C374.531 364.234 374.387 364.318 374.144 364.458C373.911 364.598 373.761 364.687 373.696 364.724C373.64 364.761 373.509 364.845 373.304 364.976C373.108 365.097 372.977 365.186 372.912 365.242C372.856 365.298 372.753 365.387 372.604 365.508C372.464 365.629 372.366 365.732 372.31 365.816C372.263 365.9 372.198 366.007 372.114 366.138C372.039 366.259 371.988 366.381 371.96 366.502C371.932 366.623 371.918 366.754 371.918 366.894L377.336 366.88V368H370.63V367.44C370.63 366.917 370.714 366.446 370.882 366.026C371.05 365.597 371.288 365.233 371.596 364.934C371.913 364.626 372.226 364.369 372.534 364.164C372.842 363.949 373.201 363.721 373.612 363.478C373.705 363.431 373.775 363.394 373.822 363.366C374.671 362.871 375.227 362.493 375.488 362.232C375.889 361.821 376.09 361.359 376.09 360.846C376.09 360.379 375.899 360.025 375.516 359.782C375.143 359.53 374.611 359.404 373.92 359.404C372.912 359.404 371.927 359.74 370.966 360.412V359.236ZM380.545 358.48H381.413V366.88H383.191V368H378.235V366.88H380.237V359.726L378.235 360.482V359.362L380.545 358.48Z" fill="white"/>
<path d="M429.365 358.48H430.233V366.88H432.011V368H427.055V366.88H429.057V359.726L427.055 360.482V359.362L429.365 358.48ZM432.3 361.434C432.3 360.454 432.622 359.689 433.266 359.138C433.919 358.587 434.736 358.312 435.716 358.312C437.06 358.312 438.063 358.732 438.726 359.572C439.398 360.403 439.734 361.574 439.734 363.086C439.734 364.766 439.333 366.035 438.53 366.894C437.737 367.743 436.696 368.168 435.408 368.168C434.577 368.168 433.807 367.986 433.098 367.622V366.502C433.789 366.866 434.549 367.048 435.38 367.048C436.257 367.048 436.985 366.768 437.564 366.208C438.152 365.639 438.479 364.738 438.544 363.506C437.629 364.113 436.635 364.416 435.562 364.416C434.694 364.416 433.933 364.155 433.28 363.632C432.627 363.1 432.3 362.367 432.3 361.434ZM435.8 359.404C435.109 359.404 434.549 359.563 434.12 359.88C433.7 360.197 433.49 360.697 433.49 361.378C433.49 362.069 433.709 362.568 434.148 362.876C434.587 363.175 435.156 363.324 435.856 363.324C436.892 363.324 437.783 362.993 438.53 362.33C438.353 360.379 437.443 359.404 435.8 359.404ZM441.482 366.894C441.622 367.015 441.692 367.188 441.692 367.412C441.692 367.636 441.622 367.813 441.482 367.944C441.342 368.065 441.17 368.126 440.964 368.126C440.759 368.126 440.582 368.065 440.432 367.944C440.292 367.813 440.222 367.636 440.222 367.412C440.222 367.188 440.292 367.015 440.432 366.894C440.582 366.773 440.759 366.712 440.964 366.712C441.17 366.712 441.342 366.773 441.482 366.894ZM443.268 366.81C442.559 365.905 442.204 364.715 442.204 363.24C442.204 361.765 442.559 360.575 443.268 359.67C443.977 358.765 445.023 358.312 446.404 358.312C447.795 358.312 448.845 358.765 449.554 359.67C450.263 360.566 450.618 361.756 450.618 363.24C450.618 364.724 450.263 365.919 449.554 366.824C448.845 367.72 447.795 368.168 446.404 368.168C445.023 368.168 443.977 367.715 443.268 366.81ZM448.672 366.068C449.176 365.405 449.428 364.463 449.428 363.24C449.428 362.017 449.176 361.079 448.672 360.426C448.177 359.763 447.421 359.432 446.404 359.432C445.387 359.432 444.631 359.763 444.136 360.426C443.641 361.079 443.394 362.017 443.394 363.24C443.394 364.463 443.641 365.405 444.136 366.068C444.631 366.721 445.387 367.048 446.404 367.048C447.421 367.048 448.177 366.721 448.672 366.068ZM452.692 362.974C453.597 362.367 454.591 362.064 455.674 362.064C456.542 362.064 457.302 362.33 457.956 362.862C458.609 363.385 458.936 364.113 458.936 365.046C458.936 366.026 458.609 366.791 457.956 367.342C457.312 367.893 456.5 368.168 455.52 368.168C454.176 368.168 453.168 367.753 452.496 366.922C451.833 366.082 451.502 364.906 451.502 363.394C451.502 361.714 451.898 360.449 452.692 359.6C453.494 358.741 454.54 358.312 455.828 358.312C456.658 358.312 457.428 358.494 458.138 358.858V359.978C457.447 359.614 456.686 359.432 455.856 359.432C454.978 359.432 454.246 359.717 453.658 360.286C453.079 360.846 452.757 361.742 452.692 362.974ZM452.706 364.15C452.883 366.101 453.793 367.076 455.436 367.076C456.126 367.076 456.682 366.917 457.102 366.6C457.531 366.283 457.746 365.783 457.746 365.102C457.746 364.411 457.526 363.917 457.088 363.618C456.649 363.31 456.08 363.156 455.38 363.156C454.344 363.156 453.452 363.487 452.706 364.15ZM460.775 366.894C460.915 367.015 460.985 367.188 460.985 367.412C460.985 367.636 460.915 367.813 460.775 367.944C460.635 368.065 460.462 368.126 460.257 368.126C460.052 368.126 459.874 368.065 459.725 367.944C459.585 367.813 459.515 367.636 459.515 367.412C459.515 367.188 459.585 367.015 459.725 366.894C459.874 366.773 460.052 366.712 460.257 366.712C460.462 366.712 460.635 366.773 460.775 366.894ZM462.145 359.236C463.031 358.62 464.049 358.312 465.197 358.312C466.186 358.312 466.975 358.536 467.563 358.984C468.151 359.432 468.445 360.057 468.445 360.86C468.445 361.243 468.37 361.602 468.221 361.938C468.081 362.274 467.866 362.582 467.577 362.862C467.297 363.142 467.021 363.38 466.751 363.576C466.489 363.763 466.158 363.973 465.757 364.206C465.71 364.234 465.565 364.318 465.323 364.458C465.089 364.598 464.94 364.687 464.875 364.724C464.819 364.761 464.688 364.845 464.483 364.976C464.287 365.097 464.156 365.186 464.091 365.242C464.035 365.298 463.932 365.387 463.783 365.508C463.643 365.629 463.545 365.732 463.489 365.816C463.442 365.9 463.377 366.007 463.293 366.138C463.218 366.259 463.167 366.381 463.139 366.502C463.111 366.623 463.097 366.754 463.097 366.894L468.515 366.88V368H461.809V367.44C461.809 366.917 461.893 366.446 462.061 366.026C462.229 365.597 462.467 365.233 462.775 364.934C463.092 364.626 463.405 364.369 463.713 364.164C464.021 363.949 464.38 363.721 464.791 363.478C464.884 363.431 464.954 363.394 465.001 363.366C465.85 362.871 466.405 362.493 466.667 362.232C467.068 361.821 467.269 361.359 467.269 360.846C467.269 360.379 467.077 360.025 466.695 359.782C466.321 359.53 465.789 359.404 465.099 359.404C464.091 359.404 463.106 359.74 462.145 360.412V359.236ZM471.724 358.48H472.592V366.88H474.37V368H469.414V366.88H471.416V359.726L469.414 360.482V359.362L471.724 358.48Z" fill="white"/>
<path d="M514.158 359.236C515.045 358.62 516.062 358.312 517.21 358.312C518.199 358.312 518.988 358.536 519.576 358.984C520.164 359.432 520.458 360.057 520.458 360.86C520.458 361.243 520.383 361.602 520.234 361.938C520.094 362.274 519.879 362.582 519.59 362.862C519.31 363.142 519.035 363.38 518.764 363.576C518.503 363.763 518.171 363.973 517.77 364.206C517.723 364.234 517.579 364.318 517.336 364.458C517.103 364.598 516.953 364.687 516.888 364.724C516.832 364.761 516.701 364.845 516.496 364.976C516.3 365.097 516.169 365.186 516.104 365.242C516.048 365.298 515.945 365.387 515.796 365.508C515.656 365.629 515.558 365.732 515.502 365.816C515.455 365.9 515.39 366.007 515.306 366.138C515.231 366.259 515.18 366.381 515.152 366.502C515.124 366.623 515.11 366.754 515.11 366.894L520.528 366.88V368H513.822V367.44C513.822 366.917 513.906 366.446 514.074 366.026C514.242 365.597 514.48 365.233 514.788 364.934C515.105 364.626 515.418 364.369 515.726 364.164C516.034 363.949 516.393 363.721 516.804 363.478C516.897 363.431 516.967 363.394 517.014 363.366C517.863 362.871 518.419 362.493 518.68 362.232C519.081 361.821 519.282 361.359 519.282 360.846C519.282 360.379 519.091 360.025 518.708 359.782C518.335 359.53 517.803 359.404 517.112 359.404C516.104 359.404 515.119 359.74 514.158 360.412V359.236ZM522.463 366.81C521.754 365.905 521.399 364.715 521.399 363.24C521.399 361.765 521.754 360.575 522.463 359.67C523.172 358.765 524.218 358.312 525.599 358.312C526.99 358.312 528.04 358.765 528.749 359.67C529.458 360.566 529.813 361.756 529.813 363.24C529.813 364.724 529.458 365.919 528.749 366.824C528.04 367.72 526.99 368.168 525.599 368.168C524.218 368.168 523.172 367.715 522.463 366.81ZM527.867 366.068C528.371 365.405 528.623 364.463 528.623 363.24C528.623 362.017 528.371 361.079 527.867 360.426C527.372 359.763 526.616 359.432 525.599 359.432C524.582 359.432 523.826 359.763 523.331 360.426C522.836 361.079 522.589 362.017 522.589 363.24C522.589 364.463 522.836 365.405 523.331 366.068C523.826 366.721 524.582 367.048 525.599 367.048C526.616 367.048 527.372 366.721 527.867 366.068ZM531.589 366.894C531.729 367.015 531.799 367.188 531.799 367.412C531.799 367.636 531.729 367.813 531.589 367.944C531.449 368.065 531.276 368.126 531.071 368.126C530.865 368.126 530.688 368.065 530.539 367.944C530.399 367.813 530.329 367.636 530.329 367.412C530.329 367.188 530.399 367.015 530.539 366.894C530.688 366.773 530.865 366.712 531.071 366.712C531.276 366.712 531.449 366.773 531.589 366.894ZM533.374 366.81C532.665 365.905 532.31 364.715 532.31 363.24C532.31 361.765 532.665 360.575 533.374 359.67C534.084 358.765 535.129 358.312 536.51 358.312C537.901 358.312 538.951 358.765 539.66 359.67C540.37 360.566 540.724 361.756 540.724 363.24C540.724 364.724 540.37 365.919 539.66 366.824C538.951 367.72 537.901 368.168 536.51 368.168C535.129 368.168 534.084 367.715 533.374 366.81ZM538.778 366.068C539.282 365.405 539.534 364.463 539.534 363.24C539.534 362.017 539.282 361.079 538.778 360.426C538.284 359.763 537.528 359.432 536.51 359.432C535.493 359.432 534.737 359.763 534.242 360.426C533.748 361.079 533.5 362.017 533.5 363.24C533.5 364.463 533.748 365.405 534.242 366.068C534.737 366.721 535.493 367.048 536.51 367.048C537.528 367.048 538.284 366.721 538.778 366.068ZM542.798 362.974C543.703 362.367 544.697 362.064 545.78 362.064C546.648 362.064 547.409 362.33 548.062 362.862C548.715 363.385 549.042 364.113 549.042 365.046C549.042 366.026 548.715 366.791 548.062 367.342C547.418 367.893 546.606 368.168 545.626 368.168C544.282 368.168 543.274 367.753 542.602 366.922C541.939 366.082 541.608 364.906 541.608 363.394C541.608 361.714 542.005 360.449 542.798 359.6C543.601 358.741 544.646 358.312 545.934 358.312C546.765 358.312 547.535 358.494 548.244 358.858V359.978C547.553 359.614 546.793 359.432 545.962 359.432C545.085 359.432 544.352 359.717 543.764 360.286C543.185 360.846 542.863 361.742 542.798 362.974ZM542.812 364.15C542.989 366.101 543.899 367.076 545.542 367.076C546.233 367.076 546.788 366.917 547.208 366.6C547.637 366.283 547.852 365.783 547.852 365.102C547.852 364.411 547.633 363.917 547.194 363.618C546.755 363.31 546.186 363.156 545.486 363.156C544.45 363.156 543.559 363.487 542.812 364.15ZM550.881 366.894C551.021 367.015 551.091 367.188 551.091 367.412C551.091 367.636 551.021 367.813 550.881 367.944C550.741 368.065 550.569 368.126 550.363 368.126C550.158 368.126 549.981 368.065 549.831 367.944C549.691 367.813 549.621 367.636 549.621 367.412C549.621 367.188 549.691 367.015 549.831 366.894C549.981 366.773 550.158 366.712 550.363 366.712C550.569 366.712 550.741 366.773 550.881 366.894ZM552.251 359.236C553.138 358.62 554.155 358.312 555.303 358.312C556.293 358.312 557.081 358.536 557.669 358.984C558.257 359.432 558.551 360.057 558.551 360.86C558.551 361.243 558.477 361.602 558.327 361.938C558.187 362.274 557.973 362.582 557.683 362.862C557.403 363.142 557.128 363.38 556.857 363.576C556.596 363.763 556.265 363.973 555.863 364.206C555.817 364.234 555.672 364.318 555.429 364.458C555.196 364.598 555.047 364.687 554.981 364.724C554.925 364.761 554.795 364.845 554.589 364.976C554.393 365.097 554.263 365.186 554.197 365.242C554.141 365.298 554.039 365.387 553.889 365.508C553.749 365.629 553.651 365.732 553.595 365.816C553.549 365.9 553.483 366.007 553.399 366.138C553.325 366.259 553.273 366.381 553.245 366.502C553.217 366.623 553.203 366.754 553.203 366.894L558.621 366.88V368H551.915V367.44C551.915 366.917 551.999 366.446 552.167 366.026C552.335 365.597 552.573 365.233 552.881 364.934C553.199 364.626 553.511 364.369 553.819 364.164C554.127 363.949 554.487 363.721 554.897 363.478C554.991 363.431 555.061 363.394 555.107 363.366C555.957 362.871 556.512 362.493 556.773 362.232C557.175 361.821 557.375 361.359 557.375 360.846C557.375 360.379 557.184 360.025 556.801 359.782C556.428 359.53 555.896 359.404 555.205 359.404C554.197 359.404 553.213 359.74 552.251 360.412V359.236ZM561.83 358.48H562.698V366.88H564.476V368H559.52V366.88H561.522V359.726L559.52 360.482V359.362L561.83 358.48Z" fill="white"/>
<path d="M604.367 359.236C605.254 358.62 606.271 358.312 607.419 358.312C608.408 358.312 609.197 358.536 609.785 358.984C610.373 359.432 610.667 360.057 610.667 360.86C610.667 361.243 610.592 361.602 610.443 361.938C610.303 362.274 610.088 362.582 609.799 362.862C609.519 363.142 609.244 363.38 608.973 363.576C608.712 363.763 608.38 363.973 607.979 364.206C607.932 364.234 607.788 364.318 607.545 364.458C607.312 364.598 607.162 364.687 607.097 364.724C607.041 364.761 606.91 364.845 606.705 364.976C606.509 365.097 606.378 365.186 606.313 365.242C606.257 365.298 606.154 365.387 606.005 365.508C605.865 365.629 605.767 365.732 605.711 365.816C605.664 365.9 605.599 366.007 605.515 366.138C605.44 366.259 605.389 366.381 605.361 366.502C605.333 366.623 605.319 366.754 605.319 366.894L610.737 366.88V368H604.031V367.44C604.031 366.917 604.115 366.446 604.283 366.026C604.451 365.597 604.689 365.233 604.997 364.934C605.314 364.626 605.627 364.369 605.935 364.164C606.243 363.949 606.602 363.721 607.013 363.478C607.106 363.431 607.176 363.394 607.223 363.366C608.072 362.871 608.628 362.493 608.889 362.232C609.29 361.821 609.491 361.359 609.491 360.846C609.491 360.379 609.3 360.025 608.917 359.782C608.544 359.53 608.012 359.404 607.321 359.404C606.313 359.404 605.328 359.74 604.367 360.412V359.236ZM613.946 358.48H614.814V366.88H616.592V368H611.636V366.88H613.638V359.726L611.636 360.482V359.362L613.946 358.48ZM618.38 366.894C618.52 367.015 618.59 367.188 618.59 367.412C618.59 367.636 618.52 367.813 618.38 367.944C618.24 368.065 618.067 368.126 617.862 368.126C617.656 368.126 617.479 368.065 617.33 367.944C617.19 367.813 617.12 367.636 617.12 367.412C617.12 367.188 617.19 367.015 617.33 366.894C617.479 366.773 617.656 366.712 617.862 366.712C618.067 366.712 618.24 366.773 618.38 366.894ZM620.165 366.81C619.456 365.905 619.101 364.715 619.101 363.24C619.101 361.765 619.456 360.575 620.165 359.67C620.875 358.765 621.92 358.312 623.301 358.312C624.692 358.312 625.742 358.765 626.451 359.67C627.161 360.566 627.515 361.756 627.515 363.24C627.515 364.724 627.161 365.919 626.451 366.824C625.742 367.72 624.692 368.168 623.301 368.168C621.92 368.168 620.875 367.715 620.165 366.81ZM625.569 366.068C626.073 365.405 626.325 364.463 626.325 363.24C626.325 362.017 626.073 361.079 625.569 360.426C625.075 359.763 624.319 359.432 623.301 359.432C622.284 359.432 621.528 359.763 621.033 360.426C620.539 361.079 620.291 362.017 620.291 363.24C620.291 364.463 620.539 365.405 621.033 366.068C621.528 366.721 622.284 367.048 623.301 367.048C624.319 367.048 625.075 366.721 625.569 366.068ZM629.589 362.974C630.495 362.367 631.489 362.064 632.571 362.064C633.439 362.064 634.2 362.33 634.853 362.862C635.507 363.385 635.833 364.113 635.833 365.046C635.833 366.026 635.507 366.791 634.853 367.342C634.209 367.893 633.397 368.168 632.417 368.168C631.073 368.168 630.065 367.753 629.393 366.922C628.731 366.082 628.399 364.906 628.399 363.394C628.399 361.714 628.796 360.449 629.589 359.6C630.392 358.741 631.437 358.312 632.725 358.312C633.556 358.312 634.326 358.494 635.035 358.858V359.978C634.345 359.614 633.584 359.432 632.753 359.432C631.876 359.432 631.143 359.717 630.555 360.286C629.977 360.846 629.655 361.742 629.589 362.974ZM629.603 364.15C629.781 366.101 630.691 367.076 632.333 367.076C633.024 367.076 633.579 366.917 633.999 366.6C634.429 366.283 634.643 365.783 634.643 365.102C634.643 364.411 634.424 363.917 633.985 363.618C633.547 363.31 632.977 363.156 632.277 363.156C631.241 363.156 630.35 363.487 629.603 364.15ZM637.672 366.894C637.812 367.015 637.882 367.188 637.882 367.412C637.882 367.636 637.812 367.813 637.672 367.944C637.532 368.065 637.36 368.126 637.154 368.126C636.949 368.126 636.772 368.065 636.622 367.944C636.482 367.813 636.412 367.636 636.412 367.412C636.412 367.188 636.482 367.015 636.622 366.894C636.772 366.773 636.949 366.712 637.154 366.712C637.36 366.712 637.532 366.773 637.672 366.894ZM639.042 359.236C639.929 358.62 640.946 358.312 642.094 358.312C643.084 358.312 643.872 358.536 644.46 358.984C645.048 359.432 645.342 360.057 645.342 360.86C645.342 361.243 645.268 361.602 645.118 361.938C644.978 362.274 644.764 362.582 644.474 362.862C644.194 363.142 643.919 363.38 643.648 363.576C643.387 363.763 643.056 363.973 642.654 364.206C642.608 364.234 642.463 364.318 642.22 364.458C641.987 364.598 641.838 364.687 641.772 364.724C641.716 364.761 641.586 364.845 641.38 364.976C641.184 365.097 641.054 365.186 640.988 365.242C640.932 365.298 640.83 365.387 640.68 365.508C640.54 365.629 640.442 365.732 640.386 365.816C640.34 365.9 640.274 366.007 640.19 366.138C640.116 366.259 640.064 366.381 640.036 366.502C640.008 366.623 639.994 366.754 639.994 366.894L645.412 366.88V368H638.706V367.44C638.706 366.917 638.79 366.446 638.958 366.026C639.126 365.597 639.364 365.233 639.672 364.934C639.99 364.626 640.302 364.369 640.61 364.164C640.918 363.949 641.278 363.721 641.688 363.478C641.782 363.431 641.852 363.394 641.898 363.366C642.748 362.871 643.303 362.493 643.564 362.232C643.966 361.821 644.166 361.359 644.166 360.846C644.166 360.379 643.975 360.025 643.592 359.782C643.219 359.53 642.687 359.404 641.996 359.404C640.988 359.404 640.004 359.74 639.042 360.412V359.236ZM648.621 358.48H649.489V366.88H651.267V368H646.311V366.88H648.313V359.726L646.311 360.482V359.362L648.621 358.48Z" fill="white"/>
<path d="M697.355 359.236C698.242 358.62 699.259 358.312 700.407 358.312C701.397 358.312 702.185 358.536 702.773 358.984C703.361 359.432 703.655 360.057 703.655 360.86C703.655 361.243 703.581 361.602 703.431 361.938C703.291 362.274 703.077 362.582 702.787 362.862C702.507 363.142 702.232 363.38 701.961 363.576C701.7 363.763 701.369 363.973 700.967 364.206C700.921 364.234 700.776 364.318 700.533 364.458C700.3 364.598 700.151 364.687 700.085 364.724C700.029 364.761 699.899 364.845 699.693 364.976C699.497 365.097 699.367 365.186 699.301 365.242C699.245 365.298 699.143 365.387 698.993 365.508C698.853 365.629 698.755 365.732 698.699 365.816C698.653 365.9 698.587 366.007 698.503 366.138C698.429 366.259 698.377 366.381 698.349 366.502C698.321 366.623 698.307 366.754 698.307 366.894L703.725 366.88V368H697.019V367.44C697.019 366.917 697.103 366.446 697.271 366.026C697.439 365.597 697.677 365.233 697.985 364.934C698.303 364.626 698.615 364.369 698.923 364.164C699.231 363.949 699.591 363.721 700.001 363.478C700.095 363.431 700.165 363.394 700.211 363.366C701.061 362.871 701.616 362.493 701.877 362.232C702.279 361.821 702.479 361.359 702.479 360.846C702.479 360.379 702.288 360.025 701.905 359.782C701.532 359.53 701 359.404 700.309 359.404C699.301 359.404 698.317 359.74 697.355 360.412V359.236ZM704.834 359.236C705.721 358.62 706.738 358.312 707.886 358.312C708.876 358.312 709.664 358.536 710.252 358.984C710.84 359.432 711.134 360.057 711.134 360.86C711.134 361.243 711.06 361.602 710.91 361.938C710.77 362.274 710.556 362.582 710.266 362.862C709.986 363.142 709.711 363.38 709.44 363.576C709.179 363.763 708.848 363.973 708.446 364.206C708.4 364.234 708.255 364.318 708.012 364.458C707.779 364.598 707.63 364.687 707.564 364.724C707.508 364.761 707.378 364.845 707.172 364.976C706.976 365.097 706.846 365.186 706.78 365.242C706.724 365.298 706.622 365.387 706.472 365.508C706.332 365.629 706.234 365.732 706.178 365.816C706.132 365.9 706.066 366.007 705.982 366.138C705.908 366.259 705.856 366.381 705.828 366.502C705.8 366.623 705.786 366.754 705.786 366.894L711.204 366.88V368H704.498V367.44C704.498 366.917 704.582 366.446 704.75 366.026C704.918 365.597 705.156 365.233 705.464 364.934C705.782 364.626 706.094 364.369 706.402 364.164C706.71 363.949 707.07 363.721 707.48 363.478C707.574 363.431 707.644 363.394 707.69 363.366C708.54 362.871 709.095 362.493 709.356 362.232C709.758 361.821 709.958 361.359 709.958 360.846C709.958 360.379 709.767 360.025 709.384 359.782C709.011 359.53 708.479 359.404 707.788 359.404C706.78 359.404 705.796 359.74 704.834 360.412V359.236ZM713.391 366.894C713.531 367.015 713.601 367.188 713.601 367.412C713.601 367.636 713.531 367.813 713.391 367.944C713.251 368.065 713.079 368.126 712.873 368.126C712.668 368.126 712.491 368.065 712.341 367.944C712.201 367.813 712.131 367.636 712.131 367.412C712.131 367.188 712.201 367.015 712.341 366.894C712.491 366.773 712.668 366.712 712.873 366.712C713.079 366.712 713.251 366.773 713.391 366.894ZM715.177 366.81C714.468 365.905 714.113 364.715 714.113 363.24C714.113 361.765 714.468 360.575 715.177 359.67C715.886 358.765 716.932 358.312 718.313 358.312C719.704 358.312 720.754 358.765 721.463 359.67C722.172 360.566 722.527 361.756 722.527 363.24C722.527 364.724 722.172 365.919 721.463 366.824C720.754 367.72 719.704 368.168 718.313 368.168C716.932 368.168 715.886 367.715 715.177 366.81ZM720.581 366.068C721.085 365.405 721.337 364.463 721.337 363.24C721.337 362.017 721.085 361.079 720.581 360.426C720.086 359.763 719.33 359.432 718.313 359.432C717.296 359.432 716.54 359.763 716.045 360.426C715.55 361.079 715.303 362.017 715.303 363.24C715.303 364.463 715.55 365.405 716.045 366.068C716.54 366.721 717.296 367.048 718.313 367.048C719.33 367.048 720.086 366.721 720.581 366.068ZM724.601 362.974C725.506 362.367 726.5 362.064 727.583 362.064C728.451 362.064 729.212 362.33 729.865 362.862C730.518 363.385 730.845 364.113 730.845 365.046C730.845 366.026 730.518 366.791 729.865 367.342C729.221 367.893 728.409 368.168 727.429 368.168C726.085 368.168 725.077 367.753 724.405 366.922C723.742 366.082 723.411 364.906 723.411 363.394C723.411 361.714 723.808 360.449 724.601 359.6C725.404 358.741 726.449 358.312 727.737 358.312C728.568 358.312 729.338 358.494 730.047 358.858V359.978C729.356 359.614 728.596 359.432 727.765 359.432C726.888 359.432 726.155 359.717 725.567 360.286C724.988 360.846 724.666 361.742 724.601 362.974ZM724.615 364.15C724.792 366.101 725.702 367.076 727.345 367.076C728.036 367.076 728.591 366.917 729.011 366.6C729.44 366.283 729.655 365.783 729.655 365.102C729.655 364.411 729.436 363.917 728.997 363.618C728.558 363.31 727.989 363.156 727.289 363.156C726.253 363.156 725.362 363.487 724.615 364.15ZM732.684 366.894C732.824 367.015 732.894 367.188 732.894 367.412C732.894 367.636 732.824 367.813 732.684 367.944C732.544 368.065 732.371 368.126 732.166 368.126C731.961 368.126 731.783 368.065 731.634 367.944C731.494 367.813 731.424 367.636 731.424 367.412C731.424 367.188 731.494 367.015 731.634 366.894C731.783 366.773 731.961 366.712 732.166 366.712C732.371 366.712 732.544 366.773 732.684 366.894ZM734.054 359.236C734.941 358.62 735.958 358.312 737.106 358.312C738.095 358.312 738.884 358.536 739.472 358.984C740.06 359.432 740.354 360.057 740.354 360.86C740.354 361.243 740.279 361.602 740.13 361.938C739.99 362.274 739.775 362.582 739.486 362.862C739.206 363.142 738.931 363.38 738.66 363.576C738.399 363.763 738.067 363.973 737.666 364.206C737.619 364.234 737.475 364.318 737.232 364.458C736.999 364.598 736.849 364.687 736.784 364.724C736.728 364.761 736.597 364.845 736.392 364.976C736.196 365.097 736.065 365.186 736 365.242C735.944 365.298 735.841 365.387 735.692 365.508C735.552 365.629 735.454 365.732 735.398 365.816C735.351 365.9 735.286 366.007 735.202 366.138C735.127 366.259 735.076 366.381 735.048 366.502C735.02 366.623 735.006 366.754 735.006 366.894L740.424 366.88V368H733.718V367.44C733.718 366.917 733.802 366.446 733.97 366.026C734.138 365.597 734.376 365.233 734.684 364.934C735.001 364.626 735.314 364.369 735.622 364.164C735.93 363.949 736.289 363.721 736.7 363.478C736.793 363.431 736.863 363.394 736.91 363.366C737.759 362.871 738.315 362.493 738.576 362.232C738.977 361.821 739.178 361.359 739.178 360.846C739.178 360.379 738.987 360.025 738.604 359.782C738.231 359.53 737.699 359.404 737.008 359.404C736 359.404 735.015 359.74 734.054 360.412V359.236ZM743.633 358.48H744.501V366.88H746.279V368H741.323V366.88H743.325V359.726L741.323 360.482V359.362L743.633 358.48Z" fill="white"/>
<path d="M10.8905 283.48H16.6025V284.6H11.9965L11.8285 287.288C12.3325 287.148 12.8739 287.078 13.4525 287.078C13.9285 287.078 14.3719 287.134 14.7825 287.246C15.1932 287.349 15.5712 287.517 15.9165 287.75C16.2712 287.974 16.5512 288.291 16.7565 288.702C16.9619 289.103 17.0645 289.579 17.0645 290.13C17.0645 291.073 16.7145 291.815 16.0145 292.356C15.3239 292.897 14.4419 293.168 13.3685 293.168C12.2112 293.168 11.1939 292.953 10.3165 292.524V291.404C11.1565 291.852 12.1272 292.076 13.2285 292.076C14.0312 292.076 14.6705 291.908 15.1465 291.572C15.6319 291.236 15.8745 290.755 15.8745 290.13C15.8745 288.805 14.9319 288.142 13.0465 288.142C12.2252 288.142 11.4039 288.291 10.5825 288.59L10.8905 283.48ZM18.9 291.81C18.1906 290.905 17.836 289.715 17.836 288.24C17.836 286.765 18.1906 285.575 18.9 284.67C19.6093 283.765 20.6546 283.312 22.036 283.312C23.4266 283.312 24.4766 283.765 25.186 284.67C25.8953 285.566 26.25 286.756 26.25 288.24C26.25 289.724 25.8953 290.919 25.186 291.824C24.4766 292.72 23.4266 293.168 22.036 293.168C20.6546 293.168 19.6093 292.715 18.9 291.81ZM24.304 291.068C24.808 290.405 25.06 289.463 25.06 288.24C25.06 287.017 24.808 286.079 24.304 285.426C23.8093 284.763 23.0533 284.432 22.036 284.432C21.0186 284.432 20.2626 284.763 19.768 285.426C19.2733 286.079 19.026 287.017 19.026 288.24C19.026 289.463 19.2733 290.405 19.768 291.068C20.2626 291.721 21.0186 292.048 22.036 292.048C23.0533 292.048 23.8093 291.721 24.304 291.068ZM27.1995 295.1H26.2895L27.0595 291.88H28.2495L27.1995 295.1ZM29.9343 291.81C29.2249 290.905 28.8703 289.715 28.8703 288.24C28.8703 286.765 29.2249 285.575 29.9343 284.67C30.6436 283.765 31.6889 283.312 33.0703 283.312C34.4609 283.312 35.5109 283.765 36.2203 284.67C36.9296 285.566 37.2843 286.756 37.2843 288.24C37.2843 289.724 36.9296 290.919 36.2203 291.824C35.5109 292.72 34.4609 293.168 33.0703 293.168C31.6889 293.168 30.6436 292.715 29.9343 291.81ZM35.3383 291.068C35.8423 290.405 36.0943 289.463 36.0943 288.24C36.0943 287.017 35.8423 286.079 35.3383 285.426C34.8436 284.763 34.0876 284.432 33.0703 284.432C32.0529 284.432 31.2969 284.763 30.8023 285.426C30.3076 286.079 30.0603 287.017 30.0603 288.24C30.0603 289.463 30.3076 290.405 30.8023 291.068C31.2969 291.721 32.0529 292.048 33.0703 292.048C34.0876 292.048 34.8436 291.721 35.3383 291.068Z" fill="white"/>
<path d="M5.43458 228.48H6.30258L6.30258 236.88H8.08058V238H3.12458L3.12458 236.88H5.12658V229.726L3.12458 230.482L3.12458 229.362L5.43458 228.48ZM9.6162 236.81C8.90687 235.905 8.5522 234.715 8.5522 233.24C8.5522 231.765 8.90687 230.575 9.6162 229.67C10.3255 228.765 11.3709 228.312 12.7522 228.312C14.1429 228.312 15.1929 228.765 15.9022 229.67C16.6115 230.566 16.9662 231.756 16.9662 233.24C16.9662 234.724 16.6115 235.919 15.9022 236.824C15.1929 237.72 14.1429 238.168 12.7522 238.168C11.3709 238.168 10.3255 237.715 9.6162 236.81ZM15.0202 236.068C15.5242 235.405 15.7762 234.463 15.7762 233.24C15.7762 232.017 15.5242 231.079 15.0202 230.426C14.5255 229.763 13.7695 229.432 12.7522 229.432C11.7349 229.432 10.9789 229.763 10.4842 230.426C9.98954 231.079 9.7422 232.017 9.7422 233.24C9.7422 234.463 9.98954 235.405 10.4842 236.068C10.9789 236.721 11.7349 237.048 12.7522 237.048C13.7695 237.048 14.5255 236.721 15.0202 236.068ZM18.9 236.81C18.1906 235.905 17.836 234.715 17.836 233.24C17.836 231.765 18.1906 230.575 18.9 229.67C19.6093 228.765 20.6546 228.312 22.036 228.312C23.4266 228.312 24.4766 228.765 25.186 229.67C25.8953 230.566 26.25 231.756 26.25 233.24C26.25 234.724 25.8953 235.919 25.186 236.824C24.4766 237.72 23.4266 238.168 22.036 238.168C20.6546 238.168 19.6093 237.715 18.9 236.81ZM24.304 236.068C24.808 235.405 25.06 234.463 25.06 233.24C25.06 232.017 24.808 231.079 24.304 230.426C23.8093 229.763 23.0533 229.432 22.036 229.432C21.0186 229.432 20.2626 229.763 19.768 230.426C19.2733 231.079 19.026 232.017 19.026 233.24C19.026 234.463 19.2733 235.405 19.768 236.068C20.2626 236.721 21.0186 237.048 22.036 237.048C23.0533 237.048 23.8093 236.721 24.304 236.068ZM27.1995 240.1H26.2895L27.0595 236.88H28.2495L27.1995 240.1ZM29.9343 236.81C29.2249 235.905 28.8703 234.715 28.8703 233.24C28.8703 231.765 29.2249 230.575 29.9343 229.67C30.6436 228.765 31.6889 228.312 33.0703 228.312C34.4609 228.312 35.5109 228.765 36.2203 229.67C36.9296 230.566 37.2843 231.756 37.2843 233.24C37.2843 234.724 36.9296 235.919 36.2203 236.824C35.5109 237.72 34.4609 238.168 33.0703 238.168C31.6889 238.168 30.6436 237.715 29.9343 236.81ZM35.3383 236.068C35.8423 235.405 36.0943 234.463 36.0943 233.24C36.0943 232.017 35.8423 231.079 35.3383 230.426C34.8436 229.763 34.0876 229.432 33.0703 229.432C32.0529 229.432 31.2969 229.763 30.8023 230.426C30.3076 231.079 30.0603 232.017 30.0603 233.24C30.0603 234.463 30.3076 235.405 30.8023 236.068C31.2969 236.721 32.0529 237.048 33.0703 237.048C34.0876 237.048 34.8436 236.721 35.3383 236.068Z" fill="white"/>
<path d="M7.17091 173.48H8.03891L8.03891 181.88H9.81691V183H4.86091V181.88H6.86291V174.726L4.86091 175.482L4.86091 174.362L7.17091 173.48ZM10.8905 173.48H16.6025V174.6H11.9965L11.8285 177.288C12.3325 177.148 12.8739 177.078 13.4525 177.078C13.9285 177.078 14.3719 177.134 14.7825 177.246C15.1932 177.349 15.5712 177.517 15.9165 177.75C16.2712 177.974 16.5512 178.291 16.7565 178.702C16.9619 179.103 17.0645 179.579 17.0645 180.13C17.0645 181.073 16.7145 181.815 16.0145 182.356C15.3239 182.897 14.4419 183.168 13.3685 183.168C12.2112 183.168 11.1939 182.953 10.3165 182.524V181.404C11.1565 181.852 12.1272 182.076 13.2285 182.076C14.0312 182.076 14.6705 181.908 15.1465 181.572C15.6319 181.236 15.8745 180.755 15.8745 180.13C15.8745 178.805 14.9319 178.142 13.0465 178.142C12.2252 178.142 11.4039 178.291 10.5825 178.59L10.8905 173.48ZM18.9 181.81C18.1906 180.905 17.836 179.715 17.836 178.24C17.836 176.765 18.1906 175.575 18.9 174.67C19.6093 173.765 20.6546 173.312 22.036 173.312C23.4266 173.312 24.4766 173.765 25.186 174.67C25.8953 175.566 26.25 176.756 26.25 178.24C26.25 179.724 25.8953 180.919 25.186 181.824C24.4766 182.72 23.4266 183.168 22.036 183.168C20.6546 183.168 19.6093 182.715 18.9 181.81ZM24.304 181.068C24.808 180.405 25.06 179.463 25.06 178.24C25.06 177.017 24.808 176.079 24.304 175.426C23.8093 174.763 23.0533 174.432 22.036 174.432C21.0186 174.432 20.2626 174.763 19.768 175.426C19.2733 176.079 19.026 177.017 19.026 178.24C19.026 179.463 19.2733 180.405 19.768 181.068C20.2626 181.721 21.0186 182.048 22.036 182.048C23.0533 182.048 23.8093 181.721 24.304 181.068ZM27.1995 185.1H26.2895L27.0595 181.88H28.2495L27.1995 185.1ZM29.9343 181.81C29.2249 180.905 28.8703 179.715 28.8703 178.24C28.8703 176.765 29.2249 175.575 29.9343 174.67C30.6436 173.765 31.6889 173.312 33.0703 173.312C34.4609 173.312 35.5109 173.765 36.2203 174.67C36.9296 175.566 37.2843 176.756 37.2843 178.24C37.2843 179.724 36.9296 180.919 36.2203 181.824C35.5109 182.72 34.4609 183.168 33.0703 183.168C31.6889 183.168 30.6436 182.715 29.9343 181.81ZM35.3383 181.068C35.8423 180.405 36.0943 179.463 36.0943 178.24C36.0943 177.017 35.8423 176.079 35.3383 175.426C34.8436 174.763 34.0876 174.432 33.0703 174.432C32.0529 174.432 31.2969 174.763 30.8023 175.426C30.3076 176.079 30.0603 177.017 30.0603 178.24C30.0603 179.463 30.3076 180.405 30.8023 181.068C31.2969 181.721 32.0529 182.048 33.0703 182.048C34.0876 182.048 34.8436 181.721 35.3383 181.068Z" fill="white"/>
<path d="M1.31114 119.236C2.19781 118.62 3.21514 118.312 4.36314 118.312C5.35248 118.312 6.14114 118.536 6.72914 118.984C7.31714 119.432 7.61114 120.057 7.61114 120.86C7.61114 121.243 7.53648 121.602 7.38714 121.938C7.24714 122.274 7.03248 122.582 6.74314 122.862C6.46314 123.142 6.18781 123.38 5.91714 123.576C5.65581 123.763 5.32448 123.973 4.92314 124.206C4.87648 124.234 4.73181 124.318 4.48914 124.458C4.25581 124.598 4.10648 124.687 4.04114 124.724C3.98514 124.761 3.85448 124.845 3.64914 124.976C3.45314 125.097 3.32248 125.186 3.25714 125.242C3.20114 125.298 3.09848 125.387 2.94914 125.508C2.80914 125.629 2.71114 125.732 2.65514 125.816C2.60848 125.9 2.54314 126.007 2.45914 126.138C2.38448 126.259 2.33314 126.381 2.30514 126.502C2.27714 126.623 2.26314 126.754 2.26314 126.894L7.68114 126.88V128H0.975142L0.975142 127.44C0.975142 126.917 1.05914 126.446 1.22714 126.026C1.39514 125.597 1.63314 125.233 1.94114 124.934C2.25848 124.626 2.57114 124.369 2.87914 124.164C3.18714 123.949 3.54648 123.721 3.95714 123.478C4.05048 123.431 4.12048 123.394 4.16714 123.366C5.01648 122.871 5.57181 122.493 5.83314 122.232C6.23448 121.821 6.43514 121.359 6.43514 120.846C6.43514 120.379 6.24381 120.025 5.86114 119.782C5.48781 119.53 4.95581 119.404 4.26514 119.404C3.25714 119.404 2.27248 119.74 1.31114 120.412L1.31114 119.236ZM9.6162 126.81C8.90687 125.905 8.5522 124.715 8.5522 123.24C8.5522 121.765 8.90687 120.575 9.6162 119.67C10.3255 118.765 11.3709 118.312 12.7522 118.312C14.1429 118.312 15.1929 118.765 15.9022 119.67C16.6115 120.566 16.9662 121.756 16.9662 123.24C16.9662 124.724 16.6115 125.919 15.9022 126.824C15.1929 127.72 14.1429 128.168 12.7522 128.168C11.3709 128.168 10.3255 127.715 9.6162 126.81ZM15.0202 126.068C15.5242 125.405 15.7762 124.463 15.7762 123.24C15.7762 122.017 15.5242 121.079 15.0202 120.426C14.5255 119.763 13.7695 119.432 12.7522 119.432C11.7349 119.432 10.9789 119.763 10.4842 120.426C9.98954 121.079 9.7422 122.017 9.7422 123.24C9.7422 124.463 9.98954 125.405 10.4842 126.068C10.9789 126.721 11.7349 127.048 12.7522 127.048C13.7695 127.048 14.5255 126.721 15.0202 126.068ZM18.9 126.81C18.1906 125.905 17.836 124.715 17.836 123.24C17.836 121.765 18.1906 120.575 18.9 119.67C19.6093 118.765 20.6546 118.312 22.036 118.312C23.4266 118.312 24.4766 118.765 25.186 119.67C25.8953 120.566 26.25 121.756 26.25 123.24C26.25 124.724 25.8953 125.919 25.186 126.824C24.4766 127.72 23.4266 128.168 22.036 128.168C20.6546 128.168 19.6093 127.715 18.9 126.81ZM24.304 126.068C24.808 125.405 25.06 124.463 25.06 123.24C25.06 122.017 24.808 121.079 24.304 120.426C23.8093 119.763 23.0533 119.432 22.036 119.432C21.0186 119.432 20.2626 119.763 19.768 120.426C19.2733 121.079 19.026 122.017 19.026 123.24C19.026 124.463 19.2733 125.405 19.768 126.068C20.2626 126.721 21.0186 127.048 22.036 127.048C23.0533 127.048 23.8093 126.721 24.304 126.068ZM27.1995 130.1H26.2895L27.0595 126.88H28.2495L27.1995 130.1ZM29.9343 126.81C29.2249 125.905 28.8703 124.715 28.8703 123.24C28.8703 121.765 29.2249 120.575 29.9343 119.67C30.6436 118.765 31.6889 118.312 33.0703 118.312C34.4609 118.312 35.5109 118.765 36.2203 119.67C36.9296 120.566 37.2843 121.756 37.2843 123.24C37.2843 124.724 36.9296 125.919 36.2203 126.824C35.5109 127.72 34.4609 128.168 33.0703 128.168C31.6889 128.168 30.6436 127.715 29.9343 126.81ZM35.3383 126.068C35.8423 125.405 36.0943 124.463 36.0943 123.24C36.0943 122.017 35.8423 121.079 35.3383 120.426C34.8436 119.763 34.0876 119.432 33.0703 119.432C32.0529 119.432 31.2969 119.763 30.8023 120.426C30.3076 121.079 30.0603 122.017 30.0603 123.24C30.0603 124.463 30.3076 125.405 30.8023 126.068C31.2969 126.721 32.0529 127.048 33.0703 127.048C34.0876 127.048 34.8436 126.721 35.3383 126.068Z" fill="white"/>
<path d="M3.04747 64.236C3.93414 63.62 4.95147 63.312 6.09947 63.312C7.0888 63.312 7.87747 63.536 8.46547 63.984C9.05347 64.432 9.34747 65.0573 9.34747 65.86C9.34747 66.2427 9.2728 66.602 9.12347 66.938C8.98347 67.274 8.7688 67.582 8.47947 67.862C8.19947 68.142 7.92414 68.38 7.65347 68.576C7.39214 68.7627 7.0608 68.9727 6.65947 69.206C6.6128 69.234 6.46814 69.318 6.22547 69.458C5.99214 69.598 5.8428 69.6867 5.77747 69.724C5.72147 69.7613 5.5908 69.8453 5.38547 69.976C5.18947 70.0973 5.0588 70.186 4.99347 70.242C4.93747 70.298 4.8348 70.3867 4.68547 70.508C4.54547 70.6293 4.44747 70.732 4.39147 70.816C4.3448 70.9 4.27947 71.0073 4.19547 71.138C4.1208 71.2593 4.06947 71.3807 4.04147 71.502C4.01347 71.6233 3.99947 71.754 3.99947 71.894L9.41747 71.88V73H2.71147V72.44C2.71147 71.9173 2.79547 71.446 2.96347 71.026C3.13147 70.5967 3.36947 70.2327 3.67747 69.934C3.9948 69.626 4.30747 69.3693 4.61547 69.164C4.92347 68.9493 5.2828 68.7207 5.69347 68.478C5.7868 68.4313 5.8568 68.394 5.90347 68.366C6.7528 67.8713 7.30814 67.4933 7.56947 67.232C7.9708 66.8213 8.17147 66.3593 8.17147 65.846C8.17147 65.3793 7.98014 65.0247 7.59747 64.782C7.22414 64.53 6.69214 64.404 6.00147 64.404C4.99347 64.404 4.0088 64.74 3.04747 65.412L3.04747 64.236ZM10.8905 63.48H16.6025V64.6H11.9965L11.8285 67.288C12.3325 67.148 12.8739 67.078 13.4525 67.078C13.9285 67.078 14.3719 67.134 14.7825 67.246C15.1932 67.3487 15.5712 67.5167 15.9165 67.75C16.2712 67.974 16.5512 68.2913 16.7565 68.702C16.9619 69.1033 17.0645 69.5793 17.0645 70.13C17.0645 71.0727 16.7145 71.8147 16.0145 72.356C15.3239 72.8973 14.4419 73.168 13.3685 73.168C12.2112 73.168 11.1939 72.9533 10.3165 72.524V71.404C11.1565 71.852 12.1272 72.076 13.2285 72.076C14.0312 72.076 14.6705 71.908 15.1465 71.572C15.6319 71.236 15.8745 70.7553 15.8745 70.13C15.8745 68.8047 14.9319 68.142 13.0465 68.142C12.2252 68.142 11.4039 68.2913 10.5825 68.59L10.8905 63.48ZM18.9 71.81C18.1906 70.9047 17.836 69.7147 17.836 68.24C17.836 66.7653 18.1906 65.5753 18.9 64.67C19.6093 63.7647 20.6546 63.312 22.036 63.312C23.4266 63.312 24.4766 63.7647 25.186 64.67C25.8953 65.566 26.25 66.756 26.25 68.24C26.25 69.724 25.8953 70.9187 25.186 71.824C24.4766 72.72 23.4266 73.168 22.036 73.168C20.6546 73.168 19.6093 72.7153 18.9 71.81ZM24.304 71.068C24.808 70.4053 25.06 69.4627 25.06 68.24C25.06 67.0173 24.808 66.0793 24.304 65.426C23.8093 64.7633 23.0533 64.432 22.036 64.432C21.0186 64.432 20.2626 64.7633 19.768 65.426C19.2733 66.0793 19.026 67.0173 19.026 68.24C19.026 69.4627 19.2733 70.4053 19.768 71.068C20.2626 71.7213 21.0186 72.048 22.036 72.048C23.0533 72.048 23.8093 71.7213 24.304 71.068ZM27.1995 75.1H26.2895L27.0595 71.88H28.2495L27.1995 75.1ZM29.9343 71.81C29.2249 70.9047 28.8703 69.7147 28.8703 68.24C28.8703 66.7653 29.2249 65.5753 29.9343 64.67C30.6436 63.7647 31.6889 63.312 33.0703 63.312C34.4609 63.312 35.5109 63.7647 36.2203 64.67C36.9296 65.566 37.2843 66.756 37.2843 68.24C37.2843 69.724 36.9296 70.9187 36.2203 71.824C35.5109 72.72 34.4609 73.168 33.0703 73.168C31.6889 73.168 30.6436 72.7153 29.9343 71.81ZM35.3383 71.068C35.8423 70.4053 36.0943 69.4627 36.0943 68.24C36.0943 67.0173 35.8423 66.0793 35.3383 65.426C34.8436 64.7633 34.0876 64.432 33.0703 64.432C32.0529 64.432 31.2969 64.7633 30.8023 65.426C30.3076 66.0793 30.0603 67.0173 30.0603 68.24C30.0603 69.4627 30.3076 70.4053 30.8023 71.068C31.2969 71.7213 32.0529 72.048 33.0703 72.048C34.0876 72.048 34.8436 71.7213 35.3383 71.068Z" fill="white"/>
<path d="M7.32141 10.902C7.32141 11.3873 7.19074 11.826 6.92941 12.218C6.67741 12.6007 6.34607 12.862 5.93541 13.002C6.42074 13.1513 6.83607 13.4267 7.18141 13.828C7.53608 14.22 7.71341 14.7473 7.71341 15.41C7.71341 16.2967 7.38208 16.978 6.71941 17.454C6.06607 17.93 5.23541 18.168 4.22741 18.168C2.94874 18.168 1.84274 17.958 0.909408 17.538L0.909408 16.376C1.81474 16.8427 2.88807 17.0713 4.12941 17.062C5.76274 17.062 6.57941 16.4927 6.57941 15.354C6.57941 14.2153 5.80474 13.646 4.25541 13.646H2.79941L2.79941 12.526L4.12941 12.54C4.80141 12.54 5.31007 12.4 5.65541 12.12C6.01007 11.8307 6.18741 11.4573 6.18741 11C6.18741 10.5053 5.99141 10.118 5.59941 9.838C5.20741 9.54867 4.65207 9.404 3.93341 9.404C2.94407 9.404 1.99207 9.64667 1.07741 10.132L1.07741 8.984C1.95474 8.536 2.95807 8.312 4.08741 8.312C5.05807 8.312 5.83741 8.55 6.42541 9.026C7.02274 9.502 7.32141 10.1273 7.32141 10.902ZM9.6162 16.81C8.90687 15.9047 8.5522 14.7147 8.5522 13.24C8.5522 11.7653 8.90687 10.5753 9.6162 9.67C10.3255 8.76467 11.3709 8.312 12.7522 8.312C14.1429 8.312 15.1929 8.76467 15.9022 9.67C16.6115 10.566 16.9662 11.756 16.9662 13.24C16.9662 14.724 16.6115 15.9187 15.9022 16.824C15.1929 17.72 14.1429 18.168 12.7522 18.168C11.3709 18.168 10.3255 17.7153 9.6162 16.81ZM15.0202 16.068C15.5242 15.4053 15.7762 14.4627 15.7762 13.24C15.7762 12.0173 15.5242 11.0793 15.0202 10.426C14.5255 9.76333 13.7695 9.432 12.7522 9.432C11.7349 9.432 10.9789 9.76333 10.4842 10.426C9.98954 11.0793 9.7422 12.0173 9.7422 13.24C9.7422 14.4627 9.98954 15.4053 10.4842 16.068C10.9789 16.7213 11.7349 17.048 12.7522 17.048C13.7695 17.048 14.5255 16.7213 15.0202 16.068ZM18.9 16.81C18.1906 15.9047 17.836 14.7147 17.836 13.24C17.836 11.7653 18.1906 10.5753 18.9 9.67C19.6093 8.76467 20.6546 8.312 22.036 8.312C23.4266 8.312 24.4766 8.76467 25.186 9.67C25.8953 10.566 26.25 11.756 26.25 13.24C26.25 14.724 25.8953 15.9187 25.186 16.824C24.4766 17.72 23.4266 18.168 22.036 18.168C20.6546 18.168 19.6093 17.7153 18.9 16.81ZM24.304 16.068C24.808 15.4053 25.06 14.4627 25.06 13.24C25.06 12.0173 24.808 11.0793 24.304 10.426C23.8093 9.76333 23.0533 9.432 22.036 9.432C21.0186 9.432 20.2626 9.76333 19.768 10.426C19.2733 11.0793 19.026 12.0173 19.026 13.24C19.026 14.4627 19.2733 15.4053 19.768 16.068C20.2626 16.7213 21.0186 17.048 22.036 17.048C23.0533 17.048 23.8093 16.7213 24.304 16.068ZM27.1995 20.1H26.2895L27.0595 16.88H28.2495L27.1995 20.1ZM29.9343 16.81C29.2249 15.9047 28.8703 14.7147 28.8703 13.24C28.8703 11.7653 29.2249 10.5753 29.9343 9.67C30.6436 8.76467 31.6889 8.312 33.0703 8.312C34.4609 8.312 35.5109 8.76467 36.2203 9.67C36.9296 10.566 37.2843 11.756 37.2843 13.24C37.2843 14.724 36.9296 15.9187 36.2203 16.824C35.5109 17.72 34.4609 18.168 33.0703 18.168C31.6889 18.168 30.6436 17.7153 29.9343 16.81ZM35.3383 16.068C35.8423 15.4053 36.0943 14.4627 36.0943 13.24C36.0943 12.0173 35.8423 11.0793 35.3383 10.426C34.8436 9.76333 34.0876 9.432 33.0703 9.432C32.0529 9.432 31.2969 9.76333 30.8023 10.426C30.3076 11.0793 30.0603 12.0173 30.0603 13.24C30.0603 14.4627 30.3076 15.4053 30.8023 16.068C31.2969 16.7213 32.0529 17.048 33.0703 17.048C34.0876 17.048 34.8436 16.7213 35.3383 16.068Z" fill="white"/>
</svg>
