<svg width="86" height="86" viewBox="0 0 86 86" fill="none" xmlns="http://www.w3.org/2000/svg">
<path d="M85.3397 47.2745V38.3226C85.3397 36.013 83.4672 34.1404 81.1576 34.1404H77.8675C76.1338 34.1404 74.5625 33.0802 73.963 31.4528C73.6588 30.6258 73.3221 29.8136 72.9529 29.0192C72.2234 27.445 72.5808 25.5784 73.8095 24.3498L76.1397 22.0195C77.773 20.3862 77.773 17.7399 76.1397 16.1066L69.8105 9.7774C68.1772 8.14414 65.5309 8.14414 63.8976 9.7774L61.5673 12.1077C60.3387 13.3363 58.4722 13.6937 56.898 12.9642C56.1035 12.595 55.2913 12.2583 54.4643 11.9541C52.8399 11.3545 51.7766 9.78331 51.7766 8.04963V4.75948C51.7766 2.44988 49.9042 0.577393 47.5946 0.577393H38.6426C36.333 0.577393 34.4605 2.44988 34.4605 4.75948V8.04963C34.4605 9.78331 33.4003 11.3545 31.7729 11.9541C30.9459 12.2583 30.1337 12.595 29.3393 12.9642C27.7651 13.6937 25.8985 13.3363 24.6698 12.1077L22.3396 9.7774C20.7063 8.14414 18.06 8.14414 16.4268 9.7774L10.0974 16.1066C8.46419 17.7399 8.46419 20.3862 10.0974 22.0195L12.4278 24.3498C13.6564 25.5784 14.0137 27.445 13.2842 29.0192C12.9151 29.8136 12.5784 30.6258 12.2742 31.4528C11.6746 33.0772 10.1034 34.1404 8.36972 34.1404H5.07953C2.76993 34.1404 0.897461 36.013 0.897461 38.3226V47.2745C0.897461 49.5841 2.76993 51.4566 5.07953 51.4566H8.36972C10.1034 51.4566 11.6746 52.5169 12.2742 54.1442C12.5784 54.9712 12.9151 55.7834 13.2842 56.5779C14.0137 58.1521 13.6564 60.0186 12.4278 61.2473L10.0974 63.5775C8.46419 65.2108 8.46419 67.8571 10.0974 69.4904L16.4268 75.8196C18.06 77.4529 20.7063 77.4529 22.3396 75.8196L24.6698 73.4894C25.8985 72.2607 27.7651 71.9033 29.3393 72.6328C30.1337 72.9991 30.9459 73.3387 31.7729 73.6429C33.3973 74.2425 34.4605 75.8137 34.4605 77.5474V80.8376C34.4605 83.1472 36.333 85.0196 38.6426 85.0196H47.5946C49.9042 85.0196 51.7766 83.1472 51.7766 80.8376V77.5474C51.7766 75.8137 52.837 74.2425 54.4643 73.6429C55.2913 73.3387 56.1035 73.002 56.898 72.6328C58.4722 71.9033 60.3387 72.2607 61.5673 73.4894L63.8976 75.8196C65.5309 77.4529 68.1772 77.4529 69.8105 75.8196L76.1397 69.4904C77.773 67.8571 77.773 65.2108 76.1397 63.5775L73.8095 61.2473C72.5808 60.0186 72.2234 58.1521 72.9529 56.5779C73.3221 55.7834 73.6588 54.9712 73.963 54.1442C74.5625 52.5198 76.1338 51.4566 77.8675 51.4566H81.1576C83.4672 51.4566 85.3397 49.5841 85.3397 47.2745V47.2745ZM41.8707 66.7555C29.6848 66.1382 19.7819 56.2353 19.1646 44.0464C18.444 29.8136 30.1367 18.1209 44.3694 18.8416C56.5553 19.4588 66.4583 29.3618 67.0785 41.5477C67.7992 55.7804 56.1064 67.4731 41.8737 66.7525L41.8707 66.7555Z" fill="white" stroke="#627197" stroke-linecap="round" stroke-linejoin="round"/>
</svg>
