<svg width="732" height="392" viewBox="0 0 732 392" fill="none" xmlns="http://www.w3.org/2000/svg">
<g clip-path="url(#clip0_1044_3452)">
<path d="M701.883 391.3H30.1167V376.905L87.8719 370.749H644.786L701.897 376.905V391.3H701.883Z" fill="white" stroke="#0A2973" stroke-width="1.85536" stroke-linecap="round" stroke-linejoin="round"/>
<path d="M487.398 391.272H347.413V370.651H487.398V391.272Z" stroke="#0A2973" stroke-width="1.85536" stroke-linecap="round" stroke-linejoin="round"/>
<path d="M87.4518 391.3H0.699951V370.749H87.4518V391.3Z" fill="white" stroke="#0A2973" stroke-width="1.85536" stroke-linecap="round" stroke-linejoin="round"/>
<path d="M644.562 391.3H731.314V370.749H644.562V391.3Z" fill="white" stroke="#0A2973" stroke-width="1.85536" stroke-linecap="round" stroke-linejoin="round"/>
<path d="M491.22 336.278V288.628C491.22 281.913 496.667 276.471 503.401 276.471H554.058C560.778 276.471 566.225 281.913 566.225 288.628V336.278C566.225 342.993 560.778 348.435 554.058 348.435H503.401C496.681 348.435 491.22 342.993 491.22 336.278Z" fill="white" stroke="#0A2973" stroke-width="1.85536" stroke-linecap="round" stroke-linejoin="round"/>
<path d="M571.251 337.901L578.308 370.637L548.765 337.901" stroke="#0A2973" stroke-width="1.85536" stroke-linecap="round" stroke-linejoin="round"/>
<path d="M486.18 337.901L479.123 370.637L508.666 337.901" stroke="#0A2973" stroke-width="1.85536" stroke-linecap="round" stroke-linejoin="round"/>
<path d="M508.666 337.901L528.282 370.637L548.751 337.901" stroke="#0A2973" stroke-width="1.85536" stroke-linecap="round" stroke-linejoin="round"/>
<path d="M491.22 264.103V216.453C491.22 209.738 496.667 204.296 503.401 204.296H554.058C560.778 204.296 566.225 209.738 566.225 216.453V264.103C566.225 270.819 560.778 276.261 554.058 276.261H503.401C496.681 276.261 491.22 270.819 491.22 264.103Z" fill="white" stroke="#0A2973" stroke-width="1.85536" stroke-linecap="round" stroke-linejoin="round"/>
<path d="M486.18 222.973V214.831H571.238V222.973H486.18Z" fill="white" stroke="#0A2973" stroke-width="1.85536" stroke-linecap="round" stroke-linejoin="round"/>
<path d="M486.18 265.726V257.584H571.238V265.726H486.18Z" fill="white" stroke="#0A2973" stroke-width="1.85536" stroke-linecap="round" stroke-linejoin="round"/>
<path d="M403.643 290.083H426.507V301.779H403.643V290.083Z" fill="#BED5E5"/>
<path d="M435.103 175.393H410.909L412.421 139.48H433.605L435.117 175.393H435.103Z" fill="white" stroke="#0A2973" stroke-width="1.85536" stroke-linecap="round" stroke-linejoin="round"/>
<path d="M433.591 139.48H412.407L413.583 111.528H432.415L433.591 139.48Z" fill="white" stroke="#0A2973" stroke-width="1.85536" stroke-linecap="round" stroke-linejoin="round"/>
<path d="M439.906 290.083H406.079L408.879 223.225H437.091L439.906 290.083Z" fill="white" stroke="#0A2973" stroke-width="1.85536" stroke-linecap="round" stroke-linejoin="round"/>
<path d="M437.106 223.225H408.893L410.909 175.393H435.103L437.106 223.225Z" fill="white" stroke="#0A2973" stroke-width="1.85536" stroke-linecap="round" stroke-linejoin="round"/>
<path d="M445.912 301.779H400.1V290.083H445.912V301.779Z" fill="white" stroke="#0A2973" stroke-width="1.85536" stroke-linecap="round" stroke-linejoin="round"/>
<path d="M410.909 116.327H435.103" stroke="#0A2973" stroke-width="1.85536" stroke-linecap="round" stroke-linejoin="round"/>
<path d="M410.909 122.762H435.103" stroke="#0A2973" stroke-width="1.85536" stroke-linecap="round" stroke-linejoin="round"/>
<path d="M385.133 353.457H460.866V370.651H385.133V353.457Z" fill="white" stroke="#0A2973" stroke-width="1.85536" stroke-linecap="round" stroke-linejoin="round"/>
<path d="M383.915 312.663H462.084C465.164 312.663 467.656 315.153 467.656 318.231V347.875C467.656 350.953 465.164 353.443 462.084 353.443H383.915C380.834 353.443 378.342 350.953 378.342 347.875V318.231C378.342 315.153 380.834 312.663 383.915 312.663Z" fill="white" stroke="#0A2973" stroke-width="1.85536" stroke-linecap="round" stroke-linejoin="round"/>
<path d="M385.133 312.663L403.572 301.764H442.426L460.866 312.663H385.133Z" fill="white" stroke="#0A2973" stroke-width="1.85536" stroke-linecap="round" stroke-linejoin="round"/>
<path d="M475.399 337.131V348.463H447.172V337.131H475.399Z" fill="white" stroke="#0A2973" stroke-width="1.85536" stroke-linecap="round" stroke-linejoin="round"/>
<path d="M442.524 349.694V335.284H446.976V349.694H442.524Z" fill="white" stroke="#0A2973" stroke-width="1.85536" stroke-linecap="round" stroke-linejoin="round"/>
<path d="M475.203 349.694V335.284H479.655V349.694H475.203Z" fill="#0A2973" stroke="#0A2973" stroke-width="1.85536" stroke-linecap="round" stroke-linejoin="round"/>
<path d="M424.168 309.893V301.666C424.168 291.929 416.271 284.039 406.527 284.039H401.402C398.252 284.039 395.704 286.585 395.704 289.733C395.704 292.881 398.252 295.427 401.402 295.427H406.527C409.971 295.427 412.757 298.211 412.757 301.652V309.879" fill="white"/>
<path d="M424.168 309.893V301.666C424.168 291.929 416.271 284.039 406.527 284.039H401.402C398.252 284.039 395.704 286.585 395.704 289.733C395.704 292.881 398.252 295.427 401.402 295.427H406.527C409.971 295.427 412.757 298.211 412.757 301.652V309.879" stroke="#0A2973" stroke-width="1.85536" stroke-linecap="round" stroke-linejoin="round"/>
<path d="M413.163 318.79V330.57C413.163 340.279 421.074 348.197 430.805 348.197H438.071V336.81H430.805C427.36 336.81 424.574 334.012 424.574 330.584V318.804" fill="white"/>
<path d="M413.163 318.79V330.57C413.163 340.279 421.074 348.197 430.805 348.197H438.071V336.81H430.805C427.36 336.81 424.574 334.012 424.574 330.584V318.804" stroke="#0A2973" stroke-width="1.85536" stroke-linecap="round" stroke-linejoin="round"/>
<path d="M438.072 349.694V335.298H442.524V349.694H438.072Z" fill="#0A2973" stroke="#0A2973" stroke-width="1.85536" stroke-linecap="round" stroke-linejoin="round"/>
<path d="M425.877 318.79H411.469V314.341H425.877V318.79Z" fill="white"/>
<path d="M509.016 366.202V354.423C509.016 344.714 501.105 336.795 491.374 336.795H484.108V348.183H491.374C494.819 348.183 497.605 350.981 497.605 354.409V366.188" fill="white"/>
<path d="M509.016 366.202V354.423C509.016 344.714 501.105 336.795 491.374 336.795H484.108V348.183H491.374C494.819 348.183 497.605 350.981 497.605 354.409V366.188" stroke="#0A2973" stroke-width="1.85536" stroke-linecap="round" stroke-linejoin="round"/>
<path d="M484.108 335.284V349.694H479.655V335.284H484.108Z" fill="white" stroke="#0A2973" stroke-width="1.85536" stroke-linecap="round" stroke-linejoin="round"/>
<path d="M496.303 366.202H510.724V370.651H496.303V366.202Z" fill="#0A2973" stroke="#0A2973" stroke-width="1.85536" stroke-linecap="round" stroke-linejoin="round"/>
<path d="M606.493 112.536H675.309V283.899H606.493V112.536Z" fill="white" stroke="#0A2973" stroke-width="1.85536" stroke-linecap="round" stroke-linejoin="round"/>
<path d="M18.1457 184.039V364.076H114.208L151.802 182.877C150.108 182.542 148.82 180.737 148.82 178.96V133.367L198.426 144.433V178.946C198.426 180.737 197.25 182.528 195.57 182.863L233.303 364.062H299.907L303.589 336.74H314.356V299.946H317.703V142.908H322.757L322.169 168.384V299.96H324.955V336.754H336.058L339.741 364.076H407.997V370.763H6.20264V364.076H13.8893V179.646L18.1317 184.025L18.1457 184.039Z" fill="white" stroke="#0A2973" stroke-width="1.85536" stroke-linecap="round" stroke-linejoin="round"/>
<path d="M601.732 106.016H680.07V112.536H601.732V106.016Z" fill="white" stroke="#0A2973" stroke-width="1.85536" stroke-linecap="round" stroke-linejoin="round"/>
<path d="M661.476 39.032H620.354C612.709 39.032 606.507 45.2296 606.507 52.8681V106.016H675.323V52.8681C675.323 45.2296 669.12 39.032 661.476 39.032Z" fill="white" stroke="#0A2973" stroke-width="1.85536" stroke-linecap="round" stroke-linejoin="round"/>
<path d="M611.729 357.403H670.072V370.651H611.729V357.403Z" fill="white" stroke="#0A2973" stroke-width="1.85536" stroke-linecap="round" stroke-linejoin="round"/>
<path d="M606.493 290.419H675.309V357.403H606.493V290.419Z" fill="white" stroke="#0A2973" stroke-width="1.85536" stroke-linecap="round" stroke-linejoin="round"/>
<path d="M601.732 283.899H680.07V290.418H601.732V283.899Z" fill="white" stroke="#0A2973" stroke-width="1.85536" stroke-linecap="round" stroke-linejoin="round"/>
<path d="M601.732 32.4988H680.07V39.0181H601.732V32.4988Z" fill="white" stroke="#0A2973" stroke-width="1.85536" stroke-linecap="round" stroke-linejoin="round"/>
<path d="M152.432 238.46L164.991 226.862L156.562 219.056L152.432 238.474V238.46Z" fill="white" stroke="#0A2973" stroke-width="1.85536" stroke-linecap="round" stroke-linejoin="round"/>
<path d="M149.057 256.996L175.142 288.866L199.462 259.151L199.336 258.577C199.196 258.465 199.07 258.367 198.944 258.241L173.336 234.57L149.057 256.996Z" fill="white" stroke="#0A2973" stroke-width="1.85536" stroke-linecap="round" stroke-linejoin="round"/>
<path d="M183.193 182.877H164.291L159.292 206.311L173.322 219.181L188.051 205.709L183.193 182.877Z" stroke="#0A2973" stroke-width="1.85536" stroke-linecap="round" stroke-linejoin="round"/>
<path d="M190.795 218.412L181.652 226.862L195.262 239.439L190.795 218.412Z" fill="white" stroke="#0A2973" stroke-width="1.85536" stroke-linecap="round" stroke-linejoin="round"/>
<path d="M590.825 160.787H579.484V36.1923H590.825V160.787Z" fill="white" stroke="#0A2973" stroke-width="1.85536" stroke-linecap="round" stroke-linejoin="round"/>
<path d="M578.112 31.7432H592.519V36.192H578.112V31.7432Z" fill="white" stroke="#0A2973" stroke-width="1.85536" stroke-linecap="round" stroke-linejoin="round"/>
<path d="M578.112 160.787H592.519V165.236H578.112V160.787Z" fill="#0A2973" stroke="#0A2973" stroke-width="1.85536" stroke-linecap="round" stroke-linejoin="round"/>
<path d="M646.41 28.0501V19.8239C646.41 10.1149 638.5 2.19653 628.769 2.19653H617.946V13.5984H628.769C632.213 13.5984 634.999 16.3964 634.999 19.8239V28.0501" fill="white"/>
<path d="M202.752 274.666L183.123 298.631L216.502 339.412L202.752 274.666Z" fill="white" stroke="#0A2973" stroke-width="1.85536" stroke-linecap="round" stroke-linejoin="round"/>
<path d="M214.289 356.269L175.128 308.424L135.98 356.269H214.289Z" fill="white" stroke="#0A2973" stroke-width="1.85536" stroke-linecap="round" stroke-linejoin="round"/>
<path d="M167.133 298.631L145.319 271.966L130.016 344L167.133 298.631Z" fill="white" stroke="#0A2973" stroke-width="1.85536" stroke-linecap="round" stroke-linejoin="round"/>
<path d="M9.78687 319.308H22.276V364.859H9.78687V319.308Z" fill="#0A2973"/>
<path d="M313.32 291.915H325.809V337.467H313.32V291.915Z" fill="#0A2973"/>
<path d="M646.41 28.0501V19.8239C646.41 10.1149 638.5 2.19653 628.769 2.19653H617.946V13.5984H628.769C632.213 13.5984 634.999 16.3964 634.999 19.8239V28.0501" stroke="#0A2973" stroke-width="1.85536" stroke-linecap="round" stroke-linejoin="round"/>
<path d="M617.946 0.699463V15.1092H613.493V0.699463H617.946Z" fill="#0A2973" stroke="#0A2973" stroke-width="1.85536" stroke-linecap="round" stroke-linejoin="round"/>
<path d="M633.697 28.05H648.119V32.4989H633.697V28.05Z" fill="#0A2973" stroke="#0A2973" stroke-width="1.85536" stroke-linecap="round" stroke-linejoin="round"/>
<path d="M609.041 2.40625H597.252C587.535 2.40625 579.61 10.3106 579.61 20.0337V27.2945H591.007V20.0337C591.007 16.5921 593.808 13.8081 597.238 13.8081H609.027" fill="white"/>
<path d="M609.041 2.40625H597.252C587.535 2.40625 579.61 10.3106 579.61 20.0337V27.2945H591.007V20.0337C591.007 16.5921 593.808 13.8081 597.238 13.8081H609.027" stroke="#0A2973" stroke-width="1.85536" stroke-linecap="round" stroke-linejoin="round"/>
<path d="M578.112 27.2944H592.519V31.7433H578.112V27.2944Z" fill="#0A2973" stroke="#0A2973" stroke-width="1.85536" stroke-linecap="round" stroke-linejoin="round"/>
<path d="M609.041 15.1092V0.699463H613.493V15.1092H609.041Z" fill="white" stroke="#0A2973" stroke-width="1.85536" stroke-linecap="round" stroke-linejoin="round"/>
<path d="M472.109 330.906H573.394C583.111 330.906 591.035 323.001 591.035 313.278V303.177H579.638V313.278C579.638 316.72 576.838 319.504 573.408 319.504H472.123" fill="white"/>
<path d="M11.5229 206.912C10.9489 206.339 10.7389 205.639 10.6269 204.856C8.70869 192.502 5.85244 172.637 5.61441 160.521C5.12437 135.185 7.85462 109.43 15.1913 85.213C18.8596 73.1397 24.2921 61.7798 31.3767 51.1474C36.8792 42.8933 43.0118 35.0169 49.2143 27.1825C51.6086 24.1606 56.383 24.8741 57.7831 28.4696C64.6577 46.055 82.6494 91.2987 85.5896 98.6574L351.558 146.195L346.279 175.812L343.017 175.225C342.513 175.994 337.808 183.353 335.876 185.703C333.664 188.389 331.788 190.222 330.052 191.383C328.105 192.684 325.725 193.16 323.401 192.936L321.749 192.782C320.727 192.684 319.705 192.502 318.753 192.111C314.174 190.25 311.36 185.395 312.228 180.331L313.894 170.048L199.728 149.679L149.785 140.711L83.4194 128.848L19.1816 207.234C18.2156 208.423 17.1655 208.983 15.4993 209.067C15.4993 209.067 13.7771 209.472 11.5229 206.898V206.912Z" fill="white" stroke="#0A2973" stroke-width="1.85536" stroke-linecap="round" stroke-linejoin="round"/>
<path d="M21.1979 185.102L59.9394 136.57L19.5738 132.471C19.5738 132.471 17.2916 172.287 21.1979 185.102Z" fill="white" stroke="#0A2973" stroke-width="1.85536" stroke-linecap="round" stroke-linejoin="round"/>
<path d="M24.2361 119.656L61.0874 122.916L64.2517 105.023L28.4785 95.6494L24.2361 119.656Z" fill="white" stroke="#0A2973" stroke-width="1.85536" stroke-linecap="round" stroke-linejoin="round"/>
<path d="M51.2586 46.8524C43.9219 54.7008 30.2847 83.7021 30.2847 83.7021L67.514 93.4112L51.2586 46.8524Z" fill="white" stroke="#0A2973" stroke-width="1.85536" stroke-linecap="round" stroke-linejoin="round"/>
<path d="M472.109 330.906H573.394C583.111 330.906 591.035 323.001 591.035 313.278V303.177H579.638V313.278C579.638 316.72 576.838 319.504 573.408 319.504H472.123" stroke="#0A2973" stroke-width="1.85536" stroke-linecap="round" stroke-linejoin="round"/>
<path d="M592.534 303.177H578.126V298.729H592.534V303.177Z" fill="white" stroke="#0A2973" stroke-width="1.85536" stroke-linecap="round" stroke-linejoin="round"/>
<path d="M472.109 318.217V332.626H467.656V318.217H472.109Z" fill="white" stroke="#0A2973" stroke-width="1.85536" stroke-linecap="round" stroke-linejoin="round"/>
<path d="M590.825 294.28H579.484V169.685H590.825V294.28Z" fill="white" stroke="#0A2973" stroke-width="1.85536" stroke-linecap="round" stroke-linejoin="round"/>
<path d="M578.112 165.236H592.519V169.685H578.112V165.236Z" fill="white" stroke="#0A2973" stroke-width="1.85536" stroke-linecap="round" stroke-linejoin="round"/>
<path d="M578.112 294.28H592.519V298.729H578.112V294.28Z" fill="#BED5E5"/>
<path d="M578.112 294.28H592.519V298.729H578.112V294.28Z" fill="#0A2973" stroke="#0A2973" stroke-width="1.85536" stroke-linecap="round" stroke-linejoin="round"/>
<path d="M697.991 287.019H709.318V162.424H697.991V287.019Z" fill="white" stroke="#0A2973" stroke-width="1.85536" stroke-linecap="round" stroke-linejoin="round"/>
<path d="M710.69 162.424H696.283V157.975H710.69V162.424Z" fill="white" stroke="#0A2973" stroke-width="1.85536" stroke-linecap="round" stroke-linejoin="round"/>
<path d="M710.69 291.468H696.283V287.019H710.69V291.468Z" fill="#0A2973" stroke="#0A2973" stroke-width="1.85536" stroke-linecap="round" stroke-linejoin="round"/>
<path d="M679.775 128.638H691.564C701.281 128.638 709.206 136.542 709.206 146.265V153.526H697.809V146.265C697.809 142.824 695.009 140.04 691.578 140.04H679.789" stroke="#0A2973" stroke-width="1.85536" stroke-linecap="round" stroke-linejoin="round"/>
<path d="M710.69 157.975H696.283V153.526H710.69V157.975Z" fill="#0A2973" stroke="#0A2973" stroke-width="1.85536" stroke-linecap="round" stroke-linejoin="round"/>
<path d="M675.323 141.341V126.931H679.775V141.341H675.323Z" fill="#0A2973" stroke="#0A2973" stroke-width="1.85536" stroke-linecap="round" stroke-linejoin="round"/>
<path d="M697.991 366.202H709.318V295.931H697.991V366.202Z" fill="white" stroke="#0A2973" stroke-width="1.85536" stroke-linecap="round" stroke-linejoin="round"/>
<path d="M710.69 295.931H696.283V291.482H710.69V295.931Z" fill="white" stroke="#0A2973" stroke-width="1.85536" stroke-linecap="round" stroke-linejoin="round"/>
<path d="M710.69 370.651H696.283V366.202H710.69V370.651Z" fill="#0A2973" stroke="#0A2973" stroke-width="1.85536" stroke-linecap="round" stroke-linejoin="round"/>
<path d="M620.802 336.991V348.323H592.575V336.991H620.802Z" fill="white" stroke="#0A2973" stroke-width="1.85536" stroke-linecap="round" stroke-linejoin="round"/>
<path d="M588.123 349.694V335.298H592.575V349.694H588.123Z" fill="white" stroke="#0A2973" stroke-width="1.85536" stroke-linecap="round" stroke-linejoin="round"/>
<path d="M620.816 349.694V335.298H625.268V349.694H620.816Z" fill="#0A2973" stroke="#0A2973" stroke-width="1.85536" stroke-linecap="round" stroke-linejoin="round"/>
<path d="M541.317 289.733H551.986C558.776 289.733 564.279 295.231 564.279 302.016L563.873 309.893H558.37V301.667C558.37 298.225 555.584 295.441 552.14 295.441H547.015C543.865 295.441 541.317 292.895 541.317 289.747V289.733Z" fill="white"/>
<path d="M569.767 309.893V301.666C569.767 291.929 561.871 284.039 552.126 284.039H547.001C543.851 284.039 541.303 286.585 541.303 289.733C541.303 292.881 543.851 295.427 547.001 295.427H552.126C555.57 295.427 558.356 298.211 558.356 301.652V309.879" fill="white"/>
<path d="M569.767 309.893V301.666C569.767 291.929 561.871 284.039 552.126 284.039H547.001C543.851 284.039 541.303 286.585 541.303 289.733C541.303 292.881 543.851 295.427 547.001 295.427H552.126C555.57 295.427 558.356 298.211 558.356 301.652V309.879" stroke="#0A2973" stroke-width="1.85536" stroke-linecap="round" stroke-linejoin="round"/>
<path d="M557.068 309.893H571.49V314.341H557.068V309.893Z" fill="#0A2973" stroke="#0A2973" stroke-width="1.85536" stroke-linecap="round" stroke-linejoin="round"/>
<path d="M558.776 318.79V330.57C558.776 340.279 566.687 348.197 576.418 348.197H583.685V336.81H576.418C572.974 336.81 570.187 334.012 570.187 330.584V318.804" fill="white"/>
<path d="M558.776 318.79V330.57C558.776 340.279 566.687 348.197 576.418 348.197H583.685V336.81H576.418C572.974 336.81 570.187 334.012 570.187 330.584V318.804" stroke="#0A2973" stroke-width="1.85536" stroke-linecap="round" stroke-linejoin="round"/>
<path d="M583.671 349.694V335.298H588.123V349.694H583.671Z" fill="#0A2973" stroke="#0A2973" stroke-width="1.85536" stroke-linecap="round" stroke-linejoin="round"/>
<path d="M571.476 318.79H557.054V314.341H571.476V318.79Z" fill="white" stroke="#0A2973" stroke-width="1.85536" stroke-linecap="round" stroke-linejoin="round"/>
<path d="M654.615 366.202V354.423C654.615 344.714 646.704 336.795 636.973 336.795H629.707V348.183H636.973C640.418 348.183 643.204 350.981 643.204 354.409V366.188" fill="white"/>
<path d="M654.615 366.202V354.423C654.615 344.714 646.704 336.795 636.973 336.795H629.707V348.183H636.973C640.418 348.183 643.204 350.981 643.204 354.409V366.188" stroke="#0A2973" stroke-width="1.85536" stroke-linecap="round" stroke-linejoin="round"/>
<path d="M629.707 335.298V349.694H625.254V335.298H629.707Z" fill="white" stroke="#0A2973" stroke-width="1.85536" stroke-linecap="round" stroke-linejoin="round"/>
<path d="M641.902 366.202H656.323V370.651H641.902V366.202Z" fill="#0A2973" stroke="#0A2973" stroke-width="1.85536" stroke-linecap="round" stroke-linejoin="round"/>
<path d="M411.469 309.893H425.877V314.341H411.469V309.893Z" fill="#0A2973" stroke="#0A2973" stroke-width="1.85536" stroke-linecap="round" stroke-linejoin="round"/>
<path d="M425.877 318.79H411.469V314.341H425.877V318.79Z" fill="white" stroke="#0A2973" stroke-width="1.85536" stroke-linecap="round" stroke-linejoin="round"/>
<path d="M636.749 141.999V133.269H638.752V136.57H642.126V133.269H644.128V141.999H642.126V138.627H638.752V141.999H636.749ZM637.562 157.388V148.658H643.554V150.463H639.564V152.141H643.302V153.89H639.564V155.569H643.554V157.374H637.562V157.388ZM639.438 173.028V171.657C638.22 171.657 637.254 171.35 636.553 170.72C635.853 170.09 635.503 169.279 635.503 168.286C635.503 167.292 635.853 166.495 636.553 165.866C637.254 165.236 638.22 164.914 639.438 164.914V163.795H641.44V164.914C642.658 164.914 643.624 165.236 644.324 165.866C645.024 166.495 645.374 167.292 645.374 168.286C645.374 169.279 645.024 170.09 644.324 170.72C643.624 171.35 642.658 171.657 641.44 171.657V173.028H639.438ZM639.438 169.909V166.663C638.836 166.663 638.36 166.817 638.01 167.111C637.674 167.404 637.492 167.796 637.492 168.286C637.492 168.775 637.66 169.153 638.01 169.461C638.346 169.755 638.822 169.909 639.438 169.909ZM641.44 166.663V169.909C642.042 169.909 642.518 169.755 642.868 169.461C643.204 169.167 643.372 168.775 643.372 168.286C643.372 167.796 643.204 167.418 642.868 167.111C642.532 166.817 642.056 166.663 641.44 166.663ZM639.438 188.166V181.366H637.001V179.436H643.862V181.366H641.426V188.166H639.424H639.438ZM637.562 203.555V194.825H643.554V196.63H639.564V198.308H643.302V200.057H639.564V201.736H643.554V203.541H637.562V203.555ZM636.805 218.944V210.214H644.044V218.944H642.042V212.144H638.794V218.944H636.791H636.805ZM637.183 234.333V225.603H641.244C642.098 225.603 642.784 225.883 643.316 226.442C643.848 227.002 644.114 227.743 644.114 228.667C644.114 229.59 643.848 230.331 643.316 230.891C642.784 231.451 642.098 231.73 641.244 231.73H639.186V234.347H637.183V234.333ZM639.186 229.772H641.118C641.412 229.772 641.65 229.674 641.832 229.478C642.028 229.268 642.112 229.002 642.112 228.653C642.112 228.303 642.014 228.037 641.832 227.841C641.65 227.631 641.412 227.533 641.118 227.533H639.186V229.772ZM643.456 248.56C642.644 249.414 641.636 249.834 640.432 249.834C639.228 249.834 638.234 249.414 637.408 248.56C636.595 247.707 636.189 246.644 636.189 245.343C636.189 244.042 636.595 242.978 637.408 242.125C638.22 241.272 639.228 240.852 640.432 240.852C641.636 240.852 642.644 241.272 643.456 242.125C644.268 242.978 644.674 244.042 644.674 245.343C644.674 246.644 644.268 247.707 643.456 248.56ZM638.822 247.203C639.256 247.665 639.788 247.903 640.432 247.903C641.076 247.903 641.608 247.665 642.028 247.203C642.462 246.728 642.672 246.112 642.672 245.343C642.672 244.573 642.462 243.958 642.028 243.496C641.608 243.02 641.076 242.783 640.432 242.783C639.788 242.783 639.256 243.02 638.822 243.496C638.402 243.958 638.192 244.573 638.192 245.343C638.192 246.112 638.402 246.728 638.822 247.203ZM635.503 265.097V256.367H638.556L640.306 261.795H640.558L642.308 256.367H645.36V265.097H643.358V259.738H643.106L641.356 265.097H639.48L637.73 259.738H637.478V265.097H635.475H635.503Z" fill="#F35F42"/>
<g clip-path="url(#clip1_1044_3452)">
<path d="M432.735 44.318C434.918 46.2807 434.708 48.7029 434.372 50.2898C432.819 57.0551 425.054 54.2153 426.9 48.4523C428.16 44.6103 426.271 40.1001 423.794 36.6339C420.898 32.6249 416.365 29.9522 410.782 30.0775C413.301 30.3698 417.666 36.0075 417.498 42.1046C417.33 48.2017 404.822 53.2131 405.241 63.4863C405.577 71.4626 410.362 78.6038 416.029 84.0327C417.33 74.5947 424.718 69.0405 420.562 60.396C426.145 64.7809 428.789 73.3419 429.251 81.9446C432.105 76.1816 437.688 69.4163 439.073 63.4863C441.004 55.1758 439.787 47.5336 432.693 44.318H432.735Z" fill="#627197"/>
</g>
</g>
<defs>
<clipPath id="clip0_1044_3452">
<rect width="732" height="392" fill="white"/>
</clipPath>
<clipPath id="clip1_1044_3452">
<rect width="34.7134" height="53.9552" fill="white" transform="translate(405.241 30.0775)"/>
</clipPath>
</defs>
</svg>
