<svg width="1908" height="555" viewBox="0 0 1908 555" fill="none" xmlns="http://www.w3.org/2000/svg">
<path d="M1908 434.861V555H0V407.734H9.76896V200.047H5.57136V189.12H110.817V200.047H106.543V341.791H112.343V261.1H157.372V431.422H184.923V368.841L219.878 346.299V248.033H258.954V77.0997H289.634L353.362 136.243H368.855V150.532L382.211 162.987V299.306L414.036 327.349V439.14H425.179V356.233H420.981V350.731H425.179V185.987H420.981V180.409H450.975V155.269H458.225V180.409H518.823V155.269H526.074V180.409H556.068V185.987H552.404V350.731H556.068V356.233H552.404V439.14H586.443V351.495H627.503V155.422L689.017 109.88L750.531 155.422V207.153L781.364 228.472V33.0864H821.203V0H827.996V33.0864H865.392V159.09H885.007V367.083H967.509V127.99H999.868V102.851H1024.44V75.9535H1108.85V102.851H1133.43V127.99H1165.79V429.435H1220.81V409.568H1216.69V403.532H1220.81V307.176H1216.69V301.14H1220.81V205.09H1216.69V199.053H1227.15V168.794H1223.1V162.758H1291.79V168.794H1287.14V199.053H1323.08V205.09H1318.43V301.14H1323.08V307.176H1318.43V403.532H1323.08V409.568H1318.43V457.784H1341.4V367.083L1373.23 334.532V105.831H1390.09V88.7907H1390.25L1412 66.402L1433.67 88.7907V105.678H1450.54V426.303H1453.36V387.714H1484.5V363.339H1492.74V134.791H1500.6V128.219H1529.68V97.1961H1536.47V128.219H1623.25V97.1961H1630.04V128.219H1663.09V134.791H1670.95V338.505H1708.12V410.562H1745.21V176.359H1753.07V171.239H1872.13V176.359H1879.99V434.861H1908Z" fill="#F6F9FC"/>
</svg>
