<svg width="690" height="340" viewBox="0 0 690 340" fill="none" xmlns="http://www.w3.org/2000/svg">
<g clip-path="url(#clip0_1060_3011)">
<path d="M8.82626 255.084C9.04973 254.177 9.45721 253.467 10.0487 252.954C10.6402 252.428 11.3501 252.166 12.1782 252.166C12.98 252.166 13.6832 252.415 14.2879 252.915C14.8926 253.414 15.3592 254.078 15.6878 254.906C16.0033 255.734 16.161 256.635 16.161 257.607C16.161 258.528 16.0164 259.435 15.7273 260.328C15.4249 261.209 14.978 262.004 14.3865 262.714L13.3415 262.182C13.8541 261.577 14.2485 260.887 14.5245 260.112C14.7874 259.336 14.9188 258.554 14.9188 257.765C14.9188 257.016 14.8005 256.326 14.5639 255.695C14.3273 255.064 13.9921 254.564 13.5584 254.196C13.1114 253.815 12.5857 253.625 11.981 253.625C11.1792 253.625 10.5614 253.94 10.1276 254.571C9.69382 255.202 9.47693 256.089 9.47693 257.233V260.19H8.2939V257.312C8.2939 256.339 8.09016 255.583 7.68267 255.044C7.26204 254.492 6.68367 254.216 5.94757 254.216C5.13259 254.216 4.49507 254.564 4.03501 255.261C3.5618 255.958 3.32519 256.832 3.32519 257.884C3.32519 258.541 3.42378 259.205 3.62095 259.875C3.80498 260.545 4.08759 261.183 4.46879 261.787L3.26604 262.28C2.45107 260.913 2.04358 259.435 2.04358 257.844C2.04358 256.911 2.19475 256.056 2.49707 255.281C2.7994 254.505 3.23318 253.894 3.7984 253.447C4.36363 252.987 5.02744 252.757 5.78983 252.757C6.52594 252.757 7.16346 252.961 7.70239 253.368C8.22818 253.776 8.6028 254.348 8.82626 255.084ZM5.59266 245.309C5.59266 243.955 5.93442 242.917 6.61795 242.194C7.28833 241.471 8.28733 241.109 9.61495 241.109H16.0427V242.45H14.4259C14.9649 242.766 15.3855 243.232 15.6878 243.85C15.9901 244.455 16.1413 245.178 16.1413 246.019C16.1413 247.176 15.8653 248.096 15.3132 248.779C14.7611 249.463 14.0316 249.805 13.1246 249.805C12.2439 249.805 11.5341 249.489 10.9951 248.858C10.4562 248.214 10.1867 247.195 10.1867 245.802V242.509H9.5558C8.66196 242.509 7.985 242.759 7.52494 243.259C7.05173 243.758 6.81512 244.488 6.81512 245.447C6.81512 246.104 6.92685 246.735 7.15031 247.34C7.36063 247.945 7.65638 248.464 8.03758 248.898L6.99257 249.529C6.54565 249.003 6.20389 248.372 5.96728 247.636C5.71753 246.9 5.59266 246.124 5.59266 245.309ZM15.0372 245.802C15.0372 245.013 14.8597 244.336 14.5048 243.771C14.1367 243.206 13.6109 242.785 12.9274 242.509H11.2318V245.763C11.2318 247.537 11.8496 248.424 13.0852 248.424C13.6898 248.424 14.1696 248.194 14.5245 247.734C14.8663 247.274 15.0372 246.63 15.0372 245.802ZM6.91371 230.048V235.983H16.0427V237.383H5.67153V230.048H6.91371ZM5.59266 222.681C5.59266 221.709 5.81612 220.828 6.26304 220.039C6.69682 219.251 7.31462 218.633 8.11645 218.186C8.91828 217.739 9.83184 217.516 10.8571 217.516C11.8956 217.516 12.8157 217.739 13.6175 218.186C14.4193 218.633 15.0437 219.251 15.4906 220.039C15.9244 220.815 16.1413 221.696 16.1413 222.681C16.1413 223.523 15.9704 224.285 15.6287 224.969C15.2738 225.639 14.7611 226.191 14.0907 226.625H19.8678V228.025H5.67153V226.684H7.72211C7.03858 226.263 6.51279 225.711 6.14474 225.028C5.77669 224.331 5.59266 223.549 5.59266 222.681ZM14.8991 222.78C14.8991 222.057 14.7348 221.4 14.4062 220.808C14.0644 220.217 13.5847 219.757 12.9669 219.428C12.3491 219.086 11.6458 218.915 10.8571 218.915C10.0684 218.915 9.37177 219.086 8.76711 219.428C8.14931 219.757 7.66953 220.217 7.32776 220.808C6.986 221.4 6.81512 222.057 6.81512 222.78C6.81512 223.516 6.986 224.18 7.32776 224.771C7.66953 225.35 8.14931 225.81 8.76711 226.152C9.37177 226.48 10.0684 226.645 10.8571 226.645C11.6458 226.645 12.3491 226.48 12.9669 226.152C13.5847 225.81 14.0644 225.35 14.4062 224.771C14.7348 224.18 14.8991 223.516 14.8991 222.78ZM5.67153 206.908H16.0427V208.189H12.6119V211.443V211.837L16.0427 214.243V215.761L12.4148 213.178C12.1913 213.98 11.8101 214.598 11.2712 215.031C10.7323 215.465 10.0487 215.682 9.22061 215.682C8.06387 215.682 7.18317 215.288 6.57852 214.499C5.97386 213.71 5.67153 212.632 5.67153 211.265V206.908ZM9.26004 214.262C10.798 214.262 11.5669 213.283 11.5669 211.324V208.189H6.91371V211.226C6.91371 213.25 7.69582 214.262 9.26004 214.262ZM10.6402 198.08C10.8111 197.344 11.1069 196.779 11.5275 196.385C11.9481 195.977 12.4608 195.774 13.0654 195.774C13.6701 195.774 14.209 195.984 14.6822 196.405C15.1555 196.812 15.5235 197.371 15.7864 198.08C16.0362 198.79 16.161 199.572 16.161 200.427C16.161 201.176 16.0559 201.912 15.8456 202.635C15.6221 203.358 15.3 203.989 14.8794 204.528L13.8344 204.055C14.1893 203.582 14.4654 203.029 14.6625 202.399C14.8597 201.768 14.9583 201.13 14.9583 200.486C14.9583 199.526 14.7808 198.744 14.4259 198.14C14.0579 197.522 13.5649 197.213 12.9471 197.213C12.3951 197.213 11.9679 197.463 11.6655 197.962C11.3501 198.462 11.1923 199.145 11.1923 200.013V201.787H10.167V200.092C10.167 199.316 10.0224 198.692 9.73325 198.218C9.43092 197.745 9.03001 197.509 8.53051 197.509C7.97843 197.509 7.54465 197.778 7.22918 198.317C6.91371 198.843 6.75597 199.533 6.75597 200.387C6.75597 201.505 7.03858 202.609 7.6038 203.7L6.51936 204.094C5.87527 202.859 5.55323 201.577 5.55323 200.249C5.55323 199.461 5.67153 198.751 5.90813 198.12C6.13159 197.476 6.45364 196.976 6.87427 196.621C7.2949 196.253 7.78126 196.069 8.33334 196.069C8.85913 196.069 9.32576 196.253 9.73325 196.621C10.1407 196.976 10.4431 197.463 10.6402 198.08ZM5.67153 192.596V191.196H10.2656L10.2656 184.669H5.67153V183.269H16.0427V184.669H11.4684L11.4684 191.196H16.0427V192.596H5.67153ZM11.2909 170.221V178.896C12.3688 178.817 13.2429 178.403 13.9133 177.654C14.5705 176.905 14.8991 175.958 14.8991 174.815C14.8991 174.17 14.7874 173.579 14.5639 173.04C14.3273 172.501 13.9856 172.034 13.5387 171.64L14.4456 170.851C14.9977 171.312 15.4183 171.89 15.7075 172.587C15.9967 173.27 16.1413 174.026 16.1413 174.854C16.1413 175.919 15.9178 176.865 15.4709 177.693C15.0109 178.508 14.3799 179.146 13.5781 179.606C12.7763 180.066 11.8693 180.296 10.8571 180.296C9.84498 180.296 8.938 180.079 8.13617 179.645C7.33434 179.198 6.70996 178.594 6.26304 177.831C5.81612 177.056 5.59266 176.188 5.59266 175.229C5.59266 174.269 5.81612 173.408 6.26304 172.646C6.70996 171.883 7.33434 171.285 8.13617 170.851C8.92485 170.418 9.83184 170.201 10.8571 170.201L11.2909 170.221ZM6.7954 175.229C6.7954 176.228 7.11745 177.069 7.76154 177.752C8.39249 178.423 9.22061 178.804 10.2459 178.896V171.542C9.22061 171.634 8.39249 172.021 7.76154 172.705C7.11745 173.375 6.7954 174.217 6.7954 175.229ZM3.60123 176.983C3.60123 177.22 3.52236 177.424 3.36463 177.595C3.20689 177.752 3.00315 177.831 2.7534 177.831C2.51679 177.831 2.31962 177.752 2.16188 177.595C1.991 177.424 1.90556 177.22 1.90556 176.983C1.90556 176.76 1.991 176.563 2.16188 176.392C2.31962 176.221 2.51679 176.136 2.7534 176.136C2.99 176.136 3.19375 176.221 3.36463 176.392C3.52236 176.55 3.60123 176.747 3.60123 176.983ZM3.60123 173.474C3.60123 173.71 3.52236 173.914 3.36463 174.085C3.19375 174.243 2.99 174.322 2.7534 174.322C2.51679 174.322 2.31962 174.236 2.16188 174.065C1.991 173.894 1.90556 173.697 1.90556 173.474C1.90556 173.237 1.991 173.04 2.16188 172.882C2.31962 172.711 2.51679 172.626 2.7534 172.626C3.00315 172.626 3.20689 172.711 3.36463 172.882C3.52236 173.04 3.60123 173.237 3.60123 173.474ZM5.67153 167.102V165.702H10.2656L10.2656 159.176H5.67153V157.776H16.0427V159.176H11.4684L11.4684 165.702H16.0427V167.102H5.67153ZM5.67153 153.797V152.397H10.2656V145.87H5.67153V144.471H16.0427V145.87H11.4684V152.397H16.0427V153.797H5.67153ZM9.33891 136.134C9.35205 134.833 9.64124 133.84 10.2065 133.157C10.7717 132.473 11.5867 132.132 12.6514 132.132C13.7555 132.132 14.6034 132.5 15.1949 133.236C15.7864 133.972 16.0756 135.023 16.0624 136.39L16.0427 140.492H5.67153V139.092H9.29948L9.33891 136.134ZM5.67153 130.396V128.997H16.0427V130.396H5.67153ZM14.9977 136.469C15.0109 135.51 14.8203 134.787 14.4259 134.3C14.0184 133.801 13.4269 133.551 12.6514 133.551C11.889 133.551 11.3238 133.794 10.9557 134.281C10.5877 134.767 10.3971 135.497 10.3839 136.469L10.3445 139.092H14.9583L14.9977 136.469ZM5.67153 125.011V123.611H13.9133L5.67153 116.69V115.448H16.0427V116.848H7.80098L16.0427 123.749V125.011H5.67153ZM4.17303 120.298C4.17303 121.192 3.94957 121.902 3.50265 122.428C3.05573 122.953 2.42478 123.223 1.6098 123.236V122.23C2.12245 122.217 2.53651 122.033 2.85198 121.678C3.15431 121.323 3.30548 120.863 3.30548 120.298C3.30548 119.733 3.15431 119.273 2.85198 118.918C2.53651 118.55 2.12245 118.359 1.6098 118.346V117.341C2.42478 117.354 3.05573 117.63 3.50265 118.169C3.94957 118.695 4.17303 119.404 4.17303 120.298ZM10.6797 99.6702C11.0083 98.2638 11.8561 97.5605 13.2232 97.5605C14.1302 97.5605 14.8268 97.8957 15.3132 98.5661C15.7995 99.2365 16.0427 100.235 16.0427 101.563V106.275H5.67153L5.67153 101.701C5.67153 100.518 5.90156 99.5914 6.36163 98.921C6.82169 98.2506 7.47893 97.9154 8.33334 97.9154C8.89856 97.9154 9.38492 98.0732 9.7924 98.3886C10.1867 98.691 10.4825 99.1182 10.6797 99.6702ZM10.2853 104.915L10.2853 101.8C10.2853 100.998 10.1342 100.387 9.83184 99.966C9.52951 99.5322 9.08916 99.3153 8.51079 99.3153C7.93242 99.3153 7.49865 99.5322 7.20946 99.966C6.92028 100.387 6.77569 100.998 6.77569 101.8L6.77569 104.915H10.2853ZM14.9386 101.622C14.9386 100.728 14.794 100.058 14.5048 99.6111C14.2156 99.1642 13.7621 98.9407 13.1443 98.9407C12.5265 98.9407 12.073 99.1445 11.7838 99.5519C11.4815 99.9594 11.3303 100.604 11.3303 101.484L11.3303 104.915H14.9386V101.622ZM16.1413 90.001C16.1413 91 15.9178 91.9004 15.4709 92.7022C15.0109 93.5041 14.3799 94.135 13.5781 94.5951C12.7763 95.0552 11.8693 95.2852 10.8571 95.2852C9.84498 95.2852 8.938 95.0552 8.13617 94.5951C7.33434 94.135 6.70996 93.5041 6.26304 92.7022C5.81612 91.9004 5.59266 91 5.59266 90.001C5.59266 89.002 5.81612 88.1016 6.26304 87.2998C6.70996 86.4979 7.33434 85.8736 8.13617 85.4266C8.938 84.9666 9.84498 84.7365 10.8571 84.7365C11.8693 84.7365 12.7763 84.9666 13.5781 85.4266C14.3799 85.8736 15.0109 86.4979 15.4709 87.2998C15.9178 88.1016 16.1413 89.002 16.1413 90.001ZM14.8991 90.001C14.8991 89.2649 14.7348 88.6077 14.4062 88.0293C14.0644 87.4378 13.5847 86.9777 12.9669 86.6491C12.3491 86.3205 11.6458 86.1562 10.8571 86.1562C10.0684 86.1562 9.3652 86.3205 8.7474 86.6491C8.12959 86.9777 7.65638 87.4378 7.32776 88.0293C6.986 88.6077 6.81512 89.2649 6.81512 90.001C6.81512 90.7371 6.986 91.4009 7.32776 91.9924C7.65638 92.5708 8.12959 93.0309 8.7474 93.3726C9.3652 93.7012 10.0684 93.8656 10.8571 93.8656C11.6458 93.8656 12.3491 93.7012 12.9669 93.3726C13.5847 93.0309 14.0644 92.5708 14.4062 91.9924C14.7348 91.4009 14.8991 90.7371 14.8991 90.001ZM10.6402 76.7741C10.8111 76.038 11.1069 75.4727 11.5275 75.0784C11.9481 74.6709 12.4608 74.4672 13.0654 74.4672C13.6701 74.4672 14.209 74.6775 14.6822 75.0981C15.1555 75.5056 15.5235 76.0643 15.7864 76.7741C16.0362 77.4839 16.161 78.266 16.161 79.1204C16.161 79.8697 16.0559 80.6058 15.8456 81.3287C15.6221 82.0517 15.3 82.6826 14.8794 83.2216L13.8344 82.7484C14.1893 82.2751 14.4654 81.7231 14.6625 81.0921C14.8597 80.4612 14.9583 79.8237 14.9583 79.1796C14.9583 78.22 14.7808 77.4379 14.4259 76.8332C14.0579 76.2154 13.5649 75.9065 12.9471 75.9065C12.3951 75.9065 11.9679 76.1563 11.6655 76.6558C11.3501 77.1553 11.1923 77.8388 11.1923 78.7064V80.4809H10.167V78.7852C10.167 78.0097 10.0224 77.3853 9.73325 76.9121C9.43092 76.4389 9.03001 76.2023 8.53051 76.2023C7.97843 76.2023 7.54465 76.4717 7.22918 77.0107C6.91371 77.5365 6.75597 78.2266 6.75597 79.081C6.75597 80.1983 7.03858 81.3024 7.6038 82.3934L6.51936 82.7878C5.87527 81.5522 5.55323 80.2706 5.55323 78.943C5.55323 78.1543 5.67153 77.4445 5.90813 76.8135C6.13159 76.1694 6.45364 75.6699 6.87427 75.315C7.2949 74.947 7.78126 74.7629 8.33334 74.7629C8.85913 74.7629 9.32576 74.947 9.73325 75.315C10.1407 75.6699 10.4431 76.1563 10.6402 76.7741ZM14.8203 61.1743H18.5468V62.4953H16.0427V71.7821H18.5468V73.1031H14.8203V72.5116C14.7808 71.815 14.2682 71.3417 13.2823 71.092C12.2965 70.8422 10.9163 70.6714 9.14174 70.5794L5.67153 70.4413V62.7911H14.8203V61.1743ZM9.22061 69.2977C10.6928 69.3635 11.9087 69.4883 12.8683 69.6724C13.8147 69.8564 14.4654 70.185 14.8203 70.6582V64.191H6.91371V69.1794L9.22061 69.2977ZM5.67153 49.6326L17.2849 54.8182C18.2576 55.2388 18.9477 55.7251 19.3552 56.2772C19.7627 56.8293 19.9664 57.4931 19.9664 58.2686C19.9664 58.7681 19.8876 59.2348 19.7298 59.6686C19.5721 60.1023 19.3355 60.477 19.02 60.7924L17.975 60.1418C18.5008 59.616 18.7637 58.985 18.7637 58.2489C18.7637 57.7757 18.6322 57.3748 18.3693 57.0462C18.1064 56.7044 17.6595 56.389 17.0286 56.0998L16.023 55.6463L5.67153 60.2798V58.8207L14.4851 54.9167L5.67153 51.0128V49.6326ZM16.0427 41.5615L11.705 44.8542L16.0427 48.1667V49.7441L10.7191 45.6429L5.67153 49.5469V47.9695L9.73325 44.8542L5.67153 41.7389V40.201L10.7191 44.105L16.0427 39.9644V41.5615Z" fill="#010101"/>
<path d="M684.242 244.196C684.242 245.563 683.939 246.806 683.335 247.923C682.717 249.027 681.876 249.895 680.811 250.526C679.746 251.143 678.55 251.452 677.222 251.452C675.895 251.452 674.699 251.143 673.634 250.526C672.569 249.895 671.734 249.027 671.13 247.923C670.512 246.806 670.203 245.563 670.203 244.196C670.203 242.829 670.505 241.6 671.11 240.509C671.715 239.405 672.556 238.538 673.634 237.907C674.699 237.276 675.895 236.96 677.222 236.96C678.55 236.96 679.753 237.276 680.831 237.907C681.895 238.538 682.73 239.405 683.335 240.509C683.939 241.6 684.242 242.829 684.242 244.196ZM682.94 244.196C682.94 243.105 682.697 242.12 682.211 241.239C681.711 240.358 681.028 239.668 680.16 239.169C679.279 238.669 678.3 238.419 677.222 238.419C676.144 238.419 675.172 238.669 674.304 239.169C673.423 239.668 672.74 240.358 672.254 241.239C671.754 242.12 671.504 243.105 671.504 244.196C671.504 245.287 671.754 246.28 672.254 247.174C672.74 248.054 673.423 248.751 674.304 249.264C675.172 249.763 676.144 250.013 677.222 250.013C678.3 250.013 679.279 249.763 680.16 249.264C681.028 248.751 681.711 248.054 682.211 247.174C682.697 246.28 682.94 245.287 682.94 244.196ZM673.752 225.986H684.123V227.386H679.805C680.331 228.582 680.594 229.759 680.594 230.915C680.594 232.164 680.311 233.137 679.746 233.833C679.168 234.53 678.307 234.878 677.163 234.878H673.752V233.478H677.084C677.86 233.478 678.451 233.229 678.859 232.729C679.253 232.23 679.45 231.54 679.45 230.659C679.45 229.686 679.194 228.595 678.681 227.386H673.752V225.986ZM673.752 222.01V220.61H681.994L673.752 213.69V212.448H684.123V213.847H675.882L684.123 220.748V222.01H673.752ZM673.752 194.121H684.123V208.436H673.752V207.036H682.901V201.949H673.752V200.549H682.901V195.521H673.752V194.121ZM682.901 192.524H686.391V193.845H684.123V195.6H682.901V192.524ZM679.371 181.054V189.73C680.449 189.651 681.323 189.237 681.994 188.488C682.651 187.738 682.98 186.792 682.98 185.648C682.98 185.004 682.868 184.413 682.645 183.874C682.408 183.335 682.066 182.868 681.619 182.474L682.526 181.685C683.078 182.145 683.499 182.724 683.788 183.42C684.077 184.104 684.222 184.86 684.222 185.688C684.222 186.752 683.998 187.699 683.551 188.527C683.091 189.342 682.46 189.98 681.659 190.44C680.857 190.9 679.95 191.13 678.938 191.13C677.926 191.13 677.019 190.913 676.217 190.479C675.415 190.032 674.791 189.427 674.344 188.665C673.897 187.889 673.673 187.022 673.673 186.062C673.673 185.103 673.897 184.242 674.344 183.479C674.791 182.717 675.415 182.119 676.217 181.685C677.005 181.251 677.912 181.035 678.938 181.035L679.371 181.054ZM674.876 186.062C674.876 187.061 675.198 187.903 675.842 188.586C676.473 189.257 677.301 189.638 678.326 189.73V182.375C677.301 182.467 676.473 182.855 675.842 183.539C675.198 184.209 674.876 185.05 674.876 186.062ZM673.752 177.936V176.536H678.346V170.009H673.752V168.61H684.123V170.009H679.549V176.536H684.123V177.936H673.752ZM673.752 164.631V163.231H678.346V156.704H673.752V155.304H684.123V156.704H679.549V163.231H684.123V164.631H673.752ZM677.419 146.968C677.433 145.666 677.722 144.674 678.287 143.991C678.852 143.307 679.667 142.965 680.732 142.965C681.836 142.965 682.684 143.333 683.275 144.069C683.867 144.806 684.156 145.857 684.143 147.224L684.123 151.325H673.752V149.925H677.38L677.419 146.968ZM673.752 141.23V139.83H684.123V141.23H673.752ZM683.078 147.303C683.091 146.343 682.901 145.62 682.506 145.134C682.099 144.635 681.507 144.385 680.732 144.385C679.97 144.385 679.404 144.628 679.036 145.114C678.668 145.601 678.478 146.33 678.464 147.303L678.425 149.925H683.039L683.078 147.303ZM673.752 135.844V134.444H681.994L673.752 127.524V126.282H684.123V127.681H675.882L684.123 134.582V135.844H673.752ZM672.254 131.132C672.254 132.026 672.03 132.736 671.583 133.261C671.136 133.787 670.505 134.057 669.69 134.07V133.064C670.203 133.051 670.617 132.867 670.933 132.512C671.235 132.157 671.386 131.697 671.386 131.132C671.386 130.567 671.235 130.107 670.933 129.752C670.617 129.384 670.203 129.193 669.69 129.18V128.174C670.505 128.187 671.136 128.464 671.583 129.002C672.03 129.528 672.254 130.238 672.254 131.132ZM678.76 110.504C679.089 109.097 679.937 108.394 681.304 108.394C682.211 108.394 682.907 108.729 683.394 109.4C683.88 110.07 684.123 111.069 684.123 112.397V117.109H673.752V112.535C673.752 111.352 673.982 110.425 674.442 109.755C674.902 109.084 675.559 108.749 676.414 108.749C676.979 108.749 677.465 108.907 677.873 109.222C678.267 109.525 678.563 109.952 678.76 110.504ZM678.366 115.749V112.633C678.366 111.832 678.215 111.22 677.912 110.8C677.61 110.366 677.17 110.149 676.591 110.149C676.013 110.149 675.579 110.366 675.29 110.8C675.001 111.22 674.856 111.832 674.856 112.633V115.749H678.366ZM683.019 112.456C683.019 111.562 682.875 110.892 682.585 110.445C682.296 109.998 681.843 109.774 681.225 109.774C680.607 109.774 680.154 109.978 679.864 110.386C679.562 110.793 679.411 111.437 679.411 112.318V115.749H683.019V112.456ZM684.222 100.835C684.222 101.834 683.998 102.734 683.551 103.536C683.091 104.338 682.46 104.969 681.659 105.429C680.857 105.889 679.95 106.119 678.938 106.119C677.926 106.119 677.019 105.889 676.217 105.429C675.415 104.969 674.791 104.338 674.344 103.536C673.897 102.734 673.673 101.834 673.673 100.835C673.673 99.8357 673.897 98.9353 674.344 98.1335C674.791 97.3317 675.415 96.7073 676.217 96.2604C677.019 95.8003 677.926 95.5703 678.938 95.5703C679.95 95.5703 680.857 95.8003 681.659 96.2604C682.46 96.7073 683.091 97.3317 683.551 98.1335C683.998 98.9353 684.222 99.8357 684.222 100.835ZM682.98 100.835C682.98 100.099 682.815 99.4414 682.487 98.863C682.145 98.2715 681.665 97.8115 681.047 97.4828C680.43 97.1542 679.726 96.9899 678.938 96.9899C678.149 96.9899 677.446 97.1542 676.828 97.4828C676.21 97.8115 675.737 98.2715 675.408 98.863C675.067 99.4414 674.896 100.099 674.896 100.835C674.896 101.571 675.067 102.235 675.408 102.826C675.737 103.405 676.21 103.865 676.828 104.206C677.446 104.535 678.149 104.699 678.938 104.699C679.726 104.699 680.43 104.535 681.047 104.206C681.665 103.865 682.145 103.405 682.487 102.826C682.815 102.235 682.98 101.571 682.98 100.835ZM678.721 87.6078C678.892 86.8717 679.187 86.3065 679.608 85.9121C680.029 85.5046 680.541 85.3009 681.146 85.3009C681.751 85.3009 682.29 85.5112 682.763 85.9318C683.236 86.3393 683.604 86.898 683.867 87.6078C684.117 88.3176 684.242 89.0997 684.242 89.9541C684.242 90.7034 684.136 91.4395 683.926 92.1624C683.703 92.8854 683.381 93.5164 682.96 94.0553L681.915 93.5821C682.27 93.1089 682.546 92.5568 682.743 91.9258C682.94 91.2949 683.039 90.6574 683.039 90.0133C683.039 89.0537 682.861 88.2716 682.506 87.667C682.138 87.0491 681.646 86.7402 681.028 86.7402C680.476 86.7402 680.048 86.99 679.746 87.4895C679.431 87.989 679.273 88.6725 679.273 89.5401V91.3146H678.248V89.6189C678.248 88.8434 678.103 88.219 677.814 87.7458C677.511 87.2726 677.111 87.036 676.611 87.036C676.059 87.036 675.625 87.3055 675.31 87.8444C674.994 88.3702 674.837 89.0603 674.837 89.9147C674.837 91.032 675.119 92.1362 675.684 93.2272L674.6 93.6215C673.956 92.3859 673.634 91.1043 673.634 89.7767C673.634 88.988 673.752 88.2782 673.989 87.6472C674.212 87.0031 674.534 86.5036 674.955 86.1487C675.375 85.7807 675.862 85.5967 676.414 85.5967C676.94 85.5967 677.406 85.7807 677.814 86.1487C678.221 86.5036 678.524 86.99 678.721 87.6078ZM682.901 72.008H686.627V73.3291H684.123V82.6158H686.627V83.9369H682.901V83.3454C682.861 82.6487 682.349 82.1755 681.363 81.9257C680.377 81.676 678.997 81.5051 677.222 81.4131L673.752 81.2751V73.6248H682.901V72.008ZM677.301 80.1315C678.773 80.1972 679.989 80.3221 680.949 80.5061C681.895 80.6901 682.546 81.0187 682.901 81.492V75.0247H674.994V80.0132L677.301 80.1315ZM673.752 60.4663L685.365 65.6519C686.338 66.0725 687.028 66.5589 687.436 67.1109C687.843 67.663 688.047 68.3268 688.047 69.1024C688.047 69.6019 687.968 70.0685 687.81 70.5023C687.653 70.9361 687.416 71.3107 687.101 71.6262L686.056 70.9755C686.581 70.4497 686.844 69.8188 686.844 69.0827C686.844 68.6094 686.713 68.2085 686.45 67.8799C686.187 67.5382 685.74 67.2227 685.109 66.9335L684.104 66.48L673.752 71.1135V69.6545L682.566 65.7505L673.752 61.8465V60.4663ZM684.123 52.3952L679.786 55.688L684.123 59.0004V60.5778L678.8 56.4767L673.752 60.3806V58.8033L677.814 55.688L673.752 52.5727V51.0347L678.8 54.9387L684.123 50.7981V52.3952Z" fill="#010101"/>
<path d="M334.09 313.81V325.312H332.89V314.862H325.611V325.312H324.412V313.81H334.09ZM341.257 325.394C340.424 325.394 339.674 325.208 339.006 324.836C338.337 324.452 337.812 323.926 337.428 323.258C337.045 322.59 336.853 321.834 336.853 320.991C336.853 320.147 337.045 319.391 337.428 318.723C337.812 318.055 338.337 317.535 339.006 317.162C339.674 316.79 340.424 316.604 341.257 316.604C342.089 316.604 342.839 316.79 343.508 317.162C344.176 317.535 344.696 318.055 345.069 318.723C345.452 319.391 345.644 320.147 345.644 320.991C345.644 321.834 345.452 322.59 345.069 323.258C344.696 323.926 344.176 324.452 343.508 324.836C342.839 325.208 342.089 325.394 341.257 325.394ZM341.257 324.359C341.87 324.359 342.418 324.222 342.9 323.948C343.393 323.663 343.776 323.264 344.05 322.749C344.324 322.234 344.461 321.648 344.461 320.991C344.461 320.333 344.324 319.747 344.05 319.233C343.776 318.718 343.393 318.323 342.9 318.05C342.418 317.765 341.87 317.622 341.257 317.622C340.643 317.622 340.09 317.765 339.597 318.05C339.115 318.323 338.732 318.718 338.447 319.233C338.173 319.747 338.036 320.333 338.036 320.991C338.036 321.648 338.173 322.234 338.447 322.749C338.732 323.264 339.115 323.663 339.597 323.948C340.09 324.222 340.643 324.359 341.257 324.359ZM356.518 324.293V327.399H355.417V325.312H347.678V327.399H346.577V324.293H347.07C347.651 324.26 348.045 323.833 348.253 323.012C348.461 322.19 348.604 321.04 348.68 319.561L348.795 316.669H355.171V324.293H356.518ZM349.748 319.627C349.694 320.854 349.59 321.867 349.436 322.667C349.283 323.455 349.009 323.998 348.615 324.293H354.004V317.704H349.847L349.748 319.627ZM367.22 324.293V327.399H366.12V325.312H358.381V327.399H357.28V324.293H357.773C358.353 324.26 358.748 323.833 358.956 323.012C359.164 322.19 359.306 321.04 359.383 319.561L359.498 316.669H365.873V324.293H367.22ZM360.451 319.627C360.396 320.854 360.292 321.867 360.139 322.667C359.985 323.455 359.712 323.998 359.317 324.293H364.707V317.704H360.55L360.451 319.627ZM373.059 325.394C372.227 325.394 371.477 325.208 370.808 324.836C370.14 324.452 369.614 323.926 369.231 323.258C368.848 322.59 368.656 321.834 368.656 320.991C368.656 320.147 368.848 319.391 369.231 318.723C369.614 318.055 370.14 317.535 370.808 317.162C371.477 316.79 372.227 316.604 373.059 316.604C373.892 316.604 374.642 316.79 375.311 317.162C375.979 317.535 376.499 318.055 376.871 318.723C377.255 319.391 377.447 320.147 377.447 320.991C377.447 321.834 377.255 322.59 376.871 323.258C376.499 323.926 375.979 324.452 375.311 324.836C374.642 325.208 373.892 325.394 373.059 325.394ZM373.059 324.359C373.673 324.359 374.221 324.222 374.703 323.948C375.195 323.663 375.579 323.264 375.853 322.749C376.127 322.234 376.263 321.648 376.263 320.991C376.263 320.333 376.127 319.747 375.853 319.233C375.579 318.718 375.195 318.323 374.703 318.05C374.221 317.765 373.673 317.622 373.059 317.622C372.446 317.622 371.893 317.765 371.4 318.05C370.918 318.323 370.535 318.718 370.25 319.233C369.976 319.747 369.839 320.333 369.839 320.991C369.839 321.648 369.976 322.234 370.25 322.749C370.535 323.264 370.918 323.663 371.4 323.948C371.893 324.222 372.446 324.359 373.059 324.359ZM379.94 316.669H381.106V320.498H386.545V316.669H387.712V325.312H386.545V321.5H381.106V325.312H379.94V316.669ZM398.943 325.394C398.088 325.394 397.321 325.208 396.642 324.836C395.974 324.463 395.448 323.943 395.065 323.275C394.681 322.595 394.49 321.834 394.49 320.991C394.49 320.147 394.681 319.391 395.065 318.723C395.448 318.055 395.974 317.535 396.642 317.162C397.321 316.79 398.088 316.604 398.943 316.604C399.687 316.604 400.35 316.752 400.931 317.047C401.522 317.332 401.988 317.754 402.327 318.312L401.456 318.904C401.172 318.477 400.81 318.159 400.372 317.951C399.934 317.732 399.457 317.622 398.943 317.622C398.318 317.622 397.754 317.765 397.25 318.05C396.757 318.323 396.368 318.718 396.084 319.233C395.81 319.747 395.673 320.333 395.673 320.991C395.673 321.659 395.81 322.25 396.084 322.765C396.368 323.269 396.757 323.663 397.25 323.948C397.754 324.222 398.318 324.359 398.943 324.359C399.457 324.359 399.934 324.255 400.372 324.047C400.81 323.839 401.172 323.521 401.456 323.094L402.327 323.685C401.988 324.244 401.522 324.671 400.931 324.967C400.339 325.252 399.676 325.394 398.943 325.394ZM413.339 316.604C414.15 316.604 414.884 316.79 415.541 317.162C416.198 317.524 416.713 318.039 417.085 318.707C417.458 319.375 417.644 320.136 417.644 320.991C417.644 321.856 417.458 322.623 417.085 323.291C416.713 323.959 416.198 324.48 415.541 324.852C414.895 325.213 414.161 325.394 413.339 325.394C412.638 325.394 412.003 325.252 411.433 324.967C410.875 324.671 410.415 324.244 410.053 323.685V328.5H408.886V316.669H410.004V318.378C410.354 317.809 410.814 317.37 411.384 317.064C411.965 316.757 412.616 316.604 413.339 316.604ZM413.257 324.359C413.86 324.359 414.407 324.222 414.9 323.948C415.393 323.663 415.776 323.264 416.05 322.749C416.335 322.234 416.478 321.648 416.478 320.991C416.478 320.333 416.335 319.753 416.05 319.249C415.776 318.734 415.393 318.334 414.9 318.05C414.407 317.765 413.86 317.622 413.257 317.622C412.644 317.622 412.09 317.765 411.598 318.05C411.116 318.334 410.732 318.734 410.447 319.249C410.174 319.753 410.037 320.333 410.037 320.991C410.037 321.648 410.174 322.234 410.447 322.749C410.732 323.264 411.116 323.663 411.598 323.948C412.09 324.222 412.644 324.359 413.257 324.359ZM423.076 316.604C424.205 316.604 425.07 316.888 425.673 317.458C426.275 318.017 426.576 318.849 426.576 319.956V325.312H425.459V323.965C425.196 324.414 424.807 324.764 424.292 325.016C423.788 325.268 423.186 325.394 422.485 325.394C421.521 325.394 420.754 325.164 420.185 324.704C419.615 324.244 419.33 323.636 419.33 322.88C419.33 322.146 419.593 321.555 420.119 321.106C420.656 320.657 421.505 320.432 422.666 320.432H425.41V319.906C425.41 319.161 425.202 318.597 424.785 318.214C424.369 317.82 423.761 317.622 422.961 317.622C422.414 317.622 421.888 317.715 421.384 317.902C420.88 318.077 420.448 318.323 420.086 318.641L419.56 317.77C419.998 317.398 420.524 317.113 421.138 316.916C421.751 316.708 422.397 316.604 423.076 316.604ZM422.666 324.474C423.323 324.474 423.887 324.326 424.358 324.03C424.829 323.724 425.18 323.286 425.41 322.716V321.303H422.699C421.22 321.303 420.48 321.818 420.48 322.847C420.48 323.351 420.672 323.751 421.055 324.047C421.439 324.332 421.976 324.474 422.666 324.474ZM433.297 325.394C432.442 325.394 431.675 325.208 430.996 324.836C430.328 324.463 429.802 323.943 429.419 323.275C429.036 322.595 428.844 321.834 428.844 320.991C428.844 320.147 429.036 319.391 429.419 318.723C429.802 318.055 430.328 317.535 430.996 317.162C431.675 316.79 432.442 316.604 433.297 316.604C434.042 316.604 434.704 316.752 435.285 317.047C435.876 317.332 436.342 317.754 436.681 318.312L435.811 318.904C435.526 318.477 435.164 318.159 434.726 317.951C434.288 317.732 433.811 317.622 433.297 317.622C432.672 317.622 432.108 317.765 431.604 318.05C431.111 318.323 430.722 318.718 430.438 319.233C430.164 319.747 430.027 320.333 430.027 320.991C430.027 321.659 430.164 322.25 430.438 322.765C430.722 323.269 431.111 323.663 431.604 323.948C432.108 324.222 432.672 324.359 433.297 324.359C433.811 324.359 434.288 324.255 434.726 324.047C435.164 323.839 435.526 323.521 435.811 323.094L436.681 323.685C436.342 324.244 435.876 324.671 435.285 324.967C434.693 325.252 434.031 325.394 433.297 325.394ZM444.859 317.704H441.589V325.312H440.423V317.704H437.153V316.669H444.859V317.704ZM452.05 320.843C453.222 321.117 453.808 321.823 453.808 322.962C453.808 323.718 453.529 324.299 452.97 324.704C452.412 325.109 451.579 325.312 450.473 325.312H446.546V316.669H450.358C451.344 316.669 452.116 316.861 452.675 317.244C453.233 317.628 453.513 318.176 453.513 318.888C453.513 319.359 453.381 319.764 453.118 320.103C452.866 320.432 452.51 320.678 452.05 320.843ZM447.68 320.514H450.276C450.944 320.514 451.453 320.388 451.804 320.136C452.165 319.884 452.346 319.517 452.346 319.035C452.346 318.553 452.165 318.192 451.804 317.951C451.453 317.71 450.944 317.589 450.276 317.589H447.68V320.514ZM450.424 324.392C451.169 324.392 451.727 324.271 452.1 324.03C452.472 323.789 452.658 323.412 452.658 322.897C452.658 322.382 452.488 322.004 452.149 321.763C451.809 321.511 451.273 321.385 450.539 321.385H447.68V324.392H450.424ZM460.108 325.394C459.276 325.394 458.525 325.208 457.857 324.836C457.189 324.452 456.663 323.926 456.28 323.258C455.896 322.59 455.705 321.834 455.705 320.991C455.705 320.147 455.896 319.391 456.28 318.723C456.663 318.055 457.189 317.535 457.857 317.162C458.525 316.79 459.276 316.604 460.108 316.604C460.941 316.604 461.691 316.79 462.359 317.162C463.027 317.535 463.548 318.055 463.92 318.723C464.303 319.391 464.495 320.147 464.495 320.991C464.495 321.834 464.303 322.59 463.92 323.258C463.548 323.926 463.027 324.452 462.359 324.836C461.691 325.208 460.941 325.394 460.108 325.394ZM460.108 324.359C460.721 324.359 461.269 324.222 461.751 323.948C462.244 323.663 462.627 323.264 462.901 322.749C463.175 322.234 463.312 321.648 463.312 320.991C463.312 320.333 463.175 319.747 462.901 319.233C462.627 318.718 462.244 318.323 461.751 318.05C461.269 317.765 460.721 317.622 460.108 317.622C459.495 317.622 458.941 317.765 458.449 318.05C457.967 318.323 457.583 318.718 457.298 319.233C457.025 319.747 456.888 320.333 456.888 320.991C456.888 321.648 457.025 322.234 457.298 322.749C457.583 323.264 457.967 323.663 458.449 323.948C458.941 324.222 459.495 324.359 460.108 324.359ZM471.441 316.604C472.252 316.604 472.986 316.79 473.643 317.162C474.3 317.524 474.815 318.039 475.187 318.707C475.56 319.375 475.746 320.136 475.746 320.991C475.746 321.856 475.56 322.623 475.187 323.291C474.815 323.959 474.3 324.48 473.643 324.852C472.997 325.213 472.263 325.394 471.441 325.394C470.74 325.394 470.105 325.252 469.535 324.967C468.977 324.671 468.516 324.244 468.155 323.685V328.5H466.988V316.669H468.106V318.378C468.456 317.809 468.916 317.37 469.486 317.064C470.066 316.757 470.718 316.604 471.441 316.604ZM471.359 324.359C471.961 324.359 472.509 324.222 473.002 323.948C473.495 323.663 473.878 323.264 474.152 322.749C474.437 322.234 474.579 321.648 474.579 320.991C474.579 320.333 474.437 319.753 474.152 319.249C473.878 318.734 473.495 318.334 473.002 318.05C472.509 317.765 471.961 317.622 471.359 317.622C470.746 317.622 470.192 317.765 469.699 318.05C469.217 318.334 468.834 318.734 468.549 319.249C468.275 319.753 468.139 320.333 468.139 320.991C468.139 321.648 468.275 322.234 468.549 322.749C468.834 323.264 469.217 323.663 469.699 323.948C470.192 324.222 470.746 324.359 471.359 324.359ZM481.818 325.394C480.986 325.394 480.235 325.208 479.567 324.836C478.899 324.452 478.373 323.926 477.99 323.258C477.606 322.59 477.415 321.834 477.415 320.991C477.415 320.147 477.606 319.391 477.99 318.723C478.373 318.055 478.899 317.535 479.567 317.162C480.235 316.79 480.986 316.604 481.818 316.604C482.651 316.604 483.401 316.79 484.069 317.162C484.737 317.535 485.258 318.055 485.63 318.723C486.013 319.391 486.205 320.147 486.205 320.991C486.205 321.834 486.013 322.59 485.63 323.258C485.258 323.926 484.737 324.452 484.069 324.836C483.401 325.208 482.651 325.394 481.818 325.394ZM481.818 324.359C482.431 324.359 482.979 324.222 483.461 323.948C483.954 323.663 484.337 323.264 484.611 322.749C484.885 322.234 485.022 321.648 485.022 320.991C485.022 320.333 484.885 319.747 484.611 319.233C484.337 318.718 483.954 318.323 483.461 318.05C482.979 317.765 482.431 317.622 481.818 317.622C481.205 317.622 480.651 317.765 480.159 318.05C479.677 318.323 479.293 318.718 479.008 319.233C478.734 319.747 478.598 320.333 478.598 320.991C478.598 321.648 478.734 322.234 479.008 322.749C479.293 323.264 479.677 323.663 480.159 323.948C480.651 324.222 481.205 324.359 481.818 324.359ZM498.36 316.669V325.312H497.292V318.477L493.792 324.26H493.266L489.766 318.46V325.312H488.698V316.669H489.881L493.545 322.897L497.275 316.669H498.36Z" fill="#010101"/>
<path d="M410.527 7.76839C410.527 9.29099 409.985 10.4904 408.9 11.3668C407.827 12.2321 406.321 12.6922 404.382 12.747V13.93H403.248V12.747C401.309 12.6812 399.797 12.2157 398.713 11.3503C397.64 10.485 397.103 9.29099 397.103 7.76839C397.103 6.24579 397.64 5.05181 398.713 4.18645C399.797 3.32109 401.309 2.85555 403.248 2.78982V1.63966H404.382V2.78982C406.31 2.85555 407.816 3.32657 408.9 4.20288C409.985 5.06824 410.527 6.25675 410.527 7.76839ZM404.382 11.7775C405.97 11.7118 407.197 11.3339 408.062 10.6438C408.928 9.9537 409.36 8.99523 409.36 7.76839C409.36 6.54155 408.922 5.58308 408.046 4.89298C407.18 4.20288 405.959 3.83045 404.382 3.77568V11.7775ZM398.269 7.76839C398.269 8.99523 398.702 9.9537 399.567 10.6438C400.444 11.3229 401.671 11.7009 403.248 11.7775V3.77568C401.649 3.8414 400.416 4.21931 399.551 4.90941C398.697 5.58856 398.269 6.54155 398.269 7.76839ZM416.573 13.6178C415.741 13.6178 414.99 13.4316 414.322 13.0591C413.654 12.6758 413.128 12.15 412.745 11.4818C412.362 10.8136 412.17 10.0578 412.17 9.21431C412.17 8.37086 412.362 7.61504 412.745 6.94685C413.128 6.27865 413.654 5.75834 414.322 5.38591C414.99 5.01347 415.741 4.82726 416.573 4.82726C417.406 4.82726 418.156 5.01347 418.824 5.38591C419.493 5.75834 420.013 6.27865 420.385 6.94685C420.769 7.61504 420.96 8.37086 420.96 9.21431C420.96 10.0578 420.769 10.8136 420.385 11.4818C420.013 12.15 419.493 12.6758 418.824 13.0591C418.156 13.4316 417.406 13.6178 416.573 13.6178ZM416.573 12.5827C417.187 12.5827 417.734 12.4457 418.216 12.1719C418.709 11.8871 419.093 11.4873 419.367 10.9724C419.64 10.4576 419.777 9.87155 419.777 9.21431C419.777 8.55708 419.64 7.97104 419.367 7.4562C419.093 6.94137 418.709 6.54703 418.216 6.27318C417.734 5.98837 417.187 5.84597 416.573 5.84597C415.96 5.84597 415.407 5.98837 414.914 6.27318C414.432 6.54703 414.048 6.94137 413.764 7.4562C413.49 7.97104 413.353 8.55708 413.353 9.21431C413.353 9.87155 413.49 10.4576 413.764 10.9724C414.048 11.4873 414.432 11.8871 414.914 12.1719C415.407 12.4457 415.96 12.5827 416.573 12.5827ZM427.906 4.82726C428.717 4.82726 429.451 5.01347 430.108 5.38591C430.765 5.74739 431.28 6.26222 431.653 6.93041C432.025 7.59861 432.211 8.3599 432.211 9.21431C432.211 10.0797 432.025 10.8465 431.653 11.5146C431.28 12.1828 430.765 12.7031 430.108 13.0756C429.462 13.4371 428.728 13.6178 427.906 13.6178C427.205 13.6178 426.57 13.4754 426 13.1906C425.442 12.8948 424.982 12.4676 424.62 11.909V16.7232H423.454V4.89298H424.571V6.6018C424.921 6.03219 425.382 5.59403 425.951 5.28732C426.532 4.98061 427.183 4.82726 427.906 4.82726ZM427.824 12.5827C428.427 12.5827 428.974 12.4457 429.467 12.1719C429.96 11.8871 430.344 11.4873 430.618 10.9724C430.902 10.4576 431.045 9.87155 431.045 9.21431C431.045 8.55708 430.902 7.97652 430.618 7.47263C430.344 6.9578 429.96 6.55798 429.467 6.27318C428.974 5.98837 428.427 5.84597 427.824 5.84597C427.211 5.84597 426.658 5.98837 426.165 6.27318C425.683 6.55798 425.299 6.9578 425.015 7.47263C424.741 7.97652 424.604 8.55708 424.604 9.21431C424.604 9.87155 424.741 10.4576 425.015 10.9724C425.299 11.4873 425.683 11.8871 426.165 12.1719C426.658 12.4457 427.211 12.5827 427.824 12.5827ZM438.333 13.6178C437.478 13.6178 436.711 13.4316 436.032 13.0591C435.364 12.6867 434.838 12.1664 434.455 11.4982C434.072 10.8191 433.88 10.0578 433.88 9.21431C433.88 8.37086 434.072 7.61504 434.455 6.94685C434.838 6.27865 435.364 5.75834 436.032 5.38591C436.711 5.01347 437.478 4.82726 438.333 4.82726C439.077 4.82726 439.74 4.97513 440.321 5.27089C440.912 5.55569 441.378 5.97742 441.717 6.53607L440.847 7.12759C440.562 6.70038 440.2 6.38272 439.762 6.17459C439.324 5.95551 438.847 5.84597 438.333 5.84597C437.708 5.84597 437.144 5.98837 436.64 6.27318C436.147 6.54703 435.758 6.94137 435.474 7.4562C435.2 7.97104 435.063 8.55708 435.063 9.21431C435.063 9.8825 435.2 10.474 435.474 10.9889C435.758 11.4927 436.147 11.8871 436.64 12.1719C437.144 12.4457 437.708 12.5827 438.333 12.5827C438.847 12.5827 439.324 12.4786 439.762 12.2705C440.2 12.0623 440.562 11.7447 440.847 11.3175L441.717 11.909C441.378 12.4676 440.912 12.8948 440.321 13.1906C439.729 13.4754 439.067 13.6178 438.333 13.6178ZM451.192 4.89298L446.871 14.5708C446.521 15.3814 446.115 15.9565 445.655 16.296C445.195 16.6356 444.642 16.8054 443.996 16.8054C443.579 16.8054 443.191 16.7397 442.829 16.6082C442.468 16.4768 442.155 16.2796 441.893 16.0167L442.435 15.1459C442.873 15.584 443.399 15.8031 444.012 15.8031C444.407 15.8031 444.741 15.6936 445.014 15.4745C445.299 15.2554 445.562 14.883 445.803 14.3572L446.181 13.5192L442.32 4.89298H443.536L446.789 12.2376L450.042 4.89298H451.192ZM453.01 4.89298H454.177V8.72138H459.615V4.89298H460.782V13.5356H459.615V9.72367H454.177V13.5356H453.01V4.89298ZM467.236 9.69081H465.264V13.5356H464.098V4.89298H465.264V8.68852H467.252L470.292 4.89298H471.557L468.156 9.08286L471.804 13.5356H470.424L467.236 9.69081ZM473.645 4.89298H474.812V11.7611L480.579 4.89298H481.614V13.5356H480.447V6.66752L474.697 13.5356H473.645V4.89298Z" fill="#010101"/>
<path d="M475.819 211.581V214.21H481.094V215.393H469.592V214.21H474.751V211.581L469.592 207.687V206.373L475.179 210.645L481.094 206.126V207.523L475.819 211.581ZM472.385 201.418C472.385 200.29 472.67 199.425 473.24 198.822C473.798 198.22 474.631 197.919 475.737 197.919H481.094V199.036H479.746C480.196 199.299 480.546 199.688 480.798 200.202C481.05 200.706 481.176 201.309 481.176 202.01C481.176 202.974 480.946 203.741 480.486 204.31C480.026 204.88 479.418 205.165 478.662 205.165C477.928 205.165 477.337 204.902 476.887 204.376C476.438 203.839 476.214 202.99 476.214 201.829V199.085H475.688C474.943 199.085 474.379 199.293 473.996 199.709C473.601 200.126 473.404 200.734 473.404 201.533C473.404 202.081 473.497 202.607 473.683 203.111C473.859 203.615 474.105 204.047 474.423 204.409L473.552 204.935C473.18 204.496 472.895 203.971 472.698 203.357C472.489 202.744 472.385 202.097 472.385 201.418ZM480.256 201.829C480.256 201.172 480.108 200.608 479.812 200.137C479.505 199.666 479.067 199.315 478.498 199.085H477.085V201.796C477.085 203.275 477.599 204.014 478.629 204.014C479.133 204.014 479.533 203.823 479.829 203.439C480.113 203.056 480.256 202.519 480.256 201.829ZM472.451 187.058H481.094V188.224H473.486V193.646H481.094V194.813H472.451V187.058ZM472.451 176.676H481.094V177.843H473.486V181.983L475.622 182.098C477.419 182.186 478.799 182.394 479.763 182.723C480.727 183.051 481.209 183.637 481.209 184.481C481.209 184.711 481.165 184.99 481.077 185.319L480.075 185.237C480.119 185.039 480.141 184.902 480.141 184.826C480.141 184.377 479.933 184.037 479.516 183.807C479.1 183.577 478.585 183.424 477.972 183.347C477.358 183.27 476.548 183.205 475.54 183.15L472.451 183.002V176.676ZM477.134 165.801V173.031C478.032 172.965 478.761 172.62 479.319 171.996C479.867 171.372 480.141 170.583 480.141 169.63C480.141 169.093 480.048 168.6 479.861 168.151C479.664 167.702 479.379 167.313 479.007 166.984L479.763 166.327C480.223 166.711 480.573 167.193 480.814 167.773C481.055 168.343 481.176 168.973 481.176 169.663C481.176 170.55 480.99 171.339 480.617 172.029C480.234 172.708 479.708 173.239 479.04 173.623C478.372 174.006 477.616 174.198 476.772 174.198C475.929 174.198 475.173 174.017 474.505 173.655C473.837 173.283 473.316 172.779 472.944 172.144C472.572 171.498 472.385 170.775 472.385 169.975C472.385 169.175 472.572 168.458 472.944 167.822C473.316 167.187 473.837 166.689 474.505 166.327C475.162 165.966 475.918 165.785 476.772 165.785L477.134 165.801ZM473.388 169.975C473.388 170.807 473.656 171.508 474.193 172.078C474.719 172.637 475.409 172.954 476.263 173.031V166.902C475.409 166.979 474.719 167.302 474.193 167.872C473.656 168.43 473.388 169.131 473.388 169.975ZM481.176 159.637C481.176 160.47 480.99 161.22 480.617 161.888C480.234 162.556 479.708 163.082 479.04 163.466C478.372 163.849 477.616 164.041 476.772 164.041C475.929 164.041 475.173 163.849 474.505 163.466C473.837 163.082 473.316 162.556 472.944 161.888C472.572 161.22 472.385 160.47 472.385 159.637C472.385 158.805 472.572 158.054 472.944 157.386C473.316 156.718 473.837 156.198 474.505 155.825C475.173 155.442 475.929 155.25 476.772 155.25C477.616 155.25 478.372 155.442 479.04 155.825C479.708 156.198 480.234 156.718 480.617 157.386C480.99 158.054 481.176 158.805 481.176 159.637ZM480.141 159.637C480.141 159.024 480.004 158.476 479.73 157.994C479.445 157.501 479.045 157.118 478.531 156.844C478.016 156.57 477.43 156.433 476.772 156.433C476.115 156.433 475.529 156.57 475.014 156.844C474.499 157.118 474.105 157.501 473.831 157.994C473.546 158.476 473.404 159.024 473.404 159.637C473.404 160.251 473.546 160.804 473.831 161.297C474.105 161.779 474.499 162.162 475.014 162.447C475.529 162.721 476.115 162.858 476.772 162.858C477.43 162.858 478.016 162.721 478.531 162.447C479.045 162.162 479.445 161.779 479.73 161.297C480.004 160.804 480.141 160.251 480.141 159.637ZM473.486 146.998V150.268H481.094V151.435H473.486V154.704H472.451V146.998H473.486ZM472.665 141.122C472.665 140.322 472.845 139.61 473.207 138.986C473.557 138.35 474.056 137.857 474.702 137.507C475.337 137.156 476.066 136.981 476.887 136.981C477.731 136.981 478.481 137.167 479.138 137.54C479.785 137.901 480.289 138.411 480.65 139.068C481.012 139.725 481.192 140.481 481.192 141.335C481.192 142.77 480.688 143.882 479.681 144.671C478.673 145.459 477.282 145.854 475.507 145.854C473.656 145.854 472.237 145.503 471.252 144.802C470.266 144.09 469.598 142.984 469.247 141.483L468.36 137.605L469.428 137.408L470.266 141.056C470.54 142.294 471.027 143.203 471.728 143.784C472.418 144.364 473.442 144.682 474.801 144.737C474.133 144.386 473.612 143.899 473.24 143.274C472.856 142.65 472.665 141.932 472.665 141.122ZM480.223 141.302C480.223 140.7 480.086 140.163 479.812 139.692C479.527 139.21 479.133 138.838 478.629 138.575C478.125 138.301 477.556 138.164 476.92 138.164C476.285 138.164 475.726 138.296 475.244 138.558C474.762 138.821 474.39 139.194 474.127 139.676C473.853 140.147 473.716 140.689 473.716 141.302C473.716 141.916 473.853 142.464 474.127 142.946C474.39 143.417 474.762 143.789 475.244 144.063C475.726 144.326 476.285 144.457 476.92 144.457C477.556 144.457 478.125 144.326 478.629 144.063C479.133 143.789 479.527 143.411 479.812 142.929C480.086 142.447 480.223 141.905 480.223 141.302ZM481.176 130.915C481.176 131.748 480.99 132.498 480.617 133.166C480.234 133.834 479.708 134.36 479.04 134.744C478.372 135.127 477.616 135.319 476.772 135.319C475.929 135.319 475.173 135.127 474.505 134.744C473.837 134.36 473.316 133.834 472.944 133.166C472.572 132.498 472.385 131.748 472.385 130.915C472.385 130.083 472.572 129.332 472.944 128.664C473.316 127.996 473.837 127.476 474.505 127.103C475.173 126.72 475.929 126.528 476.772 126.528C477.616 126.528 478.372 126.72 479.04 127.103C479.708 127.476 480.234 127.996 480.617 128.664C480.99 129.332 481.176 130.083 481.176 130.915ZM480.141 130.915C480.141 130.302 480.004 129.754 479.73 129.272C479.445 128.779 479.045 128.396 478.531 128.122C478.016 127.848 477.43 127.711 476.772 127.711C476.115 127.711 475.529 127.848 475.014 128.122C474.499 128.396 474.105 128.779 473.831 129.272C473.546 129.754 473.404 130.302 473.404 130.915C473.404 131.529 473.546 132.082 473.831 132.575C474.105 133.057 474.499 133.44 475.014 133.725C475.529 133.999 476.115 134.136 476.772 134.136C477.43 134.136 478.016 133.999 478.531 133.725C479.045 133.44 479.445 133.057 479.73 132.575C480.004 132.082 480.141 131.529 480.141 130.915ZM472.451 124.035V122.868H479.319L472.451 117.101V116.066H481.094V117.232H474.226L481.094 122.983V124.035H472.451ZM471.202 120.108C471.202 120.853 471.016 121.444 470.644 121.882C470.271 122.321 469.745 122.545 469.066 122.556V121.718C469.494 121.707 469.839 121.554 470.101 121.258C470.353 120.962 470.479 120.579 470.479 120.108C470.479 119.637 470.353 119.253 470.101 118.958C469.839 118.651 469.494 118.492 469.066 118.481V117.643C469.745 117.654 470.271 117.884 470.644 118.333C471.016 118.771 471.202 119.363 471.202 120.108ZM472.451 112.723V111.556H476.279V106.117H472.451V104.951H481.094V106.117H477.282V111.556H481.094V112.723H472.451ZM472.451 101.635V100.468H479.319L472.451 94.701V93.6659H481.094V94.8325H474.226L481.094 100.583V101.635H472.451ZM477.249 87.1843V89.156H481.094V90.3226H472.451V89.156H476.247V87.1678L472.451 84.1281V82.8629L476.641 86.2641L481.094 82.6165V83.9967L477.249 87.1843Z" fill="#010101"/>
<path d="M177.602 313.86V325.361H176.403V320.054H169.206V325.361H167.99V313.86H169.206V318.986H176.403V313.86H177.602ZM184.179 316.653C185.307 316.653 186.173 316.938 186.775 317.507C187.378 318.066 187.679 318.898 187.679 320.005V325.361H186.562V324.014C186.299 324.463 185.91 324.814 185.395 325.066C184.891 325.318 184.289 325.443 183.588 325.443C182.624 325.443 181.857 325.213 181.287 324.753C180.718 324.293 180.433 323.685 180.433 322.93C180.433 322.196 180.696 321.604 181.222 321.155C181.758 320.706 182.607 320.481 183.768 320.481H186.512V319.956C186.512 319.211 186.304 318.647 185.888 318.263C185.472 317.869 184.864 317.672 184.064 317.672C183.516 317.672 182.991 317.765 182.487 317.951C181.983 318.126 181.55 318.373 181.189 318.69L180.663 317.82C181.101 317.447 181.627 317.162 182.24 316.965C182.854 316.757 183.5 316.653 184.179 316.653ZM183.768 324.523C184.426 324.523 184.99 324.375 185.461 324.08C185.932 323.773 186.282 323.335 186.512 322.765V321.352H183.801C182.322 321.352 181.583 321.867 181.583 322.897C181.583 323.401 181.775 323.8 182.158 324.096C182.541 324.381 183.078 324.523 183.768 324.523ZM194.399 325.443C193.545 325.443 192.778 325.257 192.099 324.885C191.431 324.512 190.905 323.992 190.522 323.324C190.138 322.645 189.946 321.883 189.946 321.04C189.946 320.197 190.138 319.441 190.522 318.773C190.905 318.104 191.431 317.584 192.099 317.212C192.778 316.839 193.545 316.653 194.399 316.653C195.144 316.653 195.807 316.801 196.387 317.097C196.979 317.381 197.444 317.803 197.784 318.362L196.913 318.953C196.628 318.526 196.267 318.208 195.829 318C195.391 317.781 194.914 317.672 194.399 317.672C193.775 317.672 193.211 317.814 192.707 318.099C192.214 318.373 191.825 318.767 191.54 319.282C191.266 319.797 191.129 320.383 191.129 321.04C191.129 321.708 191.266 322.3 191.54 322.815C191.825 323.318 192.214 323.713 192.707 323.998C193.211 324.271 193.775 324.408 194.399 324.408C194.914 324.408 195.391 324.304 195.829 324.096C196.267 323.888 196.628 323.57 196.913 323.143L197.784 323.735C197.444 324.293 196.979 324.721 196.387 325.016C195.796 325.301 195.133 325.443 194.399 325.443ZM203.464 325.443C202.631 325.443 201.881 325.257 201.213 324.885C200.545 324.501 200.019 323.976 199.636 323.307C199.252 322.639 199.06 321.883 199.06 321.04C199.06 320.197 199.252 319.441 199.636 318.773C200.019 318.104 200.545 317.584 201.213 317.212C201.881 316.839 202.631 316.653 203.464 316.653C204.296 316.653 205.047 316.839 205.715 317.212C206.383 317.584 206.904 318.104 207.276 318.773C207.659 319.441 207.851 320.197 207.851 321.04C207.851 321.883 207.659 322.639 207.276 323.307C206.904 323.976 206.383 324.501 205.715 324.885C205.047 325.257 204.296 325.443 203.464 325.443ZM203.464 324.408C204.077 324.408 204.625 324.271 205.107 323.998C205.6 323.713 205.983 323.313 206.257 322.798C206.531 322.283 206.668 321.697 206.668 321.04C206.668 320.383 206.531 319.797 206.257 319.282C205.983 318.767 205.6 318.373 205.107 318.099C204.625 317.814 204.077 317.672 203.464 317.672C202.851 317.672 202.297 317.814 201.804 318.099C201.322 318.373 200.939 318.767 200.654 319.282C200.38 319.797 200.244 320.383 200.244 321.04C200.244 321.697 200.38 322.283 200.654 322.798C200.939 323.313 201.322 323.713 201.804 323.998C202.297 324.271 202.851 324.408 203.464 324.408ZM213.959 325.443C213.105 325.443 212.338 325.257 211.659 324.885C210.991 324.512 210.465 323.992 210.081 323.324C209.698 322.645 209.506 321.883 209.506 321.04C209.506 320.197 209.698 319.441 210.081 318.773C210.465 318.104 210.991 317.584 211.659 317.212C212.338 316.839 213.105 316.653 213.959 316.653C214.704 316.653 215.367 316.801 215.947 317.097C216.539 317.381 217.004 317.803 217.344 318.362L216.473 318.953C216.188 318.526 215.827 318.208 215.389 318C214.95 317.781 214.474 317.672 213.959 317.672C213.335 317.672 212.771 317.814 212.267 318.099C211.774 318.373 211.385 318.767 211.1 319.282C210.826 319.797 210.689 320.383 210.689 321.04C210.689 321.708 210.826 322.3 211.1 322.815C211.385 323.318 211.774 323.713 212.267 323.998C212.771 324.271 213.335 324.408 213.959 324.408C214.474 324.408 214.95 324.304 215.389 324.096C215.827 323.888 216.188 323.57 216.473 323.143L217.344 323.735C217.004 324.293 216.539 324.721 215.947 325.016C215.356 325.301 214.693 325.443 213.959 325.443Z" fill="#010101"/>
<path d="M215.114 85.7202H179.705C176.62 85.7202 174.119 88.2214 174.119 91.3067V103.416C174.119 106.502 176.62 109.003 179.705 109.003H215.114C218.199 109.003 220.7 106.502 220.7 103.416V91.3067C220.7 88.2214 218.199 85.7202 215.114 85.7202Z" stroke="#010101" stroke-width="1.64309" stroke-miterlimit="10"/>
<path d="M215.114 118.319H179.705C176.62 118.319 174.119 120.821 174.119 123.906V136.015C174.119 139.101 176.62 141.602 179.705 141.602H215.114C218.199 141.602 220.701 139.101 220.701 136.015V123.906C220.701 120.821 218.199 118.319 215.114 118.319Z" stroke="#010101" stroke-width="1.64309" stroke-miterlimit="10"/>
<path d="M215.114 150.934H179.705C176.62 150.934 174.119 153.435 174.119 156.521V168.63C174.119 171.716 176.62 174.217 179.705 174.217H215.114C218.199 174.217 220.701 171.716 220.701 168.63V156.521C220.701 153.435 218.199 150.934 215.114 150.934Z" stroke="#010101" stroke-width="1.64309" stroke-miterlimit="10"/>
<path d="M215.114 183.533H179.705C176.62 183.533 174.119 186.034 174.119 189.12V201.229C174.119 204.315 176.62 206.816 179.705 206.816H215.114C218.199 206.816 220.701 204.315 220.701 201.229V189.12C220.701 186.034 218.199 183.533 215.114 183.533Z" stroke="#010101" stroke-width="1.64309" stroke-miterlimit="10"/>
<path d="M215.114 216.132H179.705C176.62 216.132 174.119 218.634 174.119 221.719V233.828C174.119 236.914 176.62 239.415 179.705 239.415H215.114C218.199 239.415 220.701 236.914 220.701 233.828V221.719C220.701 218.634 218.199 216.132 215.114 216.132Z" stroke="#010101" stroke-width="1.64309" stroke-miterlimit="10"/>
<path d="M284.978 85.7202H249.57C246.484 85.7202 243.983 88.2214 243.983 91.3067V103.416C243.983 106.502 246.484 109.003 249.57 109.003H284.978C288.064 109.003 290.565 106.502 290.565 103.416V91.3067C290.565 88.2214 288.064 85.7202 284.978 85.7202Z" stroke="#010101" stroke-width="1.64309" stroke-miterlimit="10"/>
<path d="M284.979 118.319H249.57C246.485 118.319 243.983 120.821 243.983 123.906V136.015C243.983 139.101 246.485 141.602 249.57 141.602H284.979C288.064 141.602 290.565 139.101 290.565 136.015V123.906C290.565 120.821 288.064 118.319 284.979 118.319Z" stroke="#010101" stroke-width="1.64309" stroke-miterlimit="10"/>
<path d="M284.979 150.934H249.57C246.485 150.934 243.983 153.435 243.983 156.521V168.63C243.983 171.716 246.485 174.217 249.57 174.217H284.979C288.064 174.217 290.565 171.716 290.565 168.63V156.521C290.565 153.435 288.064 150.934 284.979 150.934Z" stroke="#010101" stroke-width="1.64309" stroke-miterlimit="10"/>
<path d="M284.979 183.533H249.57C246.485 183.533 243.983 186.034 243.983 189.12V201.229C243.983 204.315 246.485 206.816 249.57 206.816H284.979C288.064 206.816 290.565 204.315 290.565 201.229V189.12C290.565 186.034 288.064 183.533 284.979 183.533Z" stroke="#010101" stroke-width="1.64309" stroke-miterlimit="10"/>
<path d="M284.979 216.132H249.57C246.485 216.132 243.983 218.634 243.983 221.719V233.828C243.983 236.914 246.485 239.415 249.57 239.415H284.979C288.064 239.415 290.565 236.914 290.565 233.828V221.719C290.565 218.634 288.064 216.132 284.979 216.132Z" stroke="#010101" stroke-width="1.64309" stroke-miterlimit="10"/>
<path d="M354.843 85.7202H319.434C316.349 85.7202 313.847 88.2214 313.847 91.3067V103.416C313.847 106.502 316.349 109.003 319.434 109.003H354.843C357.928 109.003 360.429 106.502 360.429 103.416V91.3067C360.429 88.2214 357.928 85.7202 354.843 85.7202Z" stroke="#010101" stroke-width="1.64309" stroke-miterlimit="10"/>
<path d="M354.843 118.319H319.434C316.349 118.319 313.848 120.821 313.848 123.906V136.015C313.848 139.101 316.349 141.602 319.434 141.602H354.843C357.928 141.602 360.429 139.101 360.429 136.015V123.906C360.429 120.821 357.928 118.319 354.843 118.319Z" stroke="#010101" stroke-width="1.64309" stroke-miterlimit="10"/>
<path d="M354.843 150.934H319.434C316.349 150.934 313.848 153.435 313.848 156.521V168.63C313.848 171.716 316.349 174.217 319.434 174.217H354.843C357.928 174.217 360.429 171.716 360.429 168.63V156.521C360.429 153.435 357.928 150.934 354.843 150.934Z" stroke="#010101" stroke-width="1.64309" stroke-miterlimit="10"/>
<path d="M354.843 183.533H319.434C316.349 183.533 313.848 186.034 313.848 189.12V201.229C313.848 204.315 316.349 206.816 319.434 206.816H354.843C357.928 206.816 360.429 204.315 360.429 201.229V189.12C360.429 186.034 357.928 183.533 354.843 183.533Z" stroke="#010101" stroke-width="1.64309" stroke-miterlimit="10"/>
<path d="M354.843 216.132H319.434C316.349 216.132 313.848 218.634 313.848 221.719V233.828C313.848 236.914 316.349 239.415 319.434 239.415H354.843C357.928 239.415 360.429 236.914 360.429 233.828V221.719C360.429 218.634 357.928 216.132 354.843 216.132Z" stroke="#010101" stroke-width="1.64309" stroke-miterlimit="10"/>
<path d="M424.707 85.7202H389.298C386.213 85.7202 383.712 88.2214 383.712 91.3067V103.416C383.712 106.502 386.213 109.003 389.298 109.003H424.707C427.792 109.003 430.293 106.502 430.293 103.416V91.3067C430.293 88.2214 427.792 85.7202 424.707 85.7202Z" stroke="#010101" stroke-width="1.64309" stroke-miterlimit="10"/>
<path d="M424.707 118.319H389.298C386.213 118.319 383.711 120.821 383.711 123.906V136.015C383.711 139.101 386.213 141.602 389.298 141.602H424.707C427.792 141.602 430.293 139.101 430.293 136.015V123.906C430.293 120.821 427.792 118.319 424.707 118.319Z" stroke="#010101" stroke-width="1.64309" stroke-miterlimit="10"/>
<path d="M424.707 150.934H389.298C386.213 150.934 383.711 153.435 383.711 156.521V168.63C383.711 171.716 386.213 174.217 389.298 174.217H424.707C427.792 174.217 430.293 171.716 430.293 168.63V156.521C430.293 153.435 427.792 150.934 424.707 150.934Z" stroke="#010101" stroke-width="1.64309" stroke-miterlimit="10"/>
<path d="M424.707 183.533H389.298C386.213 183.533 383.711 186.034 383.711 189.12V201.229C383.711 204.315 386.213 206.816 389.298 206.816H424.707C427.792 206.816 430.293 204.315 430.293 201.229V189.12C430.293 186.034 427.792 183.533 424.707 183.533Z" stroke="#010101" stroke-width="1.64309" stroke-miterlimit="10"/>
<path d="M424.707 216.132H389.298C386.213 216.132 383.711 218.634 383.711 221.719V233.828C383.711 236.914 386.213 239.415 389.298 239.415H424.707C427.792 239.415 430.293 236.914 430.293 233.828V221.719C430.293 218.634 427.792 216.132 424.707 216.132Z" stroke="#010101" stroke-width="1.64309" stroke-miterlimit="10"/>
<path d="M145.052 248.929H498.58" stroke="#010101" stroke-width="1.64309" stroke-miterlimit="10"/>
<path d="M455.169 56.4238V248.238" stroke="#010101" stroke-width="1.64309" stroke-miterlimit="10"/>
<path d="M203.481 278.011H218.482" stroke="#010101" stroke-width="0.821546" stroke-miterlimit="10"/>
<path d="M234.174 278.011H263.487" stroke="#010101" stroke-width="0.821546" stroke-miterlimit="10"/>
<path d="M301.146 278.011H329.407" stroke="#010101" stroke-width="0.821546" stroke-miterlimit="10"/>
<path d="M352.082 278.011H381.378" stroke="#010101" stroke-width="0.821546" stroke-miterlimit="10"/>
<path d="M410.675 278.011H426.021" stroke="#010101" stroke-width="0.821546" stroke-miterlimit="10"/>
<path d="M447.118 278.011H476.415" stroke="#010101" stroke-width="0.821546" stroke-miterlimit="10"/>
<path d="M153.301 270.798H196.563" stroke="#010101" stroke-width="0.821546" stroke-miterlimit="10"/>
<path d="M227.602 270.798H242.258" stroke="#010101" stroke-width="0.821546" stroke-miterlimit="10"/>
<path d="M271.9 270.798H315.852" stroke="#010101" stroke-width="0.821546" stroke-miterlimit="10"/>
<path d="M330.509 270.798H359.805" stroke="#010101" stroke-width="0.821546" stroke-miterlimit="10"/>
<path d="M389.808 270.798H433.81" stroke="#010101" stroke-width="0.821546" stroke-miterlimit="10"/>
<path d="M473.178 270.798H484.335" stroke="#010101" stroke-width="0.821546" stroke-miterlimit="10"/>
<path d="M494.702 285.225H451.456" stroke="#010101" stroke-width="0.821546" stroke-miterlimit="10"/>
<path d="M410.559 285.225H395.903" stroke="#010101" stroke-width="0.821546" stroke-miterlimit="10"/>
<path d="M364.601 285.225H320.649" stroke="#010101" stroke-width="0.821546" stroke-miterlimit="10"/>
<path d="M296.151 285.225H266.854" stroke="#010101" stroke-width="0.821546" stroke-miterlimit="10"/>
<path d="M230.279 285.225H186.277" stroke="#010101" stroke-width="0.821546" stroke-miterlimit="10"/>
<path d="M164.983 285.225H153.826" stroke="#010101" stroke-width="0.821546" stroke-miterlimit="10"/>
<path d="M119.436 243.309C117.925 243.408 117.596 243.95 117.596 245.609C117.596 246.02 117.596 246.431 117.596 246.842V250.999H114.934C114.901 250.752 114.868 250.522 114.852 250.309C114.655 248.945 113.718 247.992 112.338 247.926C110.843 247.86 109.331 247.86 107.836 247.926C106.456 247.992 105.47 249.076 105.355 250.424C105.355 250.604 105.322 250.785 105.306 250.999H101.576C101.576 250.292 101.576 249.618 101.576 248.945C101.51 246.316 99.4069 244.229 96.7779 244.18C95.6113 244.163 94.4612 244.18 93.2946 244.18C90.2548 244.18 88.201 246.234 88.1845 249.273C88.1845 249.865 88.1845 250.473 88.1845 251.048C79.7391 251.853 73.331 258.639 72.8545 266.838C72.6409 270.634 73.5939 274.133 75.7463 277.272C78.7368 281.593 82.9267 283.976 88.1024 284.583V290.827H87.248C83.1074 290.827 78.9668 290.827 74.8262 290.827C74.4647 290.827 74.0868 290.86 73.7582 290.959C73.1338 291.172 72.7559 291.813 72.8381 292.437C72.9202 293.111 73.446 293.637 74.1361 293.703C74.3497 293.719 74.5633 293.703 74.7934 293.703C98.2731 293.703 121.769 293.703 145.249 293.703C146.136 293.703 146.81 293.456 147.221 292.651V291.78C146.761 290.975 146.054 290.762 145.151 290.762C130.593 290.778 116.051 290.762 101.494 290.762H100.508V284.6H105.322C105.338 284.863 105.355 285.109 105.388 285.339C105.568 286.654 106.669 287.656 108.033 287.689C109.315 287.722 110.596 287.689 111.878 287.689C113.652 287.689 114.671 286.785 114.901 285.027C114.918 284.896 114.951 284.748 114.983 284.534H115.871C122.016 284.534 128.161 284.534 134.323 284.534C136.426 284.534 136.738 284.222 136.738 282.152C136.738 280.492 136.738 278.816 136.738 277.058H137.559C140.123 277.058 142.686 277.025 145.266 277.058C146.153 277.058 146.81 276.812 147.254 276.023V259.461C146.876 258.672 146.251 258.393 145.381 258.409C142.785 258.442 140.205 258.409 137.609 258.409H136.754V253.463C136.754 251.147 136.508 250.9 134.158 250.9H130.691C130.691 248.863 130.691 246.907 130.691 244.969C130.691 243.868 130.231 243.21 128.9 243.178C126.584 243.194 119.995 243.145 119.502 243.178L119.436 243.309ZM91.1421 248.633C91.2243 247.828 92.013 247.154 92.8674 247.121C94.1983 247.072 95.5292 247.072 96.8601 247.121C97.7966 247.154 98.5689 247.893 98.651 248.813C98.7168 249.52 98.651 250.243 98.651 251.015H91.1257C91.1257 250.194 91.06 249.405 91.1421 248.633ZM97.5009 290.794H91.1093V284.699H97.5009V290.794ZM105.306 281.692C105.043 281.692 104.813 281.725 104.566 281.725C99.6698 281.725 94.7898 281.741 89.8934 281.725C83.0745 281.692 77.603 277.42 76.075 270.979C74.1361 262.895 79.9198 254.811 88.201 254.022C88.8254 253.956 89.4497 253.94 90.0905 253.923C94.8555 253.923 99.6205 253.923 104.402 253.923H105.322V281.675L105.306 281.692ZM136.738 261.482H144.23V274.216H136.738V261.482ZM120.537 246.382H127.684V251.015H120.537V246.382ZM133.731 254.006C133.731 254.252 133.764 254.515 133.764 254.778C133.764 263.519 133.764 272.26 133.764 281.002C133.764 281.462 133.764 281.774 133.14 281.774C127.208 281.757 121.276 281.774 115.345 281.774C115.23 281.774 115.098 281.757 114.901 281.741C114.901 281.494 114.868 281.232 114.868 280.985C114.868 278.981 114.868 276.96 114.868 274.955C114.868 274.692 114.868 274.413 114.819 274.166C114.671 273.41 114.08 272.95 113.307 273C112.601 273.033 112.026 273.558 111.993 274.298C111.944 275.53 111.96 276.762 111.96 277.995C111.96 280.032 111.96 282.07 111.96 284.091V284.912H108.263V250.9H111.927C111.927 251.179 111.96 251.442 111.96 251.705C111.96 254.729 111.96 257.752 111.96 260.792C111.96 261.087 111.96 261.383 112.009 261.662C112.124 262.336 112.699 262.829 113.373 262.845C114.014 262.862 114.622 262.435 114.77 261.794C114.852 261.498 114.852 261.169 114.852 260.857C114.852 258.869 114.852 256.881 114.852 254.909V254.071H133.715L133.731 254.006Z" fill="black"/>
<path d="M100.13 259.148C98.9307 259.148 97.7148 259.148 96.5154 259.148C95.5952 259.148 94.938 259.773 94.938 260.578C94.938 261.399 95.5788 262.007 96.5154 262.04C97.1233 262.057 97.7148 262.04 98.3228 262.04C98.8978 262.04 99.4729 262.04 100.064 262.04C100.114 262.04 100.163 262.04 100.212 262.04C101.083 261.974 101.691 261.35 101.675 260.545C101.658 259.74 101.034 259.148 100.147 259.132L100.13 259.148Z" fill="black"/>
<path d="M96.5645 266.411C96.5645 266.411 96.4659 266.411 96.4166 266.411C95.5786 266.46 94.9707 267.019 94.9378 267.791C94.9049 268.58 95.5129 269.27 96.3837 269.287C97.6653 269.319 98.9469 269.319 100.212 269.287C101.083 269.27 101.674 268.596 101.658 267.791C101.625 267.019 101.034 266.428 100.179 266.411C99.5549 266.395 98.9305 266.411 98.2897 266.411C97.7146 266.411 97.1395 266.411 96.548 266.411H96.5645Z" fill="black"/>
<path d="M100.097 273.674C98.8976 273.657 97.6817 273.657 96.4822 273.674C95.595 273.674 94.9706 274.265 94.9377 275.07C94.9049 275.892 95.5457 276.533 96.4658 276.566C97.0738 276.582 97.6653 276.566 98.2732 276.566C98.8483 276.566 99.4234 276.566 100.015 276.566C100.031 276.566 100.064 276.566 100.081 276.566C101.017 276.533 101.642 275.958 101.658 275.12C101.658 274.298 101.034 273.674 100.113 273.657L100.097 273.674Z" fill="black"/>
<path d="M113.423 266.411C112.618 266.411 111.993 267.019 111.993 267.824C111.993 268.629 112.601 269.27 113.39 269.302C114.178 269.335 114.885 268.645 114.869 267.84C114.869 267.051 114.228 266.411 113.423 266.411Z" fill="black"/>
<path d="M123.725 244.837V50.6567" stroke="#010101" stroke-width="3.28618" stroke-miterlimit="10"/>
<path d="M130.001 43.542H377.714" stroke="#010101" stroke-width="3.28618" stroke-miterlimit="10"/>
<path d="M123.725 50.9359C123.725 46.8446 126.551 43.542 130.051 43.542" stroke="#010101" stroke-width="3.28618" stroke-miterlimit="10"/>
<path d="M376.876 44.3635V65.2308H367.165V44.3635H376.876ZM377.697 43.542H366.344V66.0524H377.697V43.542Z" fill="#010101"/>
<path d="M376.35 66.8411L374.428 70.6695H369.712L367.707 66.8411H376.366M377.697 66.0195H366.344L369.219 71.491H374.953L377.697 66.0195Z" fill="#010101"/>
<path d="M306.831 44.3635V65.2308H297.12V44.3635H306.831ZM307.652 43.542H296.299V66.0524H307.652V43.542Z" fill="#010101"/>
<path d="M306.321 66.8411L304.399 70.6695H299.683L297.678 66.8411H306.338M307.668 66.0195H296.315L299.19 71.491H304.925L307.668 66.0195Z" fill="#010101"/>
<path d="M237.18 44.3635V65.2308H227.469V44.3635H237.18ZM238.001 43.542H226.648V66.0524H238.001V43.542Z" fill="#010101"/>
<path d="M236.67 66.8411L234.748 70.6695H230.032L228.028 66.8411H236.687M238.018 66.0195H226.664L229.539 71.491H235.257L238.001 66.0195H238.018Z" fill="#010101"/>
<path d="M232.464 73.3638V78.0137" stroke="#010101" stroke-width="0.821546" stroke-miterlimit="10" stroke-linecap="round"/>
<path d="M232.464 80.3467V85.0131" stroke="#010101" stroke-width="0.821546" stroke-miterlimit="10" stroke-linecap="round"/>
<path d="M232.464 73.3638V78.0137" stroke="#010101" stroke-width="0.821546" stroke-miterlimit="10" stroke-linecap="round"/>
<path d="M232.464 80.3467V85.0131" stroke="#010101" stroke-width="0.821546" stroke-miterlimit="10" stroke-linecap="round"/>
<path d="M234.337 73.3638L236.671 77.3893" stroke="#010101" stroke-width="0.821546" stroke-miterlimit="10" stroke-linecap="round"/>
<path d="M237.837 79.4102L240.17 83.4522" stroke="#010101" stroke-width="0.821546" stroke-miterlimit="10" stroke-linecap="round"/>
<path d="M234.337 73.3638L236.671 77.3893" stroke="#010101" stroke-width="0.821546" stroke-miterlimit="10" stroke-linecap="round"/>
<path d="M237.837 79.4102L240.17 83.4522" stroke="#010101" stroke-width="0.821546" stroke-miterlimit="10" stroke-linecap="round"/>
<path d="M230.312 73.3638L227.979 77.3893" stroke="#010101" stroke-width="0.821546" stroke-miterlimit="10" stroke-linecap="round"/>
<path d="M226.812 79.4102L224.495 83.4522" stroke="#010101" stroke-width="0.821546" stroke-miterlimit="10" stroke-linecap="round"/>
<path d="M230.312 73.3638L227.979 77.3893" stroke="#010101" stroke-width="0.821546" stroke-miterlimit="10" stroke-linecap="round"/>
<path d="M226.812 79.4102L224.495 83.4522" stroke="#010101" stroke-width="0.821546" stroke-miterlimit="10" stroke-linecap="round"/>
<path d="M302.115 73.3638V78.0137" stroke="#010101" stroke-width="0.821546" stroke-miterlimit="10" stroke-linecap="round"/>
<path d="M302.115 80.3467V85.0131" stroke="#010101" stroke-width="0.821546" stroke-miterlimit="10" stroke-linecap="round"/>
<path d="M302.115 73.3638V78.0137" stroke="#010101" stroke-width="0.821546" stroke-miterlimit="10" stroke-linecap="round"/>
<path d="M302.115 80.3467V85.0131" stroke="#010101" stroke-width="0.821546" stroke-miterlimit="10" stroke-linecap="round"/>
<path d="M303.988 73.3638L306.321 77.3893" stroke="#010101" stroke-width="0.821546" stroke-miterlimit="10" stroke-linecap="round"/>
<path d="M307.487 79.4102L309.82 83.4522" stroke="#010101" stroke-width="0.821546" stroke-miterlimit="10" stroke-linecap="round"/>
<path d="M303.988 73.3638L306.321 77.3893" stroke="#010101" stroke-width="0.821546" stroke-miterlimit="10" stroke-linecap="round"/>
<path d="M307.487 79.4102L309.82 83.4522" stroke="#010101" stroke-width="0.821546" stroke-miterlimit="10" stroke-linecap="round"/>
<path d="M299.963 73.3638L297.629 77.3893" stroke="#010101" stroke-width="0.821546" stroke-miterlimit="10" stroke-linecap="round"/>
<path d="M296.462 79.4102L294.146 83.4522" stroke="#010101" stroke-width="0.821546" stroke-miterlimit="10" stroke-linecap="round"/>
<path d="M299.963 73.3638L297.629 77.3893" stroke="#010101" stroke-width="0.821546" stroke-miterlimit="10" stroke-linecap="round"/>
<path d="M296.462 79.4102L294.146 83.4522" stroke="#010101" stroke-width="0.821546" stroke-miterlimit="10" stroke-linecap="round"/>
<path d="M372.144 73.3638V78.0137" stroke="#010101" stroke-width="0.821546" stroke-miterlimit="10" stroke-linecap="round"/>
<path d="M372.144 80.3467V85.0131" stroke="#010101" stroke-width="0.821546" stroke-miterlimit="10" stroke-linecap="round"/>
<path d="M372.144 73.3638V78.0137" stroke="#010101" stroke-width="0.821546" stroke-miterlimit="10" stroke-linecap="round"/>
<path d="M372.144 80.3467V85.0131" stroke="#010101" stroke-width="0.821546" stroke-miterlimit="10" stroke-linecap="round"/>
<path d="M374.033 73.3638L376.366 77.3893" stroke="#010101" stroke-width="0.821546" stroke-miterlimit="10" stroke-linecap="round"/>
<path d="M377.517 79.4102L379.85 83.4522" stroke="#010101" stroke-width="0.821546" stroke-miterlimit="10" stroke-linecap="round"/>
<path d="M374.033 73.3638L376.366 77.3893" stroke="#010101" stroke-width="0.821546" stroke-miterlimit="10" stroke-linecap="round"/>
<path d="M377.517 79.4102L379.85 83.4522" stroke="#010101" stroke-width="0.821546" stroke-miterlimit="10" stroke-linecap="round"/>
<path d="M369.991 73.3638L367.674 77.3893" stroke="#010101" stroke-width="0.821546" stroke-miterlimit="10" stroke-linecap="round"/>
<path d="M366.508 79.4102L364.175 83.4522" stroke="#010101" stroke-width="0.821546" stroke-miterlimit="10" stroke-linecap="round"/>
<path d="M369.991 73.3638L367.674 77.3893" stroke="#010101" stroke-width="0.821546" stroke-miterlimit="10" stroke-linecap="round"/>
<path d="M366.508 79.4102L364.175 83.4522" stroke="#010101" stroke-width="0.821546" stroke-miterlimit="10" stroke-linecap="round"/>
<path d="M559.916 107.409L500.535 78.6382V54.9448H147.139V54.8955L147.073 54.9448H143.902L87.7576 94.2476L87.8233 211.252L143.902 247.022V293.801H500.552V227.798L559.999 197.877H600.764V167.513H599.121V194.575H597.478H560.541V168.482H558.898V195.117L500.601 224.101V82.3187L558.898 110.218V137.132H560.541V110.695H597.478L599.121 110.711V136.179H600.764V107.409H559.916ZM91.1095 209.478L91.0438 96.0385L143.82 58.5267L143.853 243.128L91.1095 209.478ZM497.265 290.531H147.172V58.2474H497.249V290.531H497.265Z" fill="#010101"/>
<path d="M560.475 146.087H558.832V157.95H560.475V146.087Z" fill="#010101"/>
<path d="M322.309 339.2H500.174" stroke="#010101" stroke-width="0.821546" stroke-miterlimit="10"/>
<path d="M264.916 281.561L322.539 339.2" stroke="#010101" stroke-width="0.821546" stroke-miterlimit="10"/>
<path d="M165.541 339.2H218.892" stroke="#010101" stroke-width="0.821546" stroke-miterlimit="10"/>
<path d="M107.228 280.64L165.788 339.2" stroke="#010101" stroke-width="0.821546" stroke-miterlimit="10"/>
<path d="M396.28 23.0361H484.876" stroke="#010101" stroke-width="0.821546" stroke-miterlimit="10"/>
<path d="M376.925 42.6218L396.527 23.0361" stroke="#010101" stroke-width="0.821546" stroke-miterlimit="10"/>
<path d="M255.435 23.0361H327.83" stroke="#010101" stroke-width="0.821546" stroke-miterlimit="10"/>
<path d="M189.202 89.5156L255.681 23.0361" stroke="#010101" stroke-width="0.821546" stroke-miterlimit="10"/>
<path d="M266.821 2.034V13.5356H265.622V8.22846H258.425V13.5356H257.209V2.034H258.425V7.16045H265.622V2.034H266.821ZM273.399 4.82726C274.527 4.82726 275.392 5.11206 275.995 5.68166C276.597 6.24032 276.898 7.07282 276.898 8.17916V13.5356H275.781V12.1883C275.518 12.6374 275.129 12.9879 274.614 13.2399C274.111 13.4918 273.508 13.6178 272.807 13.6178C271.843 13.6178 271.076 13.3878 270.507 12.9277C269.937 12.4676 269.652 11.8597 269.652 11.1039C269.652 10.37 269.915 9.77844 270.441 9.32933C270.978 8.88022 271.827 8.65566 272.988 8.65566H275.732V8.12987C275.732 7.385 275.524 6.82088 275.107 6.43749C274.691 6.04314 274.083 5.84597 273.284 5.84597C272.736 5.84597 272.21 5.93908 271.706 6.1253C271.202 6.30056 270.77 6.54703 270.408 6.86469L269.882 5.99385C270.321 5.62142 270.846 5.33662 271.46 5.13944C272.073 4.93132 272.719 4.82726 273.399 4.82726ZM272.988 12.6977C273.645 12.6977 274.209 12.5498 274.68 12.254C275.151 11.9473 275.502 11.5092 275.732 10.9396V9.5265H273.021C271.542 9.5265 270.802 10.0413 270.802 11.071C270.802 11.5749 270.994 11.9747 271.378 12.2705C271.761 12.5553 272.298 12.6977 272.988 12.6977ZM283.619 13.6178C282.764 13.6178 281.998 13.4316 281.318 13.0591C280.65 12.6867 280.124 12.1664 279.741 11.4982C279.358 10.8191 279.166 10.0578 279.166 9.21431C279.166 8.37086 279.358 7.61504 279.741 6.94685C280.124 6.27865 280.65 5.75834 281.318 5.38591C281.998 5.01347 282.764 4.82726 283.619 4.82726C284.364 4.82726 285.026 4.97513 285.607 5.27089C286.198 5.55569 286.664 5.97742 287.003 6.53607L286.133 7.12759C285.848 6.70038 285.486 6.38272 285.048 6.17459C284.61 5.95551 284.134 5.84597 283.619 5.84597C282.994 5.84597 282.43 5.98837 281.926 6.27318C281.433 6.54703 281.045 6.94137 280.76 7.4562C280.486 7.97104 280.349 8.55708 280.349 9.21431C280.349 9.8825 280.486 10.474 280.76 10.9889C281.045 11.4927 281.433 11.8871 281.926 12.1719C282.43 12.4457 282.994 12.5827 283.619 12.5827C284.134 12.5827 284.61 12.4786 285.048 12.2705C285.486 12.0623 285.848 11.7447 286.133 11.3175L287.003 11.909C286.664 12.4676 286.198 12.8948 285.607 13.1906C285.015 13.4754 284.353 13.6178 283.619 13.6178ZM292.236 4.82726C293.365 4.82726 294.23 5.11206 294.832 5.68166C295.435 6.24032 295.736 7.07282 295.736 8.17916V13.5356H294.619V12.1883C294.356 12.6374 293.967 12.9879 293.452 13.2399C292.948 13.4918 292.346 13.6178 291.645 13.6178C290.681 13.6178 289.914 13.3878 289.345 12.9277C288.775 12.4676 288.49 11.8597 288.49 11.1039C288.49 10.37 288.753 9.77844 289.279 9.32933C289.816 8.88022 290.664 8.65566 291.826 8.65566H294.57V8.12987C294.57 7.385 294.361 6.82088 293.945 6.43749C293.529 6.04314 292.921 5.84597 292.121 5.84597C291.574 5.84597 291.048 5.93908 290.544 6.1253C290.04 6.30056 289.607 6.54703 289.246 6.86469L288.72 5.99385C289.158 5.62142 289.684 5.33662 290.298 5.13944C290.911 4.93132 291.557 4.82726 292.236 4.82726ZM291.826 12.6977C292.483 12.6977 293.047 12.5498 293.518 12.254C293.989 11.9473 294.34 11.5092 294.57 10.9396V9.5265H291.858C290.38 9.5265 289.64 10.0413 289.64 11.071C289.64 11.5749 289.832 11.9747 290.215 12.2705C290.599 12.5553 291.135 12.6977 291.826 12.6977ZM307.271 12.5169V15.6224H306.17V13.5356H298.431V15.6224H297.33V12.5169H297.823C298.404 12.4841 298.798 12.0569 299.006 11.2353C299.214 10.4138 299.357 9.26361 299.433 7.78482L299.548 4.89298H305.923V12.5169H307.271ZM300.501 7.85055C300.446 9.07739 300.342 10.0906 300.189 10.8903C300.036 11.679 299.762 12.2212 299.368 12.5169H304.757V5.92813H300.6L300.501 7.85055ZM312.683 9.69081H310.711V13.5356H309.544V4.89298H310.711V8.68852H312.699L315.739 4.89298H317.004L313.603 9.08286L317.25 13.5356H315.87L312.683 9.69081ZM321.905 4.82726C323.033 4.82726 323.899 5.11206 324.501 5.68166C325.104 6.24032 325.405 7.07282 325.405 8.17916V13.5356H324.288V12.1883C324.025 12.6374 323.636 12.9879 323.121 13.2399C322.617 13.4918 322.015 13.6178 321.314 13.6178C320.35 13.6178 319.583 13.3878 319.013 12.9277C318.444 12.4676 318.159 11.8597 318.159 11.1039C318.159 10.37 318.422 9.77844 318.948 9.32933C319.484 8.88022 320.333 8.65566 321.494 8.65566H324.238V8.12987C324.238 7.385 324.03 6.82088 323.614 6.43749C323.198 6.04314 322.59 5.84597 321.79 5.84597C321.242 5.84597 320.717 5.93908 320.213 6.1253C319.709 6.30056 319.276 6.54703 318.915 6.86469L318.389 5.99385C318.827 5.62142 319.353 5.33662 319.966 5.13944C320.58 4.93132 321.226 4.82726 321.905 4.82726ZM321.494 12.6977C322.152 12.6977 322.716 12.5498 323.187 12.254C323.658 11.9473 324.008 11.5092 324.238 10.9396V9.5265H321.527C320.048 9.5265 319.309 10.0413 319.309 11.071C319.309 11.5749 319.501 11.9747 319.884 12.2705C320.267 12.5553 320.804 12.6977 321.494 12.6977Z" fill="#010101"/>
<path d="M30.167 159.824H62.3059V176.222L95.7592 151.526L62.3059 126.847V143.245H30.167" fill="white"/>
<path d="M30.167 159.824H62.3059V176.222L95.7592 151.526L62.3059 126.847V143.245H30.167" stroke="#010101" stroke-width="1.64309" stroke-miterlimit="10"/>
<path d="M595.884 159.824H628.023V176.222L661.476 151.526L628.023 126.847V143.245H595.884" stroke="#009FE3" stroke-width="1.64309" stroke-miterlimit="10"/>
</g>
<defs>
<clipPath id="clip0_1060_3011">
<rect width="690" height="339.611" fill="white"/>
</clipPath>
</defs>
</svg>
