<svg width="505" height="340" viewBox="0 0 505 340" fill="none" xmlns="http://www.w3.org/2000/svg">
<path fill-rule="evenodd" clip-rule="evenodd" d="M53.2933 323.748C53.6211 324.745 54.0574 325.609 54.9394 326.225L54.9362 326.207C58.4744 329.046 60.6272 328.117 60.6272 328.117C62.7816 327.621 64.0218 326.647 65.0064 324.87L130.634 207.627L219.974 207.735L287.215 207.868L440.894 208.003L447.554 208.023C448.234 208.023 449.994 208.117 448.994 208.117L451.5 208.117L457.5 208.117L464.494 208.117C467.5 208 469.089 208 472.5 208C478.126 208 478.133 208 479.39 208.008L480.091 208.012L484.484 208.023L484.5 168.127L126.462 167.703C120.919 158.776 86.9495 103.869 73.9007 82.4999C71.2399 78.1297 64.8451 78.3047 62.4224 82.8055C56.1473 94.473 49.9732 106.179 44.7089 118.232C37.932 133.758 33.4794 149.85 31.4941 166.465C27.5396 199.787 29.9522 234.051 36.4689 267.02C39.5899 282.784 47.9249 308.062 53.2933 323.748ZM99.7369 228.252L60.4488 300.602C52.3794 284.774 46.1207 232.256 46.1207 232.256L99.7369 228.252ZM49.2309 214.442L98.0673 210.156L98.0449 186.059L49.1969 182.111L49.2309 214.442ZM48.7822 166.093C48.7822 166.093 59.8471 125.063 67.5987 113.114L99.6079 170.141L48.7822 166.093Z" fill="white"/>
<path d="M54.9394 326.225L54.4083 326.986C54.716 327.201 55.1227 327.209 55.4389 327.007C55.7551 326.805 55.9185 326.432 55.8528 326.063L54.9394 326.225ZM53.2933 323.748L54.1746 323.458L54.171 323.447L53.2933 323.748ZM54.9362 326.207L55.5167 325.483C55.2153 325.241 54.7955 325.212 54.463 325.409C54.1306 325.606 53.9552 325.989 54.0228 326.369L54.9362 326.207ZM60.6272 328.117L60.4192 327.213C60.3645 327.225 60.3112 327.243 60.2597 327.265L60.6272 328.117ZM65.0064 324.87L64.1969 324.417L64.195 324.42L65.0064 324.87ZM130.634 207.627L130.635 206.7C130.299 206.699 129.989 206.881 129.825 207.174L130.634 207.627ZM219.974 207.735L219.976 206.807L219.975 206.807L219.974 207.735ZM287.215 207.868L287.213 208.796L287.214 208.796L287.215 207.868ZM440.894 208.003L440.897 207.075L440.895 207.075L440.894 208.003ZM447.554 208.023L447.551 208.95L447.554 208.95L447.554 208.023ZM448.994 208.117L448.994 207.189C448.482 207.189 448.066 207.604 448.066 208.117C448.066 208.629 448.482 209.044 448.994 209.044L448.994 208.117ZM451.5 208.117L451.5 207.189L451.5 207.189L451.5 208.117ZM457.5 208.117L457.5 209.044L457.5 209.044L457.5 208.117ZM464.494 208.117L464.494 209.044C464.506 209.044 464.518 209.044 464.53 209.044L464.494 208.117ZM472.5 208L472.5 208.928L472.5 208.928L472.5 208ZM479.39 208.008L479.384 208.935L479.384 208.935L479.39 208.008ZM480.091 208.012L480.086 208.939L480.089 208.939L480.091 208.012ZM484.484 208.023L484.481 208.95C484.728 208.951 484.964 208.854 485.139 208.68C485.313 208.506 485.411 208.27 485.411 208.023L484.484 208.023ZM484.5 168.127L485.428 168.127C485.428 167.615 485.013 167.2 484.501 167.199L484.5 168.127ZM126.462 167.703L125.674 168.192C125.843 168.464 126.141 168.63 126.461 168.631L126.462 167.703ZM73.9007 82.4999L73.1083 82.9824L73.109 82.9834L73.9007 82.4999ZM62.4224 82.8055L61.6055 82.3658L61.6054 82.3661L62.4224 82.8055ZM44.7089 118.232L43.8587 117.861L43.8586 117.861L44.7089 118.232ZM31.4941 166.465L30.5729 166.355L30.5728 166.356L31.4941 166.465ZM36.4689 267.02L35.5588 267.199L35.5589 267.2L36.4689 267.02ZM60.4488 300.602L59.6223 301.023C59.7788 301.33 60.0923 301.525 60.4367 301.53C60.7811 301.534 61.0997 301.347 61.264 301.045L60.4488 300.602ZM99.7369 228.252L100.552 228.695C100.714 228.396 100.7 228.033 100.516 227.748C100.332 227.463 100.006 227.301 99.6678 227.327L99.7369 228.252ZM46.1207 232.256L46.0516 231.331C45.7992 231.35 45.5654 231.471 45.4045 231.666C45.2436 231.862 45.1696 232.114 45.1995 232.366L46.1207 232.256ZM98.0673 210.156L98.1484 211.081C98.6278 211.038 98.9954 210.637 98.9949 210.156L98.0673 210.156ZM49.2309 214.442L48.3032 214.443C48.3035 214.703 48.4129 214.951 48.6046 215.126C48.7964 215.302 49.053 215.389 49.312 215.366L49.2309 214.442ZM98.0449 186.059L98.9726 186.058C98.9721 185.575 98.6011 185.173 98.1196 185.134L98.0449 186.059ZM49.1969 182.111L49.2717 181.187C49.0133 181.166 48.758 181.254 48.5676 181.43C48.3772 181.606 48.269 181.853 48.2693 182.112L49.1969 182.111ZM67.5987 113.114L68.4076 112.66C68.2486 112.377 67.953 112.197 67.6283 112.187C67.3037 112.177 66.9972 112.337 66.8204 112.609L67.5987 113.114ZM48.7822 166.093L47.8865 165.851C47.8147 166.117 47.8651 166.402 48.0239 166.627C48.1828 166.852 48.4337 166.995 48.7085 167.017L48.7822 166.093ZM99.6079 170.141L99.5342 171.066C99.8758 171.093 100.204 170.929 100.389 170.641C100.574 170.352 100.585 169.985 100.417 169.687L99.6079 170.141ZM55.4706 325.465C54.8301 325.017 54.4773 324.378 54.1745 323.458L52.412 324.037C52.765 325.111 53.2847 326.201 54.4083 326.986L55.4706 325.465ZM54.0228 326.369L54.0261 326.387L55.8528 326.063L55.8496 326.045L54.0228 326.369ZM60.6272 328.117C60.2597 327.265 60.2604 327.265 60.2611 327.264C60.2613 327.264 60.262 327.264 60.2624 327.264C60.2633 327.263 60.2642 327.263 60.265 327.263C60.2667 327.262 60.2682 327.261 60.2696 327.261C60.2724 327.26 60.2748 327.259 60.2767 327.258C60.2804 327.256 60.2823 327.256 60.2822 327.256C60.2822 327.256 60.2746 327.258 60.2597 327.263C60.2299 327.272 60.1708 327.288 60.0835 327.302C59.9098 327.331 59.6203 327.355 59.2237 327.306C58.4375 327.207 57.1721 326.811 55.5167 325.483L54.3557 326.93C56.2385 328.441 57.8186 329 58.9934 329.147C59.5773 329.22 60.0471 329.189 60.3877 329.133C60.5575 329.104 60.6941 329.07 60.7959 329.039C60.8468 329.024 60.8889 329.009 60.9221 328.997C60.9387 328.991 60.9531 328.986 60.9652 328.981C60.9713 328.978 60.9767 328.976 60.9817 328.974C60.9841 328.973 60.9865 328.972 60.9886 328.971C60.9897 328.971 60.9908 328.97 60.9918 328.97C60.9923 328.97 60.9931 328.969 60.9933 328.969C60.994 328.969 60.9948 328.968 60.6272 328.117ZM64.195 324.42C63.7494 325.225 63.2721 325.801 62.6984 326.232C62.1238 326.664 61.4031 326.986 60.4192 327.213L60.8353 329.021C62.0057 328.751 62.9823 328.339 63.8126 327.715C64.6438 327.091 65.2789 326.292 65.8179 325.32L64.195 324.42ZM129.825 207.174L64.197 324.417L65.8159 325.323L131.444 208.08L129.825 207.174ZM219.975 206.807L130.635 206.7L130.633 208.555L219.973 208.663L219.975 206.807ZM287.217 206.941L219.976 206.807L219.973 208.663L287.213 208.796L287.217 206.941ZM440.895 207.075L287.216 206.941L287.214 208.796L440.893 208.931L440.895 207.075ZM447.557 207.095L440.897 207.075L440.891 208.931L447.551 208.95L447.557 207.095ZM448.994 209.044C449.119 209.044 449.224 209.043 449.299 209.039C449.318 209.038 449.345 209.036 449.374 209.033C449.388 209.031 449.461 209.024 449.546 209C449.562 208.995 449.723 208.954 449.881 208.825C449.967 208.755 450.142 208.585 450.203 208.296C450.27 207.973 450.154 207.708 450.041 207.554C449.941 207.419 449.829 207.345 449.78 207.314C449.721 207.279 449.671 207.256 449.642 207.244C449.583 207.221 449.534 207.208 449.513 207.202C449.405 207.175 449.27 207.165 449.234 207.162C449.157 207.156 449.062 207.15 448.958 207.144C448.55 207.12 447.92 207.095 447.554 207.095L447.554 208.95C447.869 208.95 448.459 208.973 448.85 208.996C448.946 209.001 449.025 209.007 449.08 209.011C449.177 209.019 449.134 209.02 449.06 209.002C449.043 208.997 448.998 208.986 448.942 208.963C448.914 208.951 448.865 208.93 448.807 208.894C448.759 208.865 448.648 208.791 448.548 208.656C448.435 208.503 448.319 208.239 448.386 207.916C448.447 207.627 448.621 207.458 448.707 207.388C448.864 207.26 449.023 207.22 449.036 207.216C449.149 207.184 449.245 207.184 449.196 207.186C449.178 207.187 449.119 207.189 448.994 207.189L448.994 209.044ZM451.5 207.189L448.994 207.189L448.994 209.044L451.5 209.044L451.5 207.189ZM457.5 207.189L451.5 207.189L451.5 209.044L457.5 209.044L457.5 207.189ZM464.494 207.189L457.5 207.189L457.5 209.044L464.494 209.044L464.494 207.189ZM472.5 207.072C469.088 207.072 467.483 207.072 464.458 207.19L464.53 209.044C467.517 208.928 469.091 208.928 472.5 208.928L472.5 207.072ZM479.395 207.08C478.135 207.072 478.125 207.072 472.5 207.072L472.5 208.928C478.127 208.928 478.131 208.928 479.384 208.935L479.395 207.08ZM480.097 207.084L479.395 207.08L479.384 208.935L480.086 208.939L480.097 207.084ZM484.486 207.095L480.093 207.084L480.089 208.939L484.481 208.95L484.486 207.095ZM483.572 168.127L483.556 208.022L485.411 208.023L485.428 168.127L483.572 168.127ZM126.461 168.631L484.499 169.055L484.501 167.199L126.463 166.775L126.461 168.631ZM73.109 82.9834C86.1596 104.355 120.13 159.265 125.674 168.192L127.25 167.213C121.707 158.287 87.7393 103.382 74.6924 82.0165L73.109 82.9834ZM63.2392 83.2452C65.3226 79.3749 70.8207 79.2251 73.1083 82.9824L74.6931 82.0175C71.659 77.0343 64.3677 77.2346 61.6055 82.3658L63.2392 83.2452ZM45.559 118.604C50.8067 106.588 56.9647 94.9117 63.2394 83.2449L61.6054 82.3661C55.3299 94.0343 49.1397 105.77 43.8587 117.861L45.559 118.604ZM32.4152 166.576C34.3894 150.054 38.817 134.049 45.5591 118.604L43.8586 117.861C37.0469 133.467 32.5694 149.647 30.5729 166.355L32.4152 166.576ZM37.379 266.84C30.8769 233.945 28.4745 199.781 32.4153 166.575L30.5728 166.356C26.6047 199.793 29.0274 234.156 35.5588 267.199L37.379 266.84ZM54.171 323.447C48.7983 307.749 40.4856 282.532 37.3789 266.839L35.5589 267.2C38.6942 283.036 47.0515 308.375 52.4156 324.048L54.171 323.447ZM61.264 301.045L100.552 228.695L98.9217 227.809L59.6336 300.159L61.264 301.045ZM46.1207 232.256C45.1995 232.366 45.1995 232.366 45.1996 232.366C45.1996 232.367 45.1997 232.367 45.1998 232.368C45.2 232.37 45.2003 232.372 45.2007 232.376C45.2015 232.382 45.2026 232.392 45.2042 232.405C45.2073 232.43 45.2118 232.468 45.2179 232.519C45.2301 232.619 45.2482 232.768 45.2722 232.963C45.3202 233.353 45.3915 233.926 45.4851 234.661C45.6724 236.13 45.9488 238.247 46.3057 240.836C47.0194 246.013 48.0554 253.083 49.3442 260.649C50.6327 268.214 52.1755 276.285 53.9038 283.463C55.627 290.619 57.5515 296.961 59.6223 301.023L61.2753 300.181C59.3114 296.329 57.4275 290.171 55.7076 283.028C53.9929 275.907 52.4581 267.881 51.1732 260.338C49.8887 252.796 48.8556 245.747 48.1437 240.582C47.7877 238.001 47.5122 235.89 47.3256 234.426C47.2323 233.694 47.1613 233.124 47.1137 232.736C47.0898 232.543 47.0718 232.395 47.0598 232.296C47.0538 232.246 47.0493 232.208 47.0463 232.183C47.0448 232.171 47.0437 232.161 47.0429 232.155C47.0426 232.152 47.0423 232.15 47.0421 232.148C47.042 232.148 47.0419 232.147 47.0419 232.147C47.0419 232.146 47.0418 232.146 46.1207 232.256ZM99.6678 227.327L46.0516 231.331L46.1898 233.181L99.806 229.177L99.6678 227.327ZM97.9862 209.232L49.1498 213.518L49.312 215.366L98.1484 211.081L97.9862 209.232ZM97.1172 186.06L97.1396 210.157L98.9949 210.156L98.9726 186.058L97.1172 186.06ZM49.1222 183.036L97.9702 186.983L98.1196 185.134L49.2717 181.187L49.1222 183.036ZM50.1586 214.441L50.1246 182.11L48.2693 182.112L48.3032 214.443L50.1586 214.441ZM66.8204 112.609C64.8258 115.684 62.6522 120.567 60.5226 126.1C58.386 131.651 56.27 137.919 54.3995 143.803C52.5285 149.689 50.9006 155.2 49.7406 159.239C49.1605 161.259 48.6972 162.911 48.3788 164.058C48.2197 164.632 48.0967 165.08 48.0135 165.384C47.9719 165.537 47.9402 165.653 47.9189 165.731C47.9082 165.771 47.9002 165.801 47.8947 165.821C47.892 165.831 47.89 165.838 47.8886 165.843C47.8879 165.846 47.8874 165.848 47.8871 165.849C47.8869 165.85 47.8867 165.85 47.8867 165.85C47.8866 165.851 47.8865 165.851 48.7822 166.093C49.6779 166.334 49.6779 166.334 49.678 166.334C49.678 166.333 49.6782 166.333 49.6783 166.332C49.6786 166.331 49.6791 166.329 49.6798 166.327C49.6811 166.322 49.6831 166.315 49.6857 166.305C49.691 166.286 49.6989 166.256 49.7094 166.218C49.7305 166.14 49.7619 166.025 49.8032 165.873C49.8858 165.571 50.0082 165.126 50.1667 164.554C50.4837 163.411 50.9455 161.765 51.5238 159.751C52.6807 155.723 54.3035 150.23 56.1677 144.365C58.0324 138.499 60.136 132.269 62.2542 126.766C64.3794 121.245 66.4957 116.519 68.3769 113.619L66.8204 112.609ZM100.417 169.687L68.4076 112.66L66.7897 113.568L98.7989 170.595L100.417 169.687ZM48.7085 167.017L99.5342 171.066L99.6815 169.216L48.8558 165.168L48.7085 167.017Z" fill="#0A2973"/>
</svg>
