<svg width="742" height="217" viewBox="0 0 742 217" fill="none" xmlns="http://www.w3.org/2000/svg">
<path d="M735.836 201.119V181.958H731.162V174.987C731.162 168.856 726.62 163.777 720.711 162.958V162.735C720.711 155.239 714.611 149.148 707.124 149.148H706.669C699.172 149.148 693.082 155.249 693.082 162.735V187.32H686.445V161.177C686.445 159.468 685.535 157.98 684.179 157.161C685.767 156.696 686.931 155.229 686.931 153.488C686.931 151.374 685.211 149.654 683.096 149.654H680.021V146.083H675.256V149.654H672.17C670.056 149.654 668.336 151.364 668.336 153.488C668.336 155.229 669.499 156.696 671.088 157.161C669.732 157.991 668.821 159.478 668.821 161.177V187.32H662.367V163.302C662.367 162.047 661.355 161.036 660.101 161.036H655.497V136.462C655.497 131.97 651.835 128.307 647.343 128.307V127.953C647.343 121.327 641.971 115.955 635.355 115.955C628.738 115.955 623.356 121.327 623.356 127.953V201.129H617.316V216.598H741.906V201.129H735.866L735.836 201.119ZM697.604 162.725C697.604 157.727 701.671 153.66 706.659 153.66H707.114C712.112 153.66 716.169 157.727 716.169 162.725V163.16C710.827 164.435 706.841 169.241 706.841 174.977V181.947H702.167V187.309H697.604V162.725ZM702.167 191.842V201.119H697.604V191.842H702.167ZM693.072 191.842V201.119H686.435V191.842H693.072ZM657.814 165.558V189.576C657.814 190.83 658.826 191.842 660.08 191.842H668.801V201.119H655.477V165.558H657.814ZM647.323 132.83C649.326 132.83 650.955 134.458 650.955 136.462V161.036H647.323V132.83ZM647.323 165.558H650.955V201.119H647.323V165.558Z" fill="#EEF3F9"/>
<path d="M0 197.048V216.098H153.383V197.048H145.947V106.966C145.947 98.8122 139.341 92.1957 131.176 92.1957C123.012 92.1957 116.406 98.8122 116.406 106.966V107.402C110.872 107.402 106.37 111.904 106.37 117.448V147.707H100.704C99.1663 147.707 97.9118 148.952 97.9118 150.49V180.061H89.97V147.879C89.97 145.785 88.847 143.944 87.1777 142.932C89.1303 142.356 90.5669 140.555 90.5669 138.41C90.5669 135.8 88.4525 133.695 85.8524 133.695H82.0586V129.295H76.1907V133.695H72.3969C69.7867 133.695 67.6723 135.81 67.6723 138.41C67.6723 140.555 69.0988 142.356 71.0614 142.932C69.382 143.954 68.2692 145.785 68.2692 147.879V180.061H60.1048V149.792C60.1048 140.565 52.598 133.068 43.3815 133.068H42.825C33.5984 133.068 26.0916 140.575 26.0916 149.792V150.065C18.8175 151.087 13.2229 157.329 13.2229 164.876V173.465H7.44607V197.058H0V197.048ZM54.5 180.051H48.8851V173.455H43.1286V164.866C43.1286 157.804 38.232 151.886 31.6559 150.318V149.781C31.6559 143.63 36.6537 138.633 42.8048 138.633H43.3612C49.5123 138.633 54.5101 143.64 54.5101 149.781V180.051H54.5ZM54.5 185.626V197.048H48.8851V185.626H54.5ZM68.2388 185.626V197.048H60.0744V185.626H68.2388ZM106.359 153.272V197.048H89.9599V185.626H100.694C102.232 185.626 103.486 184.381 103.486 182.844V153.282H106.37L106.359 153.272ZM116.396 147.697H111.934V117.438C111.934 114.979 113.937 112.966 116.396 112.966V147.687V147.697ZM116.396 197.048H111.934V153.272H116.396V197.048Z" fill="#EEF3F9"/>
<path d="M561.035 84.0417V31.2919C561.035 27.1743 557.687 23.8357 553.579 23.8357H542.481C538.363 23.8357 535.025 27.1844 535.025 31.2919V36.9068H533.315C529.329 36.9068 526.091 40.1442 526.091 44.1303V68.1884H510.825V78.9832H526.091V115.617H510.825V126.422H526.091V216.088H548.217V166.12H556.786V216.088H561.045V166.12H563.484V155.326H561.045V94.8364H563.484V84.0417H561.045H561.035ZM514.396 75.1792H511.928V69.3215H514.396V75.1792ZM517.978 75.1792H515.509V69.3215H517.978V75.1792ZM521.559 75.1792H519.091V69.3215H521.559V75.1792ZM514.386 122.607H511.918V116.75H514.386V122.607ZM517.968 122.607H515.499V116.75H517.968V122.607ZM521.549 122.607H519.08V116.75H521.549V122.607ZM526.061 122.607H522.662V116.75H526.061V122.607ZM526.061 75.1792H522.662V69.3215H526.061V75.1792ZM556.756 91.0223H556.28V85.1646H556.756V91.0223ZM540.963 36.927H539.254V31.3121C539.254 29.5518 540.69 28.1152 542.451 28.1152H553.549C555.309 28.1152 556.746 29.5518 556.746 31.3121V84.0619H548.177V44.1404C548.177 40.1442 544.939 36.9169 540.953 36.9169L540.963 36.927ZM555.168 85.1748V91.0325H552.699V85.1748H555.168ZM551.586 85.1748V91.0325H548.187V85.1748H551.586ZM551.586 162.327H548.187V156.469H551.586V162.327ZM555.168 162.327H552.699V156.469H555.168V162.327ZM556.28 162.327V156.469H556.756V162.327H556.28ZM562.33 156.469V162.327H561.005V156.469H562.33ZM548.177 155.356V94.8668H556.746V155.356H548.177ZM562.33 91.0325H561.005V85.1748H562.33V91.0325Z" fill="#EEF3F9"/>
<path d="M211.95 103.011V57.8487C211.95 54.328 209.087 51.4649 205.566 51.4649H196.056C192.536 51.4649 189.662 54.328 189.662 57.8487V62.6644H188.195C184.776 62.6644 182.004 65.4364 182.004 68.856V89.4642H168.933V98.7111H182.004V130.084H168.933V139.331H182.004V216.108H200.953V173.324H208.288V216.108H211.94V173.324H214.024V164.077H211.94V112.278H214.024V103.031H211.94L211.95 103.011ZM172.008 95.4231H169.894V90.4051H172.008V95.4231ZM175.074 95.4231H172.959V90.4051H175.074V95.4231ZM178.139 95.4231H176.025V90.4051H178.139V95.4231ZM171.998 136.043H169.884V131.025H171.998V136.043ZM175.064 136.043H172.949V131.025H175.064V136.043ZM178.129 136.043H176.015V131.025H178.129V136.043ZM181.994 136.043H179.09V131.025H181.994V136.043ZM181.994 95.4231H179.09V90.4051H181.994V95.4231ZM208.278 108.99H207.873V103.982H208.278V108.99ZM194.751 62.6644H193.284V57.8487C193.284 56.3413 194.508 55.107 196.026 55.107H205.536C207.043 55.107 208.278 56.3312 208.278 57.8487V103.011H200.943V68.8459C200.943 65.4263 198.171 62.6543 194.751 62.6543V62.6644ZM206.912 103.972V108.98H204.797V103.972H206.912ZM203.846 103.972V108.98H200.943V103.972H203.846ZM203.846 170.036H200.943V165.018H203.846V170.036ZM206.912 170.036H204.797V165.018H206.912V170.036ZM207.873 170.036V165.018H208.278V170.036H207.873ZM213.053 165.018V170.036H211.92V165.018H213.053ZM200.933 164.056V112.258H208.267V164.056H200.933ZM213.053 108.98H211.92V103.972H213.053V108.98Z" fill="#EEF3F9"/>
<path d="M697.948 103.011V57.8487C697.948 54.328 695.085 51.4649 691.564 51.4649H682.054C678.534 51.4649 675.671 54.328 675.671 57.8487V62.6644H674.204C670.784 62.6644 668.012 65.4364 668.012 68.856V89.4642H654.941V98.7111H668.012V130.084H654.941V139.331H668.012V216.108H686.961V173.324H694.296V216.108H697.948V173.324H700.032V164.077H697.948V112.278H700.032V103.031H697.948V103.011ZM658.006 95.4231H655.892V90.4051H658.006V95.4231ZM661.072 95.4231H658.957V90.4051H661.072V95.4231ZM664.137 95.4231H662.023V90.4051H664.137V95.4231ZM657.996 136.043H655.882V131.025H657.996V136.043ZM661.062 136.043H658.947V131.025H661.062V136.043ZM664.127 136.043H662.013V131.025H664.127V136.043ZM667.992 136.043H665.088V131.025H667.992V136.043ZM667.992 95.4231H665.088V90.4051H667.992V95.4231ZM694.276 108.99H693.871V103.982H694.276V108.99ZM680.749 62.6644H679.282V57.8487C679.282 56.3413 680.517 55.107 682.024 55.107H691.534C693.041 55.107 694.276 56.3312 694.276 57.8487V103.011H686.941V68.8459C686.941 65.4263 684.169 62.6543 680.749 62.6543V62.6644ZM692.91 103.972V108.98H690.795V103.972H692.91ZM689.844 103.972V108.98H686.941V103.972H689.844ZM689.844 170.036H686.941V165.018H689.844V170.036ZM692.91 170.036H690.795V165.018H692.91V170.036ZM693.871 170.036V165.018H694.276V170.036H693.871ZM699.051 165.018V170.036H697.918V165.018H699.051ZM686.931 164.056V112.258H694.265V164.056H686.931ZM699.051 108.98H697.918V103.972H699.051V108.98Z" fill="#EEF3F9"/>
<path d="M454.231 103.011V57.8487C454.231 54.328 451.368 51.4649 447.847 51.4649H438.337C434.816 51.4649 431.953 54.328 431.953 57.8487V62.6644H430.486C427.067 62.6644 424.295 65.4364 424.295 68.856V89.4642H411.224V98.7111H424.295V130.084H411.224V139.331H424.295V216.108H443.244V173.324H450.579V216.108H454.231V173.324H456.315V164.077H454.231V112.278H456.315V103.031H454.231V103.011ZM414.289 95.4231H412.175V90.4051H414.289V95.4231ZM417.355 95.4231H415.24V90.4051H417.355V95.4231ZM420.42 95.4231H418.305V90.4051H420.42V95.4231ZM414.279 136.043H412.165V131.025H414.279V136.043ZM417.344 136.043H415.23V131.025H417.344V136.043ZM420.41 136.043H418.295V131.025H420.41V136.043ZM424.274 136.043H421.371V131.025H424.274V136.043ZM424.274 95.4231H421.371V90.4051H424.274V95.4231ZM450.558 108.99H450.154V103.982H450.558V108.99ZM437.032 62.6644H435.565V57.8487C435.565 56.3413 436.789 55.107 438.307 55.107H447.817C449.324 55.107 450.558 56.3312 450.558 57.8487V103.011H443.224V68.8459C443.224 65.4263 440.452 62.6543 437.032 62.6543V62.6644ZM449.203 103.972V108.98H447.088V103.972H449.203ZM446.127 103.972V108.98H443.224V103.972H446.127ZM446.127 170.036H443.224V165.018H446.127V170.036ZM449.203 170.036H447.088V165.018H449.203V170.036ZM450.154 170.036V165.018H450.558V170.036H450.154ZM455.334 165.018V170.036H454.2V165.018H455.334ZM443.213 164.056V112.258H450.548V164.056H443.213ZM455.334 108.98H454.2V103.972H455.334V108.98Z" fill="#EEF3F9"/>
<path d="M418.761 111.732V107.321H421.776C422.565 107.321 423.212 106.683 423.212 105.884C423.212 105.085 422.565 104.447 421.776 104.447H418.761V103.365C418.761 102.06 417.708 101.008 416.403 101.008H409.625C408.32 101.008 407.268 102.06 407.268 103.365V104.447H404.253C403.464 104.447 402.816 105.095 402.816 105.884C402.816 106.673 403.464 107.321 404.253 107.321H407.268V111.732C375.814 112.339 351.179 117.883 351.179 124.641V216.098H474.859V124.641C474.859 117.893 450.224 112.349 418.771 111.732H418.761Z" fill="#EEF3F9"/>
<path d="M332.413 216.098H315.558L316.883 0H331.087L332.413 216.098Z" fill="#EEF3F9"/>
<path d="M300.008 216.098H289.324L290.164 40.0833H299.168L300.008 216.098Z" fill="#EEF3F9"/>
<path d="M495.457 216.098H484.784L485.624 40.0833H494.618L495.457 216.098Z" fill="#EEF3F9"/>
<path d="M264.012 216.098H253.328L254.168 69.2302H263.172L264.012 216.098Z" fill="#EEF3F9"/>
<path d="M597.76 216.098H587.076L587.926 69.2302H596.92L597.76 216.098Z" fill="#EEF3F9"/>
<path d="M390.717 118.874H331.249V123.579H331.168V118.874H271.701V123.579H271.62V118.874H156.519V123.579V124.57L156.438 124.712L156.519 124.762V153.545L156.438 153.596L156.519 153.737V212.689H163.186V159.433H209.31V212.689H215.977V159.433H268.281V212.689H274.948V159.433H327.83V212.689H334.497V159.433H387.378V212.689H394.045V118.874H390.706H390.717ZM163.186 124.165H206.983L185.039 136.943L163.186 124.216V124.165ZM268.281 153.019L244.486 139.159L268.281 125.298V153.009V153.019ZM240.672 136.943L218.728 124.165H262.616L240.672 136.943ZM236.868 139.159L215.977 151.329V126.998L236.868 139.169V139.159ZM209.31 127.241V151.076L188.843 139.159L209.31 127.241ZM240.672 141.374L262.616 154.152H218.728L240.672 141.374ZM327.819 153.019L304.024 139.159L327.819 125.298V153.009V153.019ZM300.21 136.943L278.267 124.165H322.154L300.21 136.943ZM274.938 126.654L296.406 139.159L274.938 151.663V126.664V126.654ZM300.21 141.374L322.154 154.152H278.267L300.21 141.374ZM387.358 153.019L363.563 139.159L387.358 125.298V153.009V153.019ZM359.749 136.943L337.805 124.165H381.692L359.749 136.943ZM334.476 126.654L355.945 139.159L334.476 151.663V126.664V126.654ZM359.749 141.374L381.692 154.152H337.805L359.749 141.374ZM163.166 128.647L181.215 139.159L163.166 149.67V128.647ZM163.166 154.101L185.019 141.374L206.962 154.152H163.166V154.101Z" fill="#EEF3F9"/>
<path d="M652.917 118.874H593.45V123.579H593.369V118.874H533.902V123.579H533.821V118.874H418.72V123.579V124.57L418.639 124.712L418.72 124.762V153.545L418.639 153.596L418.72 153.737V212.689H425.387V159.433H471.51V212.689H478.178V159.433H530.482V212.689H537.149V159.433H590.031V212.689H596.698V159.433H649.579V212.689H656.246V118.874H652.907H652.917ZM425.387 124.165H469.184L447.24 136.943L425.387 124.216V124.165ZM530.482 153.019L506.687 139.159L530.482 125.298V153.009V153.019ZM502.873 136.943L480.929 124.165H524.817L502.873 136.943ZM499.069 139.159L478.178 151.329V126.998L499.069 139.169V139.159ZM471.51 127.241V151.076L451.044 139.159L471.51 127.241ZM502.873 141.374L524.817 154.152H480.929L502.873 141.374ZM590.02 153.019L566.225 139.159L590.02 125.298V153.009V153.019ZM562.411 136.943L540.468 124.165H584.355L562.411 136.943ZM537.139 126.654L558.607 139.159L537.139 151.663V126.664V126.654ZM562.411 141.374L584.355 154.152H540.468L562.411 141.374ZM649.559 153.019L625.764 139.159L649.559 125.298V153.009V153.019ZM621.96 136.943L600.016 124.165H643.903L621.96 136.943ZM596.687 126.654L618.156 139.159L596.687 151.663V126.664V126.654ZM621.96 141.374L643.903 154.152H600.016L621.96 141.374ZM425.367 128.647L443.416 139.159L425.367 149.67V128.647ZM425.367 154.101L447.22 141.374L469.163 154.152H425.367V154.101Z" fill="#EEF3F9"/>
</svg>
